<svg xmlns="http://www.w3.org/2000/svg" width="420mm" height="297mm" viewBox="0 0 420 297"><rect x="0" y="0" width="420" height="297" fill="white" stroke="none"/><rect x="10" y="10" width="400" height="277" fill="none" stroke="black" stroke-width="0.18"/><text x="15" y="19" font-size="2.5" text-anchor="start" font-family="sans-serif" stroke="none" fill="black">REL-003 — i simboli nuovi accanto a quelli di oggi · scala reale: 1 mm del foglio = 1 mm della tavola · proposta del 24 settembre 2026, da approvare</text><text x="80" y="26" font-size="2.5" text-anchor="start" font-family="sans-serif" stroke="none" fill="black">oggi</text><text x="160" y="26" font-size="2.5" text-anchor="start" font-family="sans-serif" stroke="none" fill="black">nuovo</text><text x="15" y="33.8" font-size="2.5" text-anchor="start" font-family="sans-serif" stroke="none" fill="black">Pompa di calore aria-acqua</text><g transform="translate(80 32) scale(1)" stroke="black" stroke-width="0.35" fill="none"><rect x="2.4" y="3" width="35.2" height="24"/><circle cx="14.368" cy="15" r="7.2"/><line x1="14.368" y1="15" x2="14.368" y2="9.6"/><line x1="14.368" y1="15" x2="9.688" y2="17.736"/><line x1="14.368" y1="15" x2="19.048" y2="17.736"/><line x1="24.224" y1="6.6" x2="24.224" y2="23.4"/><line x1="27.392" y1="6.6" x2="27.392" y2="23.4"/><line x1="30.56" y1="6.6" x2="30.56" y2="23.4"/><line x1="33.728" y1="6.6" x2="33.728" y2="23.4"/><line x1="40" y1="5" x2="37.6" y2="5"/><line x1="40" y1="20" x2="37.6" y2="20"/><circle cx="40" cy="5" r="0.6" fill="black" stroke="none"/><circle cx="40" cy="20" r="0.6" fill="black" stroke="none"/></g><text x="80" y="65.3" font-size="1.8" text-anchor="start" font-family="sans-serif" stroke="none" fill="black">Pompa di calore aria-acqua — 40 × 30 mm</text><g transform="translate(160 32) scale(1)" stroke="black" stroke-width="0.35" fill="none"><rect x="2.4" y="3" width="55.2" height="24"/><line x1="40.488" y1="3" x2="40.488" y2="27"/><rect x="4.9" y="5.5" width="33.088" height="19"/><line x1="4.9" y1="7.4" x2="37.988" y2="7.4"/><line x1="4.9" y1="9.3" x2="37.988" y2="9.3"/><line x1="4.9" y1="11.2" x2="37.988" y2="11.2"/><line x1="4.9" y1="13.1" x2="37.988" y2="13.1"/><line x1="4.9" y1="15" x2="37.988" y2="15"/><line x1="4.9" y1="16.9" x2="37.988" y2="16.9"/><line x1="4.9" y1="18.8" x2="37.988" y2="18.8"/><line x1="4.9" y1="20.7" x2="37.988" y2="20.7"/><line x1="4.9" y1="22.6" x2="37.988" y2="22.6"/><path d="M5.8279 3 L5.8279 1.8 L10.2842 1.8 L10.2842 0.8 L15.0833 0.8 L15.0833 1.8 L19.5396 1.8 L19.5396 3"/><path d="M23.3484 3 L23.3484 1.8 L27.8047 1.8 L27.8047 0.8 L32.6038 0.8 L32.6038 1.8 L37.0601 1.8 L37.0601 3"/><line x1="60" y1="5" x2="57.6" y2="5"/><line x1="60" y1="20" x2="57.6" y2="20"/><circle cx="60" cy="5" r="0.6" fill="black" stroke="none"/><circle cx="60" cy="20" r="0.6" fill="black" stroke="none"/></g><text x="160" y="65.3" font-size="1.8" text-anchor="start" font-family="sans-serif" stroke="none" fill="black">Pompa di calore aria-acqua di alta potenza — 60 × 30 mm</text><text x="15" y="77.8" font-size="2.5" text-anchor="start" font-family="sans-serif" stroke="none" fill="black">Caldaia a condensazione</text><g transform="translate(80 76) scale(1)" stroke="black" stroke-width="0.35" fill="none"><rect x="2.4" y="3" width="35.2" height="24" rx="1.5"/><rect x="8.736" y="5.88" width="22.528" height="7.2"/><path d="M20 15.9 Q23.12 19.8 20 23.7 Q16.88 19.8 20 15.9 Z"/><line x1="40" y1="5" x2="37.6" y2="5"/><line x1="40" y1="20" x2="37.6" y2="20"/><circle cx="40" cy="5" r="0.6" fill="black" stroke="none"/><circle cx="40" cy="20" r="0.6" fill="black" stroke="none"/></g><text x="80" y="109.3" font-size="1.8" text-anchor="start" font-family="sans-serif" stroke="none" fill="black">Caldaia a condensazione — 40 × 30 mm</text><g transform="translate(160 76) scale(1)" stroke="black" stroke-width="0.35" fill="none"><rect x="2.4" y="2" width="55.2" height="21" rx="1.5"/><rect x="7.5" y="7.5" width="11" height="10" rx="0.6"/><line x1="7.5" y1="14.4" x2="18.5" y2="14.4"/><path d="M9.315 14.4 L13 12.4101 L16.685 14.4"/><line x1="13" y1="7.5" x2="13" y2="5"/><line x1="13" y1="17.5" x2="13" y2="20"/><rect x="21.5" y="7.5" width="11" height="10" rx="0.6"/><line x1="21.5" y1="14.4" x2="32.5" y2="14.4"/><path d="M23.315 14.4 L27 12.4101 L30.685 14.4"/><line x1="27" y1="7.5" x2="27" y2="5"/><line x1="27" y1="17.5" x2="27" y2="20"/><rect x="35.5" y="7.5" width="11" height="10" rx="0.6"/><line x1="35.5" y1="14.4" x2="46.5" y2="14.4"/><path d="M37.315 14.4 L41 12.4101 L44.685 14.4"/><line x1="41" y1="7.5" x2="41" y2="5"/><line x1="41" y1="17.5" x2="41" y2="20"/><line x1="60" y1="5" x2="13" y2="5"/><line x1="60" y1="20" x2="13" y2="20"/><circle cx="60" cy="5" r="0.6" fill="black" stroke="none"/><circle cx="60" cy="20" r="0.6" fill="black" stroke="none"/></g><text x="160" y="104.3" font-size="1.8" text-anchor="start" font-family="sans-serif" stroke="none" fill="black">Caldaia modulare a condensazione — 60 × 25 mm</text><text x="15" y="121.8" font-size="2.5" text-anchor="start" font-family="sans-serif" stroke="none" fill="black">Solare termico — collettore</text><text x="80" y="121.8" font-size="1.8" text-anchor="start" font-family="sans-serif" stroke="none" fill="black">— (non c'è)</text><g transform="translate(160 120) scale(1)" stroke="black" stroke-width="0.35" fill="none"><path d="M11.6281 16.2794 L13.3719 18.7206 L30.8719 6.2206 L29.1281 3.7794 Z"/><line x1="40" y1="5" x2="30" y2="5"/><path d="M40 20 L12.5 20 L12.5 17.5"/><circle cx="7.6" cy="7.5" r="2"/><line x1="10.4" y1="7.5" x2="11.6" y2="7.5"/><line x1="9.5799" y1="9.4799" x2="10.4284" y2="10.3284"/><line x1="7.6" y1="10.3" x2="7.6" y2="11.5"/><line x1="5.6201" y1="9.4799" x2="4.7716" y2="10.3284"/><line x1="4.8" y1="7.5" x2="3.6" y2="7.5"/><line x1="5.6201" y1="5.5201" x2="4.7716" y2="4.6716"/><line x1="7.6" y1="4.7" x2="7.6" y2="3.5"/><line x1="9.5799" y1="5.5201" x2="10.4284" y2="4.6716"/><circle cx="40" cy="5" r="0.6" fill="black" stroke="none"/><circle cx="40" cy="20" r="0.6" fill="black" stroke="none"/></g><text x="160" y="148.3" font-size="1.8" text-anchor="start" font-family="sans-serif" stroke="none" fill="black">Collettore solare — 40 × 25 mm</text><text x="15" y="160.8" font-size="2.5" text-anchor="start" font-family="sans-serif" stroke="none" fill="black">Bollitore ACS</text><g transform="translate(80 159) scale(1)" stroke="black" stroke-width="0.35" fill="none"><rect x="3.5" y="2.7" width="18" height="39.6" rx="3.24"/><path class="coil" data-from="coil_in" data-to="coil_out" d="M0 7.5 L7.1 7.5 L17.9 7.5 L17.9 10 L7.1 10 L7.1 12.5 L17.9 12.5 L17.9 15 L7.1 15 L7.1 17.5 L0 17.5"/><line x1="7.5" y1="0" x2="7.5" y2="2.7"/><line x1="0" y1="37.5" x2="3.5" y2="37.5"/><line x1="25" y1="20" x2="21.5" y2="20"/><line x1="25" y1="12.5" x2="21.5" y2="12.5"/><circle cx="0" cy="7.5" r="0.6" fill="black" stroke="none"/><circle cx="0" cy="17.5" r="0.6" fill="black" stroke="none"/><circle cx="7.5" cy="0" r="0.6" fill="black" stroke="none"/><circle cx="0" cy="37.5" r="0.6" fill="black" stroke="none"/><circle cx="25" cy="20" r="0.6" fill="black" stroke="none"/><circle cx="25" cy="12.5" r="0.6" fill="black" stroke="none"/></g><text x="80" y="207.3" font-size="1.8" text-anchor="start" font-family="sans-serif" stroke="none" fill="black">Bollitore ACS — 25 × 45 mm</text><g transform="translate(160 159) scale(1)" stroke="black" stroke-width="0.35" fill="none"><rect x="3.5" y="3.3" width="18" height="48.4" rx="3.24"/><path class="coil" data-from="coil_in" data-to="coil_out" d="M0 7.5 L7.1 7.5 L17.9 7.5 L17.9 10 L7.1 10 L7.1 12.5 L17.9 12.5 L17.9 15 L7.1 15 L7.1 17.5 L0 17.5"/><path class="coil" data-from="solar_coil_in" data-to="solar_coil_out" d="M0 27.5 L7.1 27.5 L17.9 27.5 L17.9 30 L7.1 30 L7.1 32.5 L17.9 32.5 L17.9 35 L7.1 35 L7.1 37.5 L0 37.5"/><line x1="7.5" y1="0" x2="7.5" y2="3.3"/><line x1="0" y1="47.5" x2="3.5" y2="47.5"/><line x1="25" y1="20" x2="21.5" y2="20"/><line x1="25" y1="12.5" x2="21.5" y2="12.5"/><circle cx="0" cy="7.5" r="0.6" fill="black" stroke="none"/><circle cx="0" cy="17.5" r="0.6" fill="black" stroke="none"/><circle cx="0" cy="27.5" r="0.6" fill="black" stroke="none"/><circle cx="0" cy="37.5" r="0.6" fill="black" stroke="none"/><circle cx="7.5" cy="0" r="0.6" fill="black" stroke="none"/><circle cx="0" cy="47.5" r="0.6" fill="black" stroke="none"/><circle cx="25" cy="20" r="0.6" fill="black" stroke="none"/><circle cx="25" cy="12.5" r="0.6" fill="black" stroke="none"/></g><text x="160" y="217.3" font-size="1.8" text-anchor="start" font-family="sans-serif" stroke="none" fill="black">Bollitore ACS a due serpentini — 25 × 55 mm</text><text x="15" y="229.8" font-size="2.5" text-anchor="start" font-family="sans-serif" stroke="none" fill="black">Ventilconvettore</text><g transform="translate(80 228) scale(1)" stroke="black" stroke-width="0.35" fill="none"><rect x="2" y="2.25" width="16" height="10.5"/><line x1="4.4" y1="2.25" x2="4.4" y2="12.75"/><line x1="6.8" y1="2.25" x2="6.8" y2="12.75"/><line x1="9.2" y1="2.25" x2="9.2" y2="12.75"/><circle cx="14" cy="7.5" r="3.15"/><line x1="14" y1="7.5" x2="14" y2="5.1375"/><line x1="14" y1="7.5" x2="11.9525" y2="8.697"/><line x1="14" y1="7.5" x2="16.0475" y2="8.697"/><line x1="0" y1="2.5" x2="2" y2="2.5"/><line x1="0" y1="12.5" x2="2" y2="12.5"/><circle cx="0" cy="2.5" r="0.6" fill="black" stroke="none"/><circle cx="0" cy="12.5" r="0.6" fill="black" stroke="none"/></g><text x="80" y="246.3" font-size="1.8" text-anchor="start" font-family="sans-serif" stroke="none" fill="black">Ventilconvettore — 20 × 15 mm</text><g transform="translate(160 228) scale(1)" stroke="black" stroke-width="0.35" fill="none"><rect x="2" y="2.25" width="16" height="10.5"/><line x1="4.4" y1="2.25" x2="4.4" y2="12.75"/><line x1="6.8" y1="2.25" x2="6.8" y2="12.75"/><line x1="9.2" y1="2.25" x2="9.2" y2="12.75"/><circle cx="14" cy="7.5" r="3.15"/><line x1="14" y1="7.5" x2="14" y2="5.1375"/><line x1="14" y1="7.5" x2="11.9525" y2="8.697"/><line x1="14" y1="7.5" x2="16.0475" y2="8.697"/><path d="M5.2 2.25 L5.2 0.225 L14.8 0.225 L14.8 2.25"/><path d="M5.2 12.75 L5.2 14.775 L14.8 14.775 L14.8 12.75"/><line x1="0" y1="2.5" x2="2" y2="2.5"/><line x1="0" y1="12.5" x2="2" y2="12.5"/><circle cx="0" cy="2.5" r="0.6" fill="black" stroke="none"/><circle cx="0" cy="12.5" r="0.6" fill="black" stroke="none"/></g><text x="160" y="246.3" font-size="1.8" text-anchor="start" font-family="sans-serif" stroke="none" fill="black">Ventilconvettore canalizzato — 20 × 15 mm</text></svg>