  0
SECTION
  2
HEADER
  9
$ACADVER
  1
AC1027
  9
$ACADMAINTVER
 70
105
  9
$DWGCODEPAGE
  3
ANSI_1252
  9
$LASTSAVEDBY
  1
ezdxf
  9
$REQUIREDVERSIONS
160
0
  9
$INSBASE
 10
0.0
 20
0.0
 30
0.0
  9
$EXTMIN
 10
1e+20
 20
1e+20
 30
1e+20
  9
$EXTMAX
 10
-1e+20
 20
-1e+20
 30
-1e+20
  9
$LIMMIN
 10
0.0
 20
0.0
  9
$LIMMAX
 10
420.0
 20
297.0
  9
$ORTHOMODE
 70
0
  9
$REGENMODE
 70
1
  9
$FILLMODE
 70
1
  9
$QTEXTMODE
 70
0
  9
$MIRRTEXT
 70
1
  9
$LTSCALE
 40
1.0
  9
$ATTMODE
 70
1
  9
$TEXTSIZE
 40
2.5
  9
$TRACEWID
 40
1.0
  9
$TEXTSTYLE
  7
NOVEC_ARIAL
  9
$CLAYER
  8
0
  9
$CELTYPE
  6
ByLayer
  9
$CECOLOR
 62
256
  9
$CELTSCALE
 40
1.0
  9
$DISPSILH
 70
0
  9
$DIMSCALE
 40
1.0
  9
$DIMASZ
 40
2.5
  9
$DIMEXO
 40
0.625
  9
$DIMDLI
 40
3.75
  9
$DIMRND
 40
0.0
  9
$DIMDLE
 40
0.0
  9
$DIMEXE
 40
1.25
  9
$DIMTP
 40
0.0
  9
$DIMTM
 40
0.0
  9
$DIMTXT
 40
2.5
  9
$DIMCEN
 40
2.5
  9
$DIMTSZ
 40
0.0
  9
$DIMTOL
 70
0
  9
$DIMLIM
 70
0
  9
$DIMTIH
 70
0
  9
$DIMTOH
 70
0
  9
$DIMSE1
 70
0
  9
$DIMSE2
 70
0
  9
$DIMTAD
 70
1
  9
$DIMZIN
 70
8
  9
$DIMBLK
  1

  9
$DIMASO
 70
1
  9
$DIMSHO
 70
1
  9
$DIMPOST
  1

  9
$DIMAPOST
  1

  9
$DIMALT
 70
0
  9
$DIMALTD
 70
3
  9
$DIMALTF
 40
0.03937007874
  9
$DIMLFAC
 40
1.0
  9
$DIMTOFL
 70
1
  9
$DIMTVP
 40
0.0
  9
$DIMTIX
 70
0
  9
$DIMSOXD
 70
0
  9
$DIMSAH
 70
0
  9
$DIMBLK1
  1

  9
$DIMBLK2
  1

  9
$DIMSTYLE
  2
ISO-25
  9
$DIMCLRD
 70
0
  9
$DIMCLRE
 70
0
  9
$DIMCLRT
 70
0
  9
$DIMTFAC
 40
1.0
  9
$DIMGAP
 40
0.625
  9
$DIMJUST
 70
0
  9
$DIMSD1
 70
0
  9
$DIMSD2
 70
0
  9
$DIMTOLJ
 70
0
  9
$DIMTZIN
 70
8
  9
$DIMALTZ
 70
0
  9
$DIMALTTZ
 70
0
  9
$DIMUPT
 70
0
  9
$DIMDEC
 70
2
  9
$DIMTDEC
 70
2
  9
$DIMALTU
 70
2
  9
$DIMALTTD
 70
3
  9
$DIMTXSTY
  7
Standard
  9
$DIMAUNIT
 70
0
  9
$DIMADEC
 70
0
  9
$DIMALTRND
 40
0.0
  9
$DIMAZIN
 70
0
  9
$DIMDSEP
 70
44
  9
$DIMATFIT
 70
3
  9
$DIMFRAC
 70
0
  9
$DIMLDRBLK
  1

  9
$DIMLUNIT
 70
2
  9
$DIMLWD
 70
-2
  9
$DIMLWE
 70
-2
  9
$DIMTMOVE
 70
0
  9
$DIMFXL
 40
1.0
  9
$DIMFXLON
 70
0
  9
$DIMJOGANG
 40
0.785398163397
  9
$DIMTFILL
 70
0
  9
$DIMTFILLCLR
 70
0
  9
$DIMARCSYM
 70
0
  9
$DIMLTYPE
  6

  9
$DIMLTEX1
  6

  9
$DIMLTEX2
  6

  9
$DIMTXTDIRECTION
 70
0
  9
$LUNITS
 70
2
  9
$LUPREC
 70
4
  9
$SKETCHINC
 40
1.0
  9
$FILLETRAD
 40
10.0
  9
$AUNITS
 70
0
  9
$AUPREC
 70
2
  9
$MENU
  1
.
  9
$ELEVATION
 40
0.0
  9
$PELEVATION
 40
0.0
  9
$THICKNESS
 40
0.0
  9
$LIMCHECK
 70
0
  9
$CHAMFERA
 40
0.0
  9
$CHAMFERB
 40
0.0
  9
$CHAMFERC
 40
0.0
  9
$CHAMFERD
 40
0.0
  9
$SKPOLY
 70
0
  9
$TDCREATE
 40
2451545.0
  9
$TDUCREATE
 40
2451545.0
  9
$TDUPDATE
 40
2451545.0
  9
$TDUUPDATE
 40
2451545.0
  9
$TDINDWG
 40
0.0
  9
$TDUSRTIMER
 40
0.0
  9
$USRTIMER
 70
1
  9
$ANGBASE
 50
0.0
  9
$ANGDIR
 70
0
  9
$PDMODE
 70
0
  9
$PDSIZE
 40
0.0
  9
$PLINEWID
 40
0.0
  9
$SPLFRAME
 70
0
  9
$SPLINETYPE
 70
6
  9
$SPLINESEGS
 70
8
  9
$HANDSEED
  5
6BF
  9
$SURFTAB1
 70
6
  9
$SURFTAB2
 70
6
  9
$SURFTYPE
 70
6
  9
$SURFU
 70
6
  9
$SURFV
 70
6
  9
$UCSBASE
  2

  9
$UCSNAME
  2

  9
$UCSORG
 10
0.0
 20
0.0
 30
0.0
  9
$UCSXDIR
 10
1.0
 20
0.0
 30
0.0
  9
$UCSYDIR
 10
0.0
 20
1.0
 30
0.0
  9
$UCSORTHOREF
  2

  9
$UCSORTHOVIEW
 70
0
  9
$UCSORGTOP
 10
0.0
 20
0.0
 30
0.0
  9
$UCSORGBOTTOM
 10
0.0
 20
0.0
 30
0.0
  9
$UCSORGLEFT
 10
0.0
 20
0.0
 30
0.0
  9
$UCSORGRIGHT
 10
0.0
 20
0.0
 30
0.0
  9
$UCSORGFRONT
 10
0.0
 20
0.0
 30
0.0
  9
$UCSORGBACK
 10
0.0
 20
0.0
 30
0.0
  9
$PUCSBASE
  2

  9
$PUCSNAME
  2

  9
$PUCSORG
 10
0.0
 20
0.0
 30
0.0
  9
$PUCSXDIR
 10
1.0
 20
0.0
 30
0.0
  9
$PUCSYDIR
 10
0.0
 20
1.0
 30
0.0
  9
$PUCSORTHOREF
  2

  9
$PUCSORTHOVIEW
 70
0
  9
$PUCSORGTOP
 10
0.0
 20
0.0
 30
0.0
  9
$PUCSORGBOTTOM
 10
0.0
 20
0.0
 30
0.0
  9
$PUCSORGLEFT
 10
0.0
 20
0.0
 30
0.0
  9
$PUCSORGRIGHT
 10
0.0
 20
0.0
 30
0.0
  9
$PUCSORGFRONT
 10
0.0
 20
0.0
 30
0.0
  9
$PUCSORGBACK
 10
0.0
 20
0.0
 30
0.0
  9
$USERI1
 70
0
  9
$USERI2
 70
0
  9
$USERI3
 70
0
  9
$USERI4
 70
0
  9
$USERI5
 70
0
  9
$USERR1
 40
0.0
  9
$USERR2
 40
0.0
  9
$USERR3
 40
0.0
  9
$USERR4
 40
0.0
  9
$USERR5
 40
0.0
  9
$WORLDVIEW
 70
1
  9
$SHADEDGE
 70
3
  9
$SHADEDIF
 70
70
  9
$TILEMODE
 70
0
  9
$MAXACTVP
 70
64
  9
$PINSBASE
 10
0.0
 20
0.0
 30
0.0
  9
$PLIMCHECK
 70
0
  9
$PEXTMIN
 10
1e+20
 20
1e+20
 30
1e+20
  9
$PEXTMAX
 10
-1e+20
 20
-1e+20
 30
-1e+20
  9
$PLIMMIN
 10
-0.0
 20
-0.0
  9
$PLIMMAX
 10
841.0
 20
594.0
  9
$UNITMODE
 70
0
  9
$VISRETAIN
 70
1
  9
$PLINEGEN
 70
0
  9
$PSLTSCALE
 70
1
  9
$TREEDEPTH
 70
3020
  9
$CMLSTYLE
  2
Standard
  9
$CMLJUST
 70
0
  9
$CMLSCALE
 40
20.0
  9
$PROXYGRAPHICS
 70
1
  9
$MEASUREMENT
 70
1
  9
$CELWEIGHT
370
-1
  9
$ENDCAPS
280
0
  9
$JOINSTYLE
280
0
  9
$LWDISPLAY
290
1
  9
$INSUNITS
 70
4
  9
$HYPERLINKBASE
  1

  9
$STYLESHEET
  1

  9
$XEDIT
290
1
  9
$CEPSNTYPE
380
0
  9
$PSTYLEMODE
290
1
  9
$FINGERPRINTGUID
  2
{00000000-0000-0000-0000-000000000000}
  9
$VERSIONGUID
  2
{00000000-0000-0000-0000-000000000000}
  9
$EXTNAMES
290
1
  9
$PSVPSCALE
 40
0.0
  9
$OLESTARTUP
290
0
  9
$SORTENTS
280
127
  9
$INDEXCTL
280
0
  9
$HIDETEXT
280
1
  9
$XCLIPFRAME
280
1
  9
$HALOGAP
280
0
  9
$OBSCOLOR
 70
257
  9
$OBSLTYPE
280
0
  9
$INTERSECTIONDISPLAY
280
0
  9
$INTERSECTIONCOLOR
 70
257
  9
$DIMASSOC
280
2
  9
$PROJECTNAME
  1

  9
$CAMERADISPLAY
290
0
  9
$LENSLENGTH
 40
50.0
  9
$CAMERAHEIGHT
 40
0.0
  9
$STEPSPERSEC
 40
24.0
  9
$STEPSIZE
 40
100.0
  9
$3DDWFPREC
 40
2.0
  9
$PSOLWIDTH
 40
0.005
  9
$PSOLHEIGHT
 40
0.08
  9
$LOFTANG1
 40
1.570796326795
  9
$LOFTANG2
 40
1.570796326795
  9
$LOFTMAG1
 40
0.0
  9
$LOFTMAG2
 40
0.0
  9
$LOFTPARAM
 70
7
  9
$LOFTNORMALS
280
1
  9
$LATITUDE
 40
37.795
  9
$LONGITUDE
 40
-122.394
  9
$NORTHDIRECTION
 40
0.0
  9
$TIMEZONE
 70
-8000
  9
$LIGHTGLYPHDISPLAY
280
1
  9
$TILEMODELIGHTSYNCH
280
1
  9
$CMATERIAL
347
20
  9
$SOLIDHIST
280
0
  9
$SHOWHIST
280
1
  9
$DWFFRAME
280
2
  9
$DGNFRAME
280
2
  9
$REALWORLDSCALE
290
1
  9
$INTERFERECOLOR
 62
256
  9
$CSHADOW
280
0
  9
$SHADOWPLANELOCATION
 40
0.0
  0
ENDSEC
  0
SECTION
  2
CLASSES
  0
CLASS
  1
ACDBDETAILVIEWSTYLE
  2
AcDbDetailViewStyle
  3
ObjectDBX Classes
 90
1025
 91
0
280
0
281
0
  0
CLASS
  1
ACDBDICTIONARYWDFLT
  2
AcDbDictionaryWithDefault
  3
ObjectDBX Classes
 90
0
 91
0
280
0
281
0
  0
CLASS
  1
ACDBPLACEHOLDER
  2
AcDbPlaceHolder
  3
ObjectDBX Classes
 90
0
 91
0
280
0
281
0
  0
CLASS
  1
ACDBSECTIONVIEWSTYLE
  2
AcDbSectionViewStyle
  3
ObjectDBX Classes
 90
1025
 91
0
280
0
281
0
  0
CLASS
  1
CELLSTYLEMAP
  2
AcDbCellStyleMap
  3
ObjectDBX Classes
 90
1152
 91
0
280
0
281
0
  0
CLASS
  1
DICTIONARYVAR
  2
AcDbDictionaryVar
  3
ObjectDBX Classes
 90
0
 91
0
280
0
281
0
  0
CLASS
  1
IMAGE
  2
AcDbRasterImage
  3
ISM
 90
2175
 91
0
280
0
281
1
  0
CLASS
  1
IMAGEDEF
  2
AcDbRasterImageDef
  3
ISM
 90
0
 91
0
280
0
281
0
  0
CLASS
  1
IMAGEDEF_REACTOR
  2
AcDbRasterImageDefReactor
  3
ISM
 90
1
 91
0
280
0
281
0
  0
CLASS
  1
LAYOUT
  2
AcDbLayout
  3
ObjectDBX Classes
 90
0
 91
0
280
0
281
0
  0
CLASS
  1
MATERIAL
  2
AcDbMaterial
  3
ObjectDBX Classes
 90
1153
 91
0
280
0
281
0
  0
CLASS
  1
MENTALRAYRENDERSETTINGS
  2
AcDbMentalRayRenderSettings
  3
SCENEOE
 90
1024
 91
0
280
0
281
0
  0
CLASS
  1
MLEADERSTYLE
  2
AcDbMLeaderStyle
  3
ACDB_MLEADERSTYLE_CLASS
 90
4095
 91
0
280
0
281
0
  0
CLASS
  1
RASTERVARIABLES
  2
AcDbRasterVariables
  3
ISM
 90
0
 91
0
280
0
281
0
  0
CLASS
  1
SCALE
  2
AcDbScale
  3
ObjectDBX Classes
 90
1153
 91
0
280
0
281
0
  0
CLASS
  1
SUN
  2
AcDbSun
  3
SCENEOE
 90
1153
 91
0
280
0
281
0
  0
CLASS
  1
TABLESTYLE
  2
AcDbTableStyle
  3
ObjectDBX Classes
 90
4095
 91
0
280
0
281
0
  0
CLASS
  1
VISUALSTYLE
  2
AcDbVisualStyle
  3
ObjectDBX Classes
 90
4095
 91
0
280
0
281
0
  0
ENDSEC
  0
SECTION
  2
TABLES
  0
TABLE
  2
VPORT
  5
8
330
0
100
AcDbSymbolTable
 70
1
  0
VPORT
  5
37
330
8
100
AcDbSymbolTableRecord
100
AcDbViewportTableRecord
  2
*Active
 70
0
 10
0.0
 20
0.0
 11
1.0
 21
1.0
 12
420.5
 22
297.0
 13
0.0
 23
0.0
 14
0.5
 24
0.5
 15
0.5
 25
0.5
 16
0.0
 26
0.0
 36
1.0
 17
0.0
 27
0.0
 37
0.0
 40
594.0
 41
1.34
 42
50.0
 43
0.0
 44
0.0
 50
0.0
 51
0.0
 71
0
 72
1000
 73
1
 74
3
 75
0
 76
0
 77
0
 78
0
281
0
 65
1
110
0.0
120
0.0
130
0.0
111
1.0
121
0.0
131
0.0
112
0.0
122
1.0
132
0.0
 79
0
146
0.0
  0
ENDTAB
  0
TABLE
  2
LTYPE
  5
2
330
0
100
AcDbSymbolTable
 70
4
  0
LTYPE
  5
24
330
2
100
AcDbSymbolTableRecord
100
AcDbLinetypeTableRecord
  2
ByBlock
 70
0
  3

 72
65
 73
0
 40
0.0
  0
LTYPE
  5
25
330
2
100
AcDbSymbolTableRecord
100
AcDbLinetypeTableRecord
  2
ByLayer
 70
0
  3

 72
65
 73
0
 40
0.0
  0
LTYPE
  5
26
330
2
100
AcDbSymbolTableRecord
100
AcDbLinetypeTableRecord
  2
Continuous
 70
0
  3

 72
65
 73
0
 40
0.0
  0
LTYPE
  5
73
330
2
100
AcDbSymbolTableRecord
100
AcDbLinetypeTableRecord
  2
NOVEC_TRATTO_3_2
 70
0
  3
Tratteggio della tavola: 3 / 2 mm
 72
65
 73
2
 40
5.0
 49
3.0
 74
0
 49
-2.0
 74
0
  0
ENDTAB
  0
TABLE
  2
LAYER
  5
1
330
0
100
AcDbSymbolTable
 70
14
  0
LAYER
  5
27
330
1
100
AcDbSymbolTableRecord
100
AcDbLayerTableRecord
  2
0
 70
0
 62
7
  6
Continuous
370
-3
390
13
347
21
  0
LAYER
  5
28
330
1
100
AcDbSymbolTableRecord
100
AcDbLayerTableRecord
  2
Defpoints
 70
0
 62
7
  6
Continuous
290
0
370
-3
390
13
347
21
  0
LAYER
  5
38
330
1
100
AcDbSymbolTableRecord
100
AcDbLayerTableRecord
  2
M-DIAG-EQPM
 70
0
 62
7
  6
Continuous
370
35
390
13
347
21
1001
AcAecLayerStandard
1000

1000
Simboli dei componenti
  0
LAYER
  5
3A
330
1
100
AcDbSymbolTableRecord
100
AcDbLayerTableRecord
  2
M-ANNO-IDEN
 70
0
 62
7
  6
Continuous
370
18
390
13
347
21
1001
AcAecLayerStandard
1000

1000
Sigle e richiami
  0
LAYER
  5
3B
330
1
100
AcDbSymbolTableRecord
100
AcDbLayerTableRecord
  2
M-ANNO-TEXT
 70
0
 62
7
  6
Continuous
370
18
390
13
347
21
1001
AcAecLayerStandard
1000

1000
Testi e rimandi
  0
LAYER
  5
3C
330
1
100
AcDbSymbolTableRecord
100
AcDbLayerTableRecord
  2
M-ANNO-LEGN
 70
0
 62
7
  6
Continuous
370
18
390
13
347
21
1001
AcAecLayerStandard
1000

1000
Legenda
  0
LAYER
  5
3D
330
1
100
AcDbSymbolTableRecord
100
AcDbLayerTableRecord
  2
M-ANNO-SCHD
 70
0
 62
7
  6
Continuous
370
18
390
13
347
21
1001
AcAecLayerStandard
1000

1000
Tabella delle apparecchiature
  0
LAYER
  5
3E
330
1
100
AcDbSymbolTableRecord
100
AcDbLayerTableRecord
  2
G-ANNO-TTLB
 70
0
 62
7
  6
Continuous
370
18
390
13
347
21
1001
AcAecLayerStandard
1000

1000
Squadratura e cartiglio
  0
LAYER
  5
3F
330
1
100
AcDbSymbolTableRecord
100
AcDbLayerTableRecord
  2
G-ANNO-NPLT
 70
0
 62
7
  6
Continuous
290
0
370
18
390
13
347
21
1001
AcAecLayerStandard
1000

1000
Finestra della presentazione (non si stampa)
  0
LAYER
  5
72
330
1
100
AcDbSymbolTableRecord
100
AcDbLayerTableRecord
  2
P-DOMW-CPIP
 70
0
 62
161
420
6139362
  6
NOVEC_TRATTO_3_2
370
35
390
13
347
21
1001
AcAecLayerStandard
1000

1000
Acqua fredda sanitaria — andata
  0
LAYER
  5
87
330
1
100
AcDbSymbolTableRecord
100
AcDbLayerTableRecord
  2
M-HWTR-SPLY
 70
0
 62
22
420
12597547
  6
Continuous
370
35
390
13
347
21
1001
AcAecLayerStandard
1000

1000
Acqua di riscaldamento — andata
  0
LAYER
  5
90
330
1
100
AcDbSymbolTableRecord
100
AcDbLayerTableRecord
  2
M-HWTR-RETN
 70
0
 62
142
420
2388387
  6
Continuous
370
35
390
13
347
21
1001
AcAecLayerStandard
1000

1000
Acqua di riscaldamento — ritorno
  0
LAYER
  5
15E
330
1
100
AcDbSymbolTableRecord
100
AcDbLayerTableRecord
  2
P-DOMW-HPIP
 70
0
 62
30
420
14059792
  6
Continuous
370
35
390
13
347
21
1001
AcAecLayerStandard
1000

1000
Acqua calda sanitaria — andata
  0
LAYER
  5
16B
330
1
100
AcDbSymbolTableRecord
100
AcDbLayerTableRecord
  2
P-DOMW-RPIP
 70
0
 62
123
420
5822093
  6
Continuous
370
35
390
13
347
21
1001
AcAecLayerStandard
1000

1000
Acqua calda sanitaria — ricircolo
  0
ENDTAB
  0
TABLE
  2
STYLE
  5
5
330
0
100
AcDbSymbolTable
 70
3
  0
STYLE
  5
29
330
5
100
AcDbSymbolTableRecord
100
AcDbTextStyleTableRecord
  2
Standard
 70
0
 40
0.0
 41
1.0
 50
0.0
 71
0
 42
2.5
  3
txt
  4

  0
STYLE
  5
2F
330
5
100
AcDbSymbolTableRecord
100
AcDbTextStyleTableRecord
  2
NOVEC_ARIAL
 70
0
 40
0.0
 41
1.0
 50
0.0
 71
0
 42
2.5
  3
arial.ttf
  4

1001
ACAD
1000
Arial
1071
34
  0
STYLE
  5
30
330
5
100
AcDbSymbolTableRecord
100
AcDbTextStyleTableRecord
  2
NOVEC_ARIAL_GRASSETTO
 70
0
 40
0.0
 41
1.0
 50
0.0
 71
0
 42
2.5
  3
arialbd.ttf
  4

1001
ACAD
1000
Arial
1071
33554466
  0
ENDTAB
  0
TABLE
  2
VIEW
  5
7
330
0
100
AcDbSymbolTable
 70
0
  0
ENDTAB
  0
TABLE
  2
UCS
  5
6
330
0
100
AcDbSymbolTable
 70
0
  0
ENDTAB
  0
TABLE
  2
APPID
  5
3
330
0
100
AcDbSymbolTable
 70
4
  0
APPID
  5
2A
330
3
100
AcDbSymbolTableRecord
100
AcDbRegAppTableRecord
  2
ACAD
 70
0
  0
APPID
  5
39
330
3
100
AcDbSymbolTableRecord
100
AcDbRegAppTableRecord
  2
AcAecLayerStandard
 70
0
  0
APPID
  5
6BC
330
3
100
AcDbSymbolTableRecord
100
AcDbRegAppTableRecord
  2
HATCHBACKGROUNDCOLOR
 70
0
  0
APPID
  5
6BD
330
3
100
AcDbSymbolTableRecord
100
AcDbRegAppTableRecord
  2
EZDXF
 70
0
  0
ENDTAB
  0
TABLE
  2
DIMSTYLE
  5
4
330
0
100
AcDbSymbolTable
 70
1
100
AcDbDimStyleTable
  0
DIMSTYLE
105
2B
330
4
100
AcDbSymbolTableRecord
100
AcDbDimStyleTableRecord
  2
Standard
 70
0
 40
1.0
 41
2.5
 42
0.625
 43
3.75
 44
1.25
 45
0.0
 46
0.0
 47
0.0
 48
0.0
 49
2.5
140
2.5
141
2.5
142
0.0
143
0.03937007874
144
1.0
145
0.0
146
1.0
147
0.625
148
0.0
 69
0
 70
0
 71
0
 72
0
 73
0
 74
0
 75
0
 76
0
 77
1
 78
8
 79
3
170
0
171
3
172
1
173
0
174
0
175
0
176
0
177
0
178
0
179
2
271
2
272
2
273
2
274
3
275
0
276
0
277
2
278
44
279
0
280
0
281
0
282
0
283
0
284
8
285
0
286
0
288
0
289
3
290
0
371
-2
372
-2
  0
ENDTAB
  0
TABLE
  2
BLOCK_RECORD
  5
9
330
0
100
AcDbSymbolTable
 70
32
  0
BLOCK_RECORD
  5
17
330
9
100
AcDbSymbolTableRecord
100
AcDbBlockTableRecord
  2
*Model_Space
340
1A
 70
0
280
1
281
0
  0
BLOCK_RECORD
  5
31
330
9
100
AcDbSymbolTableRecord
100
AcDbBlockTableRecord
  2
*Paper_Space
340
34
 70
0
280
1
281
0
  0
BLOCK_RECORD
  5
75
330
9
100
AcDbSymbolTableRecord
100
AcDbBlockTableRecord
  2
NoveC_FlowArrow
340
0
 70
0
280
1
281
0
  0
BLOCK_RECORD
  5
319
330
9
100
AcDbSymbolTableRecord
100
AcDbBlockTableRecord
  2
NoveC_CappedConnection
340
0
 70
0
280
1
281
0
  0
BLOCK_RECORD
  5
321
330
9
100
AcDbSymbolTableRecord
100
AcDbBlockTableRecord
  2
NoveC_NetworkBoundary
340
0
 70
0
280
1
281
0
  0
BLOCK_RECORD
  5
329
330
9
100
AcDbSymbolTableRecord
100
AcDbBlockTableRecord
  2
NoveC_ZoneManifoldPair
340
0
 70
0
280
1
281
0
  0
BLOCK_RECORD
  5
348
330
9
100
AcDbSymbolTableRecord
100
AcDbBlockTableRecord
  2
NoveC_FanCoil
340
0
 70
0
280
1
281
0
  0
BLOCK_RECORD
  5
365
330
9
100
AcDbSymbolTableRecord
100
AcDbBlockTableRecord
  2
NoveC_MixingValveThermostatic
340
0
 70
0
280
1
281
0
  0
BLOCK_RECORD
  5
376
330
9
100
AcDbSymbolTableRecord
100
AcDbBlockTableRecord
  2
NoveC_UnderfloorPanel
340
0
 70
0
280
1
281
0
  0
BLOCK_RECORD
  5
38D
330
9
100
AcDbSymbolTableRecord
100
AcDbBlockTableRecord
  2
NoveC_TeeBranch
340
0
 70
0
280
1
281
0
  0
BLOCK_RECORD
  5
39A
330
9
100
AcDbSymbolTableRecord
100
AcDbBlockTableRecord
  2
NoveC_DrainConnection
340
0
 70
0
280
1
281
0
  0
BLOCK_RECORD
  5
3A6
330
9
100
AcDbSymbolTableRecord
100
AcDbBlockTableRecord
  2
NoveC_ExpansionConnection
340
0
 70
0
280
1
281
0
  0
BLOCK_RECORD
  5
3AE
330
9
100
AcDbSymbolTableRecord
100
AcDbBlockTableRecord
  2
NoveC_HeatPumpAirWater
340
0
 70
0
280
1
281
0
  0
BLOCK_RECORD
  5
3C2
330
9
100
AcDbSymbolTableRecord
100
AcDbBlockTableRecord
  2
NoveC_DhwCylinder
340
0
 70
0
280
1
281
0
  0
BLOCK_RECORD
  5
3D7
330
9
100
AcDbSymbolTableRecord
100
AcDbBlockTableRecord
  2
NoveC_BufferSixPort
340
0
 70
0
280
1
281
0
  0
BLOCK_RECORD
  5
3E6
330
9
100
AcDbSymbolTableRecord
100
AcDbBlockTableRecord
  2
NoveC_AirVent
340
0
 70
0
280
1
281
0
  0
BLOCK_RECORD
  5
3F0
330
9
100
AcDbSymbolTableRecord
100
AcDbBlockTableRecord
  2
NoveC_BufferFourPort
340
0
 70
0
280
1
281
0
  0
BLOCK_RECORD
  5
403
330
9
100
AcDbSymbolTableRecord
100
AcDbBlockTableRecord
  2
NoveC_PressureGauge
340
0
 70
0
280
1
281
0
  0
BLOCK_RECORD
  5
408
330
9
100
AcDbSymbolTableRecord
100
AcDbBlockTableRecord
  2
NoveC_PressureGauge_Lettera
340
0
 70
0
280
1
281
0
  0
BLOCK_RECORD
  5
41D
330
9
100
AcDbSymbolTableRecord
100
AcDbBlockTableRecord
  2
NoveC_TeeJunction
340
0
 70
0
280
1
281
0
  0
BLOCK_RECORD
  5
428
330
9
100
AcDbSymbolTableRecord
100
AcDbBlockTableRecord
  2
NoveC_FillingUnit
340
0
 70
0
280
1
281
0
  0
BLOCK_RECORD
  5
457
330
9
100
AcDbSymbolTableRecord
100
AcDbBlockTableRecord
  2
NoveC_ValveSafety
340
0
 70
0
280
1
281
0
  0
BLOCK_RECORD
  5
4A1
330
9
100
AcDbSymbolTableRecord
100
AcDbBlockTableRecord
  2
NoveC_ValveIsolation
340
0
 70
0
280
1
281
0
  0
BLOCK_RECORD
  5
4B0
330
9
100
AcDbSymbolTableRecord
100
AcDbBlockTableRecord
  2
NoveC_ValveGaugeCock3way
340
0
 70
0
280
1
281
0
  0
BLOCK_RECORD
  5
4C4
330
9
100
AcDbSymbolTableRecord
100
AcDbBlockTableRecord
  2
NoveC_PumpCirculator
340
0
 70
0
280
1
281
0
  0
BLOCK_RECORD
  5
500
330
9
100
AcDbSymbolTableRecord
100
AcDbBlockTableRecord
  2
NoveC_ValveCheck
340
0
 70
0
280
1
281
0
  0
BLOCK_RECORD
  5
50D
330
9
100
AcDbSymbolTableRecord
100
AcDbBlockTableRecord
  2
NoveC_FlexibleJoint
340
0
 70
0
280
1
281
0
  0
BLOCK_RECORD
  5
51B
330
9
100
AcDbSymbolTableRecord
100
AcDbBlockTableRecord
  2
NoveC_Strainer
340
0
 70
0
280
1
281
0
  0
BLOCK_RECORD
  5
573
330
9
100
AcDbSymbolTableRecord
100
AcDbBlockTableRecord
  2
NoveC_HeatMeter
340
0
 70
0
280
1
281
0
  0
BLOCK_RECORD
  5
579
330
9
100
AcDbSymbolTableRecord
100
AcDbBlockTableRecord
  2
NoveC_HeatMeter_Sigla
340
0
 70
0
280
1
281
0
  0
BLOCK_RECORD
  5
5B6
330
9
100
AcDbSymbolTableRecord
100
AcDbBlockTableRecord
  2
NoveC_PressureReducer
340
0
 70
0
280
1
281
0
  0
BLOCK_RECORD
  5
5C1
330
9
100
AcDbSymbolTableRecord
100
AcDbBlockTableRecord
  2
NoveC_DhwSafetyGroup
340
0
 70
0
280
1
281
0
  0
ENDTAB
  0
ENDSEC
  0
SECTION
  2
BLOCKS
  0
BLOCK
  5
18
330
17
100
AcDbEntity
  8
0
100
AcDbBlockBegin
  2
*Model_Space
 70
0
 10
0.0
 20
0.0
 30
0.0
  3
*Model_Space
  1

  0
ENDBLK
  5
19
330
17
100
AcDbEntity
  8
0
100
AcDbBlockEnd
  0
BLOCK
  5
32
330
31
100
AcDbEntity
  8
0
100
AcDbBlockBegin
  2
*Paper_Space
 70
0
 10
0.0
 20
0.0
 30
0.0
  3
*Paper_Space
  1

  0
ENDBLK
  5
33
330
31
100
AcDbEntity
  8
0
100
AcDbBlockEnd
  0
BLOCK
  5
76
330
75
100
AcDbEntity
  8
0
100
AcDbBlockBegin
  2
NoveC_FlowArrow
 70
0
 10
0.0
 20
0.0
 30
0.0
  3
NoveC_FlowArrow
  1

  4
Freccia del verso del flusso
  0
HATCH
  5
78
330
75
100
AcDbEntity
  8
0
 62
0
100
AcDbHatch
 10
0.0
 20
0.0
 30
0.0
210
0.0
220
0.0
230
1.0
  2
SOLID
 70
1
 71
0
 91
1
 92
3
 72
0
 73
1
 93
3
 10
0.0
 20
0.0
 10
-2.0
 20
1.0
 10
-2.0
 20
-1.0
 97
0
 75
1
 76
1
 98
0
  0
ENDBLK
  5
77
330
75
100
AcDbEntity
  8
0
100
AcDbBlockEnd
  0
BLOCK
  5
31A
330
319
100
AcDbEntity
  8
0
100
AcDbBlockBegin
  2
NoveC_CappedConnection
 70
0
 10
0.0
 20
0.0
 30
0.0
  3
NoveC_CappedConnection
  1

  4
Attacco predisposto
  0
LINE
  5
31C
330
319
100
AcDbEntity
  8
0
  6
Continuous
 62
0
370
-2
100
AcDbLine
 10
1.5
 20
-2.5
 30
0.0
 11
5.0
 21
-2.5
 31
0.0
  0
LINE
  5
31D
330
319
100
AcDbEntity
  8
0
  6
Continuous
 62
0
370
-2
100
AcDbLine
 10
1.5
 20
-0.75
 30
0.0
 11
1.5
 21
-4.25
 31
0.0
  0
LINE
  5
31E
330
319
100
AcDbEntity
  8
0
  6
Continuous
 62
0
370
-2
100
AcDbLine
 10
0.75
 20
-0.75
 30
0.0
 11
0.75
 21
-4.25
 31
0.0
  0
ENDBLK
  5
31B
330
319
100
AcDbEntity
  8
0
100
AcDbBlockEnd
  0
BLOCK
  5
322
330
321
100
AcDbEntity
  8
0
100
AcDbBlockBegin
  2
NoveC_NetworkBoundary
 70
0
 10
0.0
 20
0.0
 30
0.0
  3
NoveC_NetworkBoundary
  1

  4
Confine di rete
  0
LINE
  5
324
330
321
100
AcDbEntity
  8
0
  6
Continuous
 62
0
370
-2
100
AcDbLine
 10
0.0
 20
-2.5
 30
0.0
 11
5.0
 21
-2.5
 31
0.0
  0
ENDBLK
  5
323
330
321
100
AcDbEntity
  8
0
100
AcDbBlockEnd
  0
BLOCK
  5
32A
330
329
100
AcDbEntity
  8
0
100
AcDbBlockBegin
  2
NoveC_ZoneManifoldPair
 70
0
 10
0.0
 20
0.0
 30
0.0
  3
NoveC_ZoneManifoldPair
  1

  4
Collettore di zona con ritorno
  0
LINE
  5
32C
330
329
100
AcDbEntity
  8
0
  6
Continuous
 62
0
370
-2
100
AcDbLine
 10
0.0
 20
-2.5
 30
0.0
 11
2.0
 21
-2.5
 31
0.0
  0
LINE
  5
32D
330
329
100
AcDbEntity
  8
0
  6
Continuous
 62
0
370
-2
100
AcDbLine
 10
0.0
 20
-12.5
 30
0.0
 11
2.0
 21
-12.5
 31
0.0
  0
LWPOLYLINE
  5
32E
330
329
100
AcDbEntity
  8
0
  6
Continuous
 62
0
370
-2
100
AcDbPolyline
 90
4
 70
1
 10
2.0
 20
-1.5
 10
40.0
 20
-1.5
 10
40.0
 20
-3.5
 10
2.0
 20
-3.5
  0
LWPOLYLINE
  5
32F
330
329
100
AcDbEntity
  8
0
  6
Continuous
 62
0
370
-2
100
AcDbPolyline
 90
4
 70
1
 10
2.0
 20
-11.5
 10
6.5
 20
-11.5
 10
6.5
 20
-13.5
 10
2.0
 20
-13.5
  0
LWPOLYLINE
  5
330
330
329
100
AcDbEntity
  8
0
  6
Continuous
 62
0
370
-2
100
AcDbPolyline
 90
4
 70
1
 10
8.5
 20
-11.5
 10
26.5
 20
-11.5
 10
26.5
 20
-13.5
 10
8.5
 20
-13.5
  0
LWPOLYLINE
  5
331
330
329
100
AcDbEntity
  8
0
  6
Continuous
 62
0
370
-2
100
AcDbPolyline
 90
4
 70
1
 10
28.5
 20
-11.5
 10
40.0
 20
-11.5
 10
40.0
 20
-13.5
 10
28.5
 20
-13.5
  0
LINE
  5
332
330
329
100
AcDbEntity
  8
0
  6
Continuous
 62
0
370
-2
100
AcDbLine
 10
7.5
 20
-3.5
 30
0.0
 11
7.5
 21
-15.0
 31
0.0
  0
LINE
  5
333
330
329
100
AcDbEntity
  8
0
  6
Continuous
 62
0
370
-2
100
AcDbLine
 10
27.5
 20
-3.5
 30
0.0
 11
27.5
 21
-15.0
 31
0.0
  0
LINE
  5
334
330
329
100
AcDbEntity
  8
0
  6
Continuous
 62
0
370
-2
100
AcDbLine
 10
17.5
 20
-13.5
 30
0.0
 11
17.5
 21
-15.0
 31
0.0
  0
LINE
  5
335
330
329
100
AcDbEntity
  8
0
  6
Continuous
 62
0
370
-2
100
AcDbLine
 10
37.5
 20
-13.5
 30
0.0
 11
37.5
 21
-15.0
 31
0.0
  0
ENDBLK
  5
32B
330
329
100
AcDbEntity
  8
0
100
AcDbBlockEnd
  0
BLOCK
  5
349
330
348
100
AcDbEntity
  8
0
100
AcDbBlockBegin
  2
NoveC_FanCoil
 70
0
 10
0.0
 20
0.0
 30
0.0
  3
NoveC_FanCoil
  1

  4
Ventilconvettore
  0
LWPOLYLINE
  5
34B
330
348
100
AcDbEntity
  8
0
  6
Continuous
 62
0
370
-2
100
AcDbPolyline
 90
4
 70
1
 10
2.0
 20
-2.25
 10
18.0
 20
-2.25
 10
18.0
 20
-12.75
 10
2.0
 20
-12.75
  0
LINE
  5
34C
330
348
100
AcDbEntity
  8
0
  6
Continuous
 62
0
370
-2
100
AcDbLine
 10
4.4
 20
-2.25
 30
0.0
 11
4.4
 21
-12.75
 31
0.0
  0
LINE
  5
34D
330
348
100
AcDbEntity
  8
0
  6
Continuous
 62
0
370
-2
100
AcDbLine
 10
6.8
 20
-2.25
 30
0.0
 11
6.8
 21
-12.75
 31
0.0
  0
LINE
  5
34E
330
348
100
AcDbEntity
  8
0
  6
Continuous
 62
0
370
-2
100
AcDbLine
 10
9.2
 20
-2.25
 30
0.0
 11
9.2
 21
-12.75
 31
0.0
  0
CIRCLE
  5
34F
330
348
100
AcDbEntity
  8
0
  6
Continuous
 62
0
370
-2
100
AcDbCircle
 10
14.0
 20
-7.5
 30
0.0
 40
3.15
  0
LINE
  5
350
330
348
100
AcDbEntity
  8
0
  6
Continuous
 62
0
370
-2
100
AcDbLine
 10
14.0
 20
-7.5
 30
0.0
 11
14.0
 21
-5.1375
 31
0.0
  0
LINE
  5
351
330
348
100
AcDbEntity
  8
0
  6
Continuous
 62
0
370
-2
100
AcDbLine
 10
14.0
 20
-7.5
 30
0.0
 11
11.9525
 21
-8.697
 31
0.0
  0
LINE
  5
352
330
348
100
AcDbEntity
  8
0
  6
Continuous
 62
0
370
-2
100
AcDbLine
 10
14.0
 20
-7.5
 30
0.0
 11
16.0475
 21
-8.697
 31
0.0
  0
LINE
  5
353
330
348
100
AcDbEntity
  8
0
  6
Continuous
 62
0
370
-2
100
AcDbLine
 10
0.0
 20
-2.5
 30
0.0
 11
2.0
 21
-2.5
 31
0.0
  0
LINE
  5
354
330
348
100
AcDbEntity
  8
0
  6
Continuous
 62
0
370
-2
100
AcDbLine
 10
0.0
 20
-12.5
 30
0.0
 11
2.0
 21
-12.5
 31
0.0
  0
ENDBLK
  5
34A
330
348
100
AcDbEntity
  8
0
100
AcDbBlockEnd
  0
BLOCK
  5
366
330
365
100
AcDbEntity
  8
0
100
AcDbBlockBegin
  2
NoveC_MixingValveThermostatic
 70
0
 10
0.0
 20
0.0
 30
0.0
  3
NoveC_MixingValveThermostatic
  1

  4
Valvola miscelatrice termostatica
  0
LINE
  5
368
330
365
100
AcDbEntity
  8
0
  6
Continuous
 62
0
370
-2
100
AcDbLine
 10
0.0
 20
-5.0
 30
0.0
 11
0.85
 21
-5.0
 31
0.0
  0
LINE
  5
369
330
365
100
AcDbEntity
  8
0
  6
Continuous
 62
0
370
-2
100
AcDbLine
 10
4.15
 20
-5.0
 30
0.0
 11
5.0
 21
-5.0
 31
0.0
  0
LWPOLYLINE
  5
36A
330
365
100
AcDbEntity
  8
0
  6
Continuous
 62
0
370
-2
100
AcDbPolyline
 90
3
 70
1
 10
0.85
 20
-3.68
 10
0.85
 20
-6.32
 10
2.5
 20
-5.0
  0
LWPOLYLINE
  5
36B
330
365
100
AcDbEntity
  8
0
  6
Continuous
 62
0
370
-2
100
AcDbPolyline
 90
3
 70
1
 10
4.15
 20
-3.68
 10
4.15
 20
-6.32
 10
2.5
 20
-5.0
  0
LWPOLYLINE
  5
36C
330
365
100
AcDbEntity
  8
0
  6
Continuous
 62
0
370
-2
100
AcDbPolyline
 90
3
 70
1
 10
1.18
 20
-6.65
 10
3.82
 20
-6.65
 10
2.5
 20
-5.0
  0
LINE
  5
36D
330
365
100
AcDbEntity
  8
0
  6
Continuous
 62
0
370
-2
100
AcDbLine
 10
2.5
 20
-6.65
 30
0.0
 11
2.5
 21
-10.0
 31
0.0
  0
LINE
  5
36E
330
365
100
AcDbEntity
  8
0
  6
Continuous
 62
0
370
-2
100
AcDbLine
 10
2.5
 20
-5.0
 30
0.0
 11
2.5
 21
-3.0
 31
0.0
  0
LINE
  5
36F
330
365
100
AcDbEntity
  8
0
  6
Continuous
 62
0
370
-2
100
AcDbLine
 10
1.7
 20
-3.0
 30
0.0
 11
3.3
 21
-3.0
 31
0.0
  0
ENDBLK
  5
367
330
365
100
AcDbEntity
  8
0
100
AcDbBlockEnd
  0
BLOCK
  5
377
330
376
100
AcDbEntity
  8
0
100
AcDbBlockBegin
  2
NoveC_UnderfloorPanel
 70
0
 10
0.0
 20
0.0
 30
0.0
  3
NoveC_UnderfloorPanel
  1

  4
Pannello radiante
  0
LWPOLYLINE
  5
379
330
376
100
AcDbEntity
  8
0
  6
Continuous
 62
0
370
-2
100
AcDbPolyline
 90
4
 70
1
 10
2.0
 20
-2.25
 10
18.0
 20
-2.25
 10
18.0
 20
-12.75
 10
2.0
 20
-12.75
  0
LWPOLYLINE
  5
37A
330
376
100
AcDbEntity
  8
0
  6
Continuous
 62
0
370
-2
100
AcDbPolyline
 90
13
 70
0
 10
3.28
 20
-11.7
 10
3.28
 20
-3.3
 10
5.52
 20
-3.3
 10
5.52
 20
-11.7
 10
7.76
 20
-3.3
 10
10.0
 20
-3.3
 10
10.0
 20
-11.7
 10
12.24
 20
-3.3
 10
14.48
 20
-3.3
 10
14.48
 20
-11.7
 10
16.72
 20
-3.3
 10
18.96
 20
-3.3
 10
18.96
 20
-11.7
  0
LINE
  5
37B
330
376
100
AcDbEntity
  8
0
  6
Continuous
 62
0
370
-2
100
AcDbLine
 10
0.0
 20
-2.5
 30
0.0
 11
2.0
 21
-2.5
 31
0.0
  0
LINE
  5
37C
330
376
100
AcDbEntity
  8
0
  6
Continuous
 62
0
370
-2
100
AcDbLine
 10
0.0
 20
-12.5
 30
0.0
 11
2.0
 21
-12.5
 31
0.0
  0
ENDBLK
  5
378
330
376
100
AcDbEntity
  8
0
100
AcDbBlockEnd
  0
BLOCK
  5
38E
330
38D
100
AcDbEntity
  8
0
100
AcDbBlockBegin
  2
NoveC_TeeBranch
 70
0
 10
0.0
 20
0.0
 30
0.0
  3
NoveC_TeeBranch
  1

  4
Derivazione a T
  0
LINE
  5
390
330
38D
100
AcDbEntity
  8
0
  6
Continuous
 62
0
370
-2
100
AcDbLine
 10
0.0
 20
-2.5
 30
0.0
 11
5.0
 21
-2.5
 31
0.0
  0
LINE
  5
391
330
38D
100
AcDbEntity
  8
0
  6
Continuous
 62
0
370
-2
100
AcDbLine
 10
2.5
 20
0.0
 30
0.0
 11
2.5
 21
-2.5
 31
0.0
  0
HATCH
  5
392
330
38D
100
AcDbEntity
  8
0
  6
Continuous
 62
0
370
-2
100
AcDbHatch
 10
0.0
 20
0.0
 30
0.0
210
0.0
220
0.0
230
1.0
  2
SOLID
 70
1
 71
0
 91
1
 92
3
 72
1
 73
1
 93
2
 10
1.8
 20
-2.5
 42
1.0
 10
3.2
 20
-2.5
 42
1.0
 97
0
 75
1
 76
1
 98
0
  0
CIRCLE
  5
393
330
38D
100
AcDbEntity
  8
0
  6
Continuous
 62
0
370
-2
100
AcDbCircle
 10
2.5
 20
-2.5
 30
0.0
 40
0.7
  0
ENDBLK
  5
38F
330
38D
100
AcDbEntity
  8
0
100
AcDbBlockEnd
  0
BLOCK
  5
39B
330
39A
100
AcDbEntity
  8
0
100
AcDbBlockBegin
  2
NoveC_DrainConnection
 70
0
 10
0.0
 20
0.0
 30
0.0
  3
NoveC_DrainConnection
  1

  4
Attacco di scarico
  0
LINE
  5
39D
330
39A
100
AcDbEntity
  8
0
  6
Continuous
 62
0
370
-2
100
AcDbLine
 10
2.5
 20
0.0
 30
0.0
 11
2.5
 21
-3.0
 31
0.0
  0
LWPOLYLINE
  5
39E
330
39A
100
AcDbEntity
  8
0
  6
Continuous
 62
0
370
-2
100
AcDbPolyline
 90
3
 70
1
 10
1.3
 20
-3.0
 10
3.7
 20
-3.0
 10
2.5
 20
-4.8
  0
LWPOLYLINE
  5
39F
330
39A
100
AcDbEntity
  8
0
  6
Continuous
 62
0
370
-2
100
AcDbPolyline
 90
3
 70
1
 10
1.3
 20
-6.6
 10
3.7
 20
-6.6
 10
2.5
 20
-4.8
  0
LINE
  5
3A0
330
39A
100
AcDbEntity
  8
0
  6
Continuous
 62
0
370
-2
100
AcDbLine
 10
2.5
 20
-6.6
 30
0.0
 11
2.5
 21
-8.8
 31
0.0
  0
LINE
  5
3A1
330
39A
100
AcDbEntity
  8
0
  6
Continuous
 62
0
370
-2
100
AcDbLine
 10
1.3
 20
-8.8
 30
0.0
 11
3.7
 21
-8.8
 31
0.0
  0
ENDBLK
  5
39C
330
39A
100
AcDbEntity
  8
0
100
AcDbBlockEnd
  0
BLOCK
  5
3A7
330
3A6
100
AcDbEntity
  8
0
100
AcDbBlockBegin
  2
NoveC_ExpansionConnection
 70
0
 10
0.0
 20
0.0
 30
0.0
  3
NoveC_ExpansionConnection
  1

  4
Vaso di espansione
  0
LINE
  5
3A9
330
3A6
100
AcDbEntity
  8
0
  6
Continuous
 62
0
370
-2
100
AcDbLine
 10
2.5
 20
0.0
 30
0.0
 11
2.5
 21
-3.0
 31
0.0
  0
LWPOLYLINE
  5
3AA
330
3A6
100
AcDbEntity
  8
0
  6
Continuous
 62
0
370
-2
100
AcDbPolyline
 90
8
 70
1
 10
1.7
 20
-3.0
 10
3.3
 20
-3.0
 42
-0.41421356237309515
 10
4.5
 20
-4.2
 10
4.5
 20
-7.8
 42
-0.41421356237309515
 10
3.3
 20
-9.0
 10
1.7
 20
-9.0
 42
-0.4142135623730951
 10
0.5
 20
-7.8
 10
0.5
 20
-4.2
 42
-0.4142135623730951
  0
LINE
  5
3AB
330
3A6
100
AcDbEntity
  8
0
  6
Continuous
 62
0
370
-2
100
AcDbLine
 10
0.5
 20
-6.0
 30
0.0
 11
4.5
 21
-6.0
 31
0.0
  0
ENDBLK
  5
3A8
330
3A6
100
AcDbEntity
  8
0
100
AcDbBlockEnd
  0
BLOCK
  5
3AF
330
3AE
100
AcDbEntity
  8
0
100
AcDbBlockBegin
  2
NoveC_HeatPumpAirWater
 70
0
 10
0.0
 20
0.0
 30
0.0
  3
NoveC_HeatPumpAirWater
  1

  4
Pompa di calore aria-acqua
  0
LWPOLYLINE
  5
3B1
330
3AE
100
AcDbEntity
  8
0
  6
Continuous
 62
0
370
-2
100
AcDbPolyline
 90
4
 70
1
 10
2.4
 20
-3.0
 10
37.6
 20
-3.0
 10
37.6
 20
-27.0
 10
2.4
 20
-27.0
  0
CIRCLE
  5
3B2
330
3AE
100
AcDbEntity
  8
0
  6
Continuous
 62
0
370
-2
100
AcDbCircle
 10
14.368
 20
-15.0
 30
0.0
 40
7.2
  0
LINE
  5
3B3
330
3AE
100
AcDbEntity
  8
0
  6
Continuous
 62
0
370
-2
100
AcDbLine
 10
14.368
 20
-15.0
 30
0.0
 11
14.368
 21
-9.6
 31
0.0
  0
LINE
  5
3B4
330
3AE
100
AcDbEntity
  8
0
  6
Continuous
 62
0
370
-2
100
AcDbLine
 10
14.368
 20
-15.0
 30
0.0
 11
9.688
 21
-17.736
 31
0.0
  0
LINE
  5
3B5
330
3AE
100
AcDbEntity
  8
0
  6
Continuous
 62
0
370
-2
100
AcDbLine
 10
14.368
 20
-15.0
 30
0.0
 11
19.048
 21
-17.736
 31
0.0
  0
LINE
  5
3B6
330
3AE
100
AcDbEntity
  8
0
  6
Continuous
 62
0
370
-2
100
AcDbLine
 10
24.224
 20
-6.6
 30
0.0
 11
24.224
 21
-23.4
 31
0.0
  0
LINE
  5
3B7
330
3AE
100
AcDbEntity
  8
0
  6
Continuous
 62
0
370
-2
100
AcDbLine
 10
27.392
 20
-6.6
 30
0.0
 11
27.392
 21
-23.4
 31
0.0
  0
LINE
  5
3B8
330
3AE
100
AcDbEntity
  8
0
  6
Continuous
 62
0
370
-2
100
AcDbLine
 10
30.56
 20
-6.6
 30
0.0
 11
30.56
 21
-23.4
 31
0.0
  0
LINE
  5
3B9
330
3AE
100
AcDbEntity
  8
0
  6
Continuous
 62
0
370
-2
100
AcDbLine
 10
33.728
 20
-6.6
 30
0.0
 11
33.728
 21
-23.4
 31
0.0
  0
LINE
  5
3BA
330
3AE
100
AcDbEntity
  8
0
  6
Continuous
 62
0
370
-2
100
AcDbLine
 10
40.0
 20
-5.0
 30
0.0
 11
37.6
 21
-5.0
 31
0.0
  0
LINE
  5
3BB
330
3AE
100
AcDbEntity
  8
0
  6
Continuous
 62
0
370
-2
100
AcDbLine
 10
40.0
 20
-20.0
 30
0.0
 11
37.6
 21
-20.0
 31
0.0
  0
ENDBLK
  5
3B0
330
3AE
100
AcDbEntity
  8
0
100
AcDbBlockEnd
  0
BLOCK
  5
3C3
330
3C2
100
AcDbEntity
  8
0
100
AcDbBlockBegin
  2
NoveC_DhwCylinder
 70
0
 10
0.0
 20
0.0
 30
0.0
  3
NoveC_DhwCylinder
  1

  4
Bollitore ACS
  0
LWPOLYLINE
  5
3C5
330
3C2
100
AcDbEntity
  8
0
  6
Continuous
 62
0
370
-2
100
AcDbPolyline
 90
8
 70
1
 10
6.74
 20
-2.7
 10
18.259999999999998
 20
-2.7
 42
-0.4142135623730952
 10
21.5
 20
-5.94
 10
21.5
 20
-39.06
 42
-0.41421356237309537
 10
18.259999999999998
 20
-42.300000000000004
 10
6.74
 20
-42.300000000000004
 42
-0.4142135623730952
 10
3.5
 20
-39.06
 10
3.5
 20
-5.94
 42
-0.4142135623730951
  0
LWPOLYLINE
  5
3C6
330
3C2
100
AcDbEntity
  8
0
  6
Continuous
 62
0
370
-2
100
AcDbPolyline
 90
11
 70
0
 10
0.0
 20
-7.5
 10
7.1
 20
-7.5
 10
17.9
 20
-7.5
 10
17.9
 20
-10.0
 10
7.1
 20
-10.0
 10
7.1
 20
-12.5
 10
17.9
 20
-12.5
 10
17.9
 20
-15.0
 10
7.1
 20
-15.0
 10
7.1
 20
-17.5
 10
0.0
 20
-17.5
  0
LINE
  5
3C7
330
3C2
100
AcDbEntity
  8
0
  6
Continuous
 62
0
370
-2
100
AcDbLine
 10
7.5
 20
0.0
 30
0.0
 11
7.5
 21
-2.7
 31
0.0
  0
LINE
  5
3C8
330
3C2
100
AcDbEntity
  8
0
  6
Continuous
 62
0
370
-2
100
AcDbLine
 10
0.0
 20
-37.5
 30
0.0
 11
3.5
 21
-37.5
 31
0.0
  0
LINE
  5
3C9
330
3C2
100
AcDbEntity
  8
0
  6
Continuous
 62
0
370
-2
100
AcDbLine
 10
25.0
 20
-20.0
 30
0.0
 11
21.5
 21
-20.0
 31
0.0
  0
LINE
  5
3CA
330
3C2
100
AcDbEntity
  8
0
  6
Continuous
 62
0
370
-2
100
AcDbLine
 10
25.0
 20
-12.5
 30
0.0
 11
21.5
 21
-12.5
 31
0.0
  0
ENDBLK
  5
3C4
330
3C2
100
AcDbEntity
  8
0
100
AcDbBlockEnd
  0
BLOCK
  5
3D8
330
3D7
100
AcDbEntity
  8
0
100
AcDbBlockBegin
  2
NoveC_BufferSixPort
 70
0
 10
0.0
 20
0.0
 30
0.0
  3
NoveC_BufferSixPort
  1

  4
Volano termico a sei attacchi
  0
LWPOLYLINE
  5
3DA
330
3D7
100
AcDbEntity
  8
0
  6
Continuous
 62
0
370
-2
100
AcDbPolyline
 90
8
 70
1
 10
6.74
 20
-2.7
 10
18.259999999999998
 20
-2.7
 42
-0.4142135623730952
 10
21.5
 20
-5.94
 10
21.5
 20
-39.06
 42
-0.41421356237309537
 10
18.259999999999998
 20
-42.300000000000004
 10
6.74
 20
-42.300000000000004
 42
-0.4142135623730952
 10
3.5
 20
-39.06
 10
3.5
 20
-5.94
 42
-0.4142135623730951
  0
LINE
  5
3DB
330
3D7
100
AcDbEntity
  8
0
  6
Continuous
 62
0
370
-2
100
AcDbLine
 10
0.0
 20
-5.0
 30
0.0
 11
3.5
 21
-5.0
 31
0.0
  0
LINE
  5
3DC
330
3D7
100
AcDbEntity
  8
0
  6
Continuous
 62
0
370
-2
100
AcDbLine
 10
0.0
 20
-20.0
 30
0.0
 11
3.5
 21
-20.0
 31
0.0
  0
LINE
  5
3DD
330
3D7
100
AcDbEntity
  8
0
  6
Continuous
 62
0
370
-2
100
AcDbLine
 10
25.0
 20
-5.0
 30
0.0
 11
21.5
 21
-5.0
 31
0.0
  0
LINE
  5
3DE
330
3D7
100
AcDbEntity
  8
0
  6
Continuous
 62
0
370
-2
100
AcDbLine
 10
25.0
 20
-20.0
 30
0.0
 11
21.5
 21
-20.0
 31
0.0
  0
LINE
  5
3DF
330
3D7
100
AcDbEntity
  8
0
  6
Continuous
 62
0
370
-2
100
AcDbLine
 10
12.5
 20
0.0
 30
0.0
 11
12.5
 21
-2.7
 31
0.0
  0
LINE
  5
3E0
330
3D7
100
AcDbEntity
  8
0
  6
Continuous
 62
0
370
-2
100
AcDbLine
 10
12.5
 20
-45.0
 30
0.0
 11
12.5
 21
-42.3
 31
0.0
  0
LINE
  5
3E1
330
3D7
100
AcDbEntity
  8
0
  6
Continuous
 62
0
370
-2
100
AcDbLine
 10
0.0
 20
-32.5
 30
0.0
 11
3.5
 21
-32.5
 31
0.0
  0
LINE
  5
3E2
330
3D7
100
AcDbEntity
  8
0
  6
Continuous
 62
0
370
-2
100
AcDbLine
 10
25.0
 20
-27.5
 30
0.0
 11
21.5
 21
-27.5
 31
0.0
  0
LINE
  5
3E3
330
3D7
100
AcDbEntity
  8
0
  6
Continuous
 62
0
370
-2
100
AcDbLine
 10
25.0
 20
-37.5
 30
0.0
 11
21.5
 21
-37.5
 31
0.0
  0
ENDBLK
  5
3D9
330
3D7
100
AcDbEntity
  8
0
100
AcDbBlockEnd
  0
BLOCK
  5
3E7
330
3E6
100
AcDbEntity
  8
0
100
AcDbBlockBegin
  2
NoveC_AirVent
 70
0
 10
0.0
 20
0.0
 30
0.0
  3
NoveC_AirVent
  1

  4
Valvola di sfiato aria
  0
LINE
  5
3E9
330
3E6
100
AcDbEntity
  8
0
  6
Continuous
 62
0
370
-2
100
AcDbLine
 10
2.5
 20
-5.0
 30
0.0
 11
2.5
 21
-3.7
 31
0.0
  0
CIRCLE
  5
3EA
330
3E6
100
AcDbEntity
  8
0
  6
Continuous
 62
0
370
-2
100
AcDbCircle
 10
2.5
 20
-2.5
 30
0.0
 40
1.2
  0
LINE
  5
3EB
330
3E6
100
AcDbEntity
  8
0
  6
Continuous
 62
0
370
-2
100
AcDbLine
 10
1.0
 20
-0.6
 30
0.0
 11
4.0
 21
-0.6
 31
0.0
  0
ENDBLK
  5
3E8
330
3E6
100
AcDbEntity
  8
0
100
AcDbBlockEnd
  0
BLOCK
  5
3F1
330
3F0
100
AcDbEntity
  8
0
100
AcDbBlockBegin
  2
NoveC_BufferFourPort
 70
0
 10
0.0
 20
0.0
 30
0.0
  3
NoveC_BufferFourPort
  1

  4
Volano termico a quattro attacchi
  0
LWPOLYLINE
  5
3F3
330
3F0
100
AcDbEntity
  8
0
  6
Continuous
 62
0
370
-2
100
AcDbPolyline
 90
8
 70
1
 10
6.74
 20
-2.7
 10
18.259999999999998
 20
-2.7
 42
-0.4142135623730952
 10
21.5
 20
-5.94
 10
21.5
 20
-39.06
 42
-0.41421356237309537
 10
18.259999999999998
 20
-42.300000000000004
 10
6.74
 20
-42.300000000000004
 42
-0.4142135623730952
 10
3.5
 20
-39.06
 10
3.5
 20
-5.94
 42
-0.4142135623730951
  0
LINE
  5
3F4
330
3F0
100
AcDbEntity
  8
0
  6
Continuous
 62
0
370
-2
100
AcDbLine
 10
0.0
 20
-5.0
 30
0.0
 11
3.5
 21
-5.0
 31
0.0
  0
LINE
  5
3F5
330
3F0
100
AcDbEntity
  8
0
  6
Continuous
 62
0
370
-2
100
AcDbLine
 10
0.0
 20
-20.0
 30
0.0
 11
3.5
 21
-20.0
 31
0.0
  0
LINE
  5
3F6
330
3F0
100
AcDbEntity
  8
0
  6
Continuous
 62
0
370
-2
100
AcDbLine
 10
25.0
 20
-5.0
 30
0.0
 11
21.5
 21
-5.0
 31
0.0
  0
LINE
  5
3F7
330
3F0
100
AcDbEntity
  8
0
  6
Continuous
 62
0
370
-2
100
AcDbLine
 10
25.0
 20
-20.0
 30
0.0
 11
21.5
 21
-20.0
 31
0.0
  0
LINE
  5
3F8
330
3F0
100
AcDbEntity
  8
0
  6
Continuous
 62
0
370
-2
100
AcDbLine
 10
12.5
 20
0.0
 30
0.0
 11
12.5
 21
-2.7
 31
0.0
  0
LINE
  5
3F9
330
3F0
100
AcDbEntity
  8
0
  6
Continuous
 62
0
370
-2
100
AcDbLine
 10
12.5
 20
-45.0
 30
0.0
 11
12.5
 21
-42.3
 31
0.0
  0
LINE
  5
3FA
330
3F0
100
AcDbEntity
  8
0
  6
Continuous
 62
0
370
-2
100
AcDbLine
 10
0.0
 20
-32.5
 30
0.0
 11
3.5
 21
-32.5
 31
0.0
  0
ENDBLK
  5
3F2
330
3F0
100
AcDbEntity
  8
0
100
AcDbBlockEnd
  0
BLOCK
  5
404
330
403
100
AcDbEntity
  8
0
100
AcDbBlockBegin
  2
NoveC_PressureGauge
 70
0
 10
0.0
 20
0.0
 30
0.0
  3
NoveC_PressureGauge
  1

  4
Manometro
  0
LINE
  5
406
330
403
100
AcDbEntity
  8
0
  6
Continuous
 62
0
370
-2
100
AcDbLine
 10
2.5
 20
-10.0
 30
0.0
 11
2.5
 21
-5.0
 31
0.0
  0
CIRCLE
  5
407
330
403
100
AcDbEntity
  8
0
  6
Continuous
 62
0
370
-2
100
AcDbCircle
 10
2.5
 20
-3.0
 30
0.0
 40
2.0
  0
ENDBLK
  5
405
330
403
100
AcDbEntity
  8
0
100
AcDbBlockEnd
  0
BLOCK
  5
409
330
408
100
AcDbEntity
  8
0
100
AcDbBlockBegin
  2
NoveC_PressureGauge_Lettera
 70
0
 10
0.0
 20
0.0
 30
0.0
  3
NoveC_PressureGauge_Lettera
  1

  4
Manometro: lettera, sempre diritta
  0
LINE
  5
40B
330
408
100
AcDbEntity
  8
0
  6
Continuous
 62
0
370
-2
100
AcDbLine
 10
-0.5
 20
1.0
 30
0.0
 11
-0.5
 21
-1.0999999999999996
 31
0.0
  0
LWPOLYLINE
  5
40C
330
408
100
AcDbEntity
  8
0
  6
Continuous
 62
0
370
-2
100
AcDbPolyline
 90
13
 70
0
 10
-0.5
 20
1.0
 10
-0.24027777777777803
 20
0.9166666666666665
 10
-0.02777777777777768
 20
0.833333333333333
 10
0.13750000000000018
 20
0.75
 10
0.255555555555556
 20
0.6666666666666665
 10
0.3263888888888884
 20
0.5833333333333335
 10
0.3500000000000001
 20
0.5
 10
0.3263888888888893
 20
0.41666666666666696
 10
0.25555555555555554
 20
0.33333333333333304
 10
0.13750000000000018
 20
0.25
 10
-0.02777777777777768
 20
0.16666666666666652
 10
-0.2402777777777776
 20
0.08333333333333348
 10
-0.5
 20
0.0
  0
ENDBLK
  5
40A
330
408
100
AcDbEntity
  8
0
100
AcDbBlockEnd
  0
BLOCK
  5
41E
330
41D
100
AcDbEntity
  8
0
100
AcDbBlockBegin
  2
NoveC_TeeJunction
 70
0
 10
0.0
 20
0.0
 30
0.0
  3
NoveC_TeeJunction
  1

  4
Raccordo a T
  0
LINE
  5
420
330
41D
100
AcDbEntity
  8
0
  6
Continuous
 62
0
370
-2
100
AcDbLine
 10
0.0
 20
-2.5
 30
0.0
 11
5.0
 21
-2.5
 31
0.0
  0
LINE
  5
421
330
41D
100
AcDbEntity
  8
0
  6
Continuous
 62
0
370
-2
100
AcDbLine
 10
2.5
 20
0.0
 30
0.0
 11
2.5
 21
-2.5
 31
0.0
  0
HATCH
  5
422
330
41D
100
AcDbEntity
  8
0
  6
Continuous
 62
0
370
-2
100
AcDbHatch
 10
0.0
 20
0.0
 30
0.0
210
0.0
220
0.0
230
1.0
  2
SOLID
 70
1
 71
0
 91
1
 92
3
 72
1
 73
1
 93
2
 10
1.8
 20
-2.5
 42
1.0
 10
3.2
 20
-2.5
 42
1.0
 97
0
 75
1
 76
1
 98
0
  0
CIRCLE
  5
423
330
41D
100
AcDbEntity
  8
0
  6
Continuous
 62
0
370
-2
100
AcDbCircle
 10
2.5
 20
-2.5
 30
0.0
 40
0.7
  0
ENDBLK
  5
41F
330
41D
100
AcDbEntity
  8
0
100
AcDbBlockEnd
  0
BLOCK
  5
429
330
428
100
AcDbEntity
  8
0
100
AcDbBlockBegin
  2
NoveC_FillingUnit
 70
0
 10
0.0
 20
0.0
 30
0.0
  3
NoveC_FillingUnit
  1

  4
Gruppo di riempimento
  0
LINE
  5
42B
330
428
100
AcDbEntity
  8
0
  6
Continuous
 62
0
370
-2
100
AcDbLine
 10
2.5
 20
0.0
 30
0.0
 11
2.5
 21
-2.4
 31
0.0
  0
LWPOLYLINE
  5
42C
330
428
100
AcDbEntity
  8
0
  6
Continuous
 62
0
370
-2
100
AcDbPolyline
 90
3
 70
1
 10
1.3
 20
-2.4
 10
3.7
 20
-2.4
 10
2.5
 20
-4.0
  0
LWPOLYLINE
  5
42D
330
428
100
AcDbEntity
  8
0
  6
Continuous
 62
0
370
-2
100
AcDbPolyline
 90
3
 70
1
 10
1.3
 20
-5.6
 10
3.7
 20
-5.6
 10
2.5
 20
-4.0
  0
LINE
  5
42E
330
428
100
AcDbEntity
  8
0
  6
Continuous
 62
0
370
-2
100
AcDbLine
 10
2.5
 20
-5.6
 30
0.0
 11
2.5
 21
-6.8
 31
0.0
  0
LWPOLYLINE
  5
42F
330
428
100
AcDbEntity
  8
0
  6
Continuous
 62
0
370
-2
100
AcDbPolyline
 90
3
 70
1
 10
1.3
 20
-6.8
 10
3.7
 20
-6.8
 10
2.5
 20
-9.2
  0
LINE
  5
430
330
428
100
AcDbEntity
  8
0
  6
Continuous
 62
0
370
-2
100
AcDbLine
 10
2.5
 20
-9.2
 30
0.0
 11
2.5
 21
-10.0
 31
0.0
  0
ENDBLK
  5
42A
330
428
100
AcDbEntity
  8
0
100
AcDbBlockEnd
  0
BLOCK
  5
458
330
457
100
AcDbEntity
  8
0
100
AcDbBlockBegin
  2
NoveC_ValveSafety
 70
0
 10
0.0
 20
0.0
 30
0.0
  3
NoveC_ValveSafety
  1

  4
Valvola di sicurezza
  0
LINE
  5
45A
330
457
100
AcDbEntity
  8
0
  6
Continuous
 62
0
370
-2
100
AcDbLine
 10
2.5
 20
-10.0
 30
0.0
 11
2.5
 21
-6.2
 31
0.0
  0
LWPOLYLINE
  5
45B
330
457
100
AcDbEntity
  8
0
  6
Continuous
 62
0
370
-2
100
AcDbPolyline
 90
3
 70
1
 10
0.9
 20
-4.2
 10
4.1
 20
-4.2
 10
2.5
 20
-6.2
  0
LWPOLYLINE
  5
45C
330
457
100
AcDbEntity
  8
0
  6
Continuous
 62
0
370
-2
100
AcDbPolyline
 90
5
 70
0
 10
2.5
 20
-4.2
 10
1.1
 20
-3.4
 10
3.9
 20
-2.6
 10
1.1
 20
-1.8
 10
3.9
 20
-1.0
  0
ENDBLK
  5
459
330
457
100
AcDbEntity
  8
0
100
AcDbBlockEnd
  0
BLOCK
  5
4A2
330
4A1
100
AcDbEntity
  8
0
100
AcDbBlockBegin
  2
NoveC_ValveIsolation
 70
0
 10
0.0
 20
0.0
 30
0.0
  3
NoveC_ValveIsolation
  1

  4
Valvola di intercettazione
  0
LINE
  5
4A4
330
4A1
100
AcDbEntity
  8
0
  6
Continuous
 62
0
370
-2
100
AcDbLine
 10
0.0
 20
-2.5
 30
0.0
 11
0.8333
 21
-2.5
 31
0.0
  0
LINE
  5
4A5
330
4A1
100
AcDbEntity
  8
0
  6
Continuous
 62
0
370
-2
100
AcDbLine
 10
4.1667
 20
-2.5
 30
0.0
 11
5.0
 21
-2.5
 31
0.0
  0
LWPOLYLINE
  5
4A6
330
4A1
100
AcDbEntity
  8
0
  6
Continuous
 62
0
370
-2
100
AcDbPolyline
 90
3
 70
1
 10
0.8333
 20
-0.5
 10
0.8333
 20
-4.5
 10
2.5
 20
-2.5
  0
LWPOLYLINE
  5
4A7
330
4A1
100
AcDbEntity
  8
0
  6
Continuous
 62
0
370
-2
100
AcDbPolyline
 90
3
 70
1
 10
4.1667
 20
-0.5
 10
4.1667
 20
-4.5
 10
2.5
 20
-2.5
  0
ENDBLK
  5
4A3
330
4A1
100
AcDbEntity
  8
0
100
AcDbBlockEnd
  0
BLOCK
  5
4B1
330
4B0
100
AcDbEntity
  8
0
100
AcDbBlockBegin
  2
NoveC_ValveGaugeCock3way
 70
0
 10
0.0
 20
0.0
 30
0.0
  3
NoveC_ValveGaugeCock3way
  1

  4
Rubinetto portamanometro a tre vie
  0
LINE
  5
4B3
330
4B0
100
AcDbEntity
  8
0
  6
Continuous
 62
0
370
-2
100
AcDbLine
 10
0.0
 20
-2.5
 30
0.0
 11
1.1
 21
-2.5
 31
0.0
  0
LINE
  5
4B4
330
4B0
100
AcDbEntity
  8
0
  6
Continuous
 62
0
370
-2
100
AcDbLine
 10
3.9
 20
-2.5
 30
0.0
 11
5.0
 21
-2.5
 31
0.0
  0
LINE
  5
4B5
330
4B0
100
AcDbEntity
  8
0
  6
Continuous
 62
0
370
-2
100
AcDbLine
 10
2.5
 20
-1.1
 30
0.0
 11
2.5
 21
-0.6
 31
0.0
  0
LINE
  5
4B6
330
4B0
100
AcDbEntity
  8
0
  6
Continuous
 62
0
370
-2
100
AcDbLine
 10
1.38
 20
-0.6
 30
0.0
 11
3.62
 21
-0.6
 31
0.0
  0
LWPOLYLINE
  5
4B7
330
4B0
100
AcDbEntity
  8
0
  6
Continuous
 62
0
370
-2
100
AcDbPolyline
 90
3
 70
1
 10
1.1
 20
-1.38
 10
1.1
 20
-3.62
 10
2.5
 20
-2.5
  0
LWPOLYLINE
  5
4B8
330
4B0
100
AcDbEntity
  8
0
  6
Continuous
 62
0
370
-2
100
AcDbPolyline
 90
3
 70
1
 10
3.9
 20
-1.38
 10
3.9
 20
-3.62
 10
2.5
 20
-2.5
  0
LWPOLYLINE
  5
4B9
330
4B0
100
AcDbEntity
  8
0
  6
Continuous
 62
0
370
-2
100
AcDbPolyline
 90
3
 70
1
 10
1.38
 20
-1.1
 10
3.62
 20
-1.1
 10
2.5
 20
-2.5
  0
ENDBLK
  5
4B2
330
4B0
100
AcDbEntity
  8
0
100
AcDbBlockEnd
  0
BLOCK
  5
4C5
330
4C4
100
AcDbEntity
  8
0
100
AcDbBlockBegin
  2
NoveC_PumpCirculator
 70
0
 10
0.0
 20
0.0
 30
0.0
  3
NoveC_PumpCirculator
  1

  4
Pompa di circolazione
  0
LINE
  5
4C7
330
4C4
100
AcDbEntity
  8
0
  6
Continuous
 62
0
370
-2
100
AcDbLine
 10
0.0
 20
-5.0
 30
0.0
 11
2.0
 21
-5.0
 31
0.0
  0
LINE
  5
4C8
330
4C4
100
AcDbEntity
  8
0
  6
Continuous
 62
0
370
-2
100
AcDbLine
 10
8.0
 20
-5.0
 30
0.0
 11
10.0
 21
-5.0
 31
0.0
  0
CIRCLE
  5
4C9
330
4C4
100
AcDbEntity
  8
0
  6
Continuous
 62
0
370
-2
100
AcDbCircle
 10
5.0
 20
-5.0
 30
0.0
 40
3.0
  0
HATCH
  5
4CA
330
4C4
100
AcDbEntity
  8
0
  6
Continuous
 62
0
370
-2
100
AcDbHatch
 10
0.0
 20
0.0
 30
0.0
210
0.0
220
0.0
230
1.0
  2
SOLID
 70
1
 71
0
 91
1
 92
3
 72
0
 73
1
 93
3
 10
3.5
 20
-2.402
 10
3.5
 20
-7.598
 10
8.0
 20
-5.0
 97
0
 75
1
 76
1
 98
0
  0
LWPOLYLINE
  5
4CB
330
4C4
100
AcDbEntity
  8
0
  6
Continuous
 62
0
370
-2
100
AcDbPolyline
 90
3
 70
1
 10
3.5
 20
-2.402
 10
3.5
 20
-7.598
 10
8.0
 20
-5.0
  0
ENDBLK
  5
4C6
330
4C4
100
AcDbEntity
  8
0
100
AcDbBlockEnd
  0
BLOCK
  5
501
330
500
100
AcDbEntity
  8
0
100
AcDbBlockBegin
  2
NoveC_ValveCheck
 70
0
 10
0.0
 20
0.0
 30
0.0
  3
NoveC_ValveCheck
  1

  4
Valvola di ritegno
  0
LINE
  5
503
330
500
100
AcDbEntity
  8
0
  6
Continuous
 62
0
370
-2
100
AcDbLine
 10
0.0
 20
-2.5
 30
0.0
 11
0.85
 21
-2.5
 31
0.0
  0
LINE
  5
504
330
500
100
AcDbEntity
  8
0
  6
Continuous
 62
0
370
-2
100
AcDbLine
 10
4.15
 20
-2.5
 30
0.0
 11
5.0
 21
-2.5
 31
0.0
  0
LINE
  5
505
330
500
100
AcDbEntity
  8
0
  6
Continuous
 62
0
370
-2
100
AcDbLine
 10
0.85
 20
-1.51
 30
0.0
 11
0.85
 21
-3.49
 31
0.0
  0
LINE
  5
506
330
500
100
AcDbEntity
  8
0
  6
Continuous
 62
0
370
-2
100
AcDbLine
 10
0.85
 20
-1.51
 30
0.0
 11
4.15
 21
-3.49
 31
0.0
  0
LINE
  5
507
330
500
100
AcDbEntity
  8
0
  6
Continuous
 62
0
370
-2
100
AcDbLine
 10
4.15
 20
-1.51
 30
0.0
 11
4.15
 21
-3.49
 31
0.0
  0
LINE
  5
508
330
500
100
AcDbEntity
  8
0
  6
Continuous
 62
0
370
-2
100
AcDbLine
 10
0.85
 20
-0.6
 30
0.0
 11
4.15
 21
-0.6
 31
0.0
  0
LINE
  5
509
330
500
100
AcDbEntity
  8
0
  6
Continuous
 62
0
370
-2
100
AcDbLine
 10
4.15
 20
-0.6
 30
0.0
 11
3.55
 21
-0.3
 31
0.0
  0
LINE
  5
50A
330
500
100
AcDbEntity
  8
0
  6
Continuous
 62
0
370
-2
100
AcDbLine
 10
4.15
 20
-0.6
 30
0.0
 11
3.55
 21
-0.9
 31
0.0
  0
ENDBLK
  5
502
330
500
100
AcDbEntity
  8
0
100
AcDbBlockEnd
  0
BLOCK
  5
50E
330
50D
100
AcDbEntity
  8
0
100
AcDbBlockBegin
  2
NoveC_FlexibleJoint
 70
0
 10
0.0
 20
0.0
 30
0.0
  3
NoveC_FlexibleJoint
  1

  4
Giunto antivibrante
  0
LINE
  5
510
330
50D
100
AcDbEntity
  8
0
  6
Continuous
 62
0
370
-2
100
AcDbLine
 10
0.0
 20
-2.5
 30
0.0
 11
1.0
 21
-2.5
 31
0.0
  0
LINE
  5
511
330
50D
100
AcDbEntity
  8
0
  6
Continuous
 62
0
370
-2
100
AcDbLine
 10
4.0
 20
-2.5
 30
0.0
 11
5.0
 21
-2.5
 31
0.0
  0
LINE
  5
512
330
50D
100
AcDbEntity
  8
0
  6
Continuous
 62
0
370
-2
100
AcDbLine
 10
1.0
 20
-1.0
 30
0.0
 11
1.0
 21
-4.0
 31
0.0
  0
LINE
  5
513
330
50D
100
AcDbEntity
  8
0
  6
Continuous
 62
0
370
-2
100
AcDbLine
 10
4.0
 20
-1.0
 30
0.0
 11
4.0
 21
-4.0
 31
0.0
  0
LWPOLYLINE
  5
514
330
50D
100
AcDbEntity
  8
0
  6
Continuous
 62
0
370
-2
100
AcDbPolyline
 90
73
 70
0
 10
1.0
 20
-2.5
 10
1.0416666666666667
 20
-2.3319444444444444
 10
1.0833333333333335
 20
-2.194444444444445
 10
1.125
 20
-2.0875
 10
1.1666666666666667
 20
-2.0111111111111115
 10
1.2083333333333333
 20
-1.9652777777777775
 10
1.25
 20
-1.95
 10
1.2916666666666665
 20
-1.9652777777777777
 10
1.3333333333333335
 20
-2.011111111111111
 10
1.375
 20
-2.0875
 10
1.4166666666666667
 20
-2.1944444444444446
 10
1.4583333333333333
 20
-2.3319444444444444
 10
1.5
 20
-2.5
 10
1.5416666666666665
 20
-2.668055555555555
 10
1.5833333333333335
 20
-2.8055555555555562
 10
1.625
 20
-2.9125
 10
1.666666666666667
 20
-2.988888888888889
 10
1.708333333333333
 20
-3.0347222222222214
 10
1.75
 20
-3.05
 10
1.791666666666667
 20
-3.0347222222222223
 10
1.8333333333333333
 20
-2.988888888888889
 10
1.875
 20
-2.9125
 10
1.9166666666666667
 20
-2.8055555555555554
 10
1.9583333333333333
 20
-2.6680555555555556
 10
2.0
 20
-2.5
 10
2.0416666666666665
 20
-2.3319444444444444
 10
2.083333333333334
 20
-2.194444444444445
 10
2.125
 20
-2.0875
 10
2.166666666666667
 20
-2.0111111111111115
 10
2.208333333333333
 20
-1.9652777777777775
 10
2.25
 20
-1.95
 10
2.291666666666667
 20
-1.9652777777777777
 10
2.3333333333333335
 20
-2.011111111111111
 10
2.375
 20
-2.0875
 10
2.416666666666667
 20
-2.1944444444444446
 10
2.458333333333333
 20
-2.3319444444444444
 10
2.5
 20
-2.5
 10
2.5416666666666665
 20
-2.668055555555555
 10
2.583333333333334
 20
-2.8055555555555562
 10
2.625
 20
-2.9125
 10
2.6666666666666674
 20
-2.988888888888889
 10
2.708333333333333
 20
-3.0347222222222214
 10
2.75
 20
-3.05
 10
2.791666666666667
 20
-3.0347222222222223
 10
2.8333333333333335
 20
-2.988888888888889
 10
2.875
 20
-2.9125
 10
2.9166666666666665
 20
-2.8055555555555554
 10
2.958333333333333
 20
-2.6680555555555556
 10
3.0
 20
-2.5
 10
3.041666666666666
 20
-2.3319444444444444
 10
3.0833333333333335
 20
-2.194444444444445
 10
3.125
 20
-2.0875
 10
3.166666666666667
 20
-2.0111111111111115
 10
3.2083333333333326
 20
-1.9652777777777775
 10
3.25
 20
-1.95
 10
3.291666666666667
 20
-1.9652777777777777
 10
3.3333333333333335
 20
-2.011111111111111
 10
3.375
 20
-2.0875
 10
3.416666666666667
 20
-2.1944444444444446
 10
3.458333333333333
 20
-2.3319444444444444
 10
3.5
 20
-2.5
 10
3.541666666666666
 20
-2.668055555555555
 10
3.5833333333333335
 20
-2.8055555555555562
 10
3.625
 20
-2.9125
 10
3.666666666666667
 20
-2.988888888888889
 10
3.708333333333333
 20
-3.0347222222222214
 10
3.75
 20
-3.05
 10
3.791666666666667
 20
-3.0347222222222223
 10
3.8333333333333335
 20
-2.988888888888889
 10
3.875
 20
-2.9125
 10
3.916666666666667
 20
-2.8055555555555554
 10
3.958333333333333
 20
-2.6680555555555556
 10
4.0
 20
-2.5
  0
ENDBLK
  5
50F
330
50D
100
AcDbEntity
  8
0
100
AcDbBlockEnd
  0
BLOCK
  5
51C
330
51B
100
AcDbEntity
  8
0
100
AcDbBlockBegin
  2
NoveC_Strainer
 70
0
 10
0.0
 20
0.0
 30
0.0
  3
NoveC_Strainer
  1

  4
Filtro a Y
  0
LINE
  5
51E
330
51B
100
AcDbEntity
  8
0
  6
Continuous
 62
0
370
-2
100
AcDbLine
 10
0.0
 20
-2.5
 30
0.0
 11
5.0
 21
-2.5
 31
0.0
  0
LINE
  5
51F
330
51B
100
AcDbEntity
  8
0
  6
Continuous
 62
0
370
-2
100
AcDbLine
 10
0.5
 20
-1.25
 30
0.0
 11
0.5
 21
-3.75
 31
0.0
  0
LINE
  5
520
330
51B
100
AcDbEntity
  8
0
  6
Continuous
 62
0
370
-2
100
AcDbLine
 10
4.5
 20
-1.25
 30
0.0
 11
4.5
 21
-3.75
 31
0.0
  0
LINE
  5
521
330
51B
100
AcDbEntity
  8
0
  6
Continuous
 62
0
370
-2
100
AcDbLine
 10
2.5
 20
-2.5
 30
0.0
 11
0.9
 21
-4.1
 31
0.0
  0
LINE
  5
522
330
51B
100
AcDbEntity
  8
0
  6
Continuous
 62
0
370
-2
100
AcDbLine
 10
0.5464
 20
-3.7464
 30
0.0
 11
1.2536
 21
-4.4536
 31
0.0
  0
ENDBLK
  5
51D
330
51B
100
AcDbEntity
  8
0
100
AcDbBlockEnd
  0
BLOCK
  5
574
330
573
100
AcDbEntity
  8
0
100
AcDbBlockBegin
  2
NoveC_HeatMeter
 70
0
 10
0.0
 20
0.0
 30
0.0
  3
NoveC_HeatMeter
  1

  4
Contatore di calore
  0
LINE
  5
576
330
573
100
AcDbEntity
  8
0
  6
Continuous
 62
0
370
-2
100
AcDbLine
 10
0.0
 20
-2.5
 30
0.0
 11
1.5
 21
-2.5
 31
0.0
  0
LINE
  5
577
330
573
100
AcDbEntity
  8
0
  6
Continuous
 62
0
370
-2
100
AcDbLine
 10
8.5
 20
-2.5
 30
0.0
 11
10.0
 21
-2.5
 31
0.0
  0
LWPOLYLINE
  5
578
330
573
100
AcDbEntity
  8
0
  6
Continuous
 62
0
370
-2
100
AcDbPolyline
 90
4
 70
1
 10
1.5
 20
-0.5
 10
8.5
 20
-0.5
 10
8.5
 20
-4.5
 10
1.5
 20
-4.5
  0
ENDBLK
  5
575
330
573
100
AcDbEntity
  8
0
100
AcDbBlockEnd
  0
BLOCK
  5
57A
330
579
100
AcDbEntity
  8
0
100
AcDbBlockBegin
  2
NoveC_HeatMeter_Sigla
 70
0
 10
0.0
 20
0.0
 30
0.0
  3
NoveC_HeatMeter_Sigla
  1

  4
Contatore di calore: lettera, sempre diritta
  0
LWPOLYLINE
  5
57C
330
579
100
AcDbEntity
  8
0
  6
Continuous
 62
0
370
-2
100
AcDbPolyline
 90
2
 70
0
 10
-0.4900000000000002
 20
0.98
 42
2.4487754897918346
 10
-0.4900000000000002
 20
-0.98
  0
LWPOLYLINE
  5
57D
330
579
100
AcDbEntity
  8
0
  6
Continuous
 62
0
370
-2
100
AcDbPolyline
 90
2
 70
0
 10
2.45
 20
0.98
 42
2.4487754897918346
 10
2.45
 20
-0.98
  0
ENDBLK
  5
57B
330
579
100
AcDbEntity
  8
0
100
AcDbBlockEnd
  0
BLOCK
  5
5B7
330
5B6
100
AcDbEntity
  8
0
100
AcDbBlockBegin
  2
NoveC_PressureReducer
 70
0
 10
0.0
 20
0.0
 30
0.0
  3
NoveC_PressureReducer
  1

  4
Riduttore di pressione
  0
LINE
  5
5B9
330
5B6
100
AcDbEntity
  8
0
  6
Continuous
 62
0
370
-2
100
AcDbLine
 10
0.0
 20
-5.0
 30
0.0
 11
0.85
 21
-5.0
 31
0.0
  0
LINE
  5
5BA
330
5B6
100
AcDbEntity
  8
0
  6
Continuous
 62
0
370
-2
100
AcDbLine
 10
4.15
 20
-5.0
 30
0.0
 11
5.0
 21
-5.0
 31
0.0
  0
LWPOLYLINE
  5
5BB
330
5B6
100
AcDbEntity
  8
0
  6
Continuous
 62
0
370
-2
100
AcDbPolyline
 90
3
 70
1
 10
0.85
 20
-3.68
 10
0.85
 20
-6.32
 10
2.5
 20
-5.0
  0
LWPOLYLINE
  5
5BC
330
5B6
100
AcDbEntity
  8
0
  6
Continuous
 62
0
370
-2
100
AcDbPolyline
 90
3
 70
1
 10
4.15
 20
-3.68
 10
4.15
 20
-6.32
 10
2.5
 20
-5.0
  0
LINE
  5
5BD
330
5B6
100
AcDbEntity
  8
0
  6
Continuous
 62
0
370
-2
100
AcDbLine
 10
2.5
 20
-5.0
 30
0.0
 11
2.5
 21
-3.4
 31
0.0
  0
LWPOLYLINE
  5
5BE
330
5B6
100
AcDbEntity
  8
0
  6
Continuous
 62
0
370
-2
100
AcDbPolyline
 90
4
 70
1
 10
1.4
 20
-2.2
 10
3.6
 20
-2.2
 10
3.6
 20
-3.4000000000000004
 10
1.4
 20
-3.4000000000000004
  0
ENDBLK
  5
5B8
330
5B6
100
AcDbEntity
  8
0
100
AcDbBlockEnd
  0
BLOCK
  5
5C2
330
5C1
100
AcDbEntity
  8
0
100
AcDbBlockBegin
  2
NoveC_DhwSafetyGroup
 70
0
 10
0.0
 20
0.0
 30
0.0
  3
NoveC_DhwSafetyGroup
  1

  4
Gruppo di sicurezza sanitario
  0
LINE
  5
5C4
330
5C1
100
AcDbEntity
  8
0
  6
Continuous
 62
0
370
-2
100
AcDbLine
 10
0.0
 20
-2.5
 30
0.0
 11
3.5
 21
-2.5
 31
0.0
  0
LINE
  5
5C5
330
5C1
100
AcDbEntity
  8
0
  6
Continuous
 62
0
370
-2
100
AcDbLine
 10
6.3
 20
-2.5
 30
0.0
 11
10.0
 21
-2.5
 31
0.0
  0
LWPOLYLINE
  5
5C6
330
5C1
100
AcDbEntity
  8
0
  6
Continuous
 62
0
370
-2
100
AcDbPolyline
 90
3
 70
1
 10
0.9
 20
-1.1
 10
0.9
 20
-3.9
 10
1.6
 20
-2.5
  0
LWPOLYLINE
  5
5C7
330
5C1
100
AcDbEntity
  8
0
  6
Continuous
 62
0
370
-2
100
AcDbPolyline
 90
3
 70
1
 10
2.3
 20
-1.1
 10
2.3
 20
-3.9
 10
1.6
 20
-2.5
  0
LINE
  5
5C8
330
5C1
100
AcDbEntity
  8
0
  6
Continuous
 62
0
370
-2
100
AcDbLine
 10
3.5
 20
-1.66
 30
0.0
 11
3.5
 21
-3.34
 31
0.0
  0
LINE
  5
5C9
330
5C1
100
AcDbEntity
  8
0
  6
Continuous
 62
0
370
-2
100
AcDbLine
 10
3.5
 20
-1.66
 30
0.0
 11
6.3
 21
-3.34
 31
0.0
  0
LINE
  5
5CA
330
5C1
100
AcDbEntity
  8
0
  6
Continuous
 62
0
370
-2
100
AcDbLine
 10
6.3
 20
-1.66
 30
0.0
 11
6.3
 21
-3.34
 31
0.0
  0
LINE
  5
5CB
330
5C1
100
AcDbEntity
  8
0
  6
Continuous
 62
0
370
-2
100
AcDbLine
 10
8.2
 20
-2.5
 30
0.0
 11
8.2
 21
-1.7
 31
0.0
  0
LWPOLYLINE
  5
5CC
330
5C1
100
AcDbEntity
  8
0
  6
Continuous
 62
0
370
-2
100
AcDbPolyline
 90
3
 70
1
 10
7.5
 20
-1.7
 10
8.9
 20
-1.7
 10
8.2
 20
-0.3
  0
LWPOLYLINE
  5
5CD
330
5C1
100
AcDbEntity
  8
0
  6
Continuous
 62
0
370
-2
100
AcDbPolyline
 90
4
 70
0
 10
8.2
 20
-0.3
 10
7.5
 20
-0.8
 10
8.9
 20
-0.5
 10
7.5
 20
-0.2
  0
ENDBLK
  5
5C3
330
5C1
100
AcDbEntity
  8
0
100
AcDbBlockEnd
  0
ENDSEC
  0
SECTION
  2
ENTITIES
  0
LWPOLYLINE
  5
74
330
17
100
AcDbEntity
  8
P-DOMW-CPIP
100
AcDbPolyline
 90
2
 70
128
 10
335.0
 20
90.5
 10
335.0
 20
100.5
  0
INSERT
  5
79
330
17
100
AcDbEntity
  8
P-DOMW-CPIP
100
AcDbBlockReference
  2
NoveC_FlowArrow
 10
335.0
 20
95.5
 30
0.0
 50
90.0
  0
LWPOLYLINE
  5
7B
330
17
100
AcDbEntity
  8
P-DOMW-CPIP
100
AcDbPolyline
 90
2
 70
128
 10
335.0
 20
490.5
 10
335.0
 20
500.5
  0
INSERT
  5
7C
330
17
100
AcDbEntity
  8
P-DOMW-CPIP
100
AcDbBlockReference
  2
NoveC_FlowArrow
 10
335.0
 20
495.5
 30
0.0
 50
90.0
  0
LWPOLYLINE
  5
7E
330
17
100
AcDbEntity
  8
P-DOMW-CPIP
100
AcDbPolyline
 90
2
 70
128
 10
632.5
 20
180.5
 10
625.0
 20
180.5
  0
INSERT
  5
7F
330
17
100
AcDbEntity
  8
P-DOMW-CPIP
100
AcDbBlockReference
  2
NoveC_FlowArrow
 10
628.75
 20
180.5
 30
0.0
 50
180.0
  0
LWPOLYLINE
  5
81
330
17
100
AcDbEntity
  8
P-DOMW-CPIP
100
AcDbPolyline
 90
2
 70
128
 10
620.0
 20
180.5
 10
615.0
 20
180.5
  0
INSERT
  5
82
330
17
100
AcDbEntity
  8
P-DOMW-CPIP
100
AcDbBlockReference
  2
NoveC_FlowArrow
 10
617.5
 20
180.5
 30
0.0
 50
180.0
  0
LWPOLYLINE
  5
84
330
17
100
AcDbEntity
  8
P-DOMW-CPIP
100
AcDbPolyline
 90
2
 70
128
 10
540.0
 20
105.5
 10
540.0
 20
93.0
  0
INSERT
  5
85
330
17
100
AcDbEntity
  8
P-DOMW-CPIP
100
AcDbBlockReference
  2
NoveC_FlowArrow
 10
540.0
 20
99.25
 30
0.0
 50
270.0
  0
LWPOLYLINE
  5
88
330
17
100
AcDbEntity
  8
M-HWTR-SPLY
100
AcDbPolyline
 90
2
 70
128
 10
405.0
 20
98.0
 10
405.0
 20
88.0
  0
INSERT
  5
89
330
17
100
AcDbEntity
  8
M-HWTR-SPLY
100
AcDbBlockReference
  2
NoveC_FlowArrow
 10
405.0
 20
93.0
 30
0.0
 50
270.0
  0
LWPOLYLINE
  5
8B
330
17
100
AcDbEntity
  8
M-HWTR-SPLY
100
AcDbPolyline
 90
2
 70
128
 10
405.0
 20
498.0
 10
405.0
 20
488.0
  0
INSERT
  5
8C
330
17
100
AcDbEntity
  8
M-HWTR-SPLY
100
AcDbBlockReference
  2
NoveC_FlowArrow
 10
405.0
 20
493.0
 30
0.0
 50
270.0
  0
LWPOLYLINE
  5
8E
330
17
100
AcDbEntity
  8
P-DOMW-CPIP
100
AcDbPolyline
 90
2
 70
128
 10
585.0
 20
105.5
 10
585.0
 20
95.5
  0
LWPOLYLINE
  5
8F
330
17
100
AcDbEntity
  8
P-DOMW-CPIP
100
AcDbPolyline
 90
2
 70
128
 10
585.0
 20
90.5
 10
585.0
 20
85.5
  0
LWPOLYLINE
  5
91
330
17
100
AcDbEntity
  8
M-HWTR-RETN
100
AcDbPolyline
 90
2
 70
128
 10
450.0
 20
520.5
 10
450.0
 20
513.0
  0
LWPOLYLINE
  5
92
330
17
100
AcDbEntity
  8
M-HWTR-RETN
100
AcDbPolyline
 90
2
 70
128
 10
450.0
 20
508.0
 10
450.0
 20
503.0
  0
LWPOLYLINE
  5
93
330
17
100
AcDbEntity
  8
M-HWTR-RETN
100
AcDbPolyline
 90
2
 70
128
 10
475.0
 20
120.5
 10
475.0
 20
113.0
  0
LWPOLYLINE
  5
94
330
17
100
AcDbEntity
  8
M-HWTR-RETN
100
AcDbPolyline
 90
2
 70
128
 10
475.0
 20
108.0
 10
475.0
 20
103.0
  0
LWPOLYLINE
  5
95
330
17
100
AcDbEntity
  8
M-HWTR-RETN
100
AcDbPolyline
 90
2
 70
128
 10
335.0
 20
110.5
 10
335.0
 20
120.5
  0
INSERT
  5
96
330
17
100
AcDbEntity
  8
M-HWTR-RETN
100
AcDbBlockReference
  2
NoveC_FlowArrow
 10
335.0
 20
115.5
 30
0.0
 50
90.0
  0
LWPOLYLINE
  5
98
330
17
100
AcDbEntity
  8
M-HWTR-RETN
100
AcDbPolyline
 90
2
 70
128
 10
335.0
 20
510.5
 10
335.0
 20
520.5
  0
INSERT
  5
99
330
17
100
AcDbEntity
  8
M-HWTR-RETN
100
AcDbBlockReference
  2
NoveC_FlowArrow
 10
335.0
 20
515.5
 30
0.0
 50
90.0
  0
LWPOLYLINE
  5
9B
330
17
100
AcDbEntity
  8
M-HWTR-RETN
100
AcDbPolyline
 90
2
 70
128
 10
437.5
 20
520.5
 10
437.5
 20
513.0
  0
LWPOLYLINE
  5
9C
330
17
100
AcDbEntity
  8
M-HWTR-RETN
100
AcDbPolyline
 90
2
 70
128
 10
437.5
 20
508.0
 10
437.5
 20
503.0
  0
LWPOLYLINE
  5
9D
330
17
100
AcDbEntity
  8
M-HWTR-RETN
100
AcDbPolyline
 90
2
 70
128
 10
487.5
 20
120.5
 10
487.5
 20
113.0
  0
LWPOLYLINE
  5
9E
330
17
100
AcDbEntity
  8
M-HWTR-RETN
100
AcDbPolyline
 90
2
 70
128
 10
487.5
 20
108.0
 10
487.5
 20
103.0
  0
LWPOLYLINE
  5
9F
330
17
100
AcDbEntity
  8
M-HWTR-SPLY
100
AcDbPolyline
 90
2
 70
128
 10
232.5
 20
140.5
 10
232.5
 20
150.5
  0
LWPOLYLINE
  5
A0
330
17
100
AcDbEntity
  8
M-HWTR-SPLY
100
AcDbPolyline
 90
2
 70
128
 10
232.5
 20
80.5
 10
232.5
 20
90.5
  0
LWPOLYLINE
  5
A1
330
17
100
AcDbEntity
  8
M-HWTR-SPLY
100
AcDbPolyline
 90
2
 70
128
 10
232.5
 20
540.5
 10
232.5
 20
550.5
  0
LWPOLYLINE
  5
A2
330
17
100
AcDbEntity
  8
M-HWTR-SPLY
100
AcDbPolyline
 90
2
 70
128
 10
232.5
 20
480.5
 10
232.5
 20
490.5
  0
LWPOLYLINE
  5
A3
330
17
100
AcDbEntity
  8
M-HWTR-SPLY
100
AcDbPolyline
 90
2
 70
128
 10
232.5
 20
420.5
 10
232.5
 20
430.5
  0
LWPOLYLINE
  5
A4
330
17
100
AcDbEntity
  8
M-HWTR-SPLY
100
AcDbPolyline
 90
2
 70
128
 10
232.5
 20
360.5
 10
232.5
 20
370.5
  0
LWPOLYLINE
  5
A5
330
17
100
AcDbEntity
  8
M-HWTR-SPLY
100
AcDbPolyline
 90
2
 70
128
 10
277.5
 20
420.5
 10
277.5
 20
461.75
  0
LWPOLYLINE
  5
A6
330
17
100
AcDbEntity
  8
M-HWTR-SPLY
100
AcDbPolyline
 90
2
 70
128
 10
277.5
 20
464.25
 10
277.5
 20
475.5
  0
ARC
  5
A7
330
17
100
AcDbEntity
  8
M-HWTR-SPLY
  6
Continuous
100
AcDbCircle
 10
277.5
 20
463.0
 30
0.0
 40
1.25
100
AcDbArc
 50
270.0
 51
90.0
  0
INSERT
  5
A8
330
17
100
AcDbEntity
  8
M-HWTR-SPLY
100
AcDbBlockReference
  2
NoveC_FlowArrow
 10
277.5
 20
448.0
 30
0.0
 50
90.0
  0
LWPOLYLINE
  5
AA
330
17
100
AcDbEntity
  8
M-HWTR-SPLY
100
AcDbPolyline
 90
2
 70
128
 10
277.5
 20
480.5
 10
277.5
 20
521.75
  0
LWPOLYLINE
  5
AB
330
17
100
AcDbEntity
  8
M-HWTR-SPLY
100
AcDbPolyline
 90
2
 70
128
 10
277.5
 20
524.25
 10
277.5
 20
535.5
  0
ARC
  5
AC
330
17
100
AcDbEntity
  8
M-HWTR-SPLY
  6
Continuous
100
AcDbCircle
 10
277.5
 20
523.0
 30
0.0
 40
1.25
100
AcDbArc
 50
270.0
 51
90.0
  0
INSERT
  5
AD
330
17
100
AcDbEntity
  8
M-HWTR-SPLY
100
AcDbBlockReference
  2
NoveC_FlowArrow
 10
277.5
 20
508.0
 30
0.0
 50
90.0
  0
LWPOLYLINE
  5
AF
330
17
100
AcDbEntity
  8
M-HWTR-SPLY
100
AcDbPolyline
 90
2
 70
128
 10
280.0
 20
538.0
 10
382.5
 20
538.0
  0
INSERT
  5
B0
330
17
100
AcDbEntity
  8
M-HWTR-SPLY
100
AcDbBlockReference
  2
NoveC_FlowArrow
 10
331.25
 20
538.0
 30
0.0
  0
LWPOLYLINE
  5
B2
330
17
100
AcDbEntity
  8
M-HWTR-SPLY
100
AcDbPolyline
 90
2
 70
128
 10
387.5
 20
538.0
 10
392.5
 20
538.0
  0
INSERT
  5
B3
330
17
100
AcDbEntity
  8
M-HWTR-SPLY
100
AcDbBlockReference
  2
NoveC_FlowArrow
 10
390.0
 20
538.0
 30
0.0
  0
LWPOLYLINE
  5
B5
330
17
100
AcDbEntity
  8
M-HWTR-RETN
100
AcDbPolyline
 90
2
 70
128
 10
322.5
 20
520.5
 10
322.5
 20
465.5
  0
INSERT
  5
B6
330
17
100
AcDbEntity
  8
M-HWTR-RETN
100
AcDbBlockReference
  2
NoveC_FlowArrow
 10
322.5
 20
493.0
 30
0.0
 50
270.0
  0
LWPOLYLINE
  5
B8
330
17
100
AcDbEntity
  8
M-HWTR-RETN
100
AcDbPolyline
 90
2
 70
128
 10
322.5
 20
460.5
 10
322.5
 20
405.5
  0
INSERT
  5
B9
330
17
100
AcDbEntity
  8
M-HWTR-RETN
100
AcDbBlockReference
  2
NoveC_FlowArrow
 10
322.5
 20
433.0
 30
0.0
 50
270.0
  0
LWPOLYLINE
  5
BB
330
17
100
AcDbEntity
  8
M-HWTR-SPLY
100
AcDbPolyline
 90
2
 70
128
 10
417.5
 20
538.0
 10
422.5
 20
538.0
  0
INSERT
  5
BC
330
17
100
AcDbEntity
  8
M-HWTR-SPLY
100
AcDbBlockReference
  2
NoveC_FlowArrow
 10
420.0
 20
538.0
 30
0.0
  0
LWPOLYLINE
  5
BE
330
17
100
AcDbEntity
  8
M-HWTR-SPLY
100
AcDbPolyline
 90
2
 70
128
 10
427.5
 20
538.0
 10
470.0
 20
538.0
  0
INSERT
  5
BF
330
17
100
AcDbEntity
  8
M-HWTR-SPLY
100
AcDbBlockReference
  2
NoveC_FlowArrow
 10
448.75
 20
538.0
 30
0.0
  0
LWPOLYLINE
  5
C1
330
17
100
AcDbEntity
  8
M-HWTR-SPLY
100
AcDbPolyline
 90
2
 70
128
 10
472.5
 20
535.5
 10
472.5
 20
524.25
  0
LWPOLYLINE
  5
C2
330
17
100
AcDbEntity
  8
M-HWTR-SPLY
100
AcDbPolyline
 90
3
 70
128
 10
472.5
 20
521.75
 10
472.5
 20
490.5
 10
480.0
 20
490.5
  0
ARC
  5
C3
330
17
100
AcDbEntity
  8
M-HWTR-SPLY
  6
Continuous
100
AcDbCircle
 10
472.5
 20
523.0
 30
0.0
 40
1.25
100
AcDbArc
 50
270.0
 51
90.0
  0
INSERT
  5
C4
330
17
100
AcDbEntity
  8
M-HWTR-SPLY
100
AcDbBlockReference
  2
NoveC_FlowArrow
 10
472.5
 20
513.0
 30
0.0
 50
270.0
  0
LWPOLYLINE
  5
C6
330
17
100
AcDbEntity
  8
M-HWTR-SPLY
100
AcDbPolyline
 90
2
 70
128
 10
485.0
 20
490.5
 10
487.5
 20
490.5
  0
LWPOLYLINE
  5
C7
330
17
100
AcDbEntity
  8
M-HWTR-SPLY
100
AcDbPolyline
 90
2
 70
128
 10
497.5
 20
490.5
 10
500.0
 20
490.5
  0
LWPOLYLINE
  5
C8
330
17
100
AcDbEntity
  8
M-HWTR-SPLY
100
AcDbPolyline
 90
2
 70
128
 10
505.0
 20
490.5
 10
525.0
 20
490.5
  0
INSERT
  5
C9
330
17
100
AcDbEntity
  8
M-HWTR-SPLY
100
AcDbBlockReference
  2
NoveC_FlowArrow
 10
515.0
 20
490.5
 30
0.0
  0
LWPOLYLINE
  5
CB
330
17
100
AcDbEntity
  8
M-HWTR-SPLY
100
AcDbPolyline
 90
2
 70
128
 10
475.0
 20
538.0
 10
482.5
 20
538.0
  0
INSERT
  5
CC
330
17
100
AcDbEntity
  8
M-HWTR-SPLY
100
AcDbBlockReference
  2
NoveC_FlowArrow
 10
478.75
 20
538.0
 30
0.0
  0
LWPOLYLINE
  5
CE
330
17
100
AcDbEntity
  8
M-HWTR-SPLY
100
AcDbPolyline
 90
2
 70
128
 10
487.5
 20
538.0
 10
490.0
 20
538.0
  0
LWPOLYLINE
  5
CF
330
17
100
AcDbEntity
  8
M-HWTR-SPLY
100
AcDbPolyline
 90
2
 70
128
 10
500.0
 20
538.0
 10
502.5
 20
538.0
  0
LWPOLYLINE
  5
D0
330
17
100
AcDbEntity
  8
M-HWTR-SPLY
100
AcDbPolyline
 90
3
 70
128
 10
507.5
 20
538.0
 10
637.5
 20
538.0
 10
637.5
 20
493.0
  0
INSERT
  5
D1
330
17
100
AcDbEntity
  8
M-HWTR-SPLY
100
AcDbBlockReference
  2
NoveC_FlowArrow
 10
572.5
 20
538.0
 30
0.0
  0
LWPOLYLINE
  5
D3
330
17
100
AcDbEntity
  8
M-HWTR-RETN
100
AcDbPolyline
 90
2
 70
128
 10
535.0
 20
523.0
 10
452.5
 20
523.0
  0
INSERT
  5
D4
330
17
100
AcDbEntity
  8
M-HWTR-RETN
100
AcDbBlockReference
  2
NoveC_FlowArrow
 10
493.75
 20
523.0
 30
0.0
 50
180.0
  0
LWPOLYLINE
  5
D6
330
17
100
AcDbEntity
  8
M-HWTR-RETN
100
AcDbPolyline
 90
2
 70
128
 10
447.5
 20
523.0
 10
440.0
 20
523.0
  0
INSERT
  5
D7
330
17
100
AcDbEntity
  8
M-HWTR-RETN
100
AcDbBlockReference
  2
NoveC_FlowArrow
 10
443.75
 20
523.0
 30
0.0
 50
180.0
  0
LWPOLYLINE
  5
D9
330
17
100
AcDbEntity
  8
M-HWTR-RETN
100
AcDbPolyline
 90
2
 70
128
 10
435.0
 20
523.0
 10
427.5
 20
523.0
  0
INSERT
  5
DA
330
17
100
AcDbEntity
  8
M-HWTR-RETN
100
AcDbBlockReference
  2
NoveC_FlowArrow
 10
431.25
 20
523.0
 30
0.0
 50
180.0
  0
LWPOLYLINE
  5
DC
330
17
100
AcDbEntity
  8
M-HWTR-RETN
100
AcDbPolyline
 90
2
 70
128
 10
422.5
 20
523.0
 10
417.5
 20
523.0
  0
INSERT
  5
DD
330
17
100
AcDbEntity
  8
M-HWTR-RETN
100
AcDbBlockReference
  2
NoveC_FlowArrow
 10
420.0
 20
523.0
 30
0.0
 50
180.0
  0
LWPOLYLINE
  5
DF
330
17
100
AcDbEntity
  8
M-HWTR-SPLY
100
AcDbPolyline
 90
2
 70
128
 10
530.0
 20
490.5
 10
557.5
 20
490.5
  0
INSERT
  5
E0
330
17
100
AcDbEntity
  8
M-HWTR-SPLY
100
AcDbBlockReference
  2
NoveC_FlowArrow
 10
543.75
 20
490.5
 30
0.0
  0
LWPOLYLINE
  5
E2
330
17
100
AcDbEntity
  8
M-HWTR-SPLY
100
AcDbPolyline
 90
2
 70
128
 10
562.5
 20
490.5
 10
567.5
 20
490.5
  0
INSERT
  5
E3
330
17
100
AcDbEntity
  8
M-HWTR-SPLY
100
AcDbBlockReference
  2
NoveC_FlowArrow
 10
565.0
 20
490.5
 30
0.0
  0
LWPOLYLINE
  5
E5
330
17
100
AcDbEntity
  8
M-HWTR-SPLY
100
AcDbPolyline
 90
2
 70
128
 10
527.5
 20
488.0
 10
527.5
 20
433.0
  0
INSERT
  5
E6
330
17
100
AcDbEntity
  8
M-HWTR-SPLY
100
AcDbBlockReference
  2
NoveC_FlowArrow
 10
527.5
 20
460.5
 30
0.0
 50
270.0
  0
LWPOLYLINE
  5
E8
330
17
100
AcDbEntity
  8
M-HWTR-SPLY
100
AcDbPolyline
 90
2
 70
128
 10
530.0
 20
430.5
 10
557.5
 20
430.5
  0
INSERT
  5
E9
330
17
100
AcDbEntity
  8
M-HWTR-SPLY
100
AcDbBlockReference
  2
NoveC_FlowArrow
 10
543.75
 20
430.5
 30
0.0
  0
LWPOLYLINE
  5
EB
330
17
100
AcDbEntity
  8
M-HWTR-SPLY
100
AcDbPolyline
 90
2
 70
128
 10
562.5
 20
430.5
 10
567.5
 20
430.5
  0
INSERT
  5
EC
330
17
100
AcDbEntity
  8
M-HWTR-SPLY
100
AcDbBlockReference
  2
NoveC_FlowArrow
 10
565.0
 20
430.5
 30
0.0
  0
LWPOLYLINE
  5
EE
330
17
100
AcDbEntity
  8
M-HWTR-SPLY
100
AcDbPolyline
 90
3
 70
128
 10
527.5
 20
428.0
 10
527.5
 20
370.5
 10
557.5
 20
370.5
  0
INSERT
  5
EF
330
17
100
AcDbEntity
  8
M-HWTR-SPLY
100
AcDbBlockReference
  2
NoveC_FlowArrow
 10
527.5
 20
399.25
 30
0.0
 50
270.0
  0
LWPOLYLINE
  5
F1
330
17
100
AcDbEntity
  8
M-HWTR-SPLY
100
AcDbPolyline
 90
2
 70
128
 10
562.5
 20
370.5
 10
567.5
 20
370.5
  0
INSERT
  5
F2
330
17
100
AcDbEntity
  8
M-HWTR-SPLY
100
AcDbBlockReference
  2
NoveC_FlowArrow
 10
565.0
 20
370.5
 30
0.0
  0
LWPOLYLINE
  5
F4
330
17
100
AcDbEntity
  8
M-HWTR-RETN
100
AcDbPolyline
 90
2
 70
128
 10
537.5
 20
423.0
 10
537.5
 20
429.25
  0
LWPOLYLINE
  5
F5
330
17
100
AcDbEntity
  8
M-HWTR-RETN
100
AcDbPolyline
 90
2
 70
128
 10
537.5
 20
431.75
 10
537.5
 20
478.0
  0
ARC
  5
F6
330
17
100
AcDbEntity
  8
M-HWTR-RETN
  6
Continuous
100
AcDbCircle
 10
537.5
 20
430.5
 30
0.0
 40
1.25
100
AcDbArc
 50
270.0
 51
90.0
  0
INSERT
  5
F7
330
17
100
AcDbEntity
  8
M-HWTR-RETN
100
AcDbBlockReference
  2
NoveC_FlowArrow
 10
537.5
 20
450.5
 30
0.0
 50
90.0
  0
LWPOLYLINE
  5
F9
330
17
100
AcDbEntity
  8
M-HWTR-RETN
100
AcDbPolyline
 90
2
 70
128
 10
537.5
 20
483.0
 10
537.5
 20
489.25
  0
LWPOLYLINE
  5
FA
330
17
100
AcDbEntity
  8
M-HWTR-RETN
100
AcDbPolyline
 90
2
 70
128
 10
537.5
 20
491.75
 10
537.5
 20
520.5
  0
ARC
  5
FB
330
17
100
AcDbEntity
  8
M-HWTR-RETN
  6
Continuous
100
AcDbCircle
 10
537.5
 20
490.5
 30
0.0
 40
1.25
100
AcDbArc
 50
270.0
 51
90.0
  0
INSERT
  5
FC
330
17
100
AcDbEntity
  8
M-HWTR-RETN
100
AcDbBlockReference
  2
NoveC_FlowArrow
 10
537.5
 20
501.75
 30
0.0
 50
90.0
  0
LWPOLYLINE
  5
FE
330
17
100
AcDbEntity
  8
M-HWTR-SPLY
100
AcDbPolyline
 90
2
 70
128
 10
640.0
 20
490.5
 10
657.5
 20
490.5
  0
INSERT
  5
FF
330
17
100
AcDbEntity
  8
M-HWTR-SPLY
100
AcDbBlockReference
  2
NoveC_FlowArrow
 10
648.75
 20
490.5
 30
0.0
  0
LWPOLYLINE
  5
101
330
17
100
AcDbEntity
  8
M-HWTR-SPLY
100
AcDbPolyline
 90
2
 70
128
 10
662.5
 20
490.5
 10
667.5
 20
490.5
  0
INSERT
  5
102
330
17
100
AcDbEntity
  8
M-HWTR-SPLY
100
AcDbBlockReference
  2
NoveC_FlowArrow
 10
665.0
 20
490.5
 30
0.0
  0
LWPOLYLINE
  5
104
330
17
100
AcDbEntity
  8
M-HWTR-SPLY
100
AcDbPolyline
 90
2
 70
128
 10
637.5
 20
488.0
 10
637.5
 20
481.75
  0
LWPOLYLINE
  5
105
330
17
100
AcDbEntity
  8
M-HWTR-SPLY
100
AcDbPolyline
 90
2
 70
128
 10
637.5
 20
479.25
 10
637.5
 20
433.0
  0
ARC
  5
106
330
17
100
AcDbEntity
  8
M-HWTR-SPLY
  6
Continuous
100
AcDbCircle
 10
637.5
 20
480.5
 30
0.0
 40
1.25
100
AcDbArc
 50
270.0
 51
90.0
  0
INSERT
  5
107
330
17
100
AcDbEntity
  8
M-HWTR-SPLY
100
AcDbBlockReference
  2
NoveC_FlowArrow
 10
637.5
 20
460.5
 30
0.0
 50
270.0
  0
LWPOLYLINE
  5
109
330
17
100
AcDbEntity
  8
M-HWTR-SPLY
100
AcDbPolyline
 90
2
 70
128
 10
640.0
 20
430.5
 10
657.5
 20
430.5
  0
INSERT
  5
10A
330
17
100
AcDbEntity
  8
M-HWTR-SPLY
100
AcDbBlockReference
  2
NoveC_FlowArrow
 10
648.75
 20
430.5
 30
0.0
  0
LWPOLYLINE
  5
10C
330
17
100
AcDbEntity
  8
M-HWTR-SPLY
100
AcDbPolyline
 90
2
 70
128
 10
662.5
 20
430.5
 10
667.5
 20
430.5
  0
INSERT
  5
10D
330
17
100
AcDbEntity
  8
M-HWTR-SPLY
100
AcDbBlockReference
  2
NoveC_FlowArrow
 10
665.0
 20
430.5
 30
0.0
  0
LWPOLYLINE
  5
10F
330
17
100
AcDbEntity
  8
M-HWTR-SPLY
100
AcDbPolyline
 90
2
 70
128
 10
637.5
 20
428.0
 10
637.5
 20
421.75
  0
LWPOLYLINE
  5
110
330
17
100
AcDbEntity
  8
M-HWTR-SPLY
100
AcDbPolyline
 90
2
 70
128
 10
637.5
 20
419.25
 10
637.5
 20
373.0
  0
ARC
  5
111
330
17
100
AcDbEntity
  8
M-HWTR-SPLY
  6
Continuous
100
AcDbCircle
 10
637.5
 20
420.5
 30
0.0
 40
1.25
100
AcDbArc
 50
270.0
 51
90.0
  0
INSERT
  5
112
330
17
100
AcDbEntity
  8
M-HWTR-SPLY
100
AcDbBlockReference
  2
NoveC_FlowArrow
 10
637.5
 20
400.5
 30
0.0
 50
270.0
  0
LWPOLYLINE
  5
114
330
17
100
AcDbEntity
  8
M-HWTR-SPLY
100
AcDbPolyline
 90
2
 70
128
 10
640.0
 20
370.5
 10
657.5
 20
370.5
  0
INSERT
  5
115
330
17
100
AcDbEntity
  8
M-HWTR-SPLY
100
AcDbBlockReference
  2
NoveC_FlowArrow
 10
648.75
 20
370.5
 30
0.0
  0
LWPOLYLINE
  5
117
330
17
100
AcDbEntity
  8
M-HWTR-SPLY
100
AcDbPolyline
 90
2
 70
128
 10
662.5
 20
370.5
 10
667.5
 20
370.5
  0
INSERT
  5
118
330
17
100
AcDbEntity
  8
M-HWTR-SPLY
100
AcDbBlockReference
  2
NoveC_FlowArrow
 10
665.0
 20
370.5
 30
0.0
  0
LWPOLYLINE
  5
11A
330
17
100
AcDbEntity
  8
M-HWTR-SPLY
100
AcDbPolyline
 90
2
 70
128
 10
637.5
 20
368.0
 10
637.5
 20
361.75
  0
LWPOLYLINE
  5
11B
330
17
100
AcDbEntity
  8
M-HWTR-SPLY
100
AcDbPolyline
 90
2
 70
128
 10
637.5
 20
359.25
 10
637.5
 20
313.0
  0
ARC
  5
11C
330
17
100
AcDbEntity
  8
M-HWTR-SPLY
  6
Continuous
100
AcDbCircle
 10
637.5
 20
360.5
 30
0.0
 40
1.25
100
AcDbArc
 50
270.0
 51
90.0
  0
INSERT
  5
11D
330
17
100
AcDbEntity
  8
M-HWTR-SPLY
100
AcDbBlockReference
  2
NoveC_FlowArrow
 10
637.5
 20
340.5
 30
0.0
 50
270.0
  0
LWPOLYLINE
  5
11F
330
17
100
AcDbEntity
  8
M-HWTR-SPLY
100
AcDbPolyline
 90
2
 70
128
 10
640.0
 20
310.5
 10
657.5
 20
310.5
  0
INSERT
  5
120
330
17
100
AcDbEntity
  8
M-HWTR-SPLY
100
AcDbBlockReference
  2
NoveC_FlowArrow
 10
648.75
 20
310.5
 30
0.0
  0
LWPOLYLINE
  5
122
330
17
100
AcDbEntity
  8
M-HWTR-SPLY
100
AcDbPolyline
 90
2
 70
128
 10
662.5
 20
310.5
 10
667.5
 20
310.5
  0
INSERT
  5
123
330
17
100
AcDbEntity
  8
M-HWTR-SPLY
100
AcDbBlockReference
  2
NoveC_FlowArrow
 10
665.0
 20
310.5
 30
0.0
  0
LWPOLYLINE
  5
125
330
17
100
AcDbEntity
  8
M-HWTR-SPLY
100
AcDbPolyline
 90
2
 70
128
 10
637.5
 20
308.0
 10
637.5
 20
301.75
  0
LWPOLYLINE
  5
126
330
17
100
AcDbEntity
  8
M-HWTR-SPLY
100
AcDbPolyline
 90
3
 70
128
 10
637.5
 20
299.25
 10
637.5
 20
250.5
 10
657.5
 20
250.5
  0
ARC
  5
127
330
17
100
AcDbEntity
  8
M-HWTR-SPLY
  6
Continuous
100
AcDbCircle
 10
637.5
 20
300.5
 30
0.0
 40
1.25
100
AcDbArc
 50
270.0
 51
90.0
  0
INSERT
  5
128
330
17
100
AcDbEntity
  8
M-HWTR-SPLY
100
AcDbBlockReference
  2
NoveC_FlowArrow
 10
637.5
 20
279.25
 30
0.0
 50
270.0
  0
LWPOLYLINE
  5
12A
330
17
100
AcDbEntity
  8
M-HWTR-SPLY
100
AcDbPolyline
 90
2
 70
128
 10
662.5
 20
250.5
 10
667.5
 20
250.5
  0
INSERT
  5
12B
330
17
100
AcDbEntity
  8
M-HWTR-SPLY
100
AcDbBlockReference
  2
NoveC_FlowArrow
 10
665.0
 20
250.5
 30
0.0
  0
LWPOLYLINE
  5
12D
330
17
100
AcDbEntity
  8
M-HWTR-RETN
100
AcDbPolyline
 90
2
 70
128
 10
627.5
 20
303.0
 10
627.5
 20
358.0
  0
INSERT
  5
12E
330
17
100
AcDbEntity
  8
M-HWTR-RETN
100
AcDbBlockReference
  2
NoveC_FlowArrow
 10
627.5
 20
330.5
 30
0.0
 50
90.0
  0
LWPOLYLINE
  5
130
330
17
100
AcDbEntity
  8
M-HWTR-RETN
100
AcDbPolyline
 90
2
 70
128
 10
627.5
 20
363.0
 10
627.5
 20
418.0
  0
INSERT
  5
131
330
17
100
AcDbEntity
  8
M-HWTR-RETN
100
AcDbBlockReference
  2
NoveC_FlowArrow
 10
627.5
 20
390.5
 30
0.0
 50
90.0
  0
LWPOLYLINE
  5
133
330
17
100
AcDbEntity
  8
M-HWTR-RETN
100
AcDbPolyline
 90
2
 70
128
 10
627.5
 20
423.0
 10
627.5
 20
478.0
  0
INSERT
  5
134
330
17
100
AcDbEntity
  8
M-HWTR-RETN
100
AcDbBlockReference
  2
NoveC_FlowArrow
 10
627.5
 20
450.5
 30
0.0
 50
90.0
  0
LWPOLYLINE
  5
136
330
17
100
AcDbEntity
  8
M-HWTR-RETN
100
AcDbPolyline
 90
3
 70
128
 10
627.5
 20
483.0
 10
627.5
 20
523.0
 10
540.0
 20
523.0
  0
INSERT
  5
137
330
17
100
AcDbEntity
  8
M-HWTR-RETN
100
AcDbBlockReference
  2
NoveC_FlowArrow
 10
583.75
 20
523.0
 30
0.0
 50
180.0
  0
LWPOLYLINE
  5
139
330
17
100
AcDbEntity
  8
M-HWTR-SPLY
100
AcDbPolyline
 90
2
 70
128
 10
280.0
 20
138.0
 10
382.5
 20
138.0
  0
INSERT
  5
13A
330
17
100
AcDbEntity
  8
M-HWTR-SPLY
100
AcDbBlockReference
  2
NoveC_FlowArrow
 10
331.25
 20
138.0
 30
0.0
  0
LWPOLYLINE
  5
13C
330
17
100
AcDbEntity
  8
M-HWTR-SPLY
100
AcDbPolyline
 90
2
 70
128
 10
387.5
 20
138.0
 10
392.5
 20
138.0
  0
INSERT
  5
13D
330
17
100
AcDbEntity
  8
M-HWTR-SPLY
100
AcDbBlockReference
  2
NoveC_FlowArrow
 10
390.0
 20
138.0
 30
0.0
  0
LWPOLYLINE
  5
13F
330
17
100
AcDbEntity
  8
M-HWTR-RETN
100
AcDbPolyline
 90
2
 70
128
 10
392.5
 20
123.0
 10
387.5
 20
123.0
  0
INSERT
  5
140
330
17
100
AcDbEntity
  8
M-HWTR-RETN
100
AcDbBlockReference
  2
NoveC_FlowArrow
 10
390.0
 20
123.0
 30
0.0
 50
180.0
  0
LWPOLYLINE
  5
142
330
17
100
AcDbEntity
  8
M-HWTR-RETN
100
AcDbPolyline
 90
2
 70
128
 10
382.5
 20
123.0
 10
337.5
 20
123.0
  0
INSERT
  5
143
330
17
100
AcDbEntity
  8
M-HWTR-RETN
100
AcDbBlockReference
  2
NoveC_FlowArrow
 10
360.0
 20
123.0
 30
0.0
 50
180.0
  0
LWPOLYLINE
  5
145
330
17
100
AcDbEntity
  8
M-HWTR-RETN
100
AcDbPolyline
 90
2
 70
128
 10
332.5
 20
123.0
 10
325.0
 20
123.0
  0
INSERT
  5
146
330
17
100
AcDbEntity
  8
M-HWTR-RETN
100
AcDbBlockReference
  2
NoveC_FlowArrow
 10
328.75
 20
123.0
 30
0.0
 50
180.0
  0
LWPOLYLINE
  5
148
330
17
100
AcDbEntity
  8
M-HWTR-SPLY
100
AcDbPolyline
 90
2
 70
128
 10
417.5
 20
138.0
 10
422.5
 20
138.0
  0
INSERT
  5
149
330
17
100
AcDbEntity
  8
M-HWTR-SPLY
100
AcDbBlockReference
  2
NoveC_FlowArrow
 10
420.0
 20
138.0
 30
0.0
  0
LWPOLYLINE
  5
14B
330
17
100
AcDbEntity
  8
M-HWTR-SPLY
100
AcDbPolyline
 90
2
 70
128
 10
427.5
 20
138.0
 10
430.0
 20
138.0
  0
LWPOLYLINE
  5
14C
330
17
100
AcDbEntity
  8
M-HWTR-SPLY
100
AcDbPolyline
 90
2
 70
128
 10
440.0
 20
138.0
 10
592.5
 20
138.0
  0
INSERT
  5
14D
330
17
100
AcDbEntity
  8
M-HWTR-SPLY
100
AcDbBlockReference
  2
NoveC_FlowArrow
 10
516.25
 20
138.0
 30
0.0
  0
LWPOLYLINE
  5
14F
330
17
100
AcDbEntity
  8
M-HWTR-SPLY
100
AcDbPolyline
 90
2
 70
128
 10
597.5
 20
138.0
 10
602.5
 20
138.0
  0
INSERT
  5
150
330
17
100
AcDbEntity
  8
M-HWTR-SPLY
100
AcDbBlockReference
  2
NoveC_FlowArrow
 10
600.0
 20
138.0
 30
0.0
  0
LWPOLYLINE
  5
152
330
17
100
AcDbEntity
  8
M-HWTR-RETN
100
AcDbPolyline
 90
4
 70
128
 10
602.5
 20
128.0
 10
597.5
 20
128.0
 10
597.5
 20
123.0
 10
490.0
 20
123.0
  0
INSERT
  5
153
330
17
100
AcDbEntity
  8
M-HWTR-RETN
100
AcDbBlockReference
  2
NoveC_FlowArrow
 10
543.75
 20
123.0
 30
0.0
 50
180.0
  0
LWPOLYLINE
  5
155
330
17
100
AcDbEntity
  8
M-HWTR-RETN
100
AcDbPolyline
 90
2
 70
128
 10
485.0
 20
123.0
 10
477.5
 20
123.0
  0
INSERT
  5
156
330
17
100
AcDbEntity
  8
M-HWTR-RETN
100
AcDbBlockReference
  2
NoveC_FlowArrow
 10
481.25
 20
123.0
 30
0.0
 50
180.0
  0
LWPOLYLINE
  5
158
330
17
100
AcDbEntity
  8
M-HWTR-RETN
100
AcDbPolyline
 90
2
 70
128
 10
472.5
 20
123.0
 10
427.5
 20
123.0
  0
INSERT
  5
159
330
17
100
AcDbEntity
  8
M-HWTR-RETN
100
AcDbBlockReference
  2
NoveC_FlowArrow
 10
450.0
 20
123.0
 30
0.0
 50
180.0
  0
LWPOLYLINE
  5
15B
330
17
100
AcDbEntity
  8
M-HWTR-RETN
100
AcDbPolyline
 90
2
 70
128
 10
422.5
 20
123.0
 10
417.5
 20
123.0
  0
INSERT
  5
15C
330
17
100
AcDbEntity
  8
M-HWTR-RETN
100
AcDbBlockReference
  2
NoveC_FlowArrow
 10
420.0
 20
123.0
 30
0.0
 50
180.0
  0
LWPOLYLINE
  5
15F
330
17
100
AcDbEntity
  8
P-DOMW-HPIP
100
AcDbPolyline
 90
2
 70
128
 10
610.0
 20
145.5
 10
610.0
 20
168.0
  0
INSERT
  5
160
330
17
100
AcDbEntity
  8
P-DOMW-HPIP
100
AcDbBlockReference
  2
NoveC_FlowArrow
 10
610.0
 20
156.75
 30
0.0
 50
90.0
  0
LWPOLYLINE
  5
162
330
17
100
AcDbEntity
  8
P-DOMW-HPIP
100
AcDbPolyline
 90
2
 70
128
 10
610.0
 20
173.0
 10
610.0
 20
178.0
  0
INSERT
  5
163
330
17
100
AcDbEntity
  8
P-DOMW-HPIP
100
AcDbBlockReference
  2
NoveC_FlowArrow
 10
610.0
 20
175.5
 30
0.0
 50
90.0
  0
LWPOLYLINE
  5
165
330
17
100
AcDbEntity
  8
P-DOMW-HPIP
100
AcDbPolyline
 90
2
 70
128
 10
610.0
 20
183.0
 10
610.0
 20
188.0
  0
INSERT
  5
166
330
17
100
AcDbEntity
  8
P-DOMW-HPIP
100
AcDbBlockReference
  2
NoveC_FlowArrow
 10
610.0
 20
185.5
 30
0.0
 50
90.0
  0
LWPOLYLINE
  5
168
330
17
100
AcDbEntity
  8
P-DOMW-HPIP
100
AcDbPolyline
 90
2
 70
128
 10
610.0
 20
193.0
 10
610.0
 20
208.0
  0
INSERT
  5
169
330
17
100
AcDbEntity
  8
P-DOMW-HPIP
100
AcDbBlockReference
  2
NoveC_FlowArrow
 10
610.0
 20
200.5
 30
0.0
 50
90.0
  0
LWPOLYLINE
  5
16C
330
17
100
AcDbEntity
  8
P-DOMW-RPIP
100
AcDbPolyline
 90
2
 70
128
 10
682.5
 20
133.0
 10
675.0
 20
133.0
  0
INSERT
  5
16D
330
17
100
AcDbEntity
  8
P-DOMW-RPIP
100
AcDbBlockReference
  2
NoveC_FlowArrow
 10
678.75
 20
133.0
 30
0.0
 50
180.0
  0
LWPOLYLINE
  5
16F
330
17
100
AcDbEntity
  8
P-DOMW-RPIP
100
AcDbPolyline
 90
2
 70
128
 10
670.0
 20
133.0
 10
667.5
 20
133.0
  0
LWPOLYLINE
  5
170
330
17
100
AcDbEntity
  8
P-DOMW-RPIP
100
AcDbPolyline
 90
2
 70
128
 10
657.5
 20
133.0
 10
637.5
 20
133.0
  0
INSERT
  5
171
330
17
100
AcDbEntity
  8
P-DOMW-RPIP
100
AcDbBlockReference
  2
NoveC_FlowArrow
 10
647.5
 20
133.0
 30
0.0
 50
180.0
  0
LWPOLYLINE
  5
173
330
17
100
AcDbEntity
  8
P-DOMW-RPIP
100
AcDbPolyline
 90
2
 70
128
 10
632.5
 20
133.0
 10
627.5
 20
133.0
  0
INSERT
  5
174
330
17
100
AcDbEntity
  8
P-DOMW-RPIP
100
AcDbBlockReference
  2
NoveC_FlowArrow
 10
630.0
 20
133.0
 30
0.0
 50
180.0
  0
LWPOLYLINE
  5
176
330
17
100
AcDbEntity
  8
M-HWTR-SPLY
100
AcDbPolyline
 90
2
 70
128
 10
222.5
 20
538.0
 10
230.0
 20
538.0
  0
INSERT
  5
177
330
17
100
AcDbEntity
  8
M-HWTR-SPLY
100
AcDbBlockReference
  2
NoveC_FlowArrow
 10
226.25
 20
538.0
 30
0.0
  0
LWPOLYLINE
  5
179
330
17
100
AcDbEntity
  8
M-HWTR-SPLY
100
AcDbPolyline
 90
2
 70
128
 10
235.0
 20
538.0
 10
240.0
 20
538.0
  0
INSERT
  5
17A
330
17
100
AcDbEntity
  8
M-HWTR-SPLY
100
AcDbBlockReference
  2
NoveC_FlowArrow
 10
237.5
 20
538.0
 30
0.0
  0
LWPOLYLINE
  5
17C
330
17
100
AcDbEntity
  8
M-HWTR-SPLY
100
AcDbPolyline
 90
2
 70
128
 10
245.0
 20
538.0
 10
250.0
 20
538.0
  0
INSERT
  5
17D
330
17
100
AcDbEntity
  8
M-HWTR-SPLY
100
AcDbBlockReference
  2
NoveC_FlowArrow
 10
247.5
 20
538.0
 30
0.0
  0
LWPOLYLINE
  5
17F
330
17
100
AcDbEntity
  8
M-HWTR-SPLY
100
AcDbPolyline
 90
2
 70
128
 10
255.0
 20
538.0
 10
260.0
 20
538.0
  0
INSERT
  5
180
330
17
100
AcDbEntity
  8
M-HWTR-SPLY
100
AcDbBlockReference
  2
NoveC_FlowArrow
 10
257.5
 20
538.0
 30
0.0
  0
LWPOLYLINE
  5
182
330
17
100
AcDbEntity
  8
M-HWTR-SPLY
100
AcDbPolyline
 90
2
 70
128
 10
265.0
 20
538.0
 10
275.0
 20
538.0
  0
INSERT
  5
183
330
17
100
AcDbEntity
  8
M-HWTR-SPLY
100
AcDbBlockReference
  2
NoveC_FlowArrow
 10
270.0
 20
538.0
 30
0.0
  0
LWPOLYLINE
  5
185
330
17
100
AcDbEntity
  8
M-HWTR-RETN
100
AcDbPolyline
 90
2
 70
128
 10
320.0
 20
523.0
 10
312.5
 20
523.0
  0
INSERT
  5
186
330
17
100
AcDbEntity
  8
M-HWTR-RETN
100
AcDbBlockReference
  2
NoveC_FlowArrow
 10
316.25
 20
523.0
 30
0.0
 50
180.0
  0
LWPOLYLINE
  5
188
330
17
100
AcDbEntity
  8
M-HWTR-RETN
100
AcDbPolyline
 90
2
 70
128
 10
307.5
 20
523.0
 10
295.0
 20
523.0
  0
INSERT
  5
189
330
17
100
AcDbEntity
  8
M-HWTR-RETN
100
AcDbBlockReference
  2
NoveC_FlowArrow
 10
301.25
 20
523.0
 30
0.0
 50
180.0
  0
LWPOLYLINE
  5
18B
330
17
100
AcDbEntity
  8
M-HWTR-RETN
100
AcDbPolyline
 90
2
 70
128
 10
290.0
 20
523.0
 10
240.0
 20
523.0
  0
INSERT
  5
18C
330
17
100
AcDbEntity
  8
M-HWTR-RETN
100
AcDbBlockReference
  2
NoveC_FlowArrow
 10
265.0
 20
523.0
 30
0.0
 50
180.0
  0
LWPOLYLINE
  5
18E
330
17
100
AcDbEntity
  8
M-HWTR-RETN
100
AcDbPolyline
 90
2
 70
128
 10
235.0
 20
523.0
 10
232.5
 20
523.0
  0
LWPOLYLINE
  5
18F
330
17
100
AcDbEntity
  8
M-HWTR-RETN
100
AcDbPolyline
 90
2
 70
128
 10
227.5
 20
523.0
 10
222.5
 20
523.0
  0
INSERT
  5
190
330
17
100
AcDbEntity
  8
M-HWTR-RETN
100
AcDbBlockReference
  2
NoveC_FlowArrow
 10
225.0
 20
523.0
 30
0.0
 50
180.0
  0
LWPOLYLINE
  5
192
330
17
100
AcDbEntity
  8
M-HWTR-RETN
100
AcDbPolyline
 90
2
 70
128
 10
292.5
 20
525.5
 10
292.5
 20
536.75
  0
LWPOLYLINE
  5
193
330
17
100
AcDbEntity
  8
M-HWTR-RETN
100
AcDbPolyline
 90
2
 70
128
 10
292.5
 20
539.25
 10
292.5
 20
540.5
  0
ARC
  5
194
330
17
100
AcDbEntity
  8
M-HWTR-RETN
  6
Continuous
100
AcDbCircle
 10
292.5
 20
538.0
 30
0.0
 40
1.25
100
AcDbArc
 50
270.0
 51
90.0
  0
LWPOLYLINE
  5
195
330
17
100
AcDbEntity
  8
M-HWTR-RETN
100
AcDbPolyline
 90
2
 70
128
 10
292.5
 20
545.5
 10
292.5
 20
553.0
  0
LWPOLYLINE
  5
196
330
17
100
AcDbEntity
  8
M-HWTR-SPLY
100
AcDbPolyline
 90
2
 70
128
 10
222.5
 20
478.0
 10
230.0
 20
478.0
  0
INSERT
  5
197
330
17
100
AcDbEntity
  8
M-HWTR-SPLY
100
AcDbBlockReference
  2
NoveC_FlowArrow
 10
226.25
 20
478.0
 30
0.0
  0
LWPOLYLINE
  5
199
330
17
100
AcDbEntity
  8
M-HWTR-SPLY
100
AcDbPolyline
 90
2
 70
128
 10
235.0
 20
478.0
 10
240.0
 20
478.0
  0
INSERT
  5
19A
330
17
100
AcDbEntity
  8
M-HWTR-SPLY
100
AcDbBlockReference
  2
NoveC_FlowArrow
 10
237.5
 20
478.0
 30
0.0
  0
LWPOLYLINE
  5
19C
330
17
100
AcDbEntity
  8
M-HWTR-SPLY
100
AcDbPolyline
 90
2
 70
128
 10
245.0
 20
478.0
 10
250.0
 20
478.0
  0
INSERT
  5
19D
330
17
100
AcDbEntity
  8
M-HWTR-SPLY
100
AcDbBlockReference
  2
NoveC_FlowArrow
 10
247.5
 20
478.0
 30
0.0
  0
LWPOLYLINE
  5
19F
330
17
100
AcDbEntity
  8
M-HWTR-SPLY
100
AcDbPolyline
 90
2
 70
128
 10
255.0
 20
478.0
 10
260.0
 20
478.0
  0
INSERT
  5
1A0
330
17
100
AcDbEntity
  8
M-HWTR-SPLY
100
AcDbBlockReference
  2
NoveC_FlowArrow
 10
257.5
 20
478.0
 30
0.0
  0
LWPOLYLINE
  5
1A2
330
17
100
AcDbEntity
  8
M-HWTR-SPLY
100
AcDbPolyline
 90
2
 70
128
 10
265.0
 20
478.0
 10
275.0
 20
478.0
  0
INSERT
  5
1A3
330
17
100
AcDbEntity
  8
M-HWTR-SPLY
100
AcDbBlockReference
  2
NoveC_FlowArrow
 10
270.0
 20
478.0
 30
0.0
  0
LWPOLYLINE
  5
1A5
330
17
100
AcDbEntity
  8
M-HWTR-RETN
100
AcDbPolyline
 90
2
 70
128
 10
320.0
 20
463.0
 10
312.5
 20
463.0
  0
INSERT
  5
1A6
330
17
100
AcDbEntity
  8
M-HWTR-RETN
100
AcDbBlockReference
  2
NoveC_FlowArrow
 10
316.25
 20
463.0
 30
0.0
 50
180.0
  0
LWPOLYLINE
  5
1A8
330
17
100
AcDbEntity
  8
M-HWTR-RETN
100
AcDbPolyline
 90
2
 70
128
 10
307.5
 20
463.0
 10
295.0
 20
463.0
  0
INSERT
  5
1A9
330
17
100
AcDbEntity
  8
M-HWTR-RETN
100
AcDbBlockReference
  2
NoveC_FlowArrow
 10
301.25
 20
463.0
 30
0.0
 50
180.0
  0
LWPOLYLINE
  5
1AB
330
17
100
AcDbEntity
  8
M-HWTR-RETN
100
AcDbPolyline
 90
2
 70
128
 10
290.0
 20
463.0
 10
240.0
 20
463.0
  0
INSERT
  5
1AC
330
17
100
AcDbEntity
  8
M-HWTR-RETN
100
AcDbBlockReference
  2
NoveC_FlowArrow
 10
265.0
 20
463.0
 30
0.0
 50
180.0
  0
LWPOLYLINE
  5
1AE
330
17
100
AcDbEntity
  8
M-HWTR-RETN
100
AcDbPolyline
 90
2
 70
128
 10
235.0
 20
463.0
 10
232.5
 20
463.0
  0
LWPOLYLINE
  5
1AF
330
17
100
AcDbEntity
  8
M-HWTR-RETN
100
AcDbPolyline
 90
2
 70
128
 10
227.5
 20
463.0
 10
222.5
 20
463.0
  0
INSERT
  5
1B0
330
17
100
AcDbEntity
  8
M-HWTR-RETN
100
AcDbBlockReference
  2
NoveC_FlowArrow
 10
225.0
 20
463.0
 30
0.0
 50
180.0
  0
LWPOLYLINE
  5
1B2
330
17
100
AcDbEntity
  8
M-HWTR-RETN
100
AcDbPolyline
 90
2
 70
128
 10
292.5
 20
465.5
 10
292.5
 20
473.0
  0
LWPOLYLINE
  5
1B3
330
17
100
AcDbEntity
  8
M-HWTR-RETN
100
AcDbPolyline
 90
2
 70
128
 10
292.5
 20
478.0
 10
292.5
 20
493.0
  0
LWPOLYLINE
  5
1B4
330
17
100
AcDbEntity
  8
M-HWTR-SPLY
100
AcDbPolyline
 90
2
 70
128
 10
222.5
 20
418.0
 10
230.0
 20
418.0
  0
INSERT
  5
1B5
330
17
100
AcDbEntity
  8
M-HWTR-SPLY
100
AcDbBlockReference
  2
NoveC_FlowArrow
 10
226.25
 20
418.0
 30
0.0
  0
LWPOLYLINE
  5
1B7
330
17
100
AcDbEntity
  8
M-HWTR-SPLY
100
AcDbPolyline
 90
2
 70
128
 10
235.0
 20
418.0
 10
240.0
 20
418.0
  0
INSERT
  5
1B8
330
17
100
AcDbEntity
  8
M-HWTR-SPLY
100
AcDbBlockReference
  2
NoveC_FlowArrow
 10
237.5
 20
418.0
 30
0.0
  0
LWPOLYLINE
  5
1BA
330
17
100
AcDbEntity
  8
M-HWTR-SPLY
100
AcDbPolyline
 90
2
 70
128
 10
245.0
 20
418.0
 10
250.0
 20
418.0
  0
INSERT
  5
1BB
330
17
100
AcDbEntity
  8
M-HWTR-SPLY
100
AcDbBlockReference
  2
NoveC_FlowArrow
 10
247.5
 20
418.0
 30
0.0
  0
LWPOLYLINE
  5
1BD
330
17
100
AcDbEntity
  8
M-HWTR-SPLY
100
AcDbPolyline
 90
2
 70
128
 10
255.0
 20
418.0
 10
260.0
 20
418.0
  0
INSERT
  5
1BE
330
17
100
AcDbEntity
  8
M-HWTR-SPLY
100
AcDbBlockReference
  2
NoveC_FlowArrow
 10
257.5
 20
418.0
 30
0.0
  0
LWPOLYLINE
  5
1C0
330
17
100
AcDbEntity
  8
M-HWTR-SPLY
100
AcDbPolyline
 90
2
 70
128
 10
265.0
 20
418.0
 10
275.0
 20
418.0
  0
INSERT
  5
1C1
330
17
100
AcDbEntity
  8
M-HWTR-SPLY
100
AcDbBlockReference
  2
NoveC_FlowArrow
 10
270.0
 20
418.0
 30
0.0
  0
LWPOLYLINE
  5
1C3
330
17
100
AcDbEntity
  8
M-HWTR-RETN
100
AcDbPolyline
 90
2
 70
128
 10
320.0
 20
403.0
 10
312.5
 20
403.0
  0
INSERT
  5
1C4
330
17
100
AcDbEntity
  8
M-HWTR-RETN
100
AcDbBlockReference
  2
NoveC_FlowArrow
 10
316.25
 20
403.0
 30
0.0
 50
180.0
  0
LWPOLYLINE
  5
1C6
330
17
100
AcDbEntity
  8
M-HWTR-RETN
100
AcDbPolyline
 90
2
 70
128
 10
307.5
 20
403.0
 10
295.0
 20
403.0
  0
INSERT
  5
1C7
330
17
100
AcDbEntity
  8
M-HWTR-RETN
100
AcDbBlockReference
  2
NoveC_FlowArrow
 10
301.25
 20
403.0
 30
0.0
 50
180.0
  0
LWPOLYLINE
  5
1C9
330
17
100
AcDbEntity
  8
M-HWTR-RETN
100
AcDbPolyline
 90
2
 70
128
 10
290.0
 20
403.0
 10
240.0
 20
403.0
  0
INSERT
  5
1CA
330
17
100
AcDbEntity
  8
M-HWTR-RETN
100
AcDbBlockReference
  2
NoveC_FlowArrow
 10
265.0
 20
403.0
 30
0.0
 50
180.0
  0
LWPOLYLINE
  5
1CC
330
17
100
AcDbEntity
  8
M-HWTR-RETN
100
AcDbPolyline
 90
2
 70
128
 10
235.0
 20
403.0
 10
232.5
 20
403.0
  0
LWPOLYLINE
  5
1CD
330
17
100
AcDbEntity
  8
M-HWTR-RETN
100
AcDbPolyline
 90
2
 70
128
 10
227.5
 20
403.0
 10
222.5
 20
403.0
  0
INSERT
  5
1CE
330
17
100
AcDbEntity
  8
M-HWTR-RETN
100
AcDbBlockReference
  2
NoveC_FlowArrow
 10
225.0
 20
403.0
 30
0.0
 50
180.0
  0
LWPOLYLINE
  5
1D0
330
17
100
AcDbEntity
  8
M-HWTR-RETN
100
AcDbPolyline
 90
2
 70
128
 10
292.5
 20
405.5
 10
292.5
 20
413.0
  0
LWPOLYLINE
  5
1D1
330
17
100
AcDbEntity
  8
M-HWTR-RETN
100
AcDbPolyline
 90
2
 70
128
 10
292.5
 20
418.0
 10
292.5
 20
433.0
  0
LWPOLYLINE
  5
1D2
330
17
100
AcDbEntity
  8
M-HWTR-SPLY
100
AcDbPolyline
 90
2
 70
128
 10
222.5
 20
358.0
 10
230.0
 20
358.0
  0
INSERT
  5
1D3
330
17
100
AcDbEntity
  8
M-HWTR-SPLY
100
AcDbBlockReference
  2
NoveC_FlowArrow
 10
226.25
 20
358.0
 30
0.0
  0
LWPOLYLINE
  5
1D5
330
17
100
AcDbEntity
  8
M-HWTR-SPLY
100
AcDbPolyline
 90
2
 70
128
 10
235.0
 20
358.0
 10
240.0
 20
358.0
  0
INSERT
  5
1D6
330
17
100
AcDbEntity
  8
M-HWTR-SPLY
100
AcDbBlockReference
  2
NoveC_FlowArrow
 10
237.5
 20
358.0
 30
0.0
  0
LWPOLYLINE
  5
1D8
330
17
100
AcDbEntity
  8
M-HWTR-SPLY
100
AcDbPolyline
 90
2
 70
128
 10
245.0
 20
358.0
 10
250.0
 20
358.0
  0
INSERT
  5
1D9
330
17
100
AcDbEntity
  8
M-HWTR-SPLY
100
AcDbBlockReference
  2
NoveC_FlowArrow
 10
247.5
 20
358.0
 30
0.0
  0
LWPOLYLINE
  5
1DB
330
17
100
AcDbEntity
  8
M-HWTR-SPLY
100
AcDbPolyline
 90
2
 70
128
 10
255.0
 20
358.0
 10
260.0
 20
358.0
  0
INSERT
  5
1DC
330
17
100
AcDbEntity
  8
M-HWTR-SPLY
100
AcDbBlockReference
  2
NoveC_FlowArrow
 10
257.5
 20
358.0
 30
0.0
  0
LWPOLYLINE
  5
1DE
330
17
100
AcDbEntity
  8
M-HWTR-SPLY
100
AcDbPolyline
 90
3
 70
128
 10
265.0
 20
358.0
 10
277.5
 20
358.0
 10
277.5
 20
401.75
  0
LWPOLYLINE
  5
1DF
330
17
100
AcDbEntity
  8
M-HWTR-SPLY
100
AcDbPolyline
 90
2
 70
128
 10
277.5
 20
404.25
 10
277.5
 20
415.5
  0
ARC
  5
1E0
330
17
100
AcDbEntity
  8
M-HWTR-SPLY
  6
Continuous
100
AcDbCircle
 10
277.5
 20
403.0
 30
0.0
 40
1.25
100
AcDbArc
 50
270.0
 51
90.0
  0
INSERT
  5
1E1
330
17
100
AcDbEntity
  8
M-HWTR-SPLY
100
AcDbBlockReference
  2
NoveC_FlowArrow
 10
277.5
 20
386.75
 30
0.0
 50
90.0
  0
LWPOLYLINE
  5
1E3
330
17
100
AcDbEntity
  8
M-HWTR-RETN
100
AcDbPolyline
 90
2
 70
128
 10
322.5
 20
400.5
 10
322.5
 20
393.0
  0
INSERT
  5
1E4
330
17
100
AcDbEntity
  8
M-HWTR-RETN
100
AcDbBlockReference
  2
NoveC_FlowArrow
 10
322.5
 20
396.75
 30
0.0
 50
270.0
  0
LWPOLYLINE
  5
1E6
330
17
100
AcDbEntity
  8
M-HWTR-RETN
100
AcDbPolyline
 90
3
 70
128
 10
322.5
 20
388.0
 10
322.5
 20
343.0
 10
295.0
 20
343.0
  0
INSERT
  5
1E7
330
17
100
AcDbEntity
  8
M-HWTR-RETN
100
AcDbBlockReference
  2
NoveC_FlowArrow
 10
322.5
 20
365.5
 30
0.0
 50
270.0
  0
LWPOLYLINE
  5
1E9
330
17
100
AcDbEntity
  8
M-HWTR-RETN
100
AcDbPolyline
 90
2
 70
128
 10
290.0
 20
343.0
 10
240.0
 20
343.0
  0
INSERT
  5
1EA
330
17
100
AcDbEntity
  8
M-HWTR-RETN
100
AcDbBlockReference
  2
NoveC_FlowArrow
 10
265.0
 20
343.0
 30
0.0
 50
180.0
  0
LWPOLYLINE
  5
1EC
330
17
100
AcDbEntity
  8
M-HWTR-RETN
100
AcDbPolyline
 90
2
 70
128
 10
235.0
 20
343.0
 10
232.5
 20
343.0
  0
LWPOLYLINE
  5
1ED
330
17
100
AcDbEntity
  8
M-HWTR-RETN
100
AcDbPolyline
 90
2
 70
128
 10
227.5
 20
343.0
 10
222.5
 20
343.0
  0
INSERT
  5
1EE
330
17
100
AcDbEntity
  8
M-HWTR-RETN
100
AcDbBlockReference
  2
NoveC_FlowArrow
 10
225.0
 20
343.0
 30
0.0
 50
180.0
  0
LWPOLYLINE
  5
1F0
330
17
100
AcDbEntity
  8
M-HWTR-RETN
100
AcDbPolyline
 90
2
 70
128
 10
292.5
 20
345.5
 10
292.5
 20
353.0
  0
LWPOLYLINE
  5
1F1
330
17
100
AcDbEntity
  8
M-HWTR-RETN
100
AcDbPolyline
 90
2
 70
128
 10
292.5
 20
358.0
 10
292.5
 20
373.0
  0
LWPOLYLINE
  5
1F2
330
17
100
AcDbEntity
  8
M-HWTR-SPLY
100
AcDbPolyline
 90
2
 70
128
 10
222.5
 20
138.0
 10
230.0
 20
138.0
  0
INSERT
  5
1F3
330
17
100
AcDbEntity
  8
M-HWTR-SPLY
100
AcDbBlockReference
  2
NoveC_FlowArrow
 10
226.25
 20
138.0
 30
0.0
  0
LWPOLYLINE
  5
1F5
330
17
100
AcDbEntity
  8
M-HWTR-SPLY
100
AcDbPolyline
 90
2
 70
128
 10
235.0
 20
138.0
 10
240.0
 20
138.0
  0
INSERT
  5
1F6
330
17
100
AcDbEntity
  8
M-HWTR-SPLY
100
AcDbBlockReference
  2
NoveC_FlowArrow
 10
237.5
 20
138.0
 30
0.0
  0
LWPOLYLINE
  5
1F8
330
17
100
AcDbEntity
  8
M-HWTR-SPLY
100
AcDbPolyline
 90
2
 70
128
 10
245.0
 20
138.0
 10
250.0
 20
138.0
  0
INSERT
  5
1F9
330
17
100
AcDbEntity
  8
M-HWTR-SPLY
100
AcDbBlockReference
  2
NoveC_FlowArrow
 10
247.5
 20
138.0
 30
0.0
  0
LWPOLYLINE
  5
1FB
330
17
100
AcDbEntity
  8
M-HWTR-SPLY
100
AcDbPolyline
 90
2
 70
128
 10
255.0
 20
138.0
 10
260.0
 20
138.0
  0
INSERT
  5
1FC
330
17
100
AcDbEntity
  8
M-HWTR-SPLY
100
AcDbBlockReference
  2
NoveC_FlowArrow
 10
257.5
 20
138.0
 30
0.0
  0
LWPOLYLINE
  5
1FE
330
17
100
AcDbEntity
  8
M-HWTR-SPLY
100
AcDbPolyline
 90
2
 70
128
 10
265.0
 20
138.0
 10
275.0
 20
138.0
  0
INSERT
  5
1FF
330
17
100
AcDbEntity
  8
M-HWTR-SPLY
100
AcDbBlockReference
  2
NoveC_FlowArrow
 10
270.0
 20
138.0
 30
0.0
  0
LWPOLYLINE
  5
201
330
17
100
AcDbEntity
  8
M-HWTR-RETN
100
AcDbPolyline
 90
2
 70
128
 10
320.0
 20
123.0
 10
312.5
 20
123.0
  0
INSERT
  5
202
330
17
100
AcDbEntity
  8
M-HWTR-RETN
100
AcDbBlockReference
  2
NoveC_FlowArrow
 10
316.25
 20
123.0
 30
0.0
 50
180.0
  0
LWPOLYLINE
  5
204
330
17
100
AcDbEntity
  8
M-HWTR-RETN
100
AcDbPolyline
 90
2
 70
128
 10
307.5
 20
123.0
 10
295.0
 20
123.0
  0
INSERT
  5
205
330
17
100
AcDbEntity
  8
M-HWTR-RETN
100
AcDbBlockReference
  2
NoveC_FlowArrow
 10
301.25
 20
123.0
 30
0.0
 50
180.0
  0
LWPOLYLINE
  5
207
330
17
100
AcDbEntity
  8
M-HWTR-RETN
100
AcDbPolyline
 90
2
 70
128
 10
290.0
 20
123.0
 10
240.0
 20
123.0
  0
INSERT
  5
208
330
17
100
AcDbEntity
  8
M-HWTR-RETN
100
AcDbBlockReference
  2
NoveC_FlowArrow
 10
265.0
 20
123.0
 30
0.0
 50
180.0
  0
LWPOLYLINE
  5
20A
330
17
100
AcDbEntity
  8
M-HWTR-RETN
100
AcDbPolyline
 90
2
 70
128
 10
235.0
 20
123.0
 10
232.5
 20
123.0
  0
LWPOLYLINE
  5
20B
330
17
100
AcDbEntity
  8
M-HWTR-RETN
100
AcDbPolyline
 90
2
 70
128
 10
227.5
 20
123.0
 10
222.5
 20
123.0
  0
INSERT
  5
20C
330
17
100
AcDbEntity
  8
M-HWTR-RETN
100
AcDbBlockReference
  2
NoveC_FlowArrow
 10
225.0
 20
123.0
 30
0.0
 50
180.0
  0
LWPOLYLINE
  5
20E
330
17
100
AcDbEntity
  8
M-HWTR-RETN
100
AcDbPolyline
 90
2
 70
128
 10
292.5
 20
125.5
 10
292.5
 20
136.75
  0
LWPOLYLINE
  5
20F
330
17
100
AcDbEntity
  8
M-HWTR-RETN
100
AcDbPolyline
 90
2
 70
128
 10
292.5
 20
139.25
 10
292.5
 20
140.5
  0
ARC
  5
210
330
17
100
AcDbEntity
  8
M-HWTR-RETN
  6
Continuous
100
AcDbCircle
 10
292.5
 20
138.0
 30
0.0
 40
1.25
100
AcDbArc
 50
270.0
 51
90.0
  0
LWPOLYLINE
  5
211
330
17
100
AcDbEntity
  8
M-HWTR-RETN
100
AcDbPolyline
 90
2
 70
128
 10
292.5
 20
145.5
 10
292.5
 20
153.0
  0
LWPOLYLINE
  5
212
330
17
100
AcDbEntity
  8
M-HWTR-SPLY
100
AcDbPolyline
 90
2
 70
128
 10
222.5
 20
78.0
 10
230.0
 20
78.0
  0
INSERT
  5
213
330
17
100
AcDbEntity
  8
M-HWTR-SPLY
100
AcDbBlockReference
  2
NoveC_FlowArrow
 10
226.25
 20
78.0
 30
0.0
  0
LWPOLYLINE
  5
215
330
17
100
AcDbEntity
  8
M-HWTR-SPLY
100
AcDbPolyline
 90
2
 70
128
 10
235.0
 20
78.0
 10
240.0
 20
78.0
  0
INSERT
  5
216
330
17
100
AcDbEntity
  8
M-HWTR-SPLY
100
AcDbBlockReference
  2
NoveC_FlowArrow
 10
237.5
 20
78.0
 30
0.0
  0
LWPOLYLINE
  5
218
330
17
100
AcDbEntity
  8
M-HWTR-SPLY
100
AcDbPolyline
 90
2
 70
128
 10
245.0
 20
78.0
 10
250.0
 20
78.0
  0
INSERT
  5
219
330
17
100
AcDbEntity
  8
M-HWTR-SPLY
100
AcDbBlockReference
  2
NoveC_FlowArrow
 10
247.5
 20
78.0
 30
0.0
  0
LWPOLYLINE
  5
21B
330
17
100
AcDbEntity
  8
M-HWTR-SPLY
100
AcDbPolyline
 90
2
 70
128
 10
255.0
 20
78.0
 10
260.0
 20
78.0
  0
INSERT
  5
21C
330
17
100
AcDbEntity
  8
M-HWTR-SPLY
100
AcDbBlockReference
  2
NoveC_FlowArrow
 10
257.5
 20
78.0
 30
0.0
  0
LWPOLYLINE
  5
21E
330
17
100
AcDbEntity
  8
M-HWTR-SPLY
100
AcDbPolyline
 90
3
 70
128
 10
265.0
 20
78.0
 10
277.5
 20
78.0
 10
277.5
 20
121.75
  0
LWPOLYLINE
  5
21F
330
17
100
AcDbEntity
  8
M-HWTR-SPLY
100
AcDbPolyline
 90
2
 70
128
 10
277.5
 20
124.25
 10
277.5
 20
135.5
  0
ARC
  5
220
330
17
100
AcDbEntity
  8
M-HWTR-SPLY
  6
Continuous
100
AcDbCircle
 10
277.5
 20
123.0
 30
0.0
 40
1.25
100
AcDbArc
 50
270.0
 51
90.0
  0
INSERT
  5
221
330
17
100
AcDbEntity
  8
M-HWTR-SPLY
100
AcDbBlockReference
  2
NoveC_FlowArrow
 10
277.5
 20
106.75
 30
0.0
 50
90.0
  0
LWPOLYLINE
  5
223
330
17
100
AcDbEntity
  8
M-HWTR-RETN
100
AcDbPolyline
 90
2
 70
128
 10
322.5
 20
120.5
 10
322.5
 20
113.0
  0
INSERT
  5
224
330
17
100
AcDbEntity
  8
M-HWTR-RETN
100
AcDbBlockReference
  2
NoveC_FlowArrow
 10
322.5
 20
116.75
 30
0.0
 50
270.0
  0
LWPOLYLINE
  5
226
330
17
100
AcDbEntity
  8
M-HWTR-RETN
100
AcDbPolyline
 90
3
 70
128
 10
322.5
 20
108.0
 10
322.5
 20
63.0
 10
295.0
 20
63.0
  0
INSERT
  5
227
330
17
100
AcDbEntity
  8
M-HWTR-RETN
100
AcDbBlockReference
  2
NoveC_FlowArrow
 10
322.5
 20
85.5
 30
0.0
 50
270.0
  0
LWPOLYLINE
  5
229
330
17
100
AcDbEntity
  8
M-HWTR-RETN
100
AcDbPolyline
 90
2
 70
128
 10
290.0
 20
63.0
 10
240.0
 20
63.0
  0
INSERT
  5
22A
330
17
100
AcDbEntity
  8
M-HWTR-RETN
100
AcDbBlockReference
  2
NoveC_FlowArrow
 10
265.0
 20
63.0
 30
0.0
 50
180.0
  0
LWPOLYLINE
  5
22C
330
17
100
AcDbEntity
  8
M-HWTR-RETN
100
AcDbPolyline
 90
2
 70
128
 10
235.0
 20
63.0
 10
232.5
 20
63.0
  0
LWPOLYLINE
  5
22D
330
17
100
AcDbEntity
  8
M-HWTR-RETN
100
AcDbPolyline
 90
2
 70
128
 10
227.5
 20
63.0
 10
222.5
 20
63.0
  0
INSERT
  5
22E
330
17
100
AcDbEntity
  8
M-HWTR-RETN
100
AcDbBlockReference
  2
NoveC_FlowArrow
 10
225.0
 20
63.0
 30
0.0
 50
180.0
  0
LWPOLYLINE
  5
230
330
17
100
AcDbEntity
  8
M-HWTR-RETN
100
AcDbPolyline
 90
2
 70
128
 10
292.5
 20
65.5
 10
292.5
 20
73.0
  0
LWPOLYLINE
  5
231
330
17
100
AcDbEntity
  8
M-HWTR-RETN
100
AcDbPolyline
 90
2
 70
128
 10
292.5
 20
78.0
 10
292.5
 20
93.0
  0
LWPOLYLINE
  5
232
330
17
100
AcDbEntity
  8
M-HWTR-SPLY
100
AcDbPolyline
 90
2
 70
128
 10
405.0
 20
543.0
 10
405.0
 20
548.0
  0
LWPOLYLINE
  5
233
330
17
100
AcDbEntity
  8
M-HWTR-SPLY
100
AcDbPolyline
 90
2
 70
128
 10
405.0
 20
553.0
 10
405.0
 20
568.0
  0
LWPOLYLINE
  5
234
330
17
100
AcDbEntity
  8
M-HWTR-SPLY
100
AcDbPolyline
 90
2
 70
128
 10
405.0
 20
143.0
 10
405.0
 20
148.0
  0
LWPOLYLINE
  5
235
330
17
100
AcDbEntity
  8
M-HWTR-SPLY
100
AcDbPolyline
 90
2
 70
128
 10
405.0
 20
153.0
 10
405.0
 20
168.0
  0
LWPOLYLINE
  5
236
330
17
100
AcDbEntity
  8
M-HWTR-RETN
100
AcDbPolyline
 90
2
 70
128
 10
392.5
 20
523.0
 10
387.5
 20
523.0
  0
INSERT
  5
237
330
17
100
AcDbEntity
  8
M-HWTR-RETN
100
AcDbBlockReference
  2
NoveC_FlowArrow
 10
390.0
 20
523.0
 30
0.0
 50
180.0
  0
LWPOLYLINE
  5
239
330
17
100
AcDbEntity
  8
M-HWTR-RETN
100
AcDbPolyline
 90
2
 70
128
 10
382.5
 20
523.0
 10
380.0
 20
523.0
  0
LWPOLYLINE
  5
23A
330
17
100
AcDbEntity
  8
M-HWTR-RETN
100
AcDbPolyline
 90
2
 70
128
 10
370.0
 20
523.0
 10
367.5
 20
523.0
  0
LWPOLYLINE
  5
23B
330
17
100
AcDbEntity
  8
M-HWTR-RETN
100
AcDbPolyline
 90
2
 70
128
 10
362.5
 20
523.0
 10
337.5
 20
523.0
  0
INSERT
  5
23C
330
17
100
AcDbEntity
  8
M-HWTR-RETN
100
AcDbBlockReference
  2
NoveC_FlowArrow
 10
350.0
 20
523.0
 30
0.0
 50
180.0
  0
LWPOLYLINE
  5
23E
330
17
100
AcDbEntity
  8
M-HWTR-RETN
100
AcDbPolyline
 90
2
 70
128
 10
332.5
 20
523.0
 10
325.0
 20
523.0
  0
INSERT
  5
23F
330
17
100
AcDbEntity
  8
M-HWTR-RETN
100
AcDbBlockReference
  2
NoveC_FlowArrow
 10
328.75
 20
523.0
 30
0.0
 50
180.0
  0
LWPOLYLINE
  5
241
330
17
100
AcDbEntity
  8
M-HWTR-SPLY
100
AcDbPolyline
 90
2
 70
128
 10
575.0
 20
478.0
 10
575.0
 20
468.0
  0
INSERT
  5
242
330
17
100
AcDbEntity
  8
M-HWTR-SPLY
100
AcDbBlockReference
  2
NoveC_FlowArrow
 10
575.0
 20
473.0
 30
0.0
 50
270.0
  0
LWPOLYLINE
  5
244
330
17
100
AcDbEntity
  8
M-HWTR-SPLY
100
AcDbPolyline
 90
2
 70
128
 10
575.0
 20
463.0
 10
575.0
 20
458.0
  0
INSERT
  5
245
330
17
100
AcDbEntity
  8
M-HWTR-SPLY
100
AcDbBlockReference
  2
NoveC_FlowArrow
 10
575.0
 20
460.5
 30
0.0
 50
270.0
  0
LWPOLYLINE
  5
247
330
17
100
AcDbEntity
  8
M-HWTR-RETN
100
AcDbPolyline
 90
2
 70
128
 10
585.0
 20
458.0
 10
585.0
 20
478.0
  0
INSERT
  5
248
330
17
100
AcDbEntity
  8
M-HWTR-RETN
100
AcDbBlockReference
  2
NoveC_FlowArrow
 10
585.0
 20
468.0
 30
0.0
 50
90.0
  0
LWPOLYLINE
  5
24A
330
17
100
AcDbEntity
  8
M-HWTR-SPLY
100
AcDbPolyline
 90
2
 70
128
 10
595.0
 20
478.0
 10
595.0
 20
468.0
  0
INSERT
  5
24B
330
17
100
AcDbEntity
  8
M-HWTR-SPLY
100
AcDbBlockReference
  2
NoveC_FlowArrow
 10
595.0
 20
473.0
 30
0.0
 50
270.0
  0
LWPOLYLINE
  5
24D
330
17
100
AcDbEntity
  8
M-HWTR-SPLY
100
AcDbPolyline
 90
2
 70
128
 10
595.0
 20
463.0
 10
595.0
 20
458.0
  0
INSERT
  5
24E
330
17
100
AcDbEntity
  8
M-HWTR-SPLY
100
AcDbBlockReference
  2
NoveC_FlowArrow
 10
595.0
 20
460.5
 30
0.0
 50
270.0
  0
LWPOLYLINE
  5
250
330
17
100
AcDbEntity
  8
M-HWTR-RETN
100
AcDbPolyline
 90
2
 70
128
 10
605.0
 20
458.0
 10
605.0
 20
478.0
  0
INSERT
  5
251
330
17
100
AcDbEntity
  8
M-HWTR-RETN
100
AcDbBlockReference
  2
NoveC_FlowArrow
 10
605.0
 20
468.0
 30
0.0
 50
90.0
  0
LWPOLYLINE
  5
253
330
17
100
AcDbEntity
  8
M-HWTR-RETN
100
AcDbPolyline
 90
2
 70
128
 10
567.5
 20
480.5
 10
562.5
 20
480.5
  0
INSERT
  5
254
330
17
100
AcDbEntity
  8
M-HWTR-RETN
100
AcDbBlockReference
  2
NoveC_FlowArrow
 10
565.0
 20
480.5
 30
0.0
 50
180.0
  0
LWPOLYLINE
  5
256
330
17
100
AcDbEntity
  8
M-HWTR-RETN
100
AcDbPolyline
 90
2
 70
128
 10
557.5
 20
480.5
 10
540.0
 20
480.5
  0
INSERT
  5
257
330
17
100
AcDbEntity
  8
M-HWTR-RETN
100
AcDbBlockReference
  2
NoveC_FlowArrow
 10
548.75
 20
480.5
 30
0.0
 50
180.0
  0
LWPOLYLINE
  5
259
330
17
100
AcDbEntity
  8
M-HWTR-SPLY
100
AcDbPolyline
 90
2
 70
128
 10
575.0
 20
418.0
 10
575.0
 20
408.0
  0
INSERT
  5
25A
330
17
100
AcDbEntity
  8
M-HWTR-SPLY
100
AcDbBlockReference
  2
NoveC_FlowArrow
 10
575.0
 20
413.0
 30
0.0
 50
270.0
  0
LWPOLYLINE
  5
25C
330
17
100
AcDbEntity
  8
M-HWTR-SPLY
100
AcDbPolyline
 90
2
 70
128
 10
575.0
 20
403.0
 10
575.0
 20
398.0
  0
INSERT
  5
25D
330
17
100
AcDbEntity
  8
M-HWTR-SPLY
100
AcDbBlockReference
  2
NoveC_FlowArrow
 10
575.0
 20
400.5
 30
0.0
 50
270.0
  0
LWPOLYLINE
  5
25F
330
17
100
AcDbEntity
  8
M-HWTR-RETN
100
AcDbPolyline
 90
2
 70
128
 10
585.0
 20
398.0
 10
585.0
 20
418.0
  0
INSERT
  5
260
330
17
100
AcDbEntity
  8
M-HWTR-RETN
100
AcDbBlockReference
  2
NoveC_FlowArrow
 10
585.0
 20
408.0
 30
0.0
 50
90.0
  0
LWPOLYLINE
  5
262
330
17
100
AcDbEntity
  8
M-HWTR-SPLY
100
AcDbPolyline
 90
2
 70
128
 10
595.0
 20
418.0
 10
595.0
 20
408.0
  0
INSERT
  5
263
330
17
100
AcDbEntity
  8
M-HWTR-SPLY
100
AcDbBlockReference
  2
NoveC_FlowArrow
 10
595.0
 20
413.0
 30
0.0
 50
270.0
  0
LWPOLYLINE
  5
265
330
17
100
AcDbEntity
  8
M-HWTR-SPLY
100
AcDbPolyline
 90
2
 70
128
 10
595.0
 20
403.0
 10
595.0
 20
398.0
  0
INSERT
  5
266
330
17
100
AcDbEntity
  8
M-HWTR-SPLY
100
AcDbBlockReference
  2
NoveC_FlowArrow
 10
595.0
 20
400.5
 30
0.0
 50
270.0
  0
LWPOLYLINE
  5
268
330
17
100
AcDbEntity
  8
M-HWTR-RETN
100
AcDbPolyline
 90
2
 70
128
 10
605.0
 20
398.0
 10
605.0
 20
418.0
  0
INSERT
  5
269
330
17
100
AcDbEntity
  8
M-HWTR-RETN
100
AcDbBlockReference
  2
NoveC_FlowArrow
 10
605.0
 20
408.0
 30
0.0
 50
90.0
  0
LWPOLYLINE
  5
26B
330
17
100
AcDbEntity
  8
M-HWTR-RETN
100
AcDbPolyline
 90
2
 70
128
 10
567.5
 20
420.5
 10
562.5
 20
420.5
  0
INSERT
  5
26C
330
17
100
AcDbEntity
  8
M-HWTR-RETN
100
AcDbBlockReference
  2
NoveC_FlowArrow
 10
565.0
 20
420.5
 30
0.0
 50
180.0
  0
LWPOLYLINE
  5
26E
330
17
100
AcDbEntity
  8
M-HWTR-RETN
100
AcDbPolyline
 90
2
 70
128
 10
557.5
 20
420.5
 10
540.0
 20
420.5
  0
INSERT
  5
26F
330
17
100
AcDbEntity
  8
M-HWTR-RETN
100
AcDbBlockReference
  2
NoveC_FlowArrow
 10
548.75
 20
420.5
 30
0.0
 50
180.0
  0
LWPOLYLINE
  5
271
330
17
100
AcDbEntity
  8
M-HWTR-SPLY
100
AcDbPolyline
 90
2
 70
128
 10
575.0
 20
358.0
 10
575.0
 20
348.0
  0
INSERT
  5
272
330
17
100
AcDbEntity
  8
M-HWTR-SPLY
100
AcDbBlockReference
  2
NoveC_FlowArrow
 10
575.0
 20
353.0
 30
0.0
 50
270.0
  0
LWPOLYLINE
  5
274
330
17
100
AcDbEntity
  8
M-HWTR-SPLY
100
AcDbPolyline
 90
2
 70
128
 10
575.0
 20
343.0
 10
575.0
 20
338.0
  0
INSERT
  5
275
330
17
100
AcDbEntity
  8
M-HWTR-SPLY
100
AcDbBlockReference
  2
NoveC_FlowArrow
 10
575.0
 20
340.5
 30
0.0
 50
270.0
  0
LWPOLYLINE
  5
277
330
17
100
AcDbEntity
  8
M-HWTR-RETN
100
AcDbPolyline
 90
2
 70
128
 10
585.0
 20
338.0
 10
585.0
 20
358.0
  0
INSERT
  5
278
330
17
100
AcDbEntity
  8
M-HWTR-RETN
100
AcDbBlockReference
  2
NoveC_FlowArrow
 10
585.0
 20
348.0
 30
0.0
 50
90.0
  0
LWPOLYLINE
  5
27A
330
17
100
AcDbEntity
  8
M-HWTR-SPLY
100
AcDbPolyline
 90
2
 70
128
 10
595.0
 20
358.0
 10
595.0
 20
348.0
  0
INSERT
  5
27B
330
17
100
AcDbEntity
  8
M-HWTR-SPLY
100
AcDbBlockReference
  2
NoveC_FlowArrow
 10
595.0
 20
353.0
 30
0.0
 50
270.0
  0
LWPOLYLINE
  5
27D
330
17
100
AcDbEntity
  8
M-HWTR-SPLY
100
AcDbPolyline
 90
2
 70
128
 10
595.0
 20
343.0
 10
595.0
 20
338.0
  0
INSERT
  5
27E
330
17
100
AcDbEntity
  8
M-HWTR-SPLY
100
AcDbBlockReference
  2
NoveC_FlowArrow
 10
595.0
 20
340.5
 30
0.0
 50
270.0
  0
LWPOLYLINE
  5
280
330
17
100
AcDbEntity
  8
M-HWTR-RETN
100
AcDbPolyline
 90
2
 70
128
 10
605.0
 20
338.0
 10
605.0
 20
358.0
  0
INSERT
  5
281
330
17
100
AcDbEntity
  8
M-HWTR-RETN
100
AcDbBlockReference
  2
NoveC_FlowArrow
 10
605.0
 20
348.0
 30
0.0
 50
90.0
  0
LWPOLYLINE
  5
283
330
17
100
AcDbEntity
  8
M-HWTR-RETN
100
AcDbPolyline
 90
2
 70
128
 10
567.5
 20
360.5
 10
562.5
 20
360.5
  0
INSERT
  5
284
330
17
100
AcDbEntity
  8
M-HWTR-RETN
100
AcDbBlockReference
  2
NoveC_FlowArrow
 10
565.0
 20
360.5
 30
0.0
 50
180.0
  0
LWPOLYLINE
  5
286
330
17
100
AcDbEntity
  8
M-HWTR-RETN
100
AcDbPolyline
 90
3
 70
128
 10
557.5
 20
360.5
 10
537.5
 20
360.5
 10
537.5
 20
369.25
  0
LWPOLYLINE
  5
287
330
17
100
AcDbEntity
  8
M-HWTR-RETN
100
AcDbPolyline
 90
2
 70
128
 10
537.5
 20
371.75
 10
537.5
 20
418.0
  0
ARC
  5
288
330
17
100
AcDbEntity
  8
M-HWTR-RETN
  6
Continuous
100
AcDbCircle
 10
537.5
 20
370.5
 30
0.0
 40
1.25
100
AcDbArc
 50
270.0
 51
90.0
  0
INSERT
  5
289
330
17
100
AcDbEntity
  8
M-HWTR-RETN
100
AcDbBlockReference
  2
NoveC_FlowArrow
 10
537.5
 20
389.25
 30
0.0
 50
90.0
  0
LWPOLYLINE
  5
28B
330
17
100
AcDbEntity
  8
M-HWTR-SPLY
100
AcDbPolyline
 90
2
 70
128
 10
675.0
 20
478.0
 10
675.0
 20
468.0
  0
INSERT
  5
28C
330
17
100
AcDbEntity
  8
M-HWTR-SPLY
100
AcDbBlockReference
  2
NoveC_FlowArrow
 10
675.0
 20
473.0
 30
0.0
 50
270.0
  0
LWPOLYLINE
  5
28E
330
17
100
AcDbEntity
  8
M-HWTR-SPLY
100
AcDbPolyline
 90
2
 70
128
 10
675.0
 20
463.0
 10
675.0
 20
458.0
  0
INSERT
  5
28F
330
17
100
AcDbEntity
  8
M-HWTR-SPLY
100
AcDbBlockReference
  2
NoveC_FlowArrow
 10
675.0
 20
460.5
 30
0.0
 50
270.0
  0
LWPOLYLINE
  5
291
330
17
100
AcDbEntity
  8
M-HWTR-RETN
100
AcDbPolyline
 90
2
 70
128
 10
685.0
 20
458.0
 10
685.0
 20
478.0
  0
INSERT
  5
292
330
17
100
AcDbEntity
  8
M-HWTR-RETN
100
AcDbBlockReference
  2
NoveC_FlowArrow
 10
685.0
 20
468.0
 30
0.0
 50
90.0
  0
LWPOLYLINE
  5
294
330
17
100
AcDbEntity
  8
M-HWTR-SPLY
100
AcDbPolyline
 90
2
 70
128
 10
695.0
 20
478.0
 10
695.0
 20
468.0
  0
INSERT
  5
295
330
17
100
AcDbEntity
  8
M-HWTR-SPLY
100
AcDbBlockReference
  2
NoveC_FlowArrow
 10
695.0
 20
473.0
 30
0.0
 50
270.0
  0
LWPOLYLINE
  5
297
330
17
100
AcDbEntity
  8
M-HWTR-SPLY
100
AcDbPolyline
 90
2
 70
128
 10
695.0
 20
463.0
 10
695.0
 20
458.0
  0
INSERT
  5
298
330
17
100
AcDbEntity
  8
M-HWTR-SPLY
100
AcDbBlockReference
  2
NoveC_FlowArrow
 10
695.0
 20
460.5
 30
0.0
 50
270.0
  0
LWPOLYLINE
  5
29A
330
17
100
AcDbEntity
  8
M-HWTR-RETN
100
AcDbPolyline
 90
2
 70
128
 10
705.0
 20
458.0
 10
705.0
 20
478.0
  0
INSERT
  5
29B
330
17
100
AcDbEntity
  8
M-HWTR-RETN
100
AcDbBlockReference
  2
NoveC_FlowArrow
 10
705.0
 20
468.0
 30
0.0
 50
90.0
  0
LWPOLYLINE
  5
29D
330
17
100
AcDbEntity
  8
M-HWTR-RETN
100
AcDbPolyline
 90
2
 70
128
 10
667.5
 20
480.5
 10
662.5
 20
480.5
  0
INSERT
  5
29E
330
17
100
AcDbEntity
  8
M-HWTR-RETN
100
AcDbBlockReference
  2
NoveC_FlowArrow
 10
665.0
 20
480.5
 30
0.0
 50
180.0
  0
LWPOLYLINE
  5
2A0
330
17
100
AcDbEntity
  8
M-HWTR-RETN
100
AcDbPolyline
 90
2
 70
128
 10
657.5
 20
480.5
 10
630.0
 20
480.5
  0
INSERT
  5
2A1
330
17
100
AcDbEntity
  8
M-HWTR-RETN
100
AcDbBlockReference
  2
NoveC_FlowArrow
 10
643.75
 20
480.5
 30
0.0
 50
180.0
  0
LWPOLYLINE
  5
2A3
330
17
100
AcDbEntity
  8
M-HWTR-SPLY
100
AcDbPolyline
 90
2
 70
128
 10
675.0
 20
418.0
 10
675.0
 20
408.0
  0
INSERT
  5
2A4
330
17
100
AcDbEntity
  8
M-HWTR-SPLY
100
AcDbBlockReference
  2
NoveC_FlowArrow
 10
675.0
 20
413.0
 30
0.0
 50
270.0
  0
LWPOLYLINE
  5
2A6
330
17
100
AcDbEntity
  8
M-HWTR-SPLY
100
AcDbPolyline
 90
2
 70
128
 10
675.0
 20
403.0
 10
675.0
 20
398.0
  0
INSERT
  5
2A7
330
17
100
AcDbEntity
  8
M-HWTR-SPLY
100
AcDbBlockReference
  2
NoveC_FlowArrow
 10
675.0
 20
400.5
 30
0.0
 50
270.0
  0
LWPOLYLINE
  5
2A9
330
17
100
AcDbEntity
  8
M-HWTR-RETN
100
AcDbPolyline
 90
2
 70
128
 10
685.0
 20
398.0
 10
685.0
 20
418.0
  0
INSERT
  5
2AA
330
17
100
AcDbEntity
  8
M-HWTR-RETN
100
AcDbBlockReference
  2
NoveC_FlowArrow
 10
685.0
 20
408.0
 30
0.0
 50
90.0
  0
LWPOLYLINE
  5
2AC
330
17
100
AcDbEntity
  8
M-HWTR-SPLY
100
AcDbPolyline
 90
2
 70
128
 10
695.0
 20
418.0
 10
695.0
 20
408.0
  0
INSERT
  5
2AD
330
17
100
AcDbEntity
  8
M-HWTR-SPLY
100
AcDbBlockReference
  2
NoveC_FlowArrow
 10
695.0
 20
413.0
 30
0.0
 50
270.0
  0
LWPOLYLINE
  5
2AF
330
17
100
AcDbEntity
  8
M-HWTR-SPLY
100
AcDbPolyline
 90
2
 70
128
 10
695.0
 20
403.0
 10
695.0
 20
398.0
  0
INSERT
  5
2B0
330
17
100
AcDbEntity
  8
M-HWTR-SPLY
100
AcDbBlockReference
  2
NoveC_FlowArrow
 10
695.0
 20
400.5
 30
0.0
 50
270.0
  0
LWPOLYLINE
  5
2B2
330
17
100
AcDbEntity
  8
M-HWTR-RETN
100
AcDbPolyline
 90
2
 70
128
 10
705.0
 20
398.0
 10
705.0
 20
418.0
  0
INSERT
  5
2B3
330
17
100
AcDbEntity
  8
M-HWTR-RETN
100
AcDbBlockReference
  2
NoveC_FlowArrow
 10
705.0
 20
408.0
 30
0.0
 50
90.0
  0
LWPOLYLINE
  5
2B5
330
17
100
AcDbEntity
  8
M-HWTR-RETN
100
AcDbPolyline
 90
2
 70
128
 10
667.5
 20
420.5
 10
662.5
 20
420.5
  0
INSERT
  5
2B6
330
17
100
AcDbEntity
  8
M-HWTR-RETN
100
AcDbBlockReference
  2
NoveC_FlowArrow
 10
665.0
 20
420.5
 30
0.0
 50
180.0
  0
LWPOLYLINE
  5
2B8
330
17
100
AcDbEntity
  8
M-HWTR-RETN
100
AcDbPolyline
 90
2
 70
128
 10
657.5
 20
420.5
 10
630.0
 20
420.5
  0
INSERT
  5
2B9
330
17
100
AcDbEntity
  8
M-HWTR-RETN
100
AcDbBlockReference
  2
NoveC_FlowArrow
 10
643.75
 20
420.5
 30
0.0
 50
180.0
  0
LWPOLYLINE
  5
2BB
330
17
100
AcDbEntity
  8
M-HWTR-SPLY
100
AcDbPolyline
 90
2
 70
128
 10
675.0
 20
358.0
 10
675.0
 20
348.0
  0
INSERT
  5
2BC
330
17
100
AcDbEntity
  8
M-HWTR-SPLY
100
AcDbBlockReference
  2
NoveC_FlowArrow
 10
675.0
 20
353.0
 30
0.0
 50
270.0
  0
LWPOLYLINE
  5
2BE
330
17
100
AcDbEntity
  8
M-HWTR-SPLY
100
AcDbPolyline
 90
2
 70
128
 10
675.0
 20
343.0
 10
675.0
 20
338.0
  0
INSERT
  5
2BF
330
17
100
AcDbEntity
  8
M-HWTR-SPLY
100
AcDbBlockReference
  2
NoveC_FlowArrow
 10
675.0
 20
340.5
 30
0.0
 50
270.0
  0
LWPOLYLINE
  5
2C1
330
17
100
AcDbEntity
  8
M-HWTR-RETN
100
AcDbPolyline
 90
2
 70
128
 10
685.0
 20
338.0
 10
685.0
 20
358.0
  0
INSERT
  5
2C2
330
17
100
AcDbEntity
  8
M-HWTR-RETN
100
AcDbBlockReference
  2
NoveC_FlowArrow
 10
685.0
 20
348.0
 30
0.0
 50
90.0
  0
LWPOLYLINE
  5
2C4
330
17
100
AcDbEntity
  8
M-HWTR-SPLY
100
AcDbPolyline
 90
2
 70
128
 10
695.0
 20
358.0
 10
695.0
 20
348.0
  0
INSERT
  5
2C5
330
17
100
AcDbEntity
  8
M-HWTR-SPLY
100
AcDbBlockReference
  2
NoveC_FlowArrow
 10
695.0
 20
353.0
 30
0.0
 50
270.0
  0
LWPOLYLINE
  5
2C7
330
17
100
AcDbEntity
  8
M-HWTR-SPLY
100
AcDbPolyline
 90
2
 70
128
 10
695.0
 20
343.0
 10
695.0
 20
338.0
  0
INSERT
  5
2C8
330
17
100
AcDbEntity
  8
M-HWTR-SPLY
100
AcDbBlockReference
  2
NoveC_FlowArrow
 10
695.0
 20
340.5
 30
0.0
 50
270.0
  0
LWPOLYLINE
  5
2CA
330
17
100
AcDbEntity
  8
M-HWTR-RETN
100
AcDbPolyline
 90
2
 70
128
 10
705.0
 20
338.0
 10
705.0
 20
358.0
  0
INSERT
  5
2CB
330
17
100
AcDbEntity
  8
M-HWTR-RETN
100
AcDbBlockReference
  2
NoveC_FlowArrow
 10
705.0
 20
348.0
 30
0.0
 50
90.0
  0
LWPOLYLINE
  5
2CD
330
17
100
AcDbEntity
  8
M-HWTR-RETN
100
AcDbPolyline
 90
2
 70
128
 10
667.5
 20
360.5
 10
662.5
 20
360.5
  0
INSERT
  5
2CE
330
17
100
AcDbEntity
  8
M-HWTR-RETN
100
AcDbBlockReference
  2
NoveC_FlowArrow
 10
665.0
 20
360.5
 30
0.0
 50
180.0
  0
LWPOLYLINE
  5
2D0
330
17
100
AcDbEntity
  8
M-HWTR-RETN
100
AcDbPolyline
 90
2
 70
128
 10
657.5
 20
360.5
 10
630.0
 20
360.5
  0
INSERT
  5
2D1
330
17
100
AcDbEntity
  8
M-HWTR-RETN
100
AcDbBlockReference
  2
NoveC_FlowArrow
 10
643.75
 20
360.5
 30
0.0
 50
180.0
  0
LWPOLYLINE
  5
2D3
330
17
100
AcDbEntity
  8
M-HWTR-SPLY
100
AcDbPolyline
 90
2
 70
128
 10
675.0
 20
298.0
 10
675.0
 20
288.0
  0
INSERT
  5
2D4
330
17
100
AcDbEntity
  8
M-HWTR-SPLY
100
AcDbBlockReference
  2
NoveC_FlowArrow
 10
675.0
 20
293.0
 30
0.0
 50
270.0
  0
LWPOLYLINE
  5
2D6
330
17
100
AcDbEntity
  8
M-HWTR-SPLY
100
AcDbPolyline
 90
2
 70
128
 10
675.0
 20
283.0
 10
675.0
 20
278.0
  0
INSERT
  5
2D7
330
17
100
AcDbEntity
  8
M-HWTR-SPLY
100
AcDbBlockReference
  2
NoveC_FlowArrow
 10
675.0
 20
280.5
 30
0.0
 50
270.0
  0
LWPOLYLINE
  5
2D9
330
17
100
AcDbEntity
  8
M-HWTR-RETN
100
AcDbPolyline
 90
2
 70
128
 10
685.0
 20
278.0
 10
685.0
 20
298.0
  0
INSERT
  5
2DA
330
17
100
AcDbEntity
  8
M-HWTR-RETN
100
AcDbBlockReference
  2
NoveC_FlowArrow
 10
685.0
 20
288.0
 30
0.0
 50
90.0
  0
LWPOLYLINE
  5
2DC
330
17
100
AcDbEntity
  8
M-HWTR-SPLY
100
AcDbPolyline
 90
2
 70
128
 10
695.0
 20
298.0
 10
695.0
 20
288.0
  0
INSERT
  5
2DD
330
17
100
AcDbEntity
  8
M-HWTR-SPLY
100
AcDbBlockReference
  2
NoveC_FlowArrow
 10
695.0
 20
293.0
 30
0.0
 50
270.0
  0
LWPOLYLINE
  5
2DF
330
17
100
AcDbEntity
  8
M-HWTR-SPLY
100
AcDbPolyline
 90
2
 70
128
 10
695.0
 20
283.0
 10
695.0
 20
278.0
  0
INSERT
  5
2E0
330
17
100
AcDbEntity
  8
M-HWTR-SPLY
100
AcDbBlockReference
  2
NoveC_FlowArrow
 10
695.0
 20
280.5
 30
0.0
 50
270.0
  0
LWPOLYLINE
  5
2E2
330
17
100
AcDbEntity
  8
M-HWTR-RETN
100
AcDbPolyline
 90
2
 70
128
 10
705.0
 20
278.0
 10
705.0
 20
298.0
  0
INSERT
  5
2E3
330
17
100
AcDbEntity
  8
M-HWTR-RETN
100
AcDbBlockReference
  2
NoveC_FlowArrow
 10
705.0
 20
288.0
 30
0.0
 50
90.0
  0
LWPOLYLINE
  5
2E5
330
17
100
AcDbEntity
  8
M-HWTR-RETN
100
AcDbPolyline
 90
2
 70
128
 10
667.5
 20
300.5
 10
662.5
 20
300.5
  0
INSERT
  5
2E6
330
17
100
AcDbEntity
  8
M-HWTR-RETN
100
AcDbBlockReference
  2
NoveC_FlowArrow
 10
665.0
 20
300.5
 30
0.0
 50
180.0
  0
LWPOLYLINE
  5
2E8
330
17
100
AcDbEntity
  8
M-HWTR-RETN
100
AcDbPolyline
 90
2
 70
128
 10
657.5
 20
300.5
 10
630.0
 20
300.5
  0
INSERT
  5
2E9
330
17
100
AcDbEntity
  8
M-HWTR-RETN
100
AcDbBlockReference
  2
NoveC_FlowArrow
 10
643.75
 20
300.5
 30
0.0
 50
180.0
  0
LWPOLYLINE
  5
2EB
330
17
100
AcDbEntity
  8
M-HWTR-SPLY
100
AcDbPolyline
 90
2
 70
128
 10
675.0
 20
238.0
 10
675.0
 20
228.0
  0
INSERT
  5
2EC
330
17
100
AcDbEntity
  8
M-HWTR-SPLY
100
AcDbBlockReference
  2
NoveC_FlowArrow
 10
675.0
 20
233.0
 30
0.0
 50
270.0
  0
LWPOLYLINE
  5
2EE
330
17
100
AcDbEntity
  8
M-HWTR-SPLY
100
AcDbPolyline
 90
2
 70
128
 10
675.0
 20
223.0
 10
675.0
 20
218.0
  0
INSERT
  5
2EF
330
17
100
AcDbEntity
  8
M-HWTR-SPLY
100
AcDbBlockReference
  2
NoveC_FlowArrow
 10
675.0
 20
220.5
 30
0.0
 50
270.0
  0
LWPOLYLINE
  5
2F1
330
17
100
AcDbEntity
  8
M-HWTR-RETN
100
AcDbPolyline
 90
2
 70
128
 10
685.0
 20
218.0
 10
685.0
 20
238.0
  0
INSERT
  5
2F2
330
17
100
AcDbEntity
  8
M-HWTR-RETN
100
AcDbBlockReference
  2
NoveC_FlowArrow
 10
685.0
 20
228.0
 30
0.0
 50
90.0
  0
LWPOLYLINE
  5
2F4
330
17
100
AcDbEntity
  8
M-HWTR-SPLY
100
AcDbPolyline
 90
2
 70
128
 10
695.0
 20
238.0
 10
695.0
 20
228.0
  0
INSERT
  5
2F5
330
17
100
AcDbEntity
  8
M-HWTR-SPLY
100
AcDbBlockReference
  2
NoveC_FlowArrow
 10
695.0
 20
233.0
 30
0.0
 50
270.0
  0
LWPOLYLINE
  5
2F7
330
17
100
AcDbEntity
  8
M-HWTR-SPLY
100
AcDbPolyline
 90
2
 70
128
 10
695.0
 20
223.0
 10
695.0
 20
218.0
  0
INSERT
  5
2F8
330
17
100
AcDbEntity
  8
M-HWTR-SPLY
100
AcDbBlockReference
  2
NoveC_FlowArrow
 10
695.0
 20
220.5
 30
0.0
 50
270.0
  0
LWPOLYLINE
  5
2FA
330
17
100
AcDbEntity
  8
M-HWTR-RETN
100
AcDbPolyline
 90
2
 70
128
 10
705.0
 20
218.0
 10
705.0
 20
238.0
  0
INSERT
  5
2FB
330
17
100
AcDbEntity
  8
M-HWTR-RETN
100
AcDbBlockReference
  2
NoveC_FlowArrow
 10
705.0
 20
228.0
 30
0.0
 50
90.0
  0
LWPOLYLINE
  5
2FD
330
17
100
AcDbEntity
  8
M-HWTR-RETN
100
AcDbPolyline
 90
2
 70
128
 10
667.5
 20
240.5
 10
662.5
 20
240.5
  0
INSERT
  5
2FE
330
17
100
AcDbEntity
  8
M-HWTR-RETN
100
AcDbBlockReference
  2
NoveC_FlowArrow
 10
665.0
 20
240.5
 30
0.0
 50
180.0
  0
LWPOLYLINE
  5
300
330
17
100
AcDbEntity
  8
M-HWTR-RETN
100
AcDbPolyline
 90
3
 70
128
 10
657.5
 20
240.5
 10
627.5
 20
240.5
 10
627.5
 20
298.0
  0
INSERT
  5
301
330
17
100
AcDbEntity
  8
M-HWTR-RETN
100
AcDbBlockReference
  2
NoveC_FlowArrow
 10
627.5
 20
269.25
 30
0.0
 50
90.0
  0
LWPOLYLINE
  5
303
330
17
100
AcDbEntity
  8
M-HWTR-SPLY
100
AcDbPolyline
 90
2
 70
128
 10
427.5
 20
115.5
 10
417.5
 20
115.5
  0
INSERT
  5
304
330
17
100
AcDbEntity
  8
M-HWTR-SPLY
100
AcDbBlockReference
  2
NoveC_FlowArrow
 10
422.5
 20
115.5
 30
0.0
 50
180.0
  0
LWPOLYLINE
  5
306
330
17
100
AcDbEntity
  8
M-HWTR-RETN
100
AcDbPolyline
 90
2
 70
128
 10
417.5
 20
105.5
 10
427.5
 20
105.5
  0
INSERT
  5
307
330
17
100
AcDbEntity
  8
M-HWTR-RETN
100
AcDbBlockReference
  2
NoveC_FlowArrow
 10
422.5
 20
105.5
 30
0.0
  0
LWPOLYLINE
  5
309
330
17
100
AcDbEntity
  8
P-DOMW-CPIP
100
AcDbPolyline
 90
2
 70
128
 10
502.5
 20
108.0
 10
510.0
 20
108.0
  0
INSERT
  5
30A
330
17
100
AcDbEntity
  8
P-DOMW-CPIP
100
AcDbBlockReference
  2
NoveC_FlowArrow
 10
506.25
 20
108.0
 30
0.0
  0
LWPOLYLINE
  5
30C
330
17
100
AcDbEntity
  8
P-DOMW-CPIP
100
AcDbPolyline
 90
2
 70
128
 10
515.0
 20
108.0
 10
517.5
 20
108.0
  0
LWPOLYLINE
  5
30D
330
17
100
AcDbEntity
  8
P-DOMW-CPIP
100
AcDbPolyline
 90
2
 70
128
 10
522.5
 20
108.0
 10
537.5
 20
108.0
  0
INSERT
  5
30E
330
17
100
AcDbEntity
  8
P-DOMW-CPIP
100
AcDbBlockReference
  2
NoveC_FlowArrow
 10
530.0
 20
108.0
 30
0.0
  0
LWPOLYLINE
  5
310
330
17
100
AcDbEntity
  8
P-DOMW-CPIP
100
AcDbPolyline
 90
2
 70
128
 10
542.5
 20
108.0
 10
550.0
 20
108.0
  0
INSERT
  5
311
330
17
100
AcDbEntity
  8
P-DOMW-CPIP
100
AcDbBlockReference
  2
NoveC_FlowArrow
 10
546.25
 20
108.0
 30
0.0
  0
LWPOLYLINE
  5
313
330
17
100
AcDbEntity
  8
P-DOMW-CPIP
100
AcDbPolyline
 90
2
 70
128
 10
560.0
 20
108.0
 10
582.5
 20
108.0
  0
INSERT
  5
314
330
17
100
AcDbEntity
  8
P-DOMW-CPIP
100
AcDbBlockReference
  2
NoveC_FlowArrow
 10
571.25
 20
108.0
 30
0.0
  0
LWPOLYLINE
  5
316
330
17
100
AcDbEntity
  8
P-DOMW-CPIP
100
AcDbPolyline
 90
2
 70
128
 10
587.5
 20
108.0
 10
602.5
 20
108.0
  0
INSERT
  5
317
330
17
100
AcDbEntity
  8
P-DOMW-CPIP
100
AcDbBlockReference
  2
NoveC_FlowArrow
 10
595.0
 20
108.0
 30
0.0
  0
INSERT
  5
31F
330
17
100
AcDbEntity
  8
M-DIAG-EQPM
100
AcDbBlockReference
  2
NoveC_CappedConnection
 10
432.5
 20
108.0
 30
0.0
 41
-1.0
  0
INSERT
  5
325
330
17
100
AcDbEntity
  8
M-DIAG-EQPM
100
AcDbBlockReference
  2
NoveC_NetworkBoundary
 10
612.5
 20
213.0
 30
0.0
 50
270.0
  0
INSERT
  5
327
330
17
100
AcDbEntity
  8
M-DIAG-EQPM
100
AcDbBlockReference
  2
NoveC_FlowArrow
 10
610.0
 20
210.75
 30
0.0
 41
1.375
 50
90.0
  0
INSERT
  5
336
330
17
100
AcDbEntity
  8
M-DIAG-EQPM
100
AcDbBlockReference
  2
NoveC_ZoneManifoldPair
 10
667.5
 20
253.0
 30
0.0
  0
INSERT
  5
338
330
17
100
AcDbEntity
  8
M-DIAG-EQPM
100
AcDbBlockReference
  2
NoveC_ZoneManifoldPair
 10
567.5
 20
373.0
 30
0.0
  0
INSERT
  5
33A
330
17
100
AcDbEntity
  8
M-DIAG-EQPM
100
AcDbBlockReference
  2
NoveC_ZoneManifoldPair
 10
667.5
 20
373.0
 30
0.0
  0
INSERT
  5
33C
330
17
100
AcDbEntity
  8
M-DIAG-EQPM
100
AcDbBlockReference
  2
NoveC_ZoneManifoldPair
 10
667.5
 20
433.0
 30
0.0
  0
INSERT
  5
33E
330
17
100
AcDbEntity
  8
M-DIAG-EQPM
100
AcDbBlockReference
  2
NoveC_ZoneManifoldPair
 10
667.5
 20
313.0
 30
0.0
  0
INSERT
  5
340
330
17
100
AcDbEntity
  8
M-DIAG-EQPM
100
AcDbBlockReference
  2
NoveC_ZoneManifoldPair
 10
567.5
 20
433.0
 30
0.0
  0
INSERT
  5
342
330
17
100
AcDbEntity
  8
M-DIAG-EQPM
100
AcDbBlockReference
  2
NoveC_ZoneManifoldPair
 10
567.5
 20
493.0
 30
0.0
  0
INSERT
  5
344
330
17
100
AcDbEntity
  8
M-DIAG-EQPM
100
AcDbBlockReference
  2
NoveC_ZoneManifoldPair
 10
667.5
 20
493.0
 30
0.0
  0
INSERT
  5
346
330
17
100
AcDbEntity
  8
M-DIAG-EQPM
100
AcDbBlockReference
  2
NoveC_CappedConnection
 10
432.5
 20
118.0
 30
0.0
 41
-1.0
  0
INSERT
  5
355
330
17
100
AcDbEntity
  8
M-DIAG-EQPM
100
AcDbBlockReference
  2
NoveC_FanCoil
 10
672.5
 20
218.0
 30
0.0
 41
-1.0
 50
90.0
  0
INSERT
  5
357
330
17
100
AcDbEntity
  8
M-DIAG-EQPM
100
AcDbBlockReference
  2
NoveC_FanCoil
 10
572.5
 20
338.0
 30
0.0
 41
-1.0
 50
90.0
  0
INSERT
  5
359
330
17
100
AcDbEntity
  8
M-DIAG-EQPM
100
AcDbBlockReference
  2
NoveC_FanCoil
 10
672.5
 20
338.0
 30
0.0
 41
-1.0
 50
90.0
  0
INSERT
  5
35B
330
17
100
AcDbEntity
  8
M-DIAG-EQPM
100
AcDbBlockReference
  2
NoveC_FanCoil
 10
672.5
 20
398.0
 30
0.0
 41
-1.0
 50
90.0
  0
INSERT
  5
35D
330
17
100
AcDbEntity
  8
M-DIAG-EQPM
100
AcDbBlockReference
  2
NoveC_FanCoil
 10
672.5
 20
278.0
 30
0.0
 41
-1.0
 50
90.0
  0
INSERT
  5
35F
330
17
100
AcDbEntity
  8
M-DIAG-EQPM
100
AcDbBlockReference
  2
NoveC_FanCoil
 10
572.5
 20
398.0
 30
0.0
 41
-1.0
 50
90.0
  0
INSERT
  5
361
330
17
100
AcDbEntity
  8
M-DIAG-EQPM
100
AcDbBlockReference
  2
NoveC_FanCoil
 10
572.5
 20
458.0
 30
0.0
 41
-1.0
 50
90.0
  0
INSERT
  5
363
330
17
100
AcDbEntity
  8
M-DIAG-EQPM
100
AcDbBlockReference
  2
NoveC_FanCoil
 10
672.5
 20
458.0
 30
0.0
 41
-1.0
 50
90.0
  0
INSERT
  5
370
330
17
100
AcDbEntity
  8
M-DIAG-EQPM
100
AcDbBlockReference
  2
NoveC_MixingValveThermostatic
 10
605.0
 20
178.0
 30
0.0
 50
90.0
  0
INSERT
  5
372
330
17
100
AcDbEntity
  8
M-DIAG-EQPM
100
AcDbBlockReference
  2
NoveC_NetworkBoundary
 10
637.5
 20
183.0
 30
0.0
 41
-1.0
  0
INSERT
  5
374
330
17
100
AcDbEntity
  8
M-DIAG-EQPM
100
AcDbBlockReference
  2
NoveC_FlowArrow
 10
632.5
 20
180.5
 30
0.0
 41
1.375
 50
180.0
  0
INSERT
  5
37D
330
17
100
AcDbEntity
  8
M-DIAG-EQPM
100
AcDbBlockReference
  2
NoveC_UnderfloorPanel
 10
692.5
 20
218.0
 30
0.0
 41
-1.0
 50
90.0
  0
INSERT
  5
37F
330
17
100
AcDbEntity
  8
M-DIAG-EQPM
100
AcDbBlockReference
  2
NoveC_UnderfloorPanel
 10
592.5
 20
338.0
 30
0.0
 41
-1.0
 50
90.0
  0
INSERT
  5
381
330
17
100
AcDbEntity
  8
M-DIAG-EQPM
100
AcDbBlockReference
  2
NoveC_UnderfloorPanel
 10
692.5
 20
338.0
 30
0.0
 41
-1.0
 50
90.0
  0
INSERT
  5
383
330
17
100
AcDbEntity
  8
M-DIAG-EQPM
100
AcDbBlockReference
  2
NoveC_UnderfloorPanel
 10
692.5
 20
398.0
 30
0.0
 41
-1.0
 50
90.0
  0
INSERT
  5
385
330
17
100
AcDbEntity
  8
M-DIAG-EQPM
100
AcDbBlockReference
  2
NoveC_UnderfloorPanel
 10
692.5
 20
278.0
 30
0.0
 41
-1.0
 50
90.0
  0
INSERT
  5
387
330
17
100
AcDbEntity
  8
M-DIAG-EQPM
100
AcDbBlockReference
  2
NoveC_UnderfloorPanel
 10
592.5
 20
398.0
 30
0.0
 41
-1.0
 50
90.0
  0
INSERT
  5
389
330
17
100
AcDbEntity
  8
M-DIAG-EQPM
100
AcDbBlockReference
  2
NoveC_UnderfloorPanel
 10
592.5
 20
458.0
 30
0.0
 41
-1.0
 50
90.0
  0
INSERT
  5
38B
330
17
100
AcDbEntity
  8
M-DIAG-EQPM
100
AcDbBlockReference
  2
NoveC_UnderfloorPanel
 10
692.5
 20
458.0
 30
0.0
 41
-1.0
 50
90.0
  0
INSERT
  5
394
330
17
100
AcDbEntity
  8
M-DIAG-EQPM
100
AcDbBlockReference
  2
NoveC_TeeBranch
 10
542.5
 20
105.5
 30
0.0
 50
180.0
  0
INSERT
  5
396
330
17
100
AcDbEntity
  8
M-DIAG-EQPM
100
AcDbBlockReference
  2
NoveC_NetworkBoundary
 10
497.5
 20
110.5
 30
0.0
  0
INSERT
  5
398
330
17
100
AcDbEntity
  8
M-DIAG-EQPM
100
AcDbBlockReference
  2
NoveC_FlowArrow
 10
502.5
 20
108.0
 30
0.0
 41
1.375
  0
INSERT
  5
3A2
330
17
100
AcDbEntity
  8
M-DIAG-EQPM
100
AcDbBlockReference
  2
NoveC_DrainConnection
 10
537.5
 20
93.0
 30
0.0
  0
INSERT
  5
3A4
330
17
100
AcDbEntity
  8
M-DIAG-EQPM
100
AcDbBlockReference
  2
NoveC_TeeBranch
 10
587.5
 20
105.5
 30
0.0
 50
180.0
  0
INSERT
  5
3AC
330
17
100
AcDbEntity
  8
M-DIAG-EQPM
100
AcDbBlockReference
  2
NoveC_ExpansionConnection
 10
582.5
 20
85.5
 30
0.0
  0
INSERT
  5
3BC
330
17
100
AcDbEntity
  8
M-DIAG-EQPM
100
AcDbBlockReference
  2
NoveC_HeatPumpAirWater
 10
182.5
 20
83.0
 30
0.0
  0
INSERT
  5
3BE
330
17
100
AcDbEntity
  8
M-DIAG-EQPM
100
AcDbBlockReference
  2
NoveC_HeatPumpAirWater
 10
182.5
 20
143.0
 30
0.0
  0
INSERT
  5
3C0
330
17
100
AcDbEntity
  8
M-DIAG-EQPM
100
AcDbBlockReference
  2
NoveC_HeatPumpAirWater
 10
182.5
 20
543.0
 30
0.0
  0
INSERT
  5
3CB
330
17
100
AcDbEntity
  8
M-DIAG-EQPM
100
AcDbBlockReference
  2
NoveC_DhwCylinder
 10
602.5
 20
145.5
 30
0.0
  0
INSERT
  5
3CD
330
17
100
AcDbEntity
  8
M-DIAG-EQPM
100
AcDbBlockReference
  2
NoveC_NetworkBoundary
 10
687.5
 20
135.5
 30
0.0
 41
-1.0
  0
INSERT
  5
3CF
330
17
100
AcDbEntity
  8
M-DIAG-EQPM
100
AcDbBlockReference
  2
NoveC_FlowArrow
 10
682.5
 20
133.0
 30
0.0
 41
1.375
 50
180.0
  0
INSERT
  5
3D1
330
17
100
AcDbEntity
  8
M-DIAG-EQPM
100
AcDbBlockReference
  2
NoveC_HeatPumpAirWater
 10
182.5
 20
483.0
 30
0.0
  0
INSERT
  5
3D3
330
17
100
AcDbEntity
  8
M-DIAG-EQPM
100
AcDbBlockReference
  2
NoveC_HeatPumpAirWater
 10
182.5
 20
363.0
 30
0.0
  0
INSERT
  5
3D5
330
17
100
AcDbEntity
  8
M-DIAG-EQPM
100
AcDbBlockReference
  2
NoveC_HeatPumpAirWater
 10
182.5
 20
423.0
 30
0.0
  0
INSERT
  5
3E4
330
17
100
AcDbEntity
  8
M-DIAG-EQPM
100
AcDbBlockReference
  2
NoveC_BufferSixPort
 10
392.5
 20
143.0
 30
0.0
  0
INSERT
  5
3EC
330
17
100
AcDbEntity
  8
M-DIAG-EQPM
100
AcDbBlockReference
  2
NoveC_AirVent
 10
402.5
 20
173.0
 30
0.0
  0
INSERT
  5
3EE
330
17
100
AcDbEntity
  8
M-DIAG-EQPM
100
AcDbBlockReference
  2
NoveC_DrainConnection
 10
402.5
 20
88.0
 30
0.0
  0
INSERT
  5
3FB
330
17
100
AcDbEntity
  8
M-DIAG-EQPM
100
AcDbBlockReference
  2
NoveC_BufferFourPort
 10
392.5
 20
543.0
 30
0.0
  0
INSERT
  5
3FD
330
17
100
AcDbEntity
  8
M-DIAG-EQPM
100
AcDbBlockReference
  2
NoveC_AirVent
 10
402.5
 20
573.0
 30
0.0
  0
INSERT
  5
3FF
330
17
100
AcDbEntity
  8
M-DIAG-EQPM
100
AcDbBlockReference
  2
NoveC_DrainConnection
 10
402.5
 20
488.0
 30
0.0
  0
INSERT
  5
401
330
17
100
AcDbEntity
  8
M-DIAG-EQPM
100
AcDbBlockReference
  2
NoveC_TeeBranch
 10
490.0
 20
120.5
 30
0.0
 50
180.0
  0
INSERT
  5
40D
330
17
100
AcDbEntity
  8
M-DIAG-EQPM
100
AcDbBlockReference
  2
NoveC_PressureGauge
 10
490.0
 20
93.0
 30
0.0
 50
180.0
  0
INSERT
  5
40F
330
17
100
AcDbEntity
  8
M-DIAG-EQPM
100
AcDbBlockReference
  2
NoveC_PressureGauge_Lettera
 10
487.5
 20
96.0
 30
0.0
  0
INSERT
  5
411
330
17
100
AcDbEntity
  8
M-DIAG-EQPM
100
AcDbBlockReference
  2
NoveC_TeeBranch
 10
477.5
 20
120.5
 30
0.0
 50
180.0
  0
INSERT
  5
413
330
17
100
AcDbEntity
  8
M-DIAG-EQPM
100
AcDbBlockReference
  2
NoveC_ExpansionConnection
 10
472.5
 20
103.0
 30
0.0
  0
INSERT
  5
415
330
17
100
AcDbEntity
  8
M-DIAG-EQPM
100
AcDbBlockReference
  2
NoveC_TeeBranch
 10
290.0
 20
65.5
 30
0.0
  0
INSERT
  5
417
330
17
100
AcDbEntity
  8
M-DIAG-EQPM
100
AcDbBlockReference
  2
NoveC_AirVent
 10
290.0
 20
98.0
 30
0.0
  0
INSERT
  5
419
330
17
100
AcDbEntity
  8
M-DIAG-EQPM
100
AcDbBlockReference
  2
NoveC_TeeBranch
 10
290.0
 20
125.5
 30
0.0
  0
INSERT
  5
41B
330
17
100
AcDbEntity
  8
M-DIAG-EQPM
100
AcDbBlockReference
  2
NoveC_AirVent
 10
290.0
 20
158.0
 30
0.0
  0
INSERT
  5
424
330
17
100
AcDbEntity
  8
M-DIAG-EQPM
100
AcDbBlockReference
  2
NoveC_TeeJunction
 10
325.0
 20
120.5
 30
0.0
 50
180.0
  0
INSERT
  5
426
330
17
100
AcDbEntity
  8
M-DIAG-EQPM
100
AcDbBlockReference
  2
NoveC_TeeBranch
 10
337.5
 20
120.5
 30
0.0
 50
180.0
  0
INSERT
  5
431
330
17
100
AcDbEntity
  8
M-DIAG-EQPM
100
AcDbBlockReference
  2
NoveC_FillingUnit
 10
337.5
 20
100.5
 30
0.0
 50
180.0
  0
INSERT
  5
433
330
17
100
AcDbEntity
  8
M-DIAG-EQPM
100
AcDbBlockReference
  2
NoveC_NetworkBoundary
 10
337.5
 20
85.5
 30
0.0
 41
-1.0
 50
270.0
  0
INSERT
  5
435
330
17
100
AcDbEntity
  8
M-DIAG-EQPM
100
AcDbBlockReference
  2
NoveC_FlowArrow
 10
335.0
 20
90.5
 30
0.0
 41
1.375
 50
90.0
  0
INSERT
  5
437
330
17
100
AcDbEntity
  8
M-DIAG-EQPM
100
AcDbBlockReference
  2
NoveC_TeeBranch
 10
290.0
 20
345.5
 30
0.0
  0
INSERT
  5
439
330
17
100
AcDbEntity
  8
M-DIAG-EQPM
100
AcDbBlockReference
  2
NoveC_AirVent
 10
290.0
 20
378.0
 30
0.0
  0
INSERT
  5
43B
330
17
100
AcDbEntity
  8
M-DIAG-EQPM
100
AcDbBlockReference
  2
NoveC_TeeBranch
 10
290.0
 20
525.5
 30
0.0
  0
INSERT
  5
43D
330
17
100
AcDbEntity
  8
M-DIAG-EQPM
100
AcDbBlockReference
  2
NoveC_AirVent
 10
290.0
 20
558.0
 30
0.0
  0
INSERT
  5
43F
330
17
100
AcDbEntity
  8
M-DIAG-EQPM
100
AcDbBlockReference
  2
NoveC_TeeBranch
 10
290.0
 20
405.5
 30
0.0
  0
INSERT
  5
441
330
17
100
AcDbEntity
  8
M-DIAG-EQPM
100
AcDbBlockReference
  2
NoveC_AirVent
 10
290.0
 20
438.0
 30
0.0
  0
INSERT
  5
443
330
17
100
AcDbEntity
  8
M-DIAG-EQPM
100
AcDbBlockReference
  2
NoveC_TeeBranch
 10
290.0
 20
465.5
 30
0.0
  0
INSERT
  5
445
330
17
100
AcDbEntity
  8
M-DIAG-EQPM
100
AcDbBlockReference
  2
NoveC_AirVent
 10
290.0
 20
498.0
 30
0.0
  0
INSERT
  5
447
330
17
100
AcDbEntity
  8
M-DIAG-EQPM
100
AcDbBlockReference
  2
NoveC_TeeJunction
 10
325.0
 20
520.5
 30
0.0
 50
180.0
  0
INSERT
  5
449
330
17
100
AcDbEntity
  8
M-DIAG-EQPM
100
AcDbBlockReference
  2
NoveC_TeeJunction
 10
320.0
 20
400.5
 30
0.0
 50
90.0
  0
INSERT
  5
44B
330
17
100
AcDbEntity
  8
M-DIAG-EQPM
100
AcDbBlockReference
  2
NoveC_TeeJunction
 10
320.0
 20
460.5
 30
0.0
 50
90.0
  0
INSERT
  5
44D
330
17
100
AcDbEntity
  8
M-DIAG-EQPM
100
AcDbBlockReference
  2
NoveC_TeeBranch
 10
337.5
 20
520.5
 30
0.0
 50
180.0
  0
INSERT
  5
44F
330
17
100
AcDbEntity
  8
M-DIAG-EQPM
100
AcDbBlockReference
  2
NoveC_FillingUnit
 10
337.5
 20
500.5
 30
0.0
 50
180.0
  0
INSERT
  5
451
330
17
100
AcDbEntity
  8
M-DIAG-EQPM
100
AcDbBlockReference
  2
NoveC_NetworkBoundary
 10
337.5
 20
485.5
 30
0.0
 41
-1.0
 50
270.0
  0
INSERT
  5
453
330
17
100
AcDbEntity
  8
M-DIAG-EQPM
100
AcDbBlockReference
  2
NoveC_FlowArrow
 10
335.0
 20
490.5
 30
0.0
 41
1.375
 50
90.0
  0
INSERT
  5
455
330
17
100
AcDbEntity
  8
M-DIAG-EQPM
100
AcDbBlockReference
  2
NoveC_TeeBranch
 10
230.0
 20
360.5
 30
0.0
  0
INSERT
  5
45D
330
17
100
AcDbEntity
  8
M-DIAG-EQPM
100
AcDbBlockReference
  2
NoveC_ValveSafety
 10
230.0
 20
380.5
 30
0.0
  0
INSERT
  5
45F
330
17
100
AcDbEntity
  8
M-DIAG-EQPM
100
AcDbBlockReference
  2
NoveC_TeeBranch
 10
230.0
 20
420.5
 30
0.0
  0
INSERT
  5
461
330
17
100
AcDbEntity
  8
M-DIAG-EQPM
100
AcDbBlockReference
  2
NoveC_ValveSafety
 10
230.0
 20
440.5
 30
0.0
  0
INSERT
  5
463
330
17
100
AcDbEntity
  8
M-DIAG-EQPM
100
AcDbBlockReference
  2
NoveC_TeeBranch
 10
230.0
 20
480.5
 30
0.0
  0
INSERT
  5
465
330
17
100
AcDbEntity
  8
M-DIAG-EQPM
100
AcDbBlockReference
  2
NoveC_ValveSafety
 10
230.0
 20
500.5
 30
0.0
  0
INSERT
  5
467
330
17
100
AcDbEntity
  8
M-DIAG-EQPM
100
AcDbBlockReference
  2
NoveC_TeeBranch
 10
230.0
 20
540.5
 30
0.0
  0
INSERT
  5
469
330
17
100
AcDbEntity
  8
M-DIAG-EQPM
100
AcDbBlockReference
  2
NoveC_ValveSafety
 10
230.0
 20
560.5
 30
0.0
  0
INSERT
  5
46B
330
17
100
AcDbEntity
  8
M-DIAG-EQPM
100
AcDbBlockReference
  2
NoveC_TeeJunction
 10
275.0
 20
415.5
 30
0.0
 50
90.0
  0
INSERT
  5
46D
330
17
100
AcDbEntity
  8
M-DIAG-EQPM
100
AcDbBlockReference
  2
NoveC_TeeJunction
 10
275.0
 20
475.5
 30
0.0
 50
90.0
  0
INSERT
  5
46F
330
17
100
AcDbEntity
  8
M-DIAG-EQPM
100
AcDbBlockReference
  2
NoveC_TeeJunction
 10
280.0
 20
535.5
 30
0.0
 50
180.0
  0
INSERT
  5
471
330
17
100
AcDbEntity
  8
M-DIAG-EQPM
100
AcDbBlockReference
  2
NoveC_TeeBranch
 10
230.0
 20
80.5
 30
0.0
  0
INSERT
  5
473
330
17
100
AcDbEntity
  8
M-DIAG-EQPM
100
AcDbBlockReference
  2
NoveC_ValveSafety
 10
230.0
 20
100.5
 30
0.0
  0
INSERT
  5
475
330
17
100
AcDbEntity
  8
M-DIAG-EQPM
100
AcDbBlockReference
  2
NoveC_TeeJunction
 10
280.0
 20
135.5
 30
0.0
 50
180.0
  0
INSERT
  5
477
330
17
100
AcDbEntity
  8
M-DIAG-EQPM
100
AcDbBlockReference
  2
NoveC_TeeBranch
 10
230.0
 20
140.5
 30
0.0
  0
INSERT
  5
479
330
17
100
AcDbEntity
  8
M-DIAG-EQPM
100
AcDbBlockReference
  2
NoveC_ValveSafety
 10
230.0
 20
160.5
 30
0.0
  0
INSERT
  5
47B
330
17
100
AcDbEntity
  8
M-DIAG-EQPM
100
AcDbBlockReference
  2
NoveC_TeeJunction
 10
630.0
 20
303.0
 30
0.0
 50
270.0
  0
INSERT
  5
47D
330
17
100
AcDbEntity
  8
M-DIAG-EQPM
100
AcDbBlockReference
  2
NoveC_TeeJunction
 10
630.0
 20
363.0
 30
0.0
 50
270.0
  0
INSERT
  5
47F
330
17
100
AcDbEntity
  8
M-DIAG-EQPM
100
AcDbBlockReference
  2
NoveC_TeeJunction
 10
540.0
 20
423.0
 30
0.0
 50
270.0
  0
INSERT
  5
481
330
17
100
AcDbEntity
  8
M-DIAG-EQPM
100
AcDbBlockReference
  2
NoveC_TeeJunction
 10
630.0
 20
423.0
 30
0.0
 50
270.0
  0
INSERT
  5
483
330
17
100
AcDbEntity
  8
M-DIAG-EQPM
100
AcDbBlockReference
  2
NoveC_TeeJunction
 10
630.0
 20
478.0
 30
0.0
 41
-1.0
 50
270.0
  0
INSERT
  5
485
330
17
100
AcDbEntity
  8
M-DIAG-EQPM
100
AcDbBlockReference
  2
NoveC_TeeJunction
 10
540.0
 20
483.0
 30
0.0
 50
270.0
  0
INSERT
  5
487
330
17
100
AcDbEntity
  8
M-DIAG-EQPM
100
AcDbBlockReference
  2
NoveC_TeeJunction
 10
540.0
 20
520.5
 30
0.0
 50
180.0
  0
INSERT
  5
489
330
17
100
AcDbEntity
  8
M-DIAG-EQPM
100
AcDbBlockReference
  2
NoveC_TeeBranch
 10
452.5
 20
520.5
 30
0.0
 50
180.0
  0
INSERT
  5
48B
330
17
100
AcDbEntity
  8
M-DIAG-EQPM
100
AcDbBlockReference
  2
NoveC_ExpansionConnection
 10
447.5
 20
503.0
 30
0.0
  0
INSERT
  5
48D
330
17
100
AcDbEntity
  8
M-DIAG-EQPM
100
AcDbBlockReference
  2
NoveC_TeeBranch
 10
440.0
 20
520.5
 30
0.0
 50
180.0
  0
INSERT
  5
48F
330
17
100
AcDbEntity
  8
M-DIAG-EQPM
100
AcDbBlockReference
  2
NoveC_PressureGauge
 10
440.0
 20
493.0
 30
0.0
 50
180.0
  0
INSERT
  5
491
330
17
100
AcDbEntity
  8
M-DIAG-EQPM
100
AcDbBlockReference
  2
NoveC_PressureGauge_Lettera
 10
437.5
 20
496.0
 30
0.0
  0
INSERT
  5
493
330
17
100
AcDbEntity
  8
M-DIAG-EQPM
100
AcDbBlockReference
  2
NoveC_TeeJunction
 10
640.0
 20
313.0
 30
0.0
 50
270.0
  0
INSERT
  5
495
330
17
100
AcDbEntity
  8
M-DIAG-EQPM
100
AcDbBlockReference
  2
NoveC_TeeJunction
 10
640.0
 20
373.0
 30
0.0
 50
270.0
  0
INSERT
  5
497
330
17
100
AcDbEntity
  8
M-DIAG-EQPM
100
AcDbBlockReference
  2
NoveC_TeeJunction
 10
640.0
 20
433.0
 30
0.0
 50
270.0
  0
INSERT
  5
499
330
17
100
AcDbEntity
  8
M-DIAG-EQPM
100
AcDbBlockReference
  2
NoveC_TeeJunction
 10
640.0
 20
493.0
 30
0.0
 50
270.0
  0
INSERT
  5
49B
330
17
100
AcDbEntity
  8
M-DIAG-EQPM
100
AcDbBlockReference
  2
NoveC_TeeJunction
 10
475.0
 20
535.5
 30
0.0
 50
180.0
  0
INSERT
  5
49D
330
17
100
AcDbEntity
  8
M-DIAG-EQPM
100
AcDbBlockReference
  2
NoveC_TeeJunction
 10
530.0
 20
488.0
 30
0.0
 50
180.0
  0
INSERT
  5
49F
330
17
100
AcDbEntity
  8
M-DIAG-EQPM
100
AcDbBlockReference
  2
NoveC_TeeJunction
 10
530.0
 20
433.0
 30
0.0
 50
270.0
  0
INSERT
  5
4A8
330
17
100
AcDbEntity
  8
M-DIAG-EQPM
100
AcDbBlockReference
  2
NoveC_ValveIsolation
 10
620.0
 20
183.0
 30
0.0
  0
INSERT
  5
4AA
330
17
100
AcDbEntity
  8
M-DIAG-EQPM
100
AcDbBlockReference
  2
NoveC_ValveIsolation
 10
587.5
 20
95.5
 30
0.0
 50
270.0
  0
INSERT
  5
4AC
330
17
100
AcDbEntity
  8
M-DIAG-EQPM
100
AcDbBlockReference
  2
NoveC_ValveIsolation
 10
452.5
 20
513.0
 30
0.0
 50
270.0
  0
INSERT
  5
4AE
330
17
100
AcDbEntity
  8
M-DIAG-EQPM
100
AcDbBlockReference
  2
NoveC_ValveIsolation
 10
477.5
 20
113.0
 30
0.0
 50
270.0
  0
INSERT
  5
4BA
330
17
100
AcDbEntity
  8
M-DIAG-EQPM
100
AcDbBlockReference
  2
NoveC_ValveGaugeCock3way
 10
440.0
 20
513.0
 30
0.0
 50
270.0
  0
INSERT
  5
4BC
330
17
100
AcDbEntity
  8
M-DIAG-EQPM
100
AcDbBlockReference
  2
NoveC_ValveGaugeCock3way
 10
490.0
 20
113.0
 30
0.0
 50
270.0
  0
INSERT
  5
4BE
330
17
100
AcDbEntity
  8
M-DIAG-EQPM
100
AcDbBlockReference
  2
NoveC_ValveIsolation
 10
382.5
 20
540.5
 30
0.0
  0
INSERT
  5
4C0
330
17
100
AcDbEntity
  8
M-DIAG-EQPM
100
AcDbBlockReference
  2
NoveC_ValveIsolation
 10
422.5
 20
540.5
 30
0.0
  0
INSERT
  5
4C2
330
17
100
AcDbEntity
  8
M-DIAG-EQPM
100
AcDbBlockReference
  2
NoveC_ValveIsolation
 10
480.0
 20
493.0
 30
0.0
  0
INSERT
  5
4CC
330
17
100
AcDbEntity
  8
M-DIAG-EQPM
100
AcDbBlockReference
  2
NoveC_PumpCirculator
 10
487.5
 20
495.5
 30
0.0
  0
INSERT
  5
4CE
330
17
100
AcDbEntity
  8
M-DIAG-EQPM
100
AcDbBlockReference
  2
NoveC_ValveIsolation
 10
500.0
 20
493.0
 30
0.0
  0
INSERT
  5
4D0
330
17
100
AcDbEntity
  8
M-DIAG-EQPM
100
AcDbBlockReference
  2
NoveC_ValveIsolation
 10
482.5
 20
540.5
 30
0.0
  0
INSERT
  5
4D2
330
17
100
AcDbEntity
  8
M-DIAG-EQPM
100
AcDbBlockReference
  2
NoveC_PumpCirculator
 10
490.0
 20
543.0
 30
0.0
  0
INSERT
  5
4D4
330
17
100
AcDbEntity
  8
M-DIAG-EQPM
100
AcDbBlockReference
  2
NoveC_ValveIsolation
 10
502.5
 20
540.5
 30
0.0
  0
INSERT
  5
4D6
330
17
100
AcDbEntity
  8
M-DIAG-EQPM
100
AcDbBlockReference
  2
NoveC_ValveIsolation
 10
422.5
 20
525.5
 30
0.0
  0
INSERT
  5
4D8
330
17
100
AcDbEntity
  8
M-DIAG-EQPM
100
AcDbBlockReference
  2
NoveC_ValveIsolation
 10
557.5
 20
493.0
 30
0.0
  0
INSERT
  5
4DA
330
17
100
AcDbEntity
  8
M-DIAG-EQPM
100
AcDbBlockReference
  2
NoveC_ValveIsolation
 10
557.5
 20
433.0
 30
0.0
  0
INSERT
  5
4DC
330
17
100
AcDbEntity
  8
M-DIAG-EQPM
100
AcDbBlockReference
  2
NoveC_ValveIsolation
 10
557.5
 20
373.0
 30
0.0
  0
INSERT
  5
4DE
330
17
100
AcDbEntity
  8
M-DIAG-EQPM
100
AcDbBlockReference
  2
NoveC_ValveIsolation
 10
657.5
 20
493.0
 30
0.0
  0
INSERT
  5
4E0
330
17
100
AcDbEntity
  8
M-DIAG-EQPM
100
AcDbBlockReference
  2
NoveC_ValveIsolation
 10
657.5
 20
433.0
 30
0.0
  0
INSERT
  5
4E2
330
17
100
AcDbEntity
  8
M-DIAG-EQPM
100
AcDbBlockReference
  2
NoveC_ValveIsolation
 10
657.5
 20
373.0
 30
0.0
  0
INSERT
  5
4E4
330
17
100
AcDbEntity
  8
M-DIAG-EQPM
100
AcDbBlockReference
  2
NoveC_ValveIsolation
 10
657.5
 20
313.0
 30
0.0
  0
INSERT
  5
4E6
330
17
100
AcDbEntity
  8
M-DIAG-EQPM
100
AcDbBlockReference
  2
NoveC_ValveIsolation
 10
657.5
 20
253.0
 30
0.0
  0
INSERT
  5
4E8
330
17
100
AcDbEntity
  8
M-DIAG-EQPM
100
AcDbBlockReference
  2
NoveC_ValveIsolation
 10
382.5
 20
140.5
 30
0.0
  0
INSERT
  5
4EA
330
17
100
AcDbEntity
  8
M-DIAG-EQPM
100
AcDbBlockReference
  2
NoveC_ValveIsolation
 10
382.5
 20
125.5
 30
0.0
  0
INSERT
  5
4EC
330
17
100
AcDbEntity
  8
M-DIAG-EQPM
100
AcDbBlockReference
  2
NoveC_ValveIsolation
 10
422.5
 20
140.5
 30
0.0
  0
INSERT
  5
4EE
330
17
100
AcDbEntity
  8
M-DIAG-EQPM
100
AcDbBlockReference
  2
NoveC_PumpCirculator
 10
430.0
 20
143.0
 30
0.0
  0
INSERT
  5
4F0
330
17
100
AcDbEntity
  8
M-DIAG-EQPM
100
AcDbBlockReference
  2
NoveC_ValveIsolation
 10
592.5
 20
140.5
 30
0.0
  0
INSERT
  5
4F2
330
17
100
AcDbEntity
  8
M-DIAG-EQPM
100
AcDbBlockReference
  2
NoveC_ValveIsolation
 10
422.5
 20
125.5
 30
0.0
  0
INSERT
  5
4F4
330
17
100
AcDbEntity
  8
M-DIAG-EQPM
100
AcDbBlockReference
  2
NoveC_ValveIsolation
 10
612.5
 20
173.0
 30
0.0
 50
270.0
  0
INSERT
  5
4F6
330
17
100
AcDbEntity
  8
M-DIAG-EQPM
100
AcDbBlockReference
  2
NoveC_ValveIsolation
 10
612.5
 20
193.0
 30
0.0
 50
270.0
  0
INSERT
  5
4F8
330
17
100
AcDbEntity
  8
M-DIAG-EQPM
100
AcDbBlockReference
  2
NoveC_ValveIsolation
 10
670.0
 20
135.5
 30
0.0
  0
INSERT
  5
4FA
330
17
100
AcDbEntity
  8
M-DIAG-EQPM
100
AcDbBlockReference
  2
NoveC_PumpCirculator
 10
667.5
 20
138.0
 30
0.0
 41
-1.0
  0
INSERT
  5
4FC
330
17
100
AcDbEntity
  8
M-DIAG-EQPM
100
AcDbBlockReference
  2
NoveC_ValveIsolation
 10
632.5
 20
135.5
 30
0.0
  0
INSERT
  5
4FE
330
17
100
AcDbEntity
  8
M-DIAG-EQPM
100
AcDbBlockReference
  2
NoveC_ValveIsolation
 10
240.0
 20
540.5
 30
0.0
  0
INSERT
  5
50B
330
17
100
AcDbEntity
  8
M-DIAG-EQPM
100
AcDbBlockReference
  2
NoveC_ValveCheck
 10
250.0
 20
540.5
 30
0.0
  0
INSERT
  5
515
330
17
100
AcDbEntity
  8
M-DIAG-EQPM
100
AcDbBlockReference
  2
NoveC_FlexibleJoint
 10
260.0
 20
540.5
 30
0.0
  0
INSERT
  5
517
330
17
100
AcDbEntity
  8
M-DIAG-EQPM
100
AcDbBlockReference
  2
NoveC_FlexibleJoint
 10
307.5
 20
525.5
 30
0.0
  0
INSERT
  5
519
330
17
100
AcDbEntity
  8
M-DIAG-EQPM
100
AcDbBlockReference
  2
NoveC_ValveIsolation
 10
235.0
 20
525.5
 30
0.0
  0
INSERT
  5
523
330
17
100
AcDbEntity
  8
M-DIAG-EQPM
370
50
100
AcDbBlockReference
  2
NoveC_Strainer
 10
227.5
 20
525.5
 30
0.0
  0
INSERT
  5
525
330
17
100
AcDbEntity
  8
M-DIAG-EQPM
100
AcDbBlockReference
  2
NoveC_ValveIsolation
 10
295.0
 20
545.5
 30
0.0
 50
270.0
  0
INSERT
  5
527
330
17
100
AcDbEntity
  8
M-DIAG-EQPM
100
AcDbBlockReference
  2
NoveC_ValveIsolation
 10
240.0
 20
480.5
 30
0.0
  0
INSERT
  5
529
330
17
100
AcDbEntity
  8
M-DIAG-EQPM
100
AcDbBlockReference
  2
NoveC_ValveCheck
 10
250.0
 20
480.5
 30
0.0
  0
INSERT
  5
52B
330
17
100
AcDbEntity
  8
M-DIAG-EQPM
100
AcDbBlockReference
  2
NoveC_FlexibleJoint
 10
260.0
 20
480.5
 30
0.0
  0
INSERT
  5
52D
330
17
100
AcDbEntity
  8
M-DIAG-EQPM
100
AcDbBlockReference
  2
NoveC_FlexibleJoint
 10
307.5
 20
465.5
 30
0.0
  0
INSERT
  5
52F
330
17
100
AcDbEntity
  8
M-DIAG-EQPM
100
AcDbBlockReference
  2
NoveC_ValveIsolation
 10
235.0
 20
465.5
 30
0.0
  0
INSERT
  5
531
330
17
100
AcDbEntity
  8
M-DIAG-EQPM
370
50
100
AcDbBlockReference
  2
NoveC_Strainer
 10
227.5
 20
465.5
 30
0.0
  0
INSERT
  5
533
330
17
100
AcDbEntity
  8
M-DIAG-EQPM
100
AcDbBlockReference
  2
NoveC_ValveIsolation
 10
295.0
 20
478.0
 30
0.0
 50
270.0
  0
INSERT
  5
535
330
17
100
AcDbEntity
  8
M-DIAG-EQPM
100
AcDbBlockReference
  2
NoveC_ValveIsolation
 10
240.0
 20
420.5
 30
0.0
  0
INSERT
  5
537
330
17
100
AcDbEntity
  8
M-DIAG-EQPM
100
AcDbBlockReference
  2
NoveC_ValveCheck
 10
250.0
 20
420.5
 30
0.0
  0
INSERT
  5
539
330
17
100
AcDbEntity
  8
M-DIAG-EQPM
100
AcDbBlockReference
  2
NoveC_FlexibleJoint
 10
260.0
 20
420.5
 30
0.0
  0
INSERT
  5
53B
330
17
100
AcDbEntity
  8
M-DIAG-EQPM
100
AcDbBlockReference
  2
NoveC_FlexibleJoint
 10
307.5
 20
405.5
 30
0.0
  0
INSERT
  5
53D
330
17
100
AcDbEntity
  8
M-DIAG-EQPM
100
AcDbBlockReference
  2
NoveC_ValveIsolation
 10
235.0
 20
405.5
 30
0.0
  0
INSERT
  5
53F
330
17
100
AcDbEntity
  8
M-DIAG-EQPM
370
50
100
AcDbBlockReference
  2
NoveC_Strainer
 10
227.5
 20
405.5
 30
0.0
  0
INSERT
  5
541
330
17
100
AcDbEntity
  8
M-DIAG-EQPM
100
AcDbBlockReference
  2
NoveC_ValveIsolation
 10
295.0
 20
418.0
 30
0.0
 50
270.0
  0
INSERT
  5
543
330
17
100
AcDbEntity
  8
M-DIAG-EQPM
100
AcDbBlockReference
  2
NoveC_ValveIsolation
 10
240.0
 20
360.5
 30
0.0
  0
INSERT
  5
545
330
17
100
AcDbEntity
  8
M-DIAG-EQPM
100
AcDbBlockReference
  2
NoveC_ValveCheck
 10
250.0
 20
360.5
 30
0.0
  0
INSERT
  5
547
330
17
100
AcDbEntity
  8
M-DIAG-EQPM
100
AcDbBlockReference
  2
NoveC_FlexibleJoint
 10
260.0
 20
360.5
 30
0.0
  0
INSERT
  5
549
330
17
100
AcDbEntity
  8
M-DIAG-EQPM
100
AcDbBlockReference
  2
NoveC_FlexibleJoint
 10
325.0
 20
393.0
 30
0.0
 50
270.0
  0
INSERT
  5
54B
330
17
100
AcDbEntity
  8
M-DIAG-EQPM
100
AcDbBlockReference
  2
NoveC_ValveIsolation
 10
235.0
 20
345.5
 30
0.0
  0
INSERT
  5
54D
330
17
100
AcDbEntity
  8
M-DIAG-EQPM
370
50
100
AcDbBlockReference
  2
NoveC_Strainer
 10
227.5
 20
345.5
 30
0.0
  0
INSERT
  5
54F
330
17
100
AcDbEntity
  8
M-DIAG-EQPM
100
AcDbBlockReference
  2
NoveC_ValveIsolation
 10
295.0
 20
358.0
 30
0.0
 50
270.0
  0
INSERT
  5
551
330
17
100
AcDbEntity
  8
M-DIAG-EQPM
100
AcDbBlockReference
  2
NoveC_ValveIsolation
 10
240.0
 20
140.5
 30
0.0
  0
INSERT
  5
553
330
17
100
AcDbEntity
  8
M-DIAG-EQPM
100
AcDbBlockReference
  2
NoveC_ValveCheck
 10
250.0
 20
140.5
 30
0.0
  0
INSERT
  5
555
330
17
100
AcDbEntity
  8
M-DIAG-EQPM
100
AcDbBlockReference
  2
NoveC_FlexibleJoint
 10
260.0
 20
140.5
 30
0.0
  0
INSERT
  5
557
330
17
100
AcDbEntity
  8
M-DIAG-EQPM
100
AcDbBlockReference
  2
NoveC_FlexibleJoint
 10
307.5
 20
125.5
 30
0.0
  0
INSERT
  5
559
330
17
100
AcDbEntity
  8
M-DIAG-EQPM
100
AcDbBlockReference
  2
NoveC_ValveIsolation
 10
235.0
 20
125.5
 30
0.0
  0
INSERT
  5
55B
330
17
100
AcDbEntity
  8
M-DIAG-EQPM
370
50
100
AcDbBlockReference
  2
NoveC_Strainer
 10
227.5
 20
125.5
 30
0.0
  0
INSERT
  5
55D
330
17
100
AcDbEntity
  8
M-DIAG-EQPM
100
AcDbBlockReference
  2
NoveC_ValveIsolation
 10
295.0
 20
145.5
 30
0.0
 50
270.0
  0
INSERT
  5
55F
330
17
100
AcDbEntity
  8
M-DIAG-EQPM
100
AcDbBlockReference
  2
NoveC_ValveIsolation
 10
240.0
 20
80.5
 30
0.0
  0
INSERT
  5
561
330
17
100
AcDbEntity
  8
M-DIAG-EQPM
100
AcDbBlockReference
  2
NoveC_ValveCheck
 10
250.0
 20
80.5
 30
0.0
  0
INSERT
  5
563
330
17
100
AcDbEntity
  8
M-DIAG-EQPM
100
AcDbBlockReference
  2
NoveC_FlexibleJoint
 10
260.0
 20
80.5
 30
0.0
  0
INSERT
  5
565
330
17
100
AcDbEntity
  8
M-DIAG-EQPM
100
AcDbBlockReference
  2
NoveC_FlexibleJoint
 10
325.0
 20
113.0
 30
0.0
 50
270.0
  0
INSERT
  5
567
330
17
100
AcDbEntity
  8
M-DIAG-EQPM
100
AcDbBlockReference
  2
NoveC_ValveIsolation
 10
235.0
 20
65.5
 30
0.0
  0
INSERT
  5
569
330
17
100
AcDbEntity
  8
M-DIAG-EQPM
370
50
100
AcDbBlockReference
  2
NoveC_Strainer
 10
227.5
 20
65.5
 30
0.0
  0
INSERT
  5
56B
330
17
100
AcDbEntity
  8
M-DIAG-EQPM
100
AcDbBlockReference
  2
NoveC_ValveIsolation
 10
295.0
 20
78.0
 30
0.0
 50
270.0
  0
INSERT
  5
56D
330
17
100
AcDbEntity
  8
M-DIAG-EQPM
100
AcDbBlockReference
  2
NoveC_ValveIsolation
 10
407.5
 20
553.0
 30
0.0
 50
270.0
  0
INSERT
  5
56F
330
17
100
AcDbEntity
  8
M-DIAG-EQPM
100
AcDbBlockReference
  2
NoveC_ValveIsolation
 10
407.5
 20
153.0
 30
0.0
 50
270.0
  0
INSERT
  5
571
330
17
100
AcDbEntity
  8
M-DIAG-EQPM
100
AcDbBlockReference
  2
NoveC_ValveIsolation
 10
382.5
 20
525.5
 30
0.0
  0
INSERT
  5
57E
330
17
100
AcDbEntity
  8
M-DIAG-EQPM
100
AcDbBlockReference
  2
NoveC_HeatMeter
 10
380.0
 20
525.5
 30
0.0
 41
-1.0
  0
INSERT
  5
580
330
17
100
AcDbEntity
  8
M-DIAG-EQPM
100
AcDbBlockReference
  2
NoveC_HeatMeter_Sigla
 10
375.0
 20
523.0
 30
0.0
  0
INSERT
  5
582
330
17
100
AcDbEntity
  8
M-DIAG-EQPM
100
AcDbBlockReference
  2
NoveC_ValveIsolation
 10
362.5
 20
525.5
 30
0.0
  0
INSERT
  5
584
330
17
100
AcDbEntity
  8
M-DIAG-EQPM
100
AcDbBlockReference
  2
NoveC_ValveIsolation
 10
577.5
 20
468.0
 30
0.0
 50
270.0
  0
INSERT
  5
586
330
17
100
AcDbEntity
  8
M-DIAG-EQPM
100
AcDbBlockReference
  2
NoveC_ValveIsolation
 10
597.5
 20
468.0
 30
0.0
 50
270.0
  0
INSERT
  5
588
330
17
100
AcDbEntity
  8
M-DIAG-EQPM
100
AcDbBlockReference
  2
NoveC_ValveIsolation
 10
557.5
 20
483.0
 30
0.0
  0
INSERT
  5
58A
330
17
100
AcDbEntity
  8
M-DIAG-EQPM
100
AcDbBlockReference
  2
NoveC_ValveIsolation
 10
577.5
 20
408.0
 30
0.0
 50
270.0
  0
INSERT
  5
58C
330
17
100
AcDbEntity
  8
M-DIAG-EQPM
100
AcDbBlockReference
  2
NoveC_ValveIsolation
 10
597.5
 20
408.0
 30
0.0
 50
270.0
  0
INSERT
  5
58E
330
17
100
AcDbEntity
  8
M-DIAG-EQPM
100
AcDbBlockReference
  2
NoveC_ValveIsolation
 10
557.5
 20
423.0
 30
0.0
  0
INSERT
  5
590
330
17
100
AcDbEntity
  8
M-DIAG-EQPM
100
AcDbBlockReference
  2
NoveC_ValveIsolation
 10
577.5
 20
348.0
 30
0.0
 50
270.0
  0
INSERT
  5
592
330
17
100
AcDbEntity
  8
M-DIAG-EQPM
100
AcDbBlockReference
  2
NoveC_ValveIsolation
 10
597.5
 20
348.0
 30
0.0
 50
270.0
  0
INSERT
  5
594
330
17
100
AcDbEntity
  8
M-DIAG-EQPM
100
AcDbBlockReference
  2
NoveC_ValveIsolation
 10
557.5
 20
363.0
 30
0.0
  0
INSERT
  5
596
330
17
100
AcDbEntity
  8
M-DIAG-EQPM
100
AcDbBlockReference
  2
NoveC_ValveIsolation
 10
677.5
 20
468.0
 30
0.0
 50
270.0
  0
INSERT
  5
598
330
17
100
AcDbEntity
  8
M-DIAG-EQPM
100
AcDbBlockReference
  2
NoveC_ValveIsolation
 10
697.5
 20
468.0
 30
0.0
 50
270.0
  0
INSERT
  5
59A
330
17
100
AcDbEntity
  8
M-DIAG-EQPM
100
AcDbBlockReference
  2
NoveC_ValveIsolation
 10
657.5
 20
483.0
 30
0.0
  0
INSERT
  5
59C
330
17
100
AcDbEntity
  8
M-DIAG-EQPM
100
AcDbBlockReference
  2
NoveC_ValveIsolation
 10
677.5
 20
408.0
 30
0.0
 50
270.0
  0
INSERT
  5
59E
330
17
100
AcDbEntity
  8
M-DIAG-EQPM
100
AcDbBlockReference
  2
NoveC_ValveIsolation
 10
697.5
 20
408.0
 30
0.0
 50
270.0
  0
INSERT
  5
5A0
330
17
100
AcDbEntity
  8
M-DIAG-EQPM
100
AcDbBlockReference
  2
NoveC_ValveIsolation
 10
657.5
 20
423.0
 30
0.0
  0
INSERT
  5
5A2
330
17
100
AcDbEntity
  8
M-DIAG-EQPM
100
AcDbBlockReference
  2
NoveC_ValveIsolation
 10
677.5
 20
348.0
 30
0.0
 50
270.0
  0
INSERT
  5
5A4
330
17
100
AcDbEntity
  8
M-DIAG-EQPM
100
AcDbBlockReference
  2
NoveC_ValveIsolation
 10
697.5
 20
348.0
 30
0.0
 50
270.0
  0
INSERT
  5
5A6
330
17
100
AcDbEntity
  8
M-DIAG-EQPM
100
AcDbBlockReference
  2
NoveC_ValveIsolation
 10
657.5
 20
363.0
 30
0.0
  0
INSERT
  5
5A8
330
17
100
AcDbEntity
  8
M-DIAG-EQPM
100
AcDbBlockReference
  2
NoveC_ValveIsolation
 10
677.5
 20
288.0
 30
0.0
 50
270.0
  0
INSERT
  5
5AA
330
17
100
AcDbEntity
  8
M-DIAG-EQPM
100
AcDbBlockReference
  2
NoveC_ValveIsolation
 10
697.5
 20
288.0
 30
0.0
 50
270.0
  0
INSERT
  5
5AC
330
17
100
AcDbEntity
  8
M-DIAG-EQPM
100
AcDbBlockReference
  2
NoveC_ValveIsolation
 10
657.5
 20
303.0
 30
0.0
  0
INSERT
  5
5AE
330
17
100
AcDbEntity
  8
M-DIAG-EQPM
100
AcDbBlockReference
  2
NoveC_ValveIsolation
 10
677.5
 20
228.0
 30
0.0
 50
270.0
  0
INSERT
  5
5B0
330
17
100
AcDbEntity
  8
M-DIAG-EQPM
100
AcDbBlockReference
  2
NoveC_ValveIsolation
 10
697.5
 20
228.0
 30
0.0
 50
270.0
  0
INSERT
  5
5B2
330
17
100
AcDbEntity
  8
M-DIAG-EQPM
100
AcDbBlockReference
  2
NoveC_ValveIsolation
 10
657.5
 20
243.0
 30
0.0
  0
INSERT
  5
5B4
330
17
100
AcDbEntity
  8
M-DIAG-EQPM
100
AcDbBlockReference
  2
NoveC_ValveIsolation
 10
510.0
 20
110.5
 30
0.0
  0
INSERT
  5
5BF
330
17
100
AcDbEntity
  8
M-DIAG-EQPM
100
AcDbBlockReference
  2
NoveC_PressureReducer
 10
517.5
 20
113.0
 30
0.0
  0
INSERT
  5
5CE
330
17
100
AcDbEntity
  8
M-DIAG-EQPM
100
AcDbBlockReference
  2
NoveC_DhwSafetyGroup
 10
550.0
 20
110.5
 30
0.0
  0
TEXT
  5
5D0
330
17
100
AcDbEntity
  8
M-ANNO-IDEN
100
AcDbText
 10
434.0
 20
113.91250000000002
 30
0.0
 40
2.1844
  1
al solare termico
  7
NOVEC_ARIAL
 11
434.0
 21
113.91250000000002
 31
0.0
100
AcDbText
  0
TEXT
  5
5D1
330
17
100
AcDbEntity
  8
M-ANNO-IDEN
100
AcDbText
 10
580.0
 20
70.82500000000005
 30
0.0
 40
2.1844
  1
VE-03
  7
NOVEC_ARIAL
 11
580.0
 21
70.82500000000005
 31
0.0
100
AcDbText
  0
TEXT
  5
5D2
330
17
100
AcDbEntity
  8
M-ANNO-IDEN
100
AcDbText
 10
197.5
 20
84.5
 30
0.0
 40
2.1844
  1
GT-02
  7
NOVEC_ARIAL
 11
197.5
 21
84.5
 31
0.0
100
AcDbText
  0
TEXT
  5
5D3
330
17
100
AcDbEntity
  8
M-ANNO-IDEN
100
AcDbText
 10
197.5
 20
144.5
 30
0.0
 40
2.1844
  1
GT-01
  7
NOVEC_ARIAL
 11
197.5
 21
144.5
 31
0.0
100
AcDbText
  0
TEXT
  5
5D4
330
17
100
AcDbEntity
  8
M-ANNO-IDEN
100
AcDbText
 10
197.5
 20
544.5
 30
0.0
 40
2.1844
  1
GT-03
  7
NOVEC_ARIAL
 11
197.5
 21
544.5
 31
0.0
100
AcDbText
  0
TEXT
  5
5D5
330
17
100
AcDbEntity
  8
M-ANNO-IDEN
100
AcDbText
 10
610.0
 20
95.82499999999999
 30
0.0
 40
2.1844
  1
BOL-01
  7
NOVEC_ARIAL
 11
610.0
 21
95.82499999999999
 31
0.0
100
AcDbText
  0
TEXT
  5
5D6
330
17
100
AcDbEntity
  8
M-ANNO-IDEN
100
AcDbText
 10
197.5
 20
484.5
 30
0.0
 40
2.1844
  1
GT-05
  7
NOVEC_ARIAL
 11
197.5
 21
484.5
 31
0.0
100
AcDbText
  0
TEXT
  5
5D7
330
17
100
AcDbEntity
  8
M-ANNO-IDEN
100
AcDbText
 10
197.5
 20
364.5
 30
0.0
 40
2.1844
  1
GT-04
  7
NOVEC_ARIAL
 11
197.5
 21
364.5
 31
0.0
100
AcDbText
  0
TEXT
  5
5D8
330
17
100
AcDbEntity
  8
M-ANNO-IDEN
100
AcDbText
 10
197.5
 20
424.5
 30
0.0
 40
2.1844
  1
GT-06
  7
NOVEC_ARIAL
 11
197.5
 21
424.5
 31
0.0
100
AcDbText
  0
TEXT
  5
5D9
330
17
100
AcDbEntity
  8
M-ANNO-IDEN
100
AcDbText
 10
380.05895
 20
115.23750000000001
 30
0.0
 40
2.1844
  1
VOL-01
  7
NOVEC_ARIAL
 11
380.05895
 21
115.23750000000001
 31
0.0
100
AcDbText
  0
TEXT
  5
5DA
330
17
100
AcDbEntity
  8
M-ANNO-IDEN
100
AcDbText
 10
419.0
 20
515.2375
 30
0.0
 40
2.1844
  1
VOL-02
  7
NOVEC_ARIAL
 11
419.0
 21
515.2375
 31
0.0
100
AcDbText
  0
TEXT
  5
5DB
330
17
100
AcDbEntity
  8
M-ANNO-IDEN
100
AcDbText
 10
470.0
 20
88.32499999999999
 30
0.0
 40
2.1844
  1
VE-01
  7
NOVEC_ARIAL
 11
470.0
 21
88.32499999999999
 31
0.0
100
AcDbText
  0
TEXT
  5
5DC
330
17
100
AcDbEntity
  8
M-ANNO-IDEN
100
AcDbText
 10
445.0
 20
488.325
 30
0.0
 40
2.1844
  1
VE-02
  7
NOVEC_ARIAL
 11
445.0
 21
488.325
 31
0.0
100
AcDbText
  0
TEXT
  5
5DD
330
17
100
AcDbEntity
  8
M-ANNO-IDEN
100
AcDbText
 10
487.5
 20
497.0
 30
0.0
 40
2.1844
  1
CIR-03
  7
NOVEC_ARIAL
 11
487.5
 21
497.0
 31
0.0
100
AcDbText
  0
TEXT
  5
5DE
330
17
100
AcDbEntity
  8
M-ANNO-IDEN
100
AcDbText
 10
490.0
 20
544.5
 30
0.0
 40
2.1844
  1
CIR-02
  7
NOVEC_ARIAL
 11
490.0
 21
544.5
 31
0.0
100
AcDbText
  0
TEXT
  5
5DF
330
17
100
AcDbEntity
  8
M-ANNO-IDEN
100
AcDbText
 10
430.0
 20
144.5
 30
0.0
 40
2.1844
  1
CIR-01
  7
NOVEC_ARIAL
 11
430.0
 21
144.5
 31
0.0
100
AcDbText
  0
TEXT
  5
5E0
330
17
100
AcDbEntity
  8
M-ANNO-IDEN
100
AcDbText
 10
657.5
 20
139.5
 30
0.0
 40
2.1844
  1
CIR-04
  7
NOVEC_ARIAL
 11
657.5
 21
139.5
 31
0.0
100
AcDbText
  0
LWPOLYLINE
  5
5E1
330
17
100
AcDbEntity
  8
M-ANNO-LEGN
100
AcDbPolyline
 90
4
 70
1
 10
781.0
 20
578.0
 10
831.0
 20
578.0
 10
831.0
 20
46.0
 10
781.0
 20
46.0
  0
INSERT
  5
5E2
330
17
100
AcDbEntity
  8
M-ANNO-LEGN
370
18
100
AcDbBlockReference
  2
NoveC_AirVent
 10
785.0
 20
577.0
 30
0.0
  0
TEXT
  5
5E4
330
17
100
AcDbEntity
  8
M-ANNO-LEGN
100
AcDbText
 10
793.5
 20
572.9125
 30
0.0
 40
2.1844
  1
Valvola di sfiato aria
  7
NOVEC_ARIAL
 11
793.5
 21
572.9125
 31
0.0
100
AcDbText
  0
INSERT
  5
5E5
330
17
100
AcDbEntity
  8
M-ANNO-LEGN
370
18
100
AcDbBlockReference
  2
NoveC_BufferFourPort
 10
785.2777777777778
 20
571.0
 30
0.0
 41
0.17777777777777778
 42
0.17777777777777778
  0
TEXT
  5
5E7
330
17
100
AcDbEntity
  8
M-ANNO-LEGN
100
AcDbText
 10
793.5
 20
567.2381
 30
0.0
 40
2.1844
  1
Volano termico a
  7
NOVEC_ARIAL
 11
793.5
 21
567.2381
 31
0.0
100
AcDbText
  0
TEXT
  5
5E8
330
17
100
AcDbEntity
  8
M-ANNO-LEGN
100
AcDbText
 10
793.5
 20
563.5869
 30
0.0
 40
2.1844
  1
quattro attacchi
  7
NOVEC_ARIAL
 11
793.5
 21
563.5869
 31
0.0
100
AcDbText
  0
INSERT
  5
5E9
330
17
100
AcDbEntity
  8
M-ANNO-LEGN
370
18
100
AcDbBlockReference
  2
NoveC_BufferSixPort
 10
785.2777777777778
 20
563.5
 30
0.0
 41
0.17777777777777778
 42
0.17777777777777778
  0
TEXT
  5
5EB
330
17
100
AcDbEntity
  8
M-ANNO-LEGN
100
AcDbText
 10
793.5
 20
559.7381
 30
0.0
 40
2.1844
  1
Volano termico
  7
NOVEC_ARIAL
 11
793.5
 21
559.7381
 31
0.0
100
AcDbText
  0
TEXT
  5
5EC
330
17
100
AcDbEntity
  8
M-ANNO-LEGN
100
AcDbText
 10
793.5
 20
556.0869
 30
0.0
 40
2.1844
  1
a sei attacchi
  7
NOVEC_ARIAL
 11
793.5
 21
556.0869
 31
0.0
100
AcDbText
  0
INSERT
  5
5ED
330
17
100
AcDbEntity
  8
M-ANNO-LEGN
370
18
100
AcDbBlockReference
  2
NoveC_CappedConnection
 10
785.0
 20
554.5
 30
0.0
  0
TEXT
  5
5EF
330
17
100
AcDbEntity
  8
M-ANNO-LEGN
100
AcDbText
 10
793.5
 20
550.4125
 30
0.0
 40
2.1844
  1
Attacco predisposto
  7
NOVEC_ARIAL
 11
793.5
 21
550.4125
 31
0.0
100
AcDbText
  0
INSERT
  5
5F0
330
17
100
AcDbEntity
  8
M-ANNO-LEGN
370
18
100
AcDbBlockReference
  2
NoveC_DhwCylinder
 10
785.2777777777778
 20
548.5
 30
0.0
 41
0.17777777777777778
 42
0.17777777777777778
  0
TEXT
  5
5F2
330
17
100
AcDbEntity
  8
M-ANNO-LEGN
100
AcDbText
 10
793.5
 20
542.9125
 30
0.0
 40
2.1844
  1
Bollitore ACS
  7
NOVEC_ARIAL
 11
793.5
 21
542.9125
 31
0.0
100
AcDbText
  0
INSERT
  5
5F3
330
17
100
AcDbEntity
  8
M-ANNO-LEGN
370
18
100
AcDbBlockReference
  2
NoveC_DhwSafetyGroup
 10
783.5
 20
539.0
 30
0.0
 41
0.8
 42
0.8
  0
TEXT
  5
5F5
330
17
100
AcDbEntity
  8
M-ANNO-LEGN
100
AcDbText
 10
793.5
 20
537.2381
 30
0.0
 40
2.1844
  1
Gruppo di
  7
NOVEC_ARIAL
 11
793.5
 21
537.2381
 31
0.0
100
AcDbText
  0
TEXT
  5
5F6
330
17
100
AcDbEntity
  8
M-ANNO-LEGN
100
AcDbText
 10
793.5
 20
533.5869
 30
0.0
 40
2.1844
  1
sicurezza sanitario
  7
NOVEC_ARIAL
 11
793.5
 21
533.5869
 31
0.0
100
AcDbText
  0
INSERT
  5
5F7
330
17
100
AcDbEntity
  8
M-ANNO-LEGN
370
18
100
AcDbBlockReference
  2
NoveC_DrainConnection
 10
785.5
 20
533.5
 30
0.0
 41
0.8
 42
0.8
  0
TEXT
  5
5F9
330
17
100
AcDbEntity
  8
M-ANNO-LEGN
100
AcDbText
 10
793.5
 20
527.9125
 30
0.0
 40
2.1844
  1
Attacco di scarico
  7
NOVEC_ARIAL
 11
793.5
 21
527.9125
 31
0.0
100
AcDbText
  0
INSERT
  5
5FA
330
17
100
AcDbEntity
  8
M-ANNO-LEGN
370
18
100
AcDbBlockReference
  2
NoveC_ExpansionConnection
 10
785.5
 20
526.0
 30
0.0
 41
0.8
 42
0.8
  0
TEXT
  5
5FC
330
17
100
AcDbEntity
  8
M-ANNO-LEGN
100
AcDbText
 10
793.5
 20
520.4125
 30
0.0
 40
2.1844
  1
Vaso di espansione
  7
NOVEC_ARIAL
 11
793.5
 21
520.4125
 31
0.0
100
AcDbText
  0
INSERT
  5
5FD
330
17
100
AcDbEntity
  8
M-ANNO-LEGN
370
18
100
AcDbBlockReference
  2
NoveC_FanCoil
 10
783.5
 20
517.5
 30
0.0
 41
0.4
 42
0.4
  0
TEXT
  5
5FF
330
17
100
AcDbEntity
  8
M-ANNO-LEGN
100
AcDbText
 10
793.5
 20
512.9125
 30
0.0
 40
2.1844
  1
Ventilconvettore
  7
NOVEC_ARIAL
 11
793.5
 21
512.9125
 31
0.0
100
AcDbText
  0
INSERT
  5
600
330
17
100
AcDbEntity
  8
M-ANNO-LEGN
370
18
100
AcDbBlockReference
  2
NoveC_FillingUnit
 10
785.5
 20
511.0
 30
0.0
 41
0.8
 42
0.8
  0
TEXT
  5
602
330
17
100
AcDbEntity
  8
M-ANNO-LEGN
100
AcDbText
 10
793.5
 20
505.4125
 30
0.0
 40
2.1844
  1
Gruppo di riempimento
  7
NOVEC_ARIAL
 11
793.5
 21
505.4125
 31
0.0
100
AcDbText
  0
INSERT
  5
603
330
17
100
AcDbEntity
  8
M-ANNO-LEGN
370
18
100
AcDbBlockReference
  2
NoveC_FlexibleJoint
 10
785.0
 20
502.0
 30
0.0
  0
TEXT
  5
605
330
17
100
AcDbEntity
  8
M-ANNO-LEGN
100
AcDbText
 10
793.5
 20
497.9125
 30
0.0
 40
2.1844
  1
Giunto antivibrante
  7
NOVEC_ARIAL
 11
793.5
 21
497.9125
 31
0.0
100
AcDbText
  0
INSERT
  5
606
330
17
100
AcDbEntity
  8
M-ANNO-LEGN
370
18
100
AcDbBlockReference
  2
NoveC_HeatMeter
 10
783.5
 20
494.0
 30
0.0
 41
0.8
 42
0.8
  0
INSERT
  5
608
330
17
100
AcDbEntity
  8
M-ANNO-LEGN
370
18
100
AcDbBlockReference
  2
NoveC_HeatMeter_Sigla
 10
787.5
 20
492.0
 30
0.0
 41
0.8
 42
0.8
  0
TEXT
  5
60A
330
17
100
AcDbEntity
  8
M-ANNO-LEGN
100
AcDbText
 10
793.5
 20
490.4125
 30
0.0
 40
2.1844
  1
Contatore di calore
  7
NOVEC_ARIAL
 11
793.5
 21
490.4125
 31
0.0
100
AcDbText
  0
INSERT
  5
60B
330
17
100
AcDbEntity
  8
M-ANNO-LEGN
370
18
100
AcDbBlockReference
  2
NoveC_HeatPumpAirWater
 10
783.5
 20
487.5
 30
0.0
 41
0.2
 42
0.2
  0
TEXT
  5
60D
330
17
100
AcDbEntity
  8
M-ANNO-LEGN
100
AcDbText
 10
793.5
 20
484.73810000000003
 30
0.0
 40
2.1844
  1
Pompa di calore
  7
NOVEC_ARIAL
 11
793.5
 21
484.73810000000003
 31
0.0
100
AcDbText
  0
TEXT
  5
60E
330
17
100
AcDbEntity
  8
M-ANNO-LEGN
100
AcDbText
 10
793.5
 20
481.0869
 30
0.0
 40
2.1844
  1
aria-acqua
  7
NOVEC_ARIAL
 11
793.5
 21
481.0869
 31
0.0
100
AcDbText
  0
INSERT
  5
60F
330
17
100
AcDbEntity
  8
M-ANNO-LEGN
370
18
100
AcDbBlockReference
  2
NoveC_MixingValveThermostatic
 10
785.5
 20
481.0
 30
0.0
 41
0.8
 42
0.8
  0
TEXT
  5
611
330
17
100
AcDbEntity
  8
M-ANNO-LEGN
100
AcDbText
 10
793.5
 20
477.23810000000003
 30
0.0
 40
2.1844
  1
Valvola miscelatrice
  7
NOVEC_ARIAL
 11
793.5
 21
477.23810000000003
 31
0.0
100
AcDbText
  0
TEXT
  5
612
330
17
100
AcDbEntity
  8
M-ANNO-LEGN
100
AcDbText
 10
793.5
 20
473.5869
 30
0.0
 40
2.1844
  1
termostatica
  7
NOVEC_ARIAL
 11
793.5
 21
473.5869
 31
0.0
100
AcDbText
  0
INSERT
  5
613
330
17
100
AcDbEntity
  8
M-ANNO-LEGN
370
18
100
AcDbBlockReference
  2
NoveC_NetworkBoundary
 10
785.0
 20
472.0
 30
0.0
  0
INSERT
  5
615
330
17
100
AcDbEntity
  8
M-DIAG-EQPM
100
AcDbBlockReference
  2
NoveC_FlowArrow
 10
790.0
 20
469.5
 30
0.0
 41
1.375
  0
TEXT
  5
617
330
17
100
AcDbEntity
  8
M-ANNO-LEGN
100
AcDbText
 10
793.5
 20
467.9125
 30
0.0
 40
2.1844
  1
Confine di rete
  7
NOVEC_ARIAL
 11
793.5
 21
467.9125
 31
0.0
100
AcDbText
  0
INSERT
  5
618
330
17
100
AcDbEntity
  8
M-ANNO-LEGN
370
18
100
AcDbBlockReference
  2
NoveC_PressureGauge
 10
785.5
 20
466.0
 30
0.0
 41
0.8
 42
0.8
  0
INSERT
  5
61A
330
17
100
AcDbEntity
  8
M-ANNO-LEGN
370
18
100
AcDbBlockReference
  2
NoveC_PressureGauge_Lettera
 10
787.5
 20
463.6
 30
0.0
 41
0.8
 42
0.8
  0
TEXT
  5
61C
330
17
100
AcDbEntity
  8
M-ANNO-LEGN
100
AcDbText
 10
793.5
 20
460.4125
 30
0.0
 40
2.1844
  1
Manometro
  7
NOVEC_ARIAL
 11
793.5
 21
460.4125
 31
0.0
100
AcDbText
  0
INSERT
  5
61D
330
17
100
AcDbEntity
  8
M-ANNO-LEGN
370
18
100
AcDbBlockReference
  2
NoveC_PressureReducer
 10
785.5
 20
458.5
 30
0.0
 41
0.8
 42
0.8
  0
TEXT
  5
61F
330
17
100
AcDbEntity
  8
M-ANNO-LEGN
100
AcDbText
 10
793.5
 20
452.9125
 30
0.0
 40
2.1844
  1
Riduttore di pressione
  7
NOVEC_ARIAL
 11
793.5
 21
452.9125
 31
0.0
100
AcDbText
  0
INSERT
  5
620
330
17
100
AcDbEntity
  8
M-ANNO-LEGN
370
18
100
AcDbBlockReference
  2
NoveC_PumpCirculator
 10
783.5
 20
451.0
 30
0.0
 41
0.8
 42
0.8
  0
TEXT
  5
622
330
17
100
AcDbEntity
  8
M-ANNO-LEGN
100
AcDbText
 10
793.5
 20
445.4125
 30
0.0
 40
2.1844
  1
Pompa di circolazione
  7
NOVEC_ARIAL
 11
793.5
 21
445.4125
 31
0.0
100
AcDbText
  0
INSERT
  5
623
330
17
100
AcDbEntity
  8
M-ANNO-LEGN
370
50
100
AcDbBlockReference
  2
NoveC_Strainer
 10
785.0
 20
442.0
 30
0.0
  0
TEXT
  5
625
330
17
100
AcDbEntity
  8
M-ANNO-LEGN
100
AcDbText
 10
793.5
 20
437.9125
 30
0.0
 40
2.1844
  1
Filtro a Y
  7
NOVEC_ARIAL
 11
793.5
 21
437.9125
 31
0.0
100
AcDbText
  0
INSERT
  5
626
330
17
100
AcDbEntity
  8
M-ANNO-LEGN
370
18
100
AcDbBlockReference
  2
NoveC_TeeBranch
 10
785.0
 20
434.5
 30
0.0
  0
TEXT
  5
628
330
17
100
AcDbEntity
  8
M-ANNO-LEGN
100
AcDbText
 10
793.5
 20
430.4125
 30
0.0
 40
2.1844
  1
Derivazione a T
  7
NOVEC_ARIAL
 11
793.5
 21
430.4125
 31
0.0
100
AcDbText
  0
INSERT
  5
629
330
17
100
AcDbEntity
  8
M-ANNO-LEGN
370
18
100
AcDbBlockReference
  2
NoveC_TeeJunction
 10
785.0
 20
427.0
 30
0.0
  0
TEXT
  5
62B
330
17
100
AcDbEntity
  8
M-ANNO-LEGN
100
AcDbText
 10
793.5
 20
422.9125
 30
0.0
 40
2.1844
  1
Raccordo a T
  7
NOVEC_ARIAL
 11
793.5
 21
422.9125
 31
0.0
100
AcDbText
  0
INSERT
  5
62C
330
17
100
AcDbEntity
  8
M-ANNO-LEGN
370
18
100
AcDbBlockReference
  2
NoveC_UnderfloorPanel
 10
783.5
 20
420.0
 30
0.0
 41
0.4
 42
0.4
  0
TEXT
  5
62E
330
17
100
AcDbEntity
  8
M-ANNO-LEGN
100
AcDbText
 10
793.5
 20
415.4125
 30
0.0
 40
2.1844
  1
Pannello radiante
  7
NOVEC_ARIAL
 11
793.5
 21
415.4125
 31
0.0
100
AcDbText
  0
INSERT
  5
62F
330
17
100
AcDbEntity
  8
M-ANNO-LEGN
370
18
100
AcDbBlockReference
  2
NoveC_ValveCheck
 10
785.0
 20
412.0
 30
0.0
  0
TEXT
  5
631
330
17
100
AcDbEntity
  8
M-ANNO-LEGN
100
AcDbText
 10
793.5
 20
407.9125
 30
0.0
 40
2.1844
  1
Valvola di ritegno
  7
NOVEC_ARIAL
 11
793.5
 21
407.9125
 31
0.0
100
AcDbText
  0
INSERT
  5
632
330
17
100
AcDbEntity
  8
M-ANNO-LEGN
370
18
100
AcDbBlockReference
  2
NoveC_ValveGaugeCock3way
 10
785.0
 20
404.5
 30
0.0
  0
TEXT
  5
634
330
17
100
AcDbEntity
  8
M-ANNO-LEGN
100
AcDbText
 10
793.5
 20
402.23810000000003
 30
0.0
 40
2.1844
  1
Rubinetto
  7
NOVEC_ARIAL
 11
793.5
 21
402.23810000000003
 31
0.0
100
AcDbText
  0
TEXT
  5
635
330
17
100
AcDbEntity
  8
M-ANNO-LEGN
100
AcDbText
 10
793.5
 20
398.5869
 30
0.0
 40
2.1844
  1
portamanometro a tre vie
  7
NOVEC_ARIAL
 11
793.5
 21
398.5869
 31
0.0
100
AcDbText
  0
INSERT
  5
636
330
17
100
AcDbEntity
  8
M-ANNO-LEGN
370
18
100
AcDbBlockReference
  2
NoveC_ValveIsolation
 10
785.0
 20
397.0
 30
0.0
  0
TEXT
  5
638
330
17
100
AcDbEntity
  8
M-ANNO-LEGN
100
AcDbText
 10
793.5
 20
392.9125
 30
0.0
 40
2.1844
  1
Valvola di intercettazione
  7
NOVEC_ARIAL
 11
793.5
 21
392.9125
 31
0.0
100
AcDbText
  0
INSERT
  5
639
330
17
100
AcDbEntity
  8
M-ANNO-LEGN
370
18
100
AcDbBlockReference
  2
NoveC_ValveSafety
 10
785.5
 20
391.0
 30
0.0
 41
0.8
 42
0.8
  0
TEXT
  5
63B
330
17
100
AcDbEntity
  8
M-ANNO-LEGN
100
AcDbText
 10
793.5
 20
385.4125
 30
0.0
 40
2.1844
  1
Valvola di sicurezza
  7
NOVEC_ARIAL
 11
793.5
 21
385.4125
 31
0.0
100
AcDbText
  0
INSERT
  5
63C
330
17
100
AcDbEntity
  8
M-ANNO-LEGN
370
18
100
AcDbBlockReference
  2
NoveC_ZoneManifoldPair
 10
783.5
 20
381.0
 30
0.0
 41
0.2
 42
0.2
  0
TEXT
  5
63E
330
17
100
AcDbEntity
  8
M-ANNO-LEGN
100
AcDbText
 10
793.5
 20
379.73810000000003
 30
0.0
 40
2.1844
  1
Collettore di
  7
NOVEC_ARIAL
 11
793.5
 21
379.73810000000003
 31
0.0
100
AcDbText
  0
TEXT
  5
63F
330
17
100
AcDbEntity
  8
M-ANNO-LEGN
100
AcDbText
 10
793.5
 20
376.0869
 30
0.0
 40
2.1844
  1
zona con ritorno
  7
NOVEC_ARIAL
 11
793.5
 21
376.0869
 31
0.0
100
AcDbText
  0
LINE
  5
640
330
17
100
AcDbEntity
  8
M-ANNO-LEGN
  6
NOVEC_TRATTO_3_2
 62
161
370
35
420
6139362
100
AcDbLine
 10
783.5
 20
364.0
 30
0.0
 11
791.5
 21
364.0
 31
0.0
  0
TEXT
  5
641
330
17
100
AcDbEntity
  8
M-ANNO-LEGN
100
AcDbText
 10
793.5
 20
364.8256
 30
0.0
 40
2.1844
  1
Acqua fredda
  7
NOVEC_ARIAL
 11
793.5
 21
364.8256
 31
0.0
100
AcDbText
  0
TEXT
  5
642
330
17
100
AcDbEntity
  8
M-ANNO-LEGN
100
AcDbText
 10
793.5
 20
361.1744
 30
0.0
 40
2.1844
  1
sanitaria — andata
  7
NOVEC_ARIAL
 11
793.5
 21
361.1744
 31
0.0
100
AcDbText
  0
LINE
  5
643
330
17
100
AcDbEntity
  8
M-ANNO-LEGN
  6
Continuous
 62
30
370
35
420
14059792
100
AcDbLine
 10
783.5
 20
356.5
 30
0.0
 11
791.5
 21
356.5
 31
0.0
  0
TEXT
  5
644
330
17
100
AcDbEntity
  8
M-ANNO-LEGN
100
AcDbText
 10
793.5
 20
357.3256
 30
0.0
 40
2.1844
  1
Acqua calda
  7
NOVEC_ARIAL
 11
793.5
 21
357.3256
 31
0.0
100
AcDbText
  0
TEXT
  5
645
330
17
100
AcDbEntity
  8
M-ANNO-LEGN
100
AcDbText
 10
793.5
 20
353.6744
 30
0.0
 40
2.1844
  1
sanitaria — andata
  7
NOVEC_ARIAL
 11
793.5
 21
353.6744
 31
0.0
100
AcDbText
  0
LINE
  5
646
330
17
100
AcDbEntity
  8
M-ANNO-LEGN
  6
Continuous
 62
123
370
35
420
5822093
100
AcDbLine
 10
783.5
 20
349.0
 30
0.0
 11
791.5
 21
349.0
 31
0.0
  0
TEXT
  5
647
330
17
100
AcDbEntity
  8
M-ANNO-LEGN
100
AcDbText
 10
793.5
 20
349.8256
 30
0.0
 40
2.1844
  1
Acqua calda
  7
NOVEC_ARIAL
 11
793.5
 21
349.8256
 31
0.0
100
AcDbText
  0
TEXT
  5
648
330
17
100
AcDbEntity
  8
M-ANNO-LEGN
100
AcDbText
 10
793.5
 20
346.1744
 30
0.0
 40
2.1844
  1
sanitaria — ricircolo
  7
NOVEC_ARIAL
 11
793.5
 21
346.1744
 31
0.0
100
AcDbText
  0
LINE
  5
649
330
17
100
AcDbEntity
  8
M-ANNO-LEGN
  6
Continuous
 62
22
370
35
420
12597547
100
AcDbLine
 10
783.5
 20
341.5
 30
0.0
 11
791.5
 21
341.5
 31
0.0
  0
TEXT
  5
64A
330
17
100
AcDbEntity
  8
M-ANNO-LEGN
100
AcDbText
 10
793.5
 20
342.3256
 30
0.0
 40
2.1844
  1
Acqua di
  7
NOVEC_ARIAL
 11
793.5
 21
342.3256
 31
0.0
100
AcDbText
  0
TEXT
  5
64B
330
17
100
AcDbEntity
  8
M-ANNO-LEGN
100
AcDbText
 10
793.5
 20
338.6744
 30
0.0
 40
2.1844
  1
riscaldamento — andata
  7
NOVEC_ARIAL
 11
793.5
 21
338.6744
 31
0.0
100
AcDbText
  0
LINE
  5
64C
330
17
100
AcDbEntity
  8
M-ANNO-LEGN
  6
Continuous
 62
142
370
35
420
2388387
100
AcDbLine
 10
783.5
 20
334.0
 30
0.0
 11
791.5
 21
334.0
 31
0.0
  0
TEXT
  5
64D
330
17
100
AcDbEntity
  8
M-ANNO-LEGN
100
AcDbText
 10
793.5
 20
334.8256
 30
0.0
 40
2.1844
  1
Acqua di
  7
NOVEC_ARIAL
 11
793.5
 21
334.8256
 31
0.0
100
AcDbText
  0
TEXT
  5
64E
330
17
100
AcDbEntity
  8
M-ANNO-LEGN
100
AcDbText
 10
793.5
 20
331.1744
 30
0.0
 40
2.1844
  1
riscaldamento — ritorno
  7
NOVEC_ARIAL
 11
793.5
 21
331.1744
 31
0.0
100
AcDbText
  0
LINE
  5
64F
330
17
100
AcDbEntity
  8
M-ANNO-SCHD
100
AcDbLine
 10
10.0
 20
578.0
 30
0.0
 11
177.5
 21
578.0
 31
0.0
  0
LINE
  5
650
330
17
100
AcDbEntity
  8
M-ANNO-SCHD
100
AcDbLine
 10
10.0
 20
571.75
 30
0.0
 11
177.5
 21
571.75
 31
0.0
  0
LINE
  5
651
330
17
100
AcDbEntity
  8
M-ANNO-SCHD
100
AcDbLine
 10
10.0
 20
565.5
 30
0.0
 11
177.5
 21
565.5
 31
0.0
  0
LINE
  5
652
330
17
100
AcDbEntity
  8
M-ANNO-SCHD
100
AcDbLine
 10
10.0
 20
559.25
 30
0.0
 11
177.5
 21
559.25
 31
0.0
  0
LINE
  5
653
330
17
100
AcDbEntity
  8
M-ANNO-SCHD
100
AcDbLine
 10
10.0
 20
553.0
 30
0.0
 11
177.5
 21
553.0
 31
0.0
  0
LINE
  5
654
330
17
100
AcDbEntity
  8
M-ANNO-SCHD
100
AcDbLine
 10
10.0
 20
546.75
 30
0.0
 11
177.5
 21
546.75
 31
0.0
  0
LINE
  5
655
330
17
100
AcDbEntity
  8
M-ANNO-SCHD
100
AcDbLine
 10
10.0
 20
540.5
 30
0.0
 11
177.5
 21
540.5
 31
0.0
  0
LINE
  5
656
330
17
100
AcDbEntity
  8
M-ANNO-SCHD
100
AcDbLine
 10
10.0
 20
534.25
 30
0.0
 11
177.5
 21
534.25
 31
0.0
  0
LINE
  5
657
330
17
100
AcDbEntity
  8
M-ANNO-SCHD
100
AcDbLine
 10
10.0
 20
528.0
 30
0.0
 11
177.5
 21
528.0
 31
0.0
  0
LINE
  5
658
330
17
100
AcDbEntity
  8
M-ANNO-SCHD
100
AcDbLine
 10
10.0
 20
521.75
 30
0.0
 11
177.5
 21
521.75
 31
0.0
  0
LINE
  5
659
330
17
100
AcDbEntity
  8
M-ANNO-SCHD
100
AcDbLine
 10
10.0
 20
515.5
 30
0.0
 11
177.5
 21
515.5
 31
0.0
  0
LINE
  5
65A
330
17
100
AcDbEntity
  8
M-ANNO-SCHD
100
AcDbLine
 10
10.0
 20
509.25
 30
0.0
 11
177.5
 21
509.25
 31
0.0
  0
LINE
  5
65B
330
17
100
AcDbEntity
  8
M-ANNO-SCHD
100
AcDbLine
 10
10.0
 20
503.0
 30
0.0
 11
177.5
 21
503.0
 31
0.0
  0
LINE
  5
65C
330
17
100
AcDbEntity
  8
M-ANNO-SCHD
100
AcDbLine
 10
10.0
 20
496.75
 30
0.0
 11
177.5
 21
496.75
 31
0.0
  0
LINE
  5
65D
330
17
100
AcDbEntity
  8
M-ANNO-SCHD
100
AcDbLine
 10
10.0
 20
490.5
 30
0.0
 11
177.5
 21
490.5
 31
0.0
  0
LINE
  5
65E
330
17
100
AcDbEntity
  8
M-ANNO-SCHD
100
AcDbLine
 10
10.0
 20
484.25
 30
0.0
 11
177.5
 21
484.25
 31
0.0
  0
LINE
  5
65F
330
17
100
AcDbEntity
  8
M-ANNO-SCHD
100
AcDbLine
 10
10.0
 20
478.0
 30
0.0
 11
177.5
 21
478.0
 31
0.0
  0
LINE
  5
660
330
17
100
AcDbEntity
  8
M-ANNO-SCHD
100
AcDbLine
 10
10.0
 20
471.75
 30
0.0
 11
177.5
 21
471.75
 31
0.0
  0
LINE
  5
661
330
17
100
AcDbEntity
  8
M-ANNO-SCHD
100
AcDbLine
 10
10.0
 20
578.0
 30
0.0
 11
10.0
 21
471.75
 31
0.0
  0
LINE
  5
662
330
17
100
AcDbEntity
  8
M-ANNO-SCHD
100
AcDbLine
 10
27.5
 20
578.0
 30
0.0
 11
27.5
 21
471.75
 31
0.0
  0
LINE
  5
663
330
17
100
AcDbEntity
  8
M-ANNO-SCHD
100
AcDbLine
 10
77.5
 20
578.0
 30
0.0
 11
77.5
 21
471.75
 31
0.0
  0
LINE
  5
664
330
17
100
AcDbEntity
  8
M-ANNO-SCHD
100
AcDbLine
 10
112.5
 20
578.0
 30
0.0
 11
112.5
 21
471.75
 31
0.0
  0
LINE
  5
665
330
17
100
AcDbEntity
  8
M-ANNO-SCHD
100
AcDbLine
 10
130.0
 20
578.0
 30
0.0
 11
130.0
 21
471.75
 31
0.0
  0
LINE
  5
666
330
17
100
AcDbEntity
  8
M-ANNO-SCHD
100
AcDbLine
 10
177.5
 20
578.0
 30
0.0
 11
177.5
 21
471.75
 31
0.0
  0
TEXT
  5
667
330
17
100
AcDbEntity
  8
M-ANNO-SCHD
100
AcDbText
 10
11.5
 20
573.76375
 30
0.0
 40
2.1844
  1
CODICE
  7
NOVEC_ARIAL_GRASSETTO
 11
11.5
 21
573.76375
 31
0.0
100
AcDbText
  0
TEXT
  5
668
330
17
100
AcDbEntity
  8
M-ANNO-SCHD
100
AcDbText
 10
29.0
 20
573.76375
 30
0.0
 40
2.1844
  1
DESCRIZIONE
  7
NOVEC_ARIAL_GRASSETTO
 11
29.0
 21
573.76375
 31
0.0
100
AcDbText
  0
TEXT
  5
669
330
17
100
AcDbEntity
  8
M-ANNO-SCHD
100
AcDbText
 10
79.0
 20
573.76375
 30
0.0
 40
2.1844
  1
CARATTERISTICHE
  7
NOVEC_ARIAL_GRASSETTO
 11
79.0
 21
573.76375
 31
0.0
100
AcDbText
  0
TEXT
  5
66A
330
17
100
AcDbEntity
  8
M-ANNO-SCHD
100
AcDbText
 10
114.0
 20
573.76375
 30
0.0
 40
2.1844
  1
MARCA
  7
NOVEC_ARIAL_GRASSETTO
 11
114.0
 21
573.76375
 31
0.0
100
AcDbText
  0
TEXT
  5
66B
330
17
100
AcDbEntity
  8
M-ANNO-SCHD
100
AcDbText
 10
131.5
 20
573.76375
 30
0.0
 40
2.1844
  1
MODELLO
  7
NOVEC_ARIAL_GRASSETTO
 11
131.5
 21
573.76375
 31
0.0
100
AcDbText
  0
TEXT
  5
66C
330
17
100
AcDbEntity
  8
M-ANNO-SCHD
100
AcDbText
 10
11.5
 20
567.51375
 30
0.0
 40
2.1844
  1
GT-01
  7
NOVEC_ARIAL
 11
11.5
 21
567.51375
 31
0.0
100
AcDbText
  0
TEXT
  5
66D
330
17
100
AcDbEntity
  8
M-ANNO-SCHD
100
AcDbText
 10
29.0
 20
567.51375
 30
0.0
 40
2.1844
  1
Pompa di calore aria-acqua nr 1
  7
NOVEC_ARIAL
 11
29.0
 21
567.51375
 31
0.0
100
AcDbText
  0
TEXT
  5
66E
330
17
100
AcDbEntity
  8
M-ANNO-SCHD
100
AcDbText
 10
79.0
 20
567.51375
 30
0.0
 40
2.1844
  1
15 kW
  7
NOVEC_ARIAL
 11
79.0
 21
567.51375
 31
0.0
100
AcDbText
  0
TEXT
  5
66F
330
17
100
AcDbEntity
  8
M-ANNO-SCHD
100
AcDbText
 10
114.0
 20
567.51375
 30
0.0
 40
2.1844
  1
Shenling
  7
NOVEC_ARIAL
 11
114.0
 21
567.51375
 31
0.0
100
AcDbText
  0
TEXT
  5
670
330
17
100
AcDbEntity
  8
M-ANNO-SCHD
100
AcDbText
 10
131.5
 20
567.51375
 30
0.0
 40
2.1844
  1
HPM-V150W/R3
  7
NOVEC_ARIAL
 11
131.5
 21
567.51375
 31
0.0
100
AcDbText
  0
TEXT
  5
671
330
17
100
AcDbEntity
  8
M-ANNO-SCHD
100
AcDbText
 10
11.5
 20
561.26375
 30
0.0
 40
2.1844
  1
GT-02
  7
NOVEC_ARIAL
 11
11.5
 21
561.26375
 31
0.0
100
AcDbText
  0
TEXT
  5
672
330
17
100
AcDbEntity
  8
M-ANNO-SCHD
100
AcDbText
 10
29.0
 20
561.26375
 30
0.0
 40
2.1844
  1
Pompa di calore aria-acqua nr 2
  7
NOVEC_ARIAL
 11
29.0
 21
561.26375
 31
0.0
100
AcDbText
  0
TEXT
  5
673
330
17
100
AcDbEntity
  8
M-ANNO-SCHD
100
AcDbText
 10
79.0
 20
561.26375
 30
0.0
 40
2.1844
  1
15 kW
  7
NOVEC_ARIAL
 11
79.0
 21
561.26375
 31
0.0
100
AcDbText
  0
TEXT
  5
674
330
17
100
AcDbEntity
  8
M-ANNO-SCHD
100
AcDbText
 10
114.0
 20
561.26375
 30
0.0
 40
2.1844
  1
Shenling
  7
NOVEC_ARIAL
 11
114.0
 21
561.26375
 31
0.0
100
AcDbText
  0
TEXT
  5
675
330
17
100
AcDbEntity
  8
M-ANNO-SCHD
100
AcDbText
 10
131.5
 20
561.26375
 30
0.0
 40
2.1844
  1
HPM-V150W/R3
  7
NOVEC_ARIAL
 11
131.5
 21
561.26375
 31
0.0
100
AcDbText
  0
TEXT
  5
676
330
17
100
AcDbEntity
  8
M-ANNO-SCHD
100
AcDbText
 10
11.5
 20
555.01375
 30
0.0
 40
2.1844
  1
GT-03
  7
NOVEC_ARIAL
 11
11.5
 21
555.01375
 31
0.0
100
AcDbText
  0
TEXT
  5
677
330
17
100
AcDbEntity
  8
M-ANNO-SCHD
100
AcDbText
 10
29.0
 20
555.01375
 30
0.0
 40
2.1844
  1
Pompa di calore aria-acqua nr 3
  7
NOVEC_ARIAL
 11
29.0
 21
555.01375
 31
0.0
100
AcDbText
  0
TEXT
  5
678
330
17
100
AcDbEntity
  8
M-ANNO-SCHD
100
AcDbText
 10
79.0
 20
555.01375
 30
0.0
 40
2.1844
  1
15 kW
  7
NOVEC_ARIAL
 11
79.0
 21
555.01375
 31
0.0
100
AcDbText
  0
TEXT
  5
679
330
17
100
AcDbEntity
  8
M-ANNO-SCHD
100
AcDbText
 10
114.0
 20
555.01375
 30
0.0
 40
2.1844
  1
Shenling
  7
NOVEC_ARIAL
 11
114.0
 21
555.01375
 31
0.0
100
AcDbText
  0
TEXT
  5
67A
330
17
100
AcDbEntity
  8
M-ANNO-SCHD
100
AcDbText
 10
131.5
 20
555.01375
 30
0.0
 40
2.1844
  1
HPM-V150W/R3
  7
NOVEC_ARIAL
 11
131.5
 21
555.01375
 31
0.0
100
AcDbText
  0
TEXT
  5
67B
330
17
100
AcDbEntity
  8
M-ANNO-SCHD
100
AcDbText
 10
11.5
 20
548.76375
 30
0.0
 40
2.1844
  1
GT-04
  7
NOVEC_ARIAL
 11
11.5
 21
548.76375
 31
0.0
100
AcDbText
  0
TEXT
  5
67C
330
17
100
AcDbEntity
  8
M-ANNO-SCHD
100
AcDbText
 10
29.0
 20
548.76375
 30
0.0
 40
2.1844
  1
Pompa di calore aria-acqua nr 4
  7
NOVEC_ARIAL
 11
29.0
 21
548.76375
 31
0.0
100
AcDbText
  0
TEXT
  5
67D
330
17
100
AcDbEntity
  8
M-ANNO-SCHD
100
AcDbText
 10
79.0
 20
548.76375
 30
0.0
 40
2.1844
  1
15 kW
  7
NOVEC_ARIAL
 11
79.0
 21
548.76375
 31
0.0
100
AcDbText
  0
TEXT
  5
67E
330
17
100
AcDbEntity
  8
M-ANNO-SCHD
100
AcDbText
 10
114.0
 20
548.76375
 30
0.0
 40
2.1844
  1
Shenling
  7
NOVEC_ARIAL
 11
114.0
 21
548.76375
 31
0.0
100
AcDbText
  0
TEXT
  5
67F
330
17
100
AcDbEntity
  8
M-ANNO-SCHD
100
AcDbText
 10
131.5
 20
548.76375
 30
0.0
 40
2.1844
  1
HPM-V150W/R3
  7
NOVEC_ARIAL
 11
131.5
 21
548.76375
 31
0.0
100
AcDbText
  0
TEXT
  5
680
330
17
100
AcDbEntity
  8
M-ANNO-SCHD
100
AcDbText
 10
11.5
 20
542.51375
 30
0.0
 40
2.1844
  1
GT-05
  7
NOVEC_ARIAL
 11
11.5
 21
542.51375
 31
0.0
100
AcDbText
  0
TEXT
  5
681
330
17
100
AcDbEntity
  8
M-ANNO-SCHD
100
AcDbText
 10
29.0
 20
542.51375
 30
0.0
 40
2.1844
  1
Pompa di calore aria-acqua nr 5
  7
NOVEC_ARIAL
 11
29.0
 21
542.51375
 31
0.0
100
AcDbText
  0
TEXT
  5
682
330
17
100
AcDbEntity
  8
M-ANNO-SCHD
100
AcDbText
 10
79.0
 20
542.51375
 30
0.0
 40
2.1844
  1
15 kW
  7
NOVEC_ARIAL
 11
79.0
 21
542.51375
 31
0.0
100
AcDbText
  0
TEXT
  5
683
330
17
100
AcDbEntity
  8
M-ANNO-SCHD
100
AcDbText
 10
114.0
 20
542.51375
 30
0.0
 40
2.1844
  1
Shenling
  7
NOVEC_ARIAL
 11
114.0
 21
542.51375
 31
0.0
100
AcDbText
  0
TEXT
  5
684
330
17
100
AcDbEntity
  8
M-ANNO-SCHD
100
AcDbText
 10
131.5
 20
542.51375
 30
0.0
 40
2.1844
  1
HPM-V150W/R3
  7
NOVEC_ARIAL
 11
131.5
 21
542.51375
 31
0.0
100
AcDbText
  0
TEXT
  5
685
330
17
100
AcDbEntity
  8
M-ANNO-SCHD
100
AcDbText
 10
11.5
 20
536.26375
 30
0.0
 40
2.1844
  1
GT-06
  7
NOVEC_ARIAL
 11
11.5
 21
536.26375
 31
0.0
100
AcDbText
  0
TEXT
  5
686
330
17
100
AcDbEntity
  8
M-ANNO-SCHD
100
AcDbText
 10
29.0
 20
536.26375
 30
0.0
 40
2.1844
  1
Pompa di calore aria-acqua nr 6
  7
NOVEC_ARIAL
 11
29.0
 21
536.26375
 31
0.0
100
AcDbText
  0
TEXT
  5
687
330
17
100
AcDbEntity
  8
M-ANNO-SCHD
100
AcDbText
 10
79.0
 20
536.26375
 30
0.0
 40
2.1844
  1
15 kW
  7
NOVEC_ARIAL
 11
79.0
 21
536.26375
 31
0.0
100
AcDbText
  0
TEXT
  5
688
330
17
100
AcDbEntity
  8
M-ANNO-SCHD
100
AcDbText
 10
114.0
 20
536.26375
 30
0.0
 40
2.1844
  1
Shenling
  7
NOVEC_ARIAL
 11
114.0
 21
536.26375
 31
0.0
100
AcDbText
  0
TEXT
  5
689
330
17
100
AcDbEntity
  8
M-ANNO-SCHD
100
AcDbText
 10
131.5
 20
536.26375
 30
0.0
 40
2.1844
  1
HPM-V150W/R3
  7
NOVEC_ARIAL
 11
131.5
 21
536.26375
 31
0.0
100
AcDbText
  0
TEXT
  5
68A
330
17
100
AcDbEntity
  8
M-ANNO-SCHD
100
AcDbText
 10
11.5
 20
530.01375
 30
0.0
 40
2.1844
  1
VOL-01
  7
NOVEC_ARIAL
 11
11.5
 21
530.01375
 31
0.0
100
AcDbText
  0
TEXT
  5
68B
330
17
100
AcDbEntity
  8
M-ANNO-SCHD
100
AcDbText
 10
29.0
 20
530.01375
 30
0.0
 40
2.1844
  1
Volano termico a sei attacchi
  7
NOVEC_ARIAL
 11
29.0
 21
530.01375
 31
0.0
100
AcDbText
  0
TEXT
  5
68C
330
17
100
AcDbEntity
  8
M-ANNO-SCHD
100
AcDbText
 10
79.0
 20
530.01375
 30
0.0
 40
2.1844
  1
200 l
  7
NOVEC_ARIAL
 11
79.0
 21
530.01375
 31
0.0
100
AcDbText
  0
TEXT
  5
68D
330
17
100
AcDbEntity
  8
M-ANNO-SCHD
100
AcDbText
 10
114.0
 20
530.01375
 30
0.0
 40
2.1844
  1
Cordivari
  7
NOVEC_ARIAL
 11
114.0
 21
530.01375
 31
0.0
100
AcDbText
  0
TEXT
  5
68E
330
17
100
AcDbEntity
  8
M-ANNO-SCHD
100
AcDbText
 10
131.5
 20
530.01375
 30
0.0
 40
2.1844
  1
Volano BS GBF 200
  7
NOVEC_ARIAL
 11
131.5
 21
530.01375
 31
0.0
100
AcDbText
  0
TEXT
  5
68F
330
17
100
AcDbEntity
  8
M-ANNO-SCHD
100
AcDbText
 10
11.5
 20
523.76375
 30
0.0
 40
2.1844
  1
VOL-02
  7
NOVEC_ARIAL
 11
11.5
 21
523.76375
 31
0.0
100
AcDbText
  0
TEXT
  5
690
330
17
100
AcDbEntity
  8
M-ANNO-SCHD
100
AcDbText
 10
29.0
 20
523.76375
 30
0.0
 40
2.1844
  1
Volano termico a quattro attacchi
  7
NOVEC_ARIAL
 11
29.0
 21
523.76375
 31
0.0
100
AcDbText
  0
TEXT
  5
691
330
17
100
AcDbEntity
  8
M-ANNO-SCHD
100
AcDbText
 10
79.0
 20
523.76375
 30
0.0
 40
2.1844
  1
1000 l
  7
NOVEC_ARIAL
 11
79.0
 21
523.76375
 31
0.0
100
AcDbText
  0
TEXT
  5
692
330
17
100
AcDbEntity
  8
M-ANNO-SCHD
100
AcDbText
 10
114.0
 20
523.76375
 30
0.0
 40
2.1844
  1
Cordivari
  7
NOVEC_ARIAL
 11
114.0
 21
523.76375
 31
0.0
100
AcDbText
  0
TEXT
  5
693
330
17
100
AcDbEntity
  8
M-ANNO-SCHD
100
AcDbText
 10
131.5
 20
523.76375
 30
0.0
 40
2.1844
  1
Volano BS GBL 1000
  7
NOVEC_ARIAL
 11
131.5
 21
523.76375
 31
0.0
100
AcDbText
  0
TEXT
  5
694
330
17
100
AcDbEntity
  8
M-ANNO-SCHD
100
AcDbText
 10
11.5
 20
517.51375
 30
0.0
 40
2.1844
  1
BOL-01
  7
NOVEC_ARIAL
 11
11.5
 21
517.51375
 31
0.0
100
AcDbText
  0
TEXT
  5
695
330
17
100
AcDbEntity
  8
M-ANNO-SCHD
100
AcDbText
 10
29.0
 20
517.51375
 30
0.0
 40
2.1844
  1
Bollitore ACS
  7
NOVEC_ARIAL
 11
29.0
 21
517.51375
 31
0.0
100
AcDbText
  0
TEXT
  5
696
330
17
100
AcDbEntity
  8
M-ANNO-SCHD
100
AcDbText
 10
79.0
 20
517.51375
 30
0.0
 40
2.1844
  1
1000 l
  7
NOVEC_ARIAL
 11
79.0
 21
517.51375
 31
0.0
100
AcDbText
  0
TEXT
  5
697
330
17
100
AcDbEntity
  8
M-ANNO-SCHD
100
AcDbText
 10
114.0
 20
517.51375
 30
0.0
 40
2.1844
  1
–
  7
NOVEC_ARIAL
 11
114.0
 21
517.51375
 31
0.0
100
AcDbText
  0
TEXT
  5
698
330
17
100
AcDbEntity
  8
M-ANNO-SCHD
100
AcDbText
 10
131.5
 20
517.51375
 30
0.0
 40
2.1844
  1
–
  7
NOVEC_ARIAL
 11
131.5
 21
517.51375
 31
0.0
100
AcDbText
  0
TEXT
  5
699
330
17
100
AcDbEntity
  8
M-ANNO-SCHD
100
AcDbText
 10
11.5
 20
511.26375
 30
0.0
 40
2.1844
  1
CIR-01
  7
NOVEC_ARIAL
 11
11.5
 21
511.26375
 31
0.0
100
AcDbText
  0
TEXT
  5
69A
330
17
100
AcDbEntity
  8
M-ANNO-SCHD
100
AcDbText
 10
29.0
 20
511.26375
 30
0.0
 40
2.1844
  1
Pompa di circolazione nr 1
  7
NOVEC_ARIAL
 11
29.0
 21
511.26375
 31
0.0
100
AcDbText
  0
TEXT
  5
69B
330
17
100
AcDbEntity
  8
M-ANNO-SCHD
100
AcDbText
 10
79.0
 20
511.26375
 30
0.0
 40
2.1844
  1
–
  7
NOVEC_ARIAL
 11
79.0
 21
511.26375
 31
0.0
100
AcDbText
  0
TEXT
  5
69C
330
17
100
AcDbEntity
  8
M-ANNO-SCHD
100
AcDbText
 10
114.0
 20
511.26375
 30
0.0
 40
2.1844
  1
DAB
  7
NOVEC_ARIAL
 11
114.0
 21
511.26375
 31
0.0
100
AcDbText
  0
TEXT
  5
69D
330
17
100
AcDbEntity
  8
M-ANNO-SCHD
100
AcDbText
 10
131.5
 20
511.26375
 30
0.0
 40
2.1844
  1
EVOSTA3 80/130
  7
NOVEC_ARIAL
 11
131.5
 21
511.26375
 31
0.0
100
AcDbText
  0
TEXT
  5
69E
330
17
100
AcDbEntity
  8
M-ANNO-SCHD
100
AcDbText
 10
11.5
 20
505.01375
 30
0.0
 40
2.1844
  1
CIR-02
  7
NOVEC_ARIAL
 11
11.5
 21
505.01375
 31
0.0
100
AcDbText
  0
TEXT
  5
69F
330
17
100
AcDbEntity
  8
M-ANNO-SCHD
100
AcDbText
 10
29.0
 20
505.01375
 30
0.0
 40
2.1844
  1
Pompa di circolazione nr 2
  7
NOVEC_ARIAL
 11
29.0
 21
505.01375
 31
0.0
100
AcDbText
  0
TEXT
  5
6A0
330
17
100
AcDbEntity
  8
M-ANNO-SCHD
100
AcDbText
 10
79.0
 20
505.01375
 30
0.0
 40
2.1844
  1
–
  7
NOVEC_ARIAL
 11
79.0
 21
505.01375
 31
0.0
100
AcDbText
  0
TEXT
  5
6A1
330
17
100
AcDbEntity
  8
M-ANNO-SCHD
100
AcDbText
 10
114.0
 20
505.01375
 30
0.0
 40
2.1844
  1
Grundfos
  7
NOVEC_ARIAL
 11
114.0
 21
505.01375
 31
0.0
100
AcDbText
  0
TEXT
  5
6A2
330
17
100
AcDbEntity
  8
M-ANNO-SCHD
100
AcDbText
 10
131.5
 20
505.01375
 30
0.0
 40
2.1844
  1
MAGNA (sigla da completare)
  7
NOVEC_ARIAL
 11
131.5
 21
505.01375
 31
0.0
100
AcDbText
  0
TEXT
  5
6A3
330
17
100
AcDbEntity
  8
M-ANNO-SCHD
100
AcDbText
 10
11.5
 20
498.76375
 30
0.0
 40
2.1844
  1
CIR-03
  7
NOVEC_ARIAL
 11
11.5
 21
498.76375
 31
0.0
100
AcDbText
  0
TEXT
  5
6A4
330
17
100
AcDbEntity
  8
M-ANNO-SCHD
100
AcDbText
 10
29.0
 20
498.76375
 30
0.0
 40
2.1844
  1
Pompa di circolazione nr 3
  7
NOVEC_ARIAL
 11
29.0
 21
498.76375
 31
0.0
100
AcDbText
  0
TEXT
  5
6A5
330
17
100
AcDbEntity
  8
M-ANNO-SCHD
100
AcDbText
 10
79.0
 20
498.76375
 30
0.0
 40
2.1844
  1
–
  7
NOVEC_ARIAL
 11
79.0
 21
498.76375
 31
0.0
100
AcDbText
  0
TEXT
  5
6A6
330
17
100
AcDbEntity
  8
M-ANNO-SCHD
100
AcDbText
 10
114.0
 20
498.76375
 30
0.0
 40
2.1844
  1
Grundfos
  7
NOVEC_ARIAL
 11
114.0
 21
498.76375
 31
0.0
100
AcDbText
  0
TEXT
  5
6A7
330
17
100
AcDbEntity
  8
M-ANNO-SCHD
100
AcDbText
 10
131.5
 20
498.76375
 30
0.0
 40
2.1844
  1
MAGNA (sigla da completare)
  7
NOVEC_ARIAL
 11
131.5
 21
498.76375
 31
0.0
100
AcDbText
  0
TEXT
  5
6A8
330
17
100
AcDbEntity
  8
M-ANNO-SCHD
100
AcDbText
 10
11.5
 20
492.51375
 30
0.0
 40
2.1844
  1
CIR-04
  7
NOVEC_ARIAL
 11
11.5
 21
492.51375
 31
0.0
100
AcDbText
  0
TEXT
  5
6A9
330
17
100
AcDbEntity
  8
M-ANNO-SCHD
100
AcDbText
 10
29.0
 20
492.51375
 30
0.0
 40
2.1844
  1
Pompa di ricircolo sanitario
  7
NOVEC_ARIAL
 11
29.0
 21
492.51375
 31
0.0
100
AcDbText
  0
TEXT
  5
6AA
330
17
100
AcDbEntity
  8
M-ANNO-SCHD
100
AcDbText
 10
79.0
 20
492.51375
 30
0.0
 40
2.1844
  1
–
  7
NOVEC_ARIAL
 11
79.0
 21
492.51375
 31
0.0
100
AcDbText
  0
TEXT
  5
6AB
330
17
100
AcDbEntity
  8
M-ANNO-SCHD
100
AcDbText
 10
114.0
 20
492.51375
 30
0.0
 40
2.1844
  1
–
  7
NOVEC_ARIAL
 11
114.0
 21
492.51375
 31
0.0
100
AcDbText
  0
TEXT
  5
6AC
330
17
100
AcDbEntity
  8
M-ANNO-SCHD
100
AcDbText
 10
131.5
 20
492.51375
 30
0.0
 40
2.1844
  1
–
  7
NOVEC_ARIAL
 11
131.5
 21
492.51375
 31
0.0
100
AcDbText
  0
TEXT
  5
6AD
330
17
100
AcDbEntity
  8
M-ANNO-SCHD
100
AcDbText
 10
11.5
 20
486.26375
 30
0.0
 40
2.1844
  1
VE-01
  7
NOVEC_ARIAL
 11
11.5
 21
486.26375
 31
0.0
100
AcDbText
  0
TEXT
  5
6AE
330
17
100
AcDbEntity
  8
M-ANNO-SCHD
100
AcDbText
 10
29.0
 20
486.26375
 30
0.0
 40
2.1844
  1
Vaso di espansione nr 1
  7
NOVEC_ARIAL
 11
29.0
 21
486.26375
 31
0.0
100
AcDbText
  0
TEXT
  5
6AF
330
17
100
AcDbEntity
  8
M-ANNO-SCHD
100
AcDbText
 10
79.0
 20
486.26375
 30
0.0
 40
2.1844
  1
–
  7
NOVEC_ARIAL
 11
79.0
 21
486.26375
 31
0.0
100
AcDbText
  0
TEXT
  5
6B0
330
17
100
AcDbEntity
  8
M-ANNO-SCHD
100
AcDbText
 10
114.0
 20
486.26375
 30
0.0
 40
2.1844
  1
–
  7
NOVEC_ARIAL
 11
114.0
 21
486.26375
 31
0.0
100
AcDbText
  0
TEXT
  5
6B1
330
17
100
AcDbEntity
  8
M-ANNO-SCHD
100
AcDbText
 10
131.5
 20
486.26375
 30
0.0
 40
2.1844
  1
–
  7
NOVEC_ARIAL
 11
131.5
 21
486.26375
 31
0.0
100
AcDbText
  0
TEXT
  5
6B2
330
17
100
AcDbEntity
  8
M-ANNO-SCHD
100
AcDbText
 10
11.5
 20
480.01375
 30
0.0
 40
2.1844
  1
VE-02
  7
NOVEC_ARIAL
 11
11.5
 21
480.01375
 31
0.0
100
AcDbText
  0
TEXT
  5
6B3
330
17
100
AcDbEntity
  8
M-ANNO-SCHD
100
AcDbText
 10
29.0
 20
480.01375
 30
0.0
 40
2.1844
  1
Vaso di espansione nr 2
  7
NOVEC_ARIAL
 11
29.0
 21
480.01375
 31
0.0
100
AcDbText
  0
TEXT
  5
6B4
330
17
100
AcDbEntity
  8
M-ANNO-SCHD
100
AcDbText
 10
79.0
 20
480.01375
 30
0.0
 40
2.1844
  1
–
  7
NOVEC_ARIAL
 11
79.0
 21
480.01375
 31
0.0
100
AcDbText
  0
TEXT
  5
6B5
330
17
100
AcDbEntity
  8
M-ANNO-SCHD
100
AcDbText
 10
114.0
 20
480.01375
 30
0.0
 40
2.1844
  1
–
  7
NOVEC_ARIAL
 11
114.0
 21
480.01375
 31
0.0
100
AcDbText
  0
TEXT
  5
6B6
330
17
100
AcDbEntity
  8
M-ANNO-SCHD
100
AcDbText
 10
131.5
 20
480.01375
 30
0.0
 40
2.1844
  1
–
  7
NOVEC_ARIAL
 11
131.5
 21
480.01375
 31
0.0
100
AcDbText
  0
TEXT
  5
6B7
330
17
100
AcDbEntity
  8
M-ANNO-SCHD
100
AcDbText
 10
11.5
 20
473.76375
 30
0.0
 40
2.1844
  1
VE-03
  7
NOVEC_ARIAL
 11
11.5
 21
473.76375
 31
0.0
100
AcDbText
  0
TEXT
  5
6B8
330
17
100
AcDbEntity
  8
M-ANNO-SCHD
100
AcDbText
 10
29.0
 20
473.76375
 30
0.0
 40
2.1844
  1
Vaso di espansione sanitario
  7
NOVEC_ARIAL
 11
29.0
 21
473.76375
 31
0.0
100
AcDbText
  0
TEXT
  5
6B9
330
17
100
AcDbEntity
  8
M-ANNO-SCHD
100
AcDbText
 10
79.0
 20
473.76375
 30
0.0
 40
2.1844
  1
–
  7
NOVEC_ARIAL
 11
79.0
 21
473.76375
 31
0.0
100
AcDbText
  0
TEXT
  5
6BA
330
17
100
AcDbEntity
  8
M-ANNO-SCHD
100
AcDbText
 10
114.0
 20
473.76375
 30
0.0
 40
2.1844
  1
–
  7
NOVEC_ARIAL
 11
114.0
 21
473.76375
 31
0.0
100
AcDbText
  0
TEXT
  5
6BB
330
17
100
AcDbEntity
  8
M-ANNO-SCHD
100
AcDbText
 10
131.5
 20
473.76375
 30
0.0
 40
2.1844
  1
–
  7
NOVEC_ARIAL
 11
131.5
 21
473.76375
 31
0.0
100
AcDbText
  0
VIEWPORT
  5
35
330
31
100
AcDbEntity
 67
1
  8
0
100
AcDbViewport
 10
420.5
 20
297.0
 30
0.0
 40
925.1
 41
653.4000000000001
 68
1
 69
1
 12
420.5
 22
297.0
 13
0.0
 23
0.0
 14
10.0
 24
10.0
 15
10.0
 25
10.0
 16
0.0
 26
0.0
 36
1.0
 17
0.0
 27
0.0
 37
0.0
 42
50.0
 43
0.0
 44
0.0
 45
653.4000000000001
 50
0.0
 51
0.0
 72
100
 90
557088
  1

281
0
 71
0
 74
0
110
0.0
120
0.0
130
0.0
111
1.0
121
0.0
131
0.0
112
0.0
122
1.0
132
0.0
 79
0
146
0.0
282
0
  0
VIEWPORT
  5
36
330
31
100
AcDbEntity
 67
1
  8
G-ANNO-NPLT
100
AcDbViewport
 10
420.5
 20
297.0
 30
0.0
 40
841.0
 41
594.0
 68
2
 69
3
 12
420.5
 22
297.0
 13
0.0
 23
0.0
 14
10.0
 24
10.0
 15
10.0
 25
10.0
 16
0.0
 26
0.0
 36
1.0
 17
0.0
 27
0.0
 37
0.0
 42
50.0
 43
0.0
 44
0.0
 45
594.0
 50
0.0
 51
0.0
 72
100
 90
16384
  1

281
0
 71
0
 74
0
110
0.0
120
0.0
130
0.0
111
1.0
121
0.0
131
0.0
112
0.0
122
1.0
132
0.0
 79
0
146
0.0
282
0
  0
LWPOLYLINE
  5
40
330
31
100
AcDbEntity
 67
1
  8
G-ANNO-TTLB
 62
159
370
18
420
1846858
100
AcDbPolyline
 90
4
 70
1
 10
10.0
 20
584.0
 10
831.0
 20
584.0
 10
831.0
 20
10.0
 10
10.0
 20
10.0
  0
LINE
  5
41
330
31
100
AcDbEntity
 67
1
  8
G-ANNO-TTLB
 62
254
370
9
420
14737632
100
AcDbLine
 10
14.0
 20
578.0
 30
0.0
 11
827.0
 21
578.0
 31
0.0
  0
TEXT
  5
42
330
31
100
AcDbEntity
 67
1
  8
G-ANNO-TTLB
 62
253
420
10066329
100
AcDbText
 10
15.0
 20
579.5
 30
0.0
 40
1.3349
  1
NOVE C INGEGNERIA  |  Documento confidenziale  |  DA DEFINIRE – Elaborati Grafici
  7
NOVEC_ARIAL
 11
15.0
 21
579.5
 31
0.0
100
AcDbText
  0
TEXT
  5
43
330
31
100
AcDbEntity
 67
1
  8
G-ANNO-TTLB
 62
59
420
2960685
100
AcDbText
 10
826.0
 20
579.5
 30
0.0
 40
1.3349
  1
BOZZA — cartiglio incompleto
  7
NOVEC_ARIAL_GRASSETTO
 72
2
 11
826.0
 21
579.5
 31
0.0
100
AcDbText
  0
LWPOLYLINE
  5
44
330
31
100
AcDbEntity
 67
1
  8
G-ANNO-TTLB
 62
159
370
30
420
1846858
100
AcDbPolyline
 90
4
 70
1
 10
431.0
 20
44.0
 10
831.0
 20
44.0
 10
831.0
 20
10.0
 10
431.0
 20
10.0
  0
LINE
  5
45
330
31
100
AcDbEntity
 67
1
  8
G-ANNO-TTLB
 62
254
370
15
420
14737632
100
AcDbLine
 10
431.0
 20
26.0
 30
0.0
 11
831.0
 21
26.0
 31
0.0
  0
LINE
  5
46
330
31
100
AcDbEntity
 67
1
  8
G-ANNO-TTLB
 62
159
370
15
420
1846858
100
AcDbLine
 10
500.0
 20
10.0
 30
0.0
 11
500.0
 21
44.0
 31
0.0
  0
LINE
  5
47
330
31
100
AcDbEntity
 67
1
  8
G-ANNO-TTLB
 62
159
370
15
420
1846858
100
AcDbLine
 10
578.0
 20
10.0
 30
0.0
 11
578.0
 21
44.0
 31
0.0
  0
LINE
  5
48
330
31
100
AcDbEntity
 67
1
  8
G-ANNO-TTLB
 62
159
370
15
420
1846858
100
AcDbLine
 10
678.0
 20
10.0
 30
0.0
 11
678.0
 21
44.0
 31
0.0
  0
LINE
  5
49
330
31
100
AcDbEntity
 67
1
  8
G-ANNO-TTLB
 62
159
370
15
420
1846858
100
AcDbLine
 10
733.0
 20
10.0
 30
0.0
 11
733.0
 21
44.0
 31
0.0
  0
LINE
  5
4A
330
31
100
AcDbEntity
 67
1
  8
G-ANNO-TTLB
 62
159
370
15
420
1846858
100
AcDbLine
 10
783.0
 20
10.0
 30
0.0
 11
783.0
 21
44.0
 31
0.0
  0
LINE
  5
4B
330
31
100
AcDbEntity
 67
1
  8
G-ANNO-TTLB
 62
254
370
9
420
14737632
100
AcDbLine
 10
500.0
 20
10.0
 30
0.0
 11
500.0
 21
44.0
 31
0.0
  0
HATCH
  5
4C
330
31
100
AcDbEntity
 67
1
  8
G-ANNO-TTLB
 62
159
420
1846858
100
AcDbHatch
 10
0.0
 20
0.0
 30
0.0
210
0.0
220
0.0
230
1.0
  2
SOLID
 70
1
 71
0
 91
1
 92
3
 72
0
 73
1
 93
4
 10
431.0
 20
44.0
 10
435.0
 20
44.0
 10
435.0
 20
10.0
 10
431.0
 20
10.0
 97
0
 75
1
 76
1
 98
0
  0
HATCH
  5
4D
330
31
100
AcDbEntity
 67
1
  8
G-ANNO-TTLB
 62
133
420
2801599
100
AcDbHatch
 10
0.0
 20
0.0
 30
0.0
210
0.0
220
0.0
230
1.0
  2
SOLID
 70
1
 71
0
 91
1
 92
3
 72
0
 73
1
 93
4
 10
431.0
 20
46.0
 10
831.0
 20
46.0
 10
831.0
 20
44.0
 10
431.0
 20
44.0
 97
0
 75
1
 76
1
 98
0
  0
HATCH
  5
4E
330
31
100
AcDbEntity
 67
1
  8
G-ANNO-TTLB
 62
159
420
1846858
100
AcDbHatch
 10
0.0
 20
0.0
 30
0.0
210
0.0
220
0.0
230
1.0
  2
SOLID
 70
1
 71
0
 91
1
 92
3
 72
0
 73
1
 93
4
 10
783.0
 20
44.0
 10
831.0
 20
44.0
 10
831.0
 20
10.0
 10
783.0
 20
10.0
 97
0
 75
1
 76
1
 98
0
  0
HATCH
  5
4F
330
31
100
AcDbEntity
 67
1
  8
G-ANNO-TTLB
 62
133
420
2801599
100
AcDbHatch
 10
0.0
 20
0.0
 30
0.0
210
0.0
220
0.0
230
1.0
  2
SOLID
 70
1
 71
0
 91
1
 92
3
 72
0
 73
1
 93
4
 10
783.0
 20
46.0
 10
831.0
 20
46.0
 10
831.0
 20
44.0
 10
783.0
 20
44.0
 97
0
 75
1
 76
1
 98
0
  0
IMAGE
  5
53
330
31
100
AcDbEntity
 67
1
  8
G-ANNO-TTLB
100
AcDbRasterImage
 90
0
 10
438.552
 20
28.0
 30
0.0
 11
0.019552853765619722
 21
0.0
 31
0.0
 12
1.1972803902278592e-18
 22
0.019553072625698324
 32
0.0
 13
2961.0
 23
716.0
340
52
 70
3
280
0
281
50
282
50
283
0
360
54
 71
1
 91
2
 14
-0.5
 24
-0.5
 14
2960.5
 24
715.5
290
0
  0
TEXT
  5
55
330
31
100
AcDbEntity
 67
1
  8
G-ANNO-TTLB
 62
253
420
10066329
100
AcDbText
 10
503.5
 20
38.0
 30
0.0
 40
1.3349
  1
COMMITTENTE
  7
NOVEC_ARIAL
 11
503.5
 21
38.0
 31
0.0
100
AcDbText
  0
TEXT
  5
56
330
31
100
AcDbEntity
 67
1
  8
G-ANNO-TTLB
 62
59
420
2960685
100
AcDbText
 10
503.5
 20
29.5
 30
0.0
 40
2.1844
  1
Condominio (caso reale, anonimo)
  7
NOVEC_ARIAL_GRASSETTO
 11
503.5
 21
29.5
 31
0.0
100
AcDbText
  0
TEXT
  5
57
330
31
100
AcDbEntity
 67
1
  8
G-ANNO-TTLB
 62
253
420
10066329
100
AcDbText
 10
503.5
 20
20.5
 30
0.0
 40
1.3349
  1
INDIRIZZO
  7
NOVEC_ARIAL
 11
503.5
 21
20.5
 31
0.0
100
AcDbText
  0
TEXT
  5
58
330
31
100
AcDbEntity
 67
1
  8
G-ANNO-TTLB
 62
59
420
2960685
100
AcDbText
 10
503.5
 20
13.0
 30
0.0
 40
1.6989
  1
DA DEFINIRE
  7
NOVEC_ARIAL
 11
503.5
 21
13.0
 31
0.0
100
AcDbText
  0
TEXT
  5
59
330
31
100
AcDbEntity
 67
1
  8
G-ANNO-TTLB
 62
253
420
10066329
100
AcDbText
 10
581.5
 20
38.0
 30
0.0
 40
1.3349
  1
PROGETTO
  7
NOVEC_ARIAL
 11
581.5
 21
38.0
 31
0.0
100
AcDbText
  0
TEXT
  5
5A
330
31
100
AcDbEntity
 67
1
  8
G-ANNO-TTLB
 62
59
420
2960685
100
AcDbText
 10
581.5
 20
32.462999999999965
 30
0.0
 40
1.6989
  1
Sostituzione generatori di calore - centrale termica centralizzata a pompe di
  7
NOVEC_ARIAL_GRASSETTO
 11
581.5
 21
32.462999999999965
 31
0.0
100
AcDbText
  0
TEXT
  5
5B
330
31
100
AcDbEntity
 67
1
  8
G-ANNO-TTLB
 62
59
420
2960685
100
AcDbText
 10
581.5
 20
29.5
 30
0.0
 40
1.6989
  1
calore
  7
NOVEC_ARIAL_GRASSETTO
 11
581.5
 21
29.5
 31
0.0
100
AcDbText
  0
TEXT
  5
5C
330
31
100
AcDbEntity
 67
1
  8
G-ANNO-TTLB
 62
253
420
10066329
100
AcDbText
 10
581.5
 20
20.5
 30
0.0
 40
1.3349
  1
TITOLO TAVOLA
  7
NOVEC_ARIAL
 11
581.5
 21
20.5
 31
0.0
100
AcDbText
  0
TEXT
  5
5D
330
31
100
AcDbEntity
 67
1
  8
G-ANNO-TTLB
 62
59
420
2960685
100
AcDbText
 10
581.5
 20
13.0
 30
0.0
 40
1.9417
  1
DA DEFINIRE
  7
NOVEC_ARIAL_GRASSETTO
 11
581.5
 21
13.0
 31
0.0
100
AcDbText
  0
TEXT
  5
5E
330
31
100
AcDbEntity
 67
1
  8
G-ANNO-TTLB
 62
253
420
10066329
100
AcDbText
 10
681.5
 20
38.0
 30
0.0
 40
1.3349
  1
SCALA
  7
NOVEC_ARIAL
 11
681.5
 21
38.0
 31
0.0
100
AcDbText
  0
TEXT
  5
5F
330
31
100
AcDbEntity
 67
1
  8
G-ANNO-TTLB
 62
59
420
2960685
100
AcDbText
 10
681.5
 20
29.5
 30
0.0
 40
2.1844
  1
—
  7
NOVEC_ARIAL_GRASSETTO
 11
681.5
 21
29.5
 31
0.0
100
AcDbText
  0
LINE
  5
60
330
31
100
AcDbEntity
 67
1
  8
G-ANNO-TTLB
 62
254
370
9
420
14737632
100
AcDbLine
 10
705.5
 20
27.5
 30
0.0
 11
705.5
 21
42.5
 31
0.0
  0
TEXT
  5
61
330
31
100
AcDbEntity
 67
1
  8
G-ANNO-TTLB
 62
253
420
10066329
100
AcDbText
 10
709.0
 20
38.0
 30
0.0
 40
1.3349
  1
DATA
  7
NOVEC_ARIAL
 11
709.0
 21
38.0
 31
0.0
100
AcDbText
  0
TEXT
  5
62
330
31
100
AcDbEntity
 67
1
  8
G-ANNO-TTLB
 62
59
420
2960685
100
AcDbText
 10
709.0
 20
29.5
 30
0.0
 40
1.9417
  1
03.10.2026
  7
NOVEC_ARIAL_GRASSETTO
 11
709.0
 21
29.5
 31
0.0
100
AcDbText
  0
TEXT
  5
63
330
31
100
AcDbEntity
 67
1
  8
G-ANNO-TTLB
 62
253
420
10066329
100
AcDbText
 10
681.5
 20
20.5
 30
0.0
 40
1.3349
  1
REVISIONE
  7
NOVEC_ARIAL
 11
681.5
 21
20.5
 31
0.0
100
AcDbText
  0
TEXT
  5
64
330
31
100
AcDbEntity
 67
1
  8
G-ANNO-TTLB
 62
59
420
2960685
100
AcDbText
 10
681.5
 20
13.0
 30
0.0
 40
1.6989
  1
Rev. 00
  7
NOVEC_ARIAL_GRASSETTO
 11
681.5
 21
13.0
 31
0.0
100
AcDbText
  0
LINE
  5
65
330
31
100
AcDbEntity
 67
1
  8
G-ANNO-TTLB
 62
254
370
9
420
14737632
100
AcDbLine
 10
705.5
 20
11.5
 30
0.0
 11
705.5
 21
24.5
 31
0.0
  0
TEXT
  5
66
330
31
100
AcDbEntity
 67
1
  8
G-ANNO-TTLB
 62
253
420
10066329
100
AcDbText
 10
709.0
 20
20.5
 30
0.0
 40
1.3349
  1
COMMESSA
  7
NOVEC_ARIAL
 11
709.0
 21
20.5
 31
0.0
100
AcDbText
  0
TEXT
  5
67
330
31
100
AcDbEntity
 67
1
  8
G-ANNO-TTLB
 62
59
420
2960685
100
AcDbText
 10
709.0
 20
13.0
 30
0.0
 40
1.9417
  1
DA DEFINIRE
  7
NOVEC_ARIAL_GRASSETTO
 11
709.0
 21
13.0
 31
0.0
100
AcDbText
  0
TEXT
  5
68
330
31
100
AcDbEntity
 67
1
  8
G-ANNO-TTLB
 62
253
420
10066329
100
AcDbText
 10
736.5
 20
16.333000000000084
 30
0.0
 40
1.2136
  1
DISEGNATO
  7
NOVEC_ARIAL
 11
736.5
 21
16.333000000000084
 31
0.0
100
AcDbText
  0
LINE
  5
69
330
31
100
AcDbEntity
 67
1
  8
G-ANNO-TTLB
 62
254
370
9
420
14737632
100
AcDbLine
 10
736.5
 20
12.5
 30
0.0
 11
779.5
 21
12.5
 31
0.0
  0
LINE
  5
6A
330
31
100
AcDbEntity
 67
1
  8
G-ANNO-TTLB
 62
254
370
9
420
14737632
100
AcDbLine
 10
733.0
 20
21.333000000000084
 30
0.0
 11
783.0
 21
21.333000000000084
 31
0.0
  0
TEXT
  5
6B
330
31
100
AcDbEntity
 67
1
  8
G-ANNO-TTLB
 62
253
420
10066329
100
AcDbText
 10
736.5
 20
27.666999999999916
 30
0.0
 40
1.2136
  1
VERIFICATO
  7
NOVEC_ARIAL
 11
736.5
 21
27.666999999999916
 31
0.0
100
AcDbText
  0
LINE
  5
6C
330
31
100
AcDbEntity
 67
1
  8
G-ANNO-TTLB
 62
254
370
9
420
14737632
100
AcDbLine
 10
736.5
 20
23.833000000000084
 30
0.0
 11
779.5
 21
23.833000000000084
 31
0.0
  0
LINE
  5
6D
330
31
100
AcDbEntity
 67
1
  8
G-ANNO-TTLB
 62
254
370
9
420
14737632
100
AcDbLine
 10
733.0
 20
32.666999999999916
 30
0.0
 11
783.0
 21
32.666999999999916
 31
0.0
  0
TEXT
  5
6E
330
31
100
AcDbEntity
 67
1
  8
G-ANNO-TTLB
 62
253
420
10066329
100
AcDbText
 10
736.5
 20
39.0
 30
0.0
 40
1.2136
  1
APPROVATO
  7
NOVEC_ARIAL
 11
736.5
 21
39.0
 31
0.0
100
AcDbText
  0
LINE
  5
6F
330
31
100
AcDbEntity
 67
1
  8
G-ANNO-TTLB
 62
254
370
9
420
14737632
100
AcDbLine
 10
736.5
 20
35.166999999999916
 30
0.0
 11
779.5
 21
35.166999999999916
 31
0.0
  0
TEXT
  5
70
330
31
100
AcDbEntity
 67
1
  8
G-ANNO-TTLB
 62
255
420
16777215
440
33554559
100
AcDbText
 10
807.0
 20
36.0
 30
0.0
 40
1.5777
  1
TAVOLA
  7
NOVEC_ARIAL
 72
1
 11
807.0
 21
36.0
 31
0.0
100
AcDbText
  0
TEXT
  5
71
330
31
100
AcDbEntity
 67
1
  8
G-ANNO-TTLB
 62
255
420
16777215
100
AcDbText
 10
807.0
 20
14.0
 30
0.0
 40
4.3688
  1
DA DEFINIRE
  7
NOVEC_ARIAL_GRASSETTO
 72
1
 11
807.0
 21
14.0
 31
0.0
100
AcDbText
  0
ENDSEC
  0
SECTION
  2
OBJECTS
  0
DICTIONARY
  5
A
330
0
100
AcDbDictionary
281
1
  3
ACAD_COLOR
350
B
  3
ACAD_GROUP
350
C
  3
ACAD_LAYOUT
350
D
  3
ACAD_MATERIAL
350
E
  3
ACAD_MLEADERSTYLE
350
F
  3
ACAD_MLINESTYLE
350
10
  3
ACAD_PLOTSETTINGS
350
11
  3
ACAD_PLOTSTYLENAME
350
12
  3
ACAD_SCALELIST
350
14
  3
ACAD_TABLESTYLE
350
15
  3
ACAD_VISUALSTYLE
350
16
  3
EZDXF_META
350
2D
  3
ACAD_IMAGE_VARS
350
50
  3
ACAD_IMAGE_DICT
350
51
  0
DICTIONARY
  5
B
330
A
100
AcDbDictionary
281
1
  0
DICTIONARY
  5
C
330
A
100
AcDbDictionary
281
1
  0
DICTIONARY
  5
D
330
A
100
AcDbDictionary
281
1
  3
Model
350
1A
  3
A1
350
34
  0
DICTIONARY
  5
E
330
A
100
AcDbDictionary
281
1
  3
ByBlock
350
1F
  3
ByLayer
350
20
  3
Global
350
21
  0
DICTIONARY
  5
F
330
A
100
AcDbDictionary
281
1
  3
Standard
350
2C
  0
DICTIONARY
  5
10
330
A
100
AcDbDictionary
281
1
  3
Standard
350
22
  0
DICTIONARY
  5
11
330
A
100
AcDbDictionary
281
1
  0
ACDBDICTIONARYWDFLT
  5
12
330
A
100
AcDbDictionary
281
1
  3
Normal
350
13
100
AcDbDictionaryWithDefault
340
13
  0
ACDBPLACEHOLDER
  5
13
330
12
  0
DICTIONARY
  5
14
330
A
100
AcDbDictionary
281
1
  0
DICTIONARY
  5
15
330
A
100
AcDbDictionary
281
1
  0
DICTIONARY
  5
16
330
A
100
AcDbDictionary
281
1
  0
LAYOUT
  5
1A
330
D
100
AcDbPlotSettings
  1

  4
A3
  6

 40
7.5
 41
20.0
 42
7.5
 43
20.0
 44
420.0
 45
297.0
 46
0.0
 47
0.0
 48
0.0
 49
0.0
140
0.0
141
0.0
142
1.0
143
1.0
 70
1024
 72
1
 73
0
 74
5
  7

 75
16
 76
0
 77
2
 78
300
147
1.0
148
0.0
149
0.0
100
AcDbLayout
  1
Model
 70
1
 71
0
 10
0.0
 20
0.0
 11
420.0
 21
297.0
 12
0.0
 22
0.0
 32
0.0
 14
1e+20
 24
1e+20
 34
1e+20
 15
-1e+20
 25
-1e+20
 35
-1e+20
146
0.0
 13
0.0
 23
0.0
 33
0.0
 16
1.0
 26
0.0
 36
0.0
 17
0.0
 27
1.0
 37
0.0
 76
1
330
17
  0
MATERIAL
  5
1F
102
{ACAD_REACTORS
330
E
102
}
330
E
100
AcDbMaterial
  1
ByBlock
  2

 70
0
 40
1.0
 71
1
 41
1.0
 91
-1023410177
 42
1.0
 72
1
  3

 73
1
 74
1
 75
1
 44
0.5
 73
0
 45
1.0
 46
1.0
 77
1
  4

 78
1
 79
1
170
1
 48
1.0
171
1
  6

172
1
173
1
174
1
140
1.0
141
1.0
175
1
  7

176
1
177
1
178
1
143
1.0
179
1
  8

270
1
271
1
272
1
145
1.0
146
1.0
273
1
  9

274
1
275
1
276
1
 42
1.0
 72
1
  3

 73
1
 74
1
 75
1
 94
63
  0
MATERIAL
  5
20
102
{ACAD_REACTORS
330
E
102
}
330
E
100
AcDbMaterial
  1
ByLayer
  2

 70
0
 40
1.0
 71
1
 41
1.0
 91
-1023410177
 42
1.0
 72
1
  3

 73
1
 74
1
 75
1
 44
0.5
 73
0
 45
1.0
 46
1.0
 77
1
  4

 78
1
 79
1
170
1
 48
1.0
171
1
  6

172
1
173
1
174
1
140
1.0
141
1.0
175
1
  7

176
1
177
1
178
1
143
1.0
179
1
  8

270
1
271
1
272
1
145
1.0
146
1.0
273
1
  9

274
1
275
1
276
1
 42
1.0
 72
1
  3

 73
1
 74
1
 75
1
 94
63
  0
MATERIAL
  5
21
102
{ACAD_REACTORS
330
E
102
}
330
E
100
AcDbMaterial
  1
Global
  2

 70
0
 40
1.0
 71
1
 41
1.0
 91
-1023410177
 42
1.0
 72
1
  3

 73
1
 74
1
 75
1
 44
0.5
 73
0
 45
1.0
 46
1.0
 77
1
  4

 78
1
 79
1
170
1
 48
1.0
171
1
  6

172
1
173
1
174
1
140
1.0
141
1.0
175
1
  7

176
1
177
1
178
1
143
1.0
179
1
  8

270
1
271
1
272
1
145
1.0
146
1.0
273
1
  9

274
1
275
1
276
1
 42
1.0
 72
1
  3

 73
1
 74
1
 75
1
 94
63
  0
MLINESTYLE
  5
22
102
{ACAD_REACTORS
330
10
102
}
330
10
100
AcDbMlineStyle
  2
Standard
 70
0
  3

 62
256
 51
90.0
 52
90.0
 71
2
 49
0.5
 62
256
  6
BYLAYER
 49
-0.5
 62
256
  6
BYLAYER
  0
MLEADERSTYLE
  5
2C
102
{ACAD_REACTORS
330
F
102
}
330
F
100
AcDbMLeaderStyle
179
2
170
2
171
1
172
0
 90
2
 40
0.0
 41
0.0
173
1
 91
-1056964608
 92
-2
290
1
 42
2.0
291
1
 43
8.0
  3
Standard
 44
4.0
300

342
29
174
1
175
1
176
0
178
1
 93
-1056964608
 45
4.0
292
0
297
0
 46
4.0
 94
-1056964608
 47
1.0
 49
1.0
140
1.0
294
1
141
0.0
177
0
142
1.0
295
0
296
0
143
3.75
271
0
272
9
273
9
  0
DICTIONARY
  5
2D
330
A
100
AcDbDictionary
280
1
281
1
  3
CREATED_BY_EZDXF
350
2E
  3
WRITTEN_BY_EZDXF
350
6BE
  0
DICTIONARYVAR
  5
2E
330
2D
100
DictionaryVariables
280
0
  1
0.0 @ 2000-01-01T00:00:00.000000+00:00
  0
LAYOUT
  5
34
330
D
100
AcDbPlotSettings
  1

  2
DWG To PDF.pc3
  4
ISO_full_bleed_A1_(841.00_x_594.00_MM)
  6

 40
0.0
 41
0.0
 42
0.0
 43
0.0
 44
841.0
 45
594.0
 46
0.0
 47
0.0
 48
0.0
 49
0.0
140
0.0
141
0.0
142
1.0
143
1.0
 70
672
 72
1
 73
0
 74
5
  7

 75
16
 76
0
 77
2
 78
300
147
1.0
148
0.0
149
0.0
100
AcDbLayout
  1
A1
 70
1
 71
3
 10
-0.0
 20
-0.0
 11
841.0
 21
594.0
 12
0.0
 22
0.0
 32
0.0
 14
1e+20
 24
1e+20
 34
1e+20
 15
-1e+20
 25
-1e+20
 35
-1e+20
146
0.0
 13
0.0
 23
0.0
 33
0.0
 16
1.0
 26
0.0
 36
0.0
 17
0.0
 27
1.0
 37
0.0
 76
1
330
31
331
35
  0
RASTERVARIABLES
  5
50
102
{ACAD_REACTORS
330
A
102
}
330
A
100
AcDbRasterVariables
 90
0
 70
0
 71
1
 72
1
  0
DICTIONARY
  5
51
330
A
100
AcDbDictionary
281
1
  3
Cartiglio_NoveC_A3-logo.jpg
350
52
  0
IMAGEDEF
  5
52
102
{ACAD_REACTORS
330
51
330
54
102
}
330
51
100
AcDbRasterImageDef
 90
0
  1
Cartiglio_NoveC_A3-logo.jpg
 10
2961.0
 20
716.0
 11
0.01
 21
0.01
280
1
281
0
  0
IMAGEDEF_REACTOR
  5
54
330
53
100
AcDbRasterImageDefReactor
 90
2
330
53
  0
DICTIONARYVAR
  5
6BE
330
2D
100
DictionaryVariables
280
0
  1
0.0 @ 2000-01-01T00:00:00.000000+00:00
  0
ENDSEC
  0
EOF
