<svg xmlns="http://www.w3.org/2000/svg" width="420mm" height="297mm" viewBox="0 0 420 297"><rect x="10" y="10" width="400" height="277" fill="none" stroke="black" stroke-width="0.35"/><rect x="10" y="251" width="400" height="36" fill="none" stroke="black" stroke-width="0.18"/><rect x="360" y="16" width="50" height="235" fill="none" stroke="black" stroke-width="0.18"/><text x="12" y="15" font-size="1.8" fill="black">Due pompe di calore in parallelo con accumulo combinato · MODALITÀ VERIFICA</text><text x="12" y="254.5" font-size="2.5" fill="black">BOZZA — cartiglio non compilato</text><polyline class="run" points="100,131 105,131" fill="none" stroke="#c0392b" stroke-width="0.35"/><path class="flow-arrow" d="M102.5 131 L100.5 132 L100.5 130 Z" fill="#c0392b" stroke="none"/><polyline class="run" points="110,131 130,131" fill="none" stroke="#c0392b" stroke-width="0.35"/><path class="flow-arrow" d="M120 131 L118 132 L118 130 Z" fill="#c0392b" stroke="none"/><polyline class="run" points="100,91 105,91" fill="none" stroke="#c0392b" stroke-width="0.35"/><path class="flow-arrow" d="M102.5 91 L100.5 92 L100.5 90 Z" fill="#c0392b" stroke="none"/><polyline class="run" points="110,91 132.5,91 132.5,128.5" fill="none" stroke="#c0392b" stroke-width="0.35"/><path class="flow-arrow" d="M132.5 109.75 L131.5 107.75 L133.5 107.75 Z" fill="#c0392b" stroke="none"/><polyline class="run" points="135,131 145,131" fill="none" stroke="#c0392b" stroke-width="0.35"/><path class="flow-arrow" d="M140 131 L138 132 L138 130 Z" fill="#c0392b" stroke="none"/><polyline class="run" points="150,131 215,131" fill="none" stroke="#c0392b" stroke-width="0.35"/><path class="flow-arrow" d="M182.5 131 L180.5 132 L180.5 130 Z" fill="#c0392b" stroke="none"/><polyline class="run" points="220,131 225,131" fill="none" stroke="#c0392b" stroke-width="0.35"/><path class="flow-arrow" d="M222.5 131 L220.5 132 L220.5 130 Z" fill="#c0392b" stroke="none"/><polyline class="run" points="225,146 220,146" fill="none" stroke="#2471a3" stroke-width="0.35"/><path class="flow-arrow" d="M222.5 146 L224.5 145 L224.5 147 Z" fill="#2471a3" stroke="none"/><polyline class="run" points="215,146 192.5,146" fill="none" stroke="#2471a3" stroke-width="0.35"/><path class="flow-arrow" d="M203.75 146 L205.75 145 L205.75 147 Z" fill="#2471a3" stroke="none"/><polyline class="run" points="187.5,146 177.5,146" fill="none" stroke="#2471a3" stroke-width="0.35"/><path class="flow-arrow" d="M182.5 146 L184.5 145 L184.5 147 Z" fill="#2471a3" stroke="none"/><polyline class="run" points="172.5,146 162.5,146" fill="none" stroke="#2471a3" stroke-width="0.35"/><path class="flow-arrow" d="M167.5 146 L169.5 145 L169.5 147 Z" fill="#2471a3" stroke="none"/><polyline class="run" points="157.5,146 150,146" fill="none" stroke="#2471a3" stroke-width="0.35"/><path class="flow-arrow" d="M153.75 146 L155.75 145 L155.75 147 Z" fill="#2471a3" stroke="none"/><polyline class="run" points="145,146 142.5,146" fill="none" stroke="#2471a3" stroke-width="0.35"/><polyline class="run" points="137.5,146 127.5,146" fill="none" stroke="#2471a3" stroke-width="0.35"/><path class="flow-arrow" d="M132.5 146 L134.5 145 L134.5 147 Z" fill="#2471a3" stroke="none"/><polyline class="run" points="122.5,146 117.5,146" fill="none" stroke="#2471a3" stroke-width="0.35"/><path class="flow-arrow" d="M120 146 L122 145 L122 147 Z" fill="#2471a3" stroke="none"/><polyline class="run" points="112.5,146 110,146" fill="none" stroke="#2471a3" stroke-width="0.35"/><polyline class="run" points="105,146 100,146" fill="none" stroke="#2471a3" stroke-width="0.35"/><path class="flow-arrow" d="M102.5 146 L104.5 145 L104.5 147 Z" fill="#2471a3" stroke="none"/><polyline class="run" points="125,143.5 125,132.25" fill="none" stroke="#2471a3" stroke-width="0.35"/><polyline class="run" points="125,129.75 125,106 117.5,106" fill="none" stroke="#2471a3" stroke-width="0.35"/><path class="crossing-hop" d="M125 129.75 A1.25 1.25 0 0 1 125 132.25" fill="none" stroke="#2471a3" stroke-width="0.35"/><path class="flow-arrow" d="M125 124.75 L126 126.75 L124 126.75 Z" fill="#2471a3" stroke="none"/><polyline class="run" points="112.5,106 110,106" fill="none" stroke="#2471a3" stroke-width="0.35"/><polyline class="run" points="105,106 100,106" fill="none" stroke="#2471a3" stroke-width="0.35"/><path class="flow-arrow" d="M102.5 106 L104.5 105 L104.5 107 Z" fill="#2471a3" stroke="none"/><polyline class="run" points="250,131 255,131" fill="none" stroke="#c0392b" stroke-width="0.35"/><path class="flow-arrow" d="M252.5 131 L250.5 132 L250.5 130 Z" fill="#c0392b" stroke="none"/><polyline class="run" points="260,131 262.5,131" fill="none" stroke="#c0392b" stroke-width="0.35"/><polyline class="run" points="272.5,131 275,131" fill="none" stroke="#c0392b" stroke-width="0.35"/><polyline class="run" points="280,131 285,131" fill="none" stroke="#c0392b" stroke-width="0.35"/><path class="flow-arrow" d="M282.5 131 L280.5 132 L280.5 130 Z" fill="#c0392b" stroke="none"/><polyline class="run" points="305,131 307.5,131 307.5,146 260,146" fill="none" stroke="#2471a3" stroke-width="0.35"/><path class="flow-arrow" d="M283.75 146 L285.75 145 L285.75 147 Z" fill="#2471a3" stroke="none"/><polyline class="run" points="255,146 250,146" fill="none" stroke="#2471a3" stroke-width="0.35"/><path class="flow-arrow" d="M252.5 146 L254.5 145 L254.5 147 Z" fill="#2471a3" stroke="none"/><polyline class="run" points="242.5,126 242.5,121" fill="none" stroke="#c0392b" stroke-width="0.35"/><polyline class="run" points="237.5,171 237.5,176" fill="none" stroke="#c0392b" stroke-width="0.35"/><path class="flow-arrow" d="M237.5 173.5 L236.5 171.5 L238.5 171.5 Z" fill="#c0392b" stroke="none"/><polyline class="run" points="190,148.5 190,153.5" fill="none" stroke="#2471a3" stroke-width="0.35"/><polyline class="run" points="190,158.5 190,163.5" fill="none" stroke="#2471a3" stroke-width="0.35"/><polyline class="run" points="175,148.5 175,153.5" fill="none" stroke="#2471a3" stroke-width="0.35"/><path class="flow-arrow" d="M175 151 L176 153 L174 153 Z" fill="#2471a3" stroke="none"/><polyline class="run" points="175,158.5 175,163.5" fill="none" stroke="#2471a3" stroke-width="0.35"/><path class="flow-arrow" d="M175 161 L176 163 L174 163 Z" fill="#2471a3" stroke="none"/><polyline class="run" points="160,148.5 160,153.5" fill="none" stroke="#2471a3" stroke-width="0.35"/><polyline class="run" points="160,158.5 160,163.5" fill="none" stroke="#2471a3" stroke-width="0.35"/><polyline class="run" points="147.5,128.5 147.5,123.5" fill="none" stroke="#c0392b" stroke-width="0.35"/><polyline class="run" points="207.5,163.5 215,163.5" fill="none" stroke="#5dade2" stroke-width="0.35" stroke-dasharray="3 2"/><path class="flow-arrow" d="M211.25 163.5 L209.25 164.5 L209.25 162.5 Z" fill="#5dade2" stroke="none"/><polyline class="run" points="220,163.5 225,163.5" fill="none" stroke="#5dade2" stroke-width="0.35" stroke-dasharray="3 2"/><path class="flow-arrow" d="M222.5 163.5 L220.5 164.5 L220.5 162.5 Z" fill="#5dade2" stroke="none"/><polyline class="run" points="232.5,126 232.5,121" fill="none" stroke="#d68910" stroke-width="0.35"/><path class="flow-arrow" d="M232.5 123.5 L233.5 125.5 L231.5 125.5 Z" fill="#d68910" stroke="none"/><polyline class="run" points="232.5,116 232.5,113.5" fill="none" stroke="#d68910" stroke-width="0.35"/><polyline class="run" points="232.5,108.5 232.5,106" fill="none" stroke="#d68910" stroke-width="0.35"/><polyline class="run" points="232.5,101 232.5,86" fill="none" stroke="#d68910" stroke-width="0.35"/><path class="flow-arrow" d="M232.5 93.5 L233.5 95.5 L231.5 95.5 Z" fill="#d68910" stroke="none"/><g class="symbol" data-component-id="pdc-slave" data-symbol-id="heat-pump-air-water" transform="translate(60 86)" stroke="black" stroke-width="0.35" fill="none"><rect x="2.4" y="3" width="35.2" height="24"/><circle cx="14.368" cy="15" r="7.2"/><line x1="14.368" y1="15" x2="14.368" y2="9.6"/><line x1="14.368" y1="15" x2="9.688" y2="17.736"/><line x1="14.368" y1="15" x2="19.048" y2="17.736"/><line x1="24.224" y1="6.6" x2="24.224" y2="23.4"/><line x1="27.392" y1="6.6" x2="27.392" y2="23.4"/><line x1="30.56" y1="6.6" x2="30.56" y2="23.4"/><line x1="33.728" y1="6.6" x2="33.728" y2="23.4"/><line x1="40" y1="5" x2="37.6" y2="5"/><line x1="40" y1="20" x2="37.6" y2="20"/></g><g class="symbol" data-component-id="pdc-master" data-symbol-id="heat-pump-air-water" transform="translate(60 126)" stroke="black" stroke-width="0.35" fill="none"><rect x="2.4" y="3" width="35.2" height="24"/><circle cx="14.368" cy="15" r="7.2"/><line x1="14.368" y1="15" x2="14.368" y2="9.6"/><line x1="14.368" y1="15" x2="9.688" y2="17.736"/><line x1="14.368" y1="15" x2="19.048" y2="17.736"/><line x1="24.224" y1="6.6" x2="24.224" y2="23.4"/><line x1="27.392" y1="6.6" x2="27.392" y2="23.4"/><line x1="30.56" y1="6.6" x2="30.56" y2="23.4"/><line x1="33.728" y1="6.6" x2="33.728" y2="23.4"/><line x1="40" y1="5" x2="37.6" y2="5"/><line x1="40" y1="20" x2="37.6" y2="20"/></g><g class="symbol" data-component-id="acquedotto" data-symbol-id="network-boundary" transform="translate(202.5 161)" stroke="black" stroke-width="0.35" fill="none"><line x1="0" y1="2.5" x2="5" y2="2.5"/><path class="flow-glyph" data-port="a" d="M5 2.5 L2.25 3.5 L2.25 1.5 Z" fill="black" stroke="none"/></g><g class="symbol" data-component-id="utenze" data-symbol-id="network-boundary" transform="translate(230 81)" stroke="black" stroke-width="0.35" fill="none"><g transform="translate(5 0) rotate(90)"><line x1="0" y1="2.5" x2="5" y2="2.5"/></g><path class="flow-glyph" data-port="a" d="M2.5 2.25 L3.5 5 L1.5 5 Z" fill="black" stroke="none"/></g><g class="symbol" data-component-id="accumulo" data-symbol-id="buffer-combined" transform="translate(225 126)" stroke="black" stroke-width="0.35" fill="none"><rect x="3.5" y="2.7" width="18" height="39.6" rx="3.24"/><path class="coil" data-from="cold_in" data-to="dhw_out" d="M0 37.5 L15.1288 37.5 A2.3712 2.3712 0 0 0 15.1288 32.7576 L9.8712 32.7576 A2.3712 2.3712 0 0 1 9.8712 28.0152 L15.1288 28.0152 A2.3712 2.3712 0 0 0 15.1288 23.2728 L9.8712 23.2728 A2.3712 2.3712 0 0 1 9.8712 18.5304 L15.1288 18.5304 A2.3712 2.3712 0 0 0 15.1288 13.788 L9.8712 13.788 A2.3712 2.3712 0 0 1 7.5 11.4168 L7.5 2.7 L7.5 0"/><line x1="0" y1="5" x2="3.5" y2="5"/><line x1="0" y1="20" x2="3.5" y2="20"/><line x1="25" y1="5" x2="21.5" y2="5"/><line x1="25" y1="20" x2="21.5" y2="20"/><line x1="17.5" y1="0" x2="17.5" y2="2.7"/><line x1="12.5" y1="45" x2="12.5" y2="42.3"/><line x1="25" y1="32.5" x2="21.5" y2="32.5"/></g><g class="symbol" data-component-id="air-vent-accumulo-primary-out" data-symbol-id="air-vent" transform="translate(240 111)" stroke="black" stroke-width="0.35" fill="none"><line x1="2.5" y1="10" x2="2.5" y2="6.2"/><circle cx="2.5" cy="4.2" r="1.7"/><line x1="1" y1="1.4" x2="4" y2="1.4"/></g><g class="symbol" data-component-id="drain-connection-accumulo-primary-in" data-symbol-id="drain-connection" transform="translate(235 176)" stroke="black" stroke-width="0.35" fill="none"><line x1="2.5" y1="0" x2="2.5" y2="3"/><path d="M1.3 3 L3.7 3 L2.5 4.8 Z"/><path d="M1.3 6.6 L3.7 6.6 L2.5 4.8 Z"/><line x1="2.5" y1="6.6" x2="2.5" y2="8.8"/><line x1="1.3" y1="8.8" x2="3.7" y2="8.8"/></g><g class="symbol" data-component-id="radiatori" data-symbol-id="radiator" transform="translate(285 123.5)" stroke="black" stroke-width="0.35" fill="none"><rect x="2" y="2.25" width="16" height="10.5"/><line x1="5.2" y1="2.25" x2="5.2" y2="12.75"/><line x1="8.4" y1="2.25" x2="8.4" y2="12.75"/><line x1="11.6" y1="2.25" x2="11.6" y2="12.75"/><line x1="14.8" y1="2.25" x2="14.8" y2="12.75"/><line x1="0" y1="7.5" x2="2" y2="7.5"/><line x1="18" y1="7.5" x2="20" y2="7.5"/></g><g class="symbol" data-component-id="collettore-mandata" data-symbol-id="tee-junction" transform="translate(130 128.5)" stroke="black" stroke-width="0.35" fill="none"><line x1="0" y1="2.5" x2="5" y2="2.5"/><line x1="2.5" y1="0" x2="2.5" y2="2.5"/><circle cx="2.5" cy="2.5" r="0.7" fill="currentColor"/></g><g class="symbol" data-component-id="tee-valve-safety-collettore-mandata-b" data-symbol-id="tee-branch" transform="translate(145 128.5)" stroke="black" stroke-width="0.35" fill="none"><line x1="0" y1="2.5" x2="5" y2="2.5"/><line x1="2.5" y1="0" x2="2.5" y2="2.5"/><circle cx="2.5" cy="2.5" r="0.7" fill="currentColor"/></g><g class="symbol" data-component-id="valve-safety-collettore-mandata-b" data-symbol-id="valve-safety" transform="translate(145 113.5)" stroke="black" stroke-width="0.35" fill="none"><line x1="2.5" y1="10" x2="2.5" y2="6.2"/><path d="M0.9 4.2 L4.1 4.2 L2.5 6.2 Z"/><path d="M2.5 4.2 L1.1 3.4 L3.9 2.6 L1.1 1.8 L3.9 1"/></g><g class="symbol" data-component-id="collettore-ritorno" data-symbol-id="tee-junction" transform="translate(122.5 143.5)" stroke="black" stroke-width="0.35" fill="none"><line x1="0" y1="2.5" x2="5" y2="2.5"/><line x1="2.5" y1="0" x2="2.5" y2="2.5"/><circle cx="2.5" cy="2.5" r="0.7" fill="currentColor"/></g><g class="symbol" data-component-id="tee-pressure-gauge-collettore-ritorno-a" data-symbol-id="tee-branch" transform="translate(157.5 143.5)" stroke="black" stroke-width="0.35" fill="none"><g transform="translate(5 5) rotate(180)"><line x1="0" y1="2.5" x2="5" y2="2.5"/><line x1="2.5" y1="0" x2="2.5" y2="2.5"/><circle cx="2.5" cy="2.5" r="0.7" fill="currentColor"/></g></g><g class="symbol" data-component-id="pressure-gauge-collettore-ritorno-a" data-symbol-id="pressure-gauge" transform="translate(157.5 163.5)" stroke="black" stroke-width="0.35" fill="none"><g transform="translate(5 10) rotate(180)"><line x1="2.5" y1="10" x2="2.5" y2="5"/><circle cx="2.5" cy="3" r="2"/><g data-glyph="lettera" transform="rotate(-180 2.5 3)"><line x1="2" y1="2" x2="2" y2="4.1"/><path d="M2 2 Q3.7 2.5 2 3"/></g></g></g><g class="symbol" data-component-id="tee-filling-unit-collettore-ritorno-a" data-symbol-id="tee-branch" transform="translate(172.5 143.5)" stroke="black" stroke-width="0.35" fill="none"><g transform="translate(5 5) rotate(180)"><line x1="0" y1="2.5" x2="5" y2="2.5"/><line x1="2.5" y1="0" x2="2.5" y2="2.5"/><circle cx="2.5" cy="2.5" r="0.7" fill="currentColor"/></g></g><g class="symbol" data-component-id="filling-unit-collettore-ritorno-a" data-symbol-id="filling-unit" transform="translate(172.5 163.5)" stroke="black" stroke-width="0.35" fill="none"><line x1="2.5" y1="0" x2="2.5" y2="2.4"/><path d="M1.3 2.4 L3.7 2.4 L2.5 4 Z"/><path d="M1.3 5.6 L3.7 5.6 L2.5 4 Z"/><line x1="2.5" y1="5.6" x2="2.5" y2="6.8"/><path d="M1.3 6.8 L3.7 6.8 L2.5 9.2 Z"/></g><g class="symbol" data-component-id="tee-expansion-connection-collettore-ritorno-a" data-symbol-id="tee-branch" transform="translate(187.5 143.5)" stroke="black" stroke-width="0.35" fill="none"><g transform="translate(5 5) rotate(180)"><line x1="0" y1="2.5" x2="5" y2="2.5"/><line x1="2.5" y1="0" x2="2.5" y2="2.5"/><circle cx="2.5" cy="2.5" r="0.7" fill="currentColor"/></g></g><g class="symbol" data-component-id="expansion-connection-collettore-ritorno-a" data-symbol-id="expansion-connection" transform="translate(187.5 163.5)" stroke="black" stroke-width="0.35" fill="none"><line x1="2.5" y1="0" x2="2.5" y2="3"/><rect x="0.5" y="3" width="4" height="6" rx="1.2"/><line x1="0.5" y1="6" x2="4.5" y2="6"/></g><g class="symbol" data-component-id="valve-isolation-pdc-master-water-supply" data-symbol-id="valve-isolation" transform="translate(105 128.5)" stroke="black" stroke-width="0.35" fill="none"><line x1="0" y1="2.5" x2="0.8333" y2="2.5"/><line x1="4.1667" y1="2.5" x2="5" y2="2.5"/><path d="M0.8333 0.5 L0.8333 4.5 L2.5 2.5 Z"/><path d="M4.1667 0.5 L4.1667 4.5 L2.5 2.5 Z"/></g><g class="symbol" data-component-id="valve-isolation-pdc-slave-water-supply" data-symbol-id="valve-isolation" transform="translate(105 88.5)" stroke="black" stroke-width="0.35" fill="none"><line x1="0" y1="2.5" x2="0.8333" y2="2.5"/><line x1="4.1667" y1="2.5" x2="5" y2="2.5"/><path d="M0.8333 0.5 L0.8333 4.5 L2.5 2.5 Z"/><path d="M4.1667 0.5 L4.1667 4.5 L2.5 2.5 Z"/></g><g class="symbol" data-component-id="valve-isolation-accumulo-primary-in" data-symbol-id="valve-isolation" transform="translate(215 128.5)" stroke="black" stroke-width="0.35" fill="none"><line x1="0" y1="2.5" x2="0.8333" y2="2.5"/><line x1="4.1667" y1="2.5" x2="5" y2="2.5"/><path d="M0.8333 0.5 L0.8333 4.5 L2.5 2.5 Z"/><path d="M4.1667 0.5 L4.1667 4.5 L2.5 2.5 Z"/></g><g class="symbol" data-component-id="valve-isolation-accumulo-primary-out" data-symbol-id="valve-isolation" transform="translate(215 143.5)" stroke="black" stroke-width="0.35" fill="none"><line x1="0" y1="2.5" x2="0.8333" y2="2.5"/><line x1="4.1667" y1="2.5" x2="5" y2="2.5"/><path d="M0.8333 0.5 L0.8333 4.5 L2.5 2.5 Z"/><path d="M4.1667 0.5 L4.1667 4.5 L2.5 2.5 Z"/></g><g class="symbol" data-component-id="dirt-separator-collettore-ritorno-a" data-symbol-id="dirt-separator" transform="translate(145 141)" stroke="black" stroke-width="0.35" fill="none"><line x1="0" y1="5" x2="5" y2="5"/><rect x="1" y="4.1" width="3" height="1.8"/><line x1="2.5" y1="5" x2="2.5" y2="7.6"/><path d="M1.25 6.6 L3.75 6.6 L2.5 7.6 Z" fill="black"/></g><g class="symbol" data-component-id="valve-isolation-dirt-separator-collettore-ritorno-a-b" data-symbol-id="valve-isolation" transform="translate(137.5 143.5)" stroke="black" stroke-width="0.35" fill="none"><line x1="0" y1="2.5" x2="0.8333" y2="2.5"/><line x1="4.1667" y1="2.5" x2="5" y2="2.5"/><path d="M0.8333 0.5 L0.8333 4.5 L2.5 2.5 Z"/><path d="M4.1667 0.5 L4.1667 4.5 L2.5 2.5 Z"/></g><g class="symbol" data-component-id="valve-isolation-strainer-pdc-master-water-return-a" data-symbol-id="valve-isolation" transform="translate(112.5 143.5)" stroke="black" stroke-width="0.35" fill="none"><line x1="0" y1="2.5" x2="0.8333" y2="2.5"/><line x1="4.1667" y1="2.5" x2="5" y2="2.5"/><path d="M0.8333 0.5 L0.8333 4.5 L2.5 2.5 Z"/><path d="M4.1667 0.5 L4.1667 4.5 L2.5 2.5 Z"/></g><g class="symbol" data-component-id="strainer-pdc-master-water-return" data-symbol-id="strainer" transform="translate(105 143.5)" stroke="black" stroke-width="0.5" fill="none"><line x1="0" y1="2.5" x2="5" y2="2.5"/><line x1="0.5" y1="1.25" x2="0.5" y2="3.75"/><line x1="4.5" y1="1.25" x2="4.5" y2="3.75"/><line x1="2.5" y1="2.5" x2="0.9" y2="4.1"/><line x1="0.5464" y1="3.7464" x2="1.2536" y2="4.4536"/></g><g class="symbol" data-component-id="valve-isolation-strainer-pdc-slave-water-return-a" data-symbol-id="valve-isolation" transform="translate(112.5 103.5)" stroke="black" stroke-width="0.35" fill="none"><line x1="0" y1="2.5" x2="0.8333" y2="2.5"/><line x1="4.1667" y1="2.5" x2="5" y2="2.5"/><path d="M0.8333 0.5 L0.8333 4.5 L2.5 2.5 Z"/><path d="M4.1667 0.5 L4.1667 4.5 L2.5 2.5 Z"/></g><g class="symbol" data-component-id="strainer-pdc-slave-water-return" data-symbol-id="strainer" transform="translate(105 103.5)" stroke="black" stroke-width="0.5" fill="none"><line x1="0" y1="2.5" x2="5" y2="2.5"/><line x1="0.5" y1="1.25" x2="0.5" y2="3.75"/><line x1="4.5" y1="1.25" x2="4.5" y2="3.75"/><line x1="2.5" y1="2.5" x2="0.9" y2="4.1"/><line x1="0.5464" y1="3.7464" x2="1.2536" y2="4.4536"/></g><g class="symbol" data-component-id="valve-isolation-accumulo-secondary-out" data-symbol-id="valve-isolation" transform="translate(255 128.5)" stroke="black" stroke-width="0.35" fill="none"><line x1="0" y1="2.5" x2="0.8333" y2="2.5"/><line x1="4.1667" y1="2.5" x2="5" y2="2.5"/><path d="M0.8333 0.5 L0.8333 4.5 L2.5 2.5 Z"/><path d="M4.1667 0.5 L4.1667 4.5 L2.5 2.5 Z"/></g><g class="symbol" data-component-id="circolatore" data-symbol-id="pump-circulator" transform="translate(262.5 126)" stroke="black" stroke-width="0.35" fill="none"><line x1="0" y1="5" x2="2" y2="5"/><line x1="8" y1="5" x2="10" y2="5"/><circle cx="5" cy="5" r="3"/><path d="M3.5 2.402 L3.5 7.598 L8 5 Z" fill="black"/></g><g class="symbol" data-component-id="valve-isolation-circolatore-b" data-symbol-id="valve-isolation" transform="translate(275 128.5)" stroke="black" stroke-width="0.35" fill="none"><line x1="0" y1="2.5" x2="0.8333" y2="2.5"/><line x1="4.1667" y1="2.5" x2="5" y2="2.5"/><path d="M0.8333 0.5 L0.8333 4.5 L2.5 2.5 Z"/><path d="M4.1667 0.5 L4.1667 4.5 L2.5 2.5 Z"/></g><g class="symbol" data-component-id="valve-isolation-accumulo-secondary-in" data-symbol-id="valve-isolation" transform="translate(255 143.5)" stroke="black" stroke-width="0.35" fill="none"><line x1="0" y1="2.5" x2="0.8333" y2="2.5"/><line x1="4.1667" y1="2.5" x2="5" y2="2.5"/><path d="M0.8333 0.5 L0.8333 4.5 L2.5 2.5 Z"/><path d="M4.1667 0.5 L4.1667 4.5 L2.5 2.5 Z"/></g><g class="symbol" data-component-id="valve-isolation-locked-open-expansion-connection-collettore-ritorno-a-a" data-symbol-id="valve-isolation" transform="translate(187.5 153.5)" stroke="black" stroke-width="0.35" fill="none"><g transform="translate(5 0) rotate(90)"><line x1="0" y1="2.5" x2="0.8333" y2="2.5"/><line x1="4.1667" y1="2.5" x2="5" y2="2.5"/><path d="M0.8333 0.5 L0.8333 4.5 L2.5 2.5 Z"/><path d="M4.1667 0.5 L4.1667 4.5 L2.5 2.5 Z"/></g></g><g class="symbol" data-component-id="valve-isolation-filling-unit-collettore-ritorno-a-a" data-symbol-id="valve-isolation" transform="translate(172.5 153.5)" stroke="black" stroke-width="0.35" fill="none"><g transform="translate(5 0) rotate(90)"><line x1="0" y1="2.5" x2="0.8333" y2="2.5"/><line x1="4.1667" y1="2.5" x2="5" y2="2.5"/><path d="M0.8333 0.5 L0.8333 4.5 L2.5 2.5 Z"/><path d="M4.1667 0.5 L4.1667 4.5 L2.5 2.5 Z"/></g></g><g class="symbol" data-component-id="valve-isolation-pressure-gauge-collettore-ritorno-a-a" data-symbol-id="valve-isolation" transform="translate(157.5 153.5)" stroke="black" stroke-width="0.35" fill="none"><g transform="translate(5 0) rotate(90)"><line x1="0" y1="2.5" x2="0.8333" y2="2.5"/><line x1="4.1667" y1="2.5" x2="5" y2="2.5"/><path d="M0.8333 0.5 L0.8333 4.5 L2.5 2.5 Z"/><path d="M4.1667 0.5 L4.1667 4.5 L2.5 2.5 Z"/></g></g><g class="symbol" data-component-id="valve-isolation-dhw-acquedotto-a" data-symbol-id="valve-isolation" transform="translate(215 161)" stroke="black" stroke-width="0.35" fill="none"><line x1="0" y1="2.5" x2="0.8333" y2="2.5"/><line x1="4.1667" y1="2.5" x2="5" y2="2.5"/><path d="M0.8333 0.5 L0.8333 4.5 L2.5 2.5 Z"/><path d="M4.1667 0.5 L4.1667 4.5 L2.5 2.5 Z"/></g><g class="symbol" data-component-id="valve-isolation-dhw-hot-accumulo-dhw-out" data-symbol-id="valve-isolation" transform="translate(230 116)" stroke="black" stroke-width="0.35" fill="none"><g transform="translate(5 0) rotate(90)"><line x1="0" y1="2.5" x2="0.8333" y2="2.5"/><line x1="4.1667" y1="2.5" x2="5" y2="2.5"/><path d="M0.8333 0.5 L0.8333 4.5 L2.5 2.5 Z"/><path d="M4.1667 0.5 L4.1667 4.5 L2.5 2.5 Z"/></g></g><g class="symbol" data-component-id="mixing-valve-thermostatic-accumulo-dhw-out" data-symbol-id="mixing-valve-thermostatic" transform="translate(227.5 108.5)" stroke="black" stroke-width="0.35" fill="none"><g transform="translate(10 0) rotate(90)"><line x1="0" y1="5" x2="0.85" y2="5"/><line x1="4.15" y1="5" x2="5" y2="5"/><path d="M0.85 3.68 L0.85 6.32 L2.5 5 Z"/><path d="M4.15 3.68 L4.15 6.32 L2.5 5 Z"/><path d="M1.18 6.65 L3.82 6.65 L2.5 5 Z"/><line x1="2.5" y1="6.65" x2="2.5" y2="8.5"/><line x1="2.5" y1="5" x2="2.5" y2="3"/><line x1="1.7" y1="3" x2="3.3" y2="3"/></g></g><g class="symbol" data-component-id="valve-isolation-dhw-hot-utenze-a" data-symbol-id="valve-isolation" transform="translate(230 101)" stroke="black" stroke-width="0.35" fill="none"><g transform="translate(5 0) rotate(90)"><line x1="0" y1="2.5" x2="0.8333" y2="2.5"/><line x1="4.1667" y1="2.5" x2="5" y2="2.5"/><path d="M0.8333 0.5 L0.8333 4.5 L2.5 2.5 Z"/><path d="M4.1667 0.5 L4.1667 4.5 L2.5 2.5 Z"/></g></g><text class="label" data-role="tag" x="77.5" y="84.5" font-size="1.8" fill="black">PDC-02</text><text class="label" data-role="tag" x="77.5" y="124.5" font-size="1.8" fill="black">PDC-01</text><text class="label" data-role="tag" x="202.5" y="159.5" font-size="1.8" fill="black">AF-01</text><text class="label" data-role="tag" x="230" y="79.5" font-size="1.8" fill="black">ACS-01</text><text class="label" data-role="tag" x="235" y="124.5" font-size="1.8" fill="black">ACC-01</text><text class="label" data-role="tag" x="292.5" y="122" font-size="1.8" fill="black">RAD-01</text><text class="label" data-role="tag" x="265" y="124.5" font-size="1.8" fill="black">CIR-01</text><text class="label" data-role="address" x="101.5" y="101.9" font-size="1.8" fill="black">RP.01a.N.03</text><text class="label" data-role="address" x="101.5" y="141.9" font-size="1.8" fill="black">CP.01.N.01</text><text class="label" data-role="address" x="200" y="169.3" font-size="1.8" fill="black">AF.01.N.01</text><text class="label" data-role="address" x="236.5" y="84.4" font-size="1.8" fill="black">ACS.01.N.04</text><text class="label" data-role="address" x="251.5" y="151.7" font-size="1.8" fill="black">CP.01.N.06</text><text class="label" data-role="address" x="246.5" y="116.9" font-size="1.8" fill="black">CP.01.N.06.1</text><text class="label" data-role="address" x="241.5" y="181.9" font-size="1.8" fill="black">CP.01.N.06.2</text><text class="label" data-role="address" x="290" y="141.8" font-size="1.8" fill="black">CS.01.N.04</text><text class="label" data-role="address" x="127.5" y="136.8" font-size="1.8" fill="black">CP.01.N.03</text><text class="label" data-role="address" x="142.5" y="136.8" font-size="1.8" fill="black">CP.01.N.04</text><text class="label" data-role="address" x="151.5" y="119.4" font-size="1.8" fill="black">CP.01.N.04.1</text><text class="label" data-role="address" x="120" y="151.8" font-size="1.8" fill="black">RP.01.N.07</text><text class="label" data-role="address" x="155" y="142" font-size="1.8" fill="black">RP.01.N.04</text><text class="label" data-role="address" x="143.04" y="169.4" font-size="1.8" fill="black">RP.01.N.04.2</text><text class="label" data-role="address" x="170" y="142" font-size="1.8" fill="black">RP.01.N.03</text><text class="label" data-role="address" x="167.5" y="176.8" font-size="1.8" fill="black">RP.01.N.03.2</text><text class="label" data-role="address" x="185" y="142" font-size="1.8" fill="black">RP.01.N.02</text><text class="label" data-role="address" x="182.5" y="176.8" font-size="1.8" fill="black">RP.01.N.02.2</text><text class="label" data-role="address" x="102.5" y="127" font-size="1.8" fill="black">CP.01.N.02</text><text class="label" data-role="address" x="102.5" y="87" font-size="1.8" fill="black">CP.02.N.01</text><text class="label" data-role="address" x="212.5" y="127" font-size="1.8" fill="black">CP.01.N.05</text><text class="label" data-role="address" x="212.5" y="142" font-size="1.8" fill="black">RP.01.N.01</text><text class="label" data-role="address" x="142.5" y="139.5" font-size="1.8" fill="black">RP.01.N.05</text><text class="label" data-role="address" x="135" y="154.1" font-size="1.8" fill="black">RP.01.N.06</text><text class="label" data-role="address" x="110" y="139.7" font-size="1.8" fill="black">RP.01.N.08</text><text class="label" data-role="address" x="102.5" y="151.8" font-size="1.8" fill="black">RP.01.N.09</text><text class="label" data-role="address" x="110" y="111.8" font-size="1.8" fill="black">RP.01a.N.01</text><text class="label" data-role="address" x="102.5" y="99.7" font-size="1.8" fill="black">RP.01a.N.02</text><text class="label" data-role="address" x="252.5" y="124.7" font-size="1.8" fill="black">CS.01.N.01</text><text class="label" data-role="address" x="262.5" y="139.3" font-size="1.8" fill="black">CS.01.N.02</text><text class="label" data-role="address" x="272.5" y="127" font-size="1.8" fill="black">CS.01.N.03</text><text class="label" data-role="address" x="252.5" y="142" font-size="1.8" fill="black">RS.01.N.01</text><text class="label" data-role="address" x="194" y="156.9" font-size="1.8" fill="black">RP.01.N.02.1</text><text class="label" data-role="address" x="143.04" y="156.9" font-size="1.8" fill="black">RP.01.N.04.1</text><text class="label" data-role="address" x="212.5" y="159.5" font-size="1.8" fill="black">AF.01.N.02</text><text class="label" data-role="address" x="216.62" y="119.4" font-size="1.8" fill="black">ACS.01.N.01</text><text class="label" data-role="address" x="214.12" y="111.9" font-size="1.8" fill="black">ACS.01.N.02</text><text class="label" data-role="address" x="236.5" y="104.4" font-size="1.8" fill="black">ACS.01.N.03</text><g class="legend-symbol" data-symbol-id="air-vent" transform="translate(364.5 15.5) scale(0.8)" stroke="black" stroke-width="0.225" fill="none"><line x1="2.5" y1="10" x2="2.5" y2="6.2"/><circle cx="2.5" cy="4.2" r="1.7"/><line x1="1" y1="1.4" x2="4" y2="1.4"/></g><text class="legend-name" x="372.5" y="20.4" font-size="1.8" fill="black">Valvola di sfiato aria</text><g class="legend-symbol" data-symbol-id="buffer-combined" transform="translate(364.278 23) scale(0.177778)" stroke="black" stroke-width="1.0125" fill="none"><rect x="3.5" y="2.7" width="18" height="39.6" rx="3.24"/><path class="coil" data-from="cold_in" data-to="dhw_out" d="M0 37.5 L15.1288 37.5 A2.3712 2.3712 0 0 0 15.1288 32.7576 L9.8712 32.7576 A2.3712 2.3712 0 0 1 9.8712 28.0152 L15.1288 28.0152 A2.3712 2.3712 0 0 0 15.1288 23.2728 L9.8712 23.2728 A2.3712 2.3712 0 0 1 9.8712 18.5304 L15.1288 18.5304 A2.3712 2.3712 0 0 0 15.1288 13.788 L9.8712 13.788 A2.3712 2.3712 0 0 1 7.5 11.4168 L7.5 2.7 L7.5 0"/><line x1="0" y1="5" x2="3.5" y2="5"/><line x1="0" y1="20" x2="3.5" y2="20"/><line x1="25" y1="5" x2="21.5" y2="5"/><line x1="25" y1="20" x2="21.5" y2="20"/><line x1="17.5" y1="0" x2="17.5" y2="2.7"/><line x1="12.5" y1="45" x2="12.5" y2="42.3"/><line x1="25" y1="32.5" x2="21.5" y2="32.5"/></g><text class="legend-name" x="372.5" y="27.9" font-size="1.8" fill="black">Accumulo combinato</text><g class="legend-symbol" data-symbol-id="dirt-separator" transform="translate(364.5 30.5) scale(0.8)" stroke="black" stroke-width="0.225" fill="none"><line x1="0" y1="5" x2="5" y2="5"/><rect x="1" y="4.1" width="3" height="1.8"/><line x1="2.5" y1="5" x2="2.5" y2="7.6"/><path d="M1.25 6.6 L3.75 6.6 L2.5 7.6 Z" fill="black"/></g><text class="legend-name" x="372.5" y="35.4" font-size="1.8" fill="black">Defangatore</text><g class="legend-symbol" data-symbol-id="drain-connection" transform="translate(364.5 38) scale(0.8)" stroke="black" stroke-width="0.225" fill="none"><line x1="2.5" y1="0" x2="2.5" y2="3"/><path d="M1.3 3 L3.7 3 L2.5 4.8 Z"/><path d="M1.3 6.6 L3.7 6.6 L2.5 4.8 Z"/><line x1="2.5" y1="6.6" x2="2.5" y2="8.8"/><line x1="1.3" y1="8.8" x2="3.7" y2="8.8"/></g><text class="legend-name" x="372.5" y="42.9" font-size="1.8" fill="black">Attacco di scarico</text><g class="legend-symbol" data-symbol-id="expansion-connection" transform="translate(364.5 45.5) scale(0.8)" stroke="black" stroke-width="0.225" fill="none"><line x1="2.5" y1="0" x2="2.5" y2="3"/><rect x="0.5" y="3" width="4" height="6" rx="1.2"/><line x1="0.5" y1="6" x2="4.5" y2="6"/></g><text class="legend-name" x="372.5" y="50.4" font-size="1.8" fill="black">Vaso di espansione</text><g class="legend-symbol" data-symbol-id="filling-unit" transform="translate(364.5 53) scale(0.8)" stroke="black" stroke-width="0.225" fill="none"><line x1="2.5" y1="0" x2="2.5" y2="2.4"/><path d="M1.3 2.4 L3.7 2.4 L2.5 4 Z"/><path d="M1.3 5.6 L3.7 5.6 L2.5 4 Z"/><line x1="2.5" y1="5.6" x2="2.5" y2="6.8"/><path d="M1.3 6.8 L3.7 6.8 L2.5 9.2 Z"/></g><text class="legend-name" x="372.5" y="57.9" font-size="1.8" fill="black">Gruppo di riempimento</text><g class="legend-symbol" data-symbol-id="heat-pump-air-water" transform="translate(362.5 61.5) scale(0.2)" stroke="black" stroke-width="0.9" fill="none"><rect x="2.4" y="3" width="35.2" height="24"/><circle cx="14.368" cy="15" r="7.2"/><line x1="14.368" y1="15" x2="14.368" y2="9.6"/><line x1="14.368" y1="15" x2="9.688" y2="17.736"/><line x1="14.368" y1="15" x2="19.048" y2="17.736"/><line x1="24.224" y1="6.6" x2="24.224" y2="23.4"/><line x1="27.392" y1="6.6" x2="27.392" y2="23.4"/><line x1="30.56" y1="6.6" x2="30.56" y2="23.4"/><line x1="33.728" y1="6.6" x2="33.728" y2="23.4"/><line x1="40" y1="5" x2="37.6" y2="5"/><line x1="40" y1="20" x2="37.6" y2="20"/></g><text class="legend-name" x="372.5" y="65.4" font-size="1.8" fill="black">Pompa di calore aria-acqua</text><g class="legend-symbol" data-symbol-id="mixing-valve-thermostatic" transform="translate(364.5 68) scale(0.8)" stroke="black" stroke-width="0.225" fill="none"><line x1="0" y1="5" x2="0.85" y2="5"/><line x1="4.15" y1="5" x2="5" y2="5"/><path d="M0.85 3.68 L0.85 6.32 L2.5 5 Z"/><path d="M4.15 3.68 L4.15 6.32 L2.5 5 Z"/><path d="M1.18 6.65 L3.82 6.65 L2.5 5 Z"/><line x1="2.5" y1="6.65" x2="2.5" y2="8.5"/><line x1="2.5" y1="5" x2="2.5" y2="3"/><line x1="1.7" y1="3" x2="3.3" y2="3"/></g><text class="legend-name" x="372.5" y="72.9" font-size="1.8" fill="black">Valvola miscelatrice termostatica</text><g class="legend-symbol" data-symbol-id="network-boundary" transform="translate(364 77) scale(1)" stroke="black" stroke-width="0.18" fill="none"><line x1="0" y1="2.5" x2="5" y2="2.5"/><path class="flow-glyph" data-port="a" d="M5 2.5 L2.25 3.5 L2.25 1.5 Z" fill="black" stroke="none"/></g><text class="legend-name" x="372.5" y="80.4" font-size="1.8" fill="black">Confine di rete</text><g class="legend-symbol" data-symbol-id="pressure-gauge" transform="translate(364.5 83) scale(0.8)" stroke="black" stroke-width="0.225" fill="none"><line x1="2.5" y1="10" x2="2.5" y2="5"/><circle cx="2.5" cy="3" r="2"/><g data-glyph="lettera"><line x1="2" y1="2" x2="2" y2="4.1"/><path d="M2 2 Q3.7 2.5 2 3"/></g></g><text class="legend-name" x="372.5" y="87.9" font-size="1.8" fill="black">Manometro</text><g class="legend-symbol" data-symbol-id="pump-circulator" transform="translate(362.5 90.5) scale(0.8)" stroke="black" stroke-width="0.225" fill="none"><line x1="0" y1="5" x2="2" y2="5"/><line x1="8" y1="5" x2="10" y2="5"/><circle cx="5" cy="5" r="3"/><path d="M3.5 2.402 L3.5 7.598 L8 5 Z" fill="black"/></g><text class="legend-name" x="372.5" y="95.4" font-size="1.8" fill="black">Pompa di circolazione</text><g class="legend-symbol" data-symbol-id="radiator" transform="translate(362.5 99) scale(0.4)" stroke="black" stroke-width="0.45" fill="none"><rect x="2" y="2.25" width="16" height="10.5"/><line x1="5.2" y1="2.25" x2="5.2" y2="12.75"/><line x1="8.4" y1="2.25" x2="8.4" y2="12.75"/><line x1="11.6" y1="2.25" x2="11.6" y2="12.75"/><line x1="14.8" y1="2.25" x2="14.8" y2="12.75"/><line x1="0" y1="7.5" x2="2" y2="7.5"/><line x1="18" y1="7.5" x2="20" y2="7.5"/></g><text class="legend-name" x="372.5" y="102.9" font-size="1.8" fill="black">Radiatore</text><g class="legend-symbol" data-symbol-id="strainer" transform="translate(364 107) scale(1)" stroke="black" stroke-width="0.5" fill="none"><line x1="0" y1="2.5" x2="5" y2="2.5"/><line x1="0.5" y1="1.25" x2="0.5" y2="3.75"/><line x1="4.5" y1="1.25" x2="4.5" y2="3.75"/><line x1="2.5" y1="2.5" x2="0.9" y2="4.1"/><line x1="0.5464" y1="3.7464" x2="1.2536" y2="4.4536"/></g><text class="legend-name" x="372.5" y="110.4" font-size="1.8" fill="black">Filtro a Y</text><g class="legend-symbol" data-symbol-id="tee-branch" transform="translate(364 114.5) scale(1)" stroke="black" stroke-width="0.18" fill="none"><line x1="0" y1="2.5" x2="5" y2="2.5"/><line x1="2.5" y1="0" x2="2.5" y2="2.5"/><circle cx="2.5" cy="2.5" r="0.7" fill="currentColor"/></g><text class="legend-name" x="372.5" y="117.9" font-size="1.8" fill="black">Derivazione a T</text><g class="legend-symbol" data-symbol-id="tee-junction" transform="translate(364 122) scale(1)" stroke="black" stroke-width="0.18" fill="none"><line x1="0" y1="2.5" x2="5" y2="2.5"/><line x1="2.5" y1="0" x2="2.5" y2="2.5"/><circle cx="2.5" cy="2.5" r="0.7" fill="currentColor"/></g><text class="legend-name" x="372.5" y="125.4" font-size="1.8" fill="black">Raccordo a T</text><g class="legend-symbol" data-symbol-id="valve-isolation" transform="translate(364 129.5) scale(1)" stroke="black" stroke-width="0.18" fill="none"><line x1="0" y1="2.5" x2="0.8333" y2="2.5"/><line x1="4.1667" y1="2.5" x2="5" y2="2.5"/><path d="M0.8333 0.5 L0.8333 4.5 L2.5 2.5 Z"/><path d="M4.1667 0.5 L4.1667 4.5 L2.5 2.5 Z"/></g><text class="legend-name" x="372.5" y="132.9" font-size="1.8" fill="black">Valvola di intercettazione</text><g class="legend-symbol" data-symbol-id="valve-safety" transform="translate(364.5 135.5) scale(0.8)" stroke="black" stroke-width="0.225" fill="none"><line x1="2.5" y1="10" x2="2.5" y2="6.2"/><path d="M0.9 4.2 L4.1 4.2 L2.5 6.2 Z"/><path d="M2.5 4.2 L1.1 3.4 L3.9 2.6 L1.1 1.8 L3.9 1"/></g><text class="legend-name" x="372.5" y="140.4" font-size="1.8" fill="black">Valvola di sicurezza</text><line class="legend-network" x1="362.5" y1="155" x2="370.5" y2="155" stroke="#5dade2" stroke-width="0.35" stroke-dasharray="3 2"/><text class="legend-network-name" x="372.5" y="156" font-size="1.8" fill="black">Acqua fredda sanitaria — andata</text><line class="legend-network" x1="362.5" y1="162.5" x2="370.5" y2="162.5" stroke="#5d6d7e" stroke-width="0.35" stroke-dasharray="3 2"/><text class="legend-network-name" x="372.5" y="163.5" font-size="1.8" fill="black">Acqua fredda sanitaria — ritorno</text><line class="legend-network" x1="362.5" y1="170" x2="370.5" y2="170" stroke="#d68910" stroke-width="0.35"/><text class="legend-network-name" x="372.5" y="171" font-size="1.8" fill="black">Acqua calda sanitaria — andata</text><line class="legend-network" x1="362.5" y1="177.5" x2="370.5" y2="177.5" stroke="#5dade2" stroke-width="0.35"/><text class="legend-network-name" x="372.5" y="178.5" font-size="1.8" fill="black">Acqua calda sanitaria — ritorno</text><line class="legend-network" x1="362.5" y1="185" x2="370.5" y2="185" stroke="#c0392b" stroke-width="0.35"/><text class="legend-network-name" x="372.5" y="186" font-size="1.8" fill="black">Acqua di riscaldamento — andata</text><line class="legend-network" x1="362.5" y1="192.5" x2="370.5" y2="192.5" stroke="#2471a3" stroke-width="0.35"/><text class="legend-network-name" x="372.5" y="193.5" font-size="1.8" fill="black">Acqua di riscaldamento — ritorno</text></svg>